<?xml version="1.0" encoding="UTF-8" standalone="no"?>
<!DOCTYPE svg PUBLIC "-//W3C//DTD SVG 1.1//EN" "http://www.w3.org/Graphics/SVG/1.1/DTD/svg11.dtd">
<svg width="100%" height="100%" viewBox="0 0 726 487" version="1.1" xmlns="http://www.w3.org/2000/svg" xmlns:xlink="http://www.w3.org/1999/xlink" xml:space="preserve" xmlns:serif="http://www.serif.com/" style="fill-rule:evenodd;clip-rule:evenodd;stroke-linejoin:round;stroke-miterlimit:1.5;">
    <g>
        <g>
            <g>
                <path d="M411.617,404.352L257.561,486.396L45.177,429.617L229.492,360.757L411.617,404.352Z" style="fill:rgb(238,238,238);"/>
                <path d="M411.617,404.352L257.561,486.396L45.177,429.617L229.492,360.757L411.617,404.352ZM405.784,405.098L229.625,362.931L52.011,429.287L257.306,484.172L405.784,405.098Z"/>
                <path d="M191.505,412.339L162.854,419.381L138.31,414.627L142.417,402.831L171.069,395.788L195.613,400.542L191.505,412.339Z" style="fill:rgb(50,50,50);"/>
                <path d="M316.564,404.574L287.912,411.616L263.368,406.862L267.476,395.066L296.127,388.024L320.671,392.778L316.564,404.574Z" style="fill:rgb(50,50,50);"/>
                <path d="M202.643,447.443L173.992,454.486L149.448,449.732L153.556,437.935L182.207,430.893L206.751,435.647L202.643,447.443Z" style="fill:rgb(50,50,50);"/>
                <path d="M302.973,440.705L274.322,447.747L249.778,442.993L253.885,431.197L282.537,424.155L307.081,428.909L302.973,440.705Z" style="fill:rgb(50,50,50);"/>
                <path d="M292.02,399.82L220.958,418.043L166.961,407.585" style="fill:none;stroke:rgb(50,50,50);stroke-width:1.56px;"/>
                <path d="M222.225,417.315L179.348,441.971" style="fill:none;stroke:rgb(50,50,50);stroke-width:1.56px;"/>
                <path d="M292.02,399.82L278.429,435.951" style="fill:none;stroke:rgb(50,50,50);stroke-width:1.56px;"/>
                <path d="M228.523,413.693C233.942,414.742 234.951,417.544 230.775,419.945C226.6,422.346 218.811,423.443 213.392,422.394C207.974,421.344 206.965,418.543 211.14,416.142C215.316,413.741 223.105,412.643 228.523,413.693Z" style="fill:white;"/>
                <path d="M228.523,413.693C233.942,414.742 234.951,417.544 230.775,419.945C226.6,422.346 218.811,423.443 213.392,422.394C207.974,421.344 206.965,418.543 211.14,416.142C215.316,413.741 223.105,412.643 228.523,413.693ZM228.226,415.227C223.144,414.242 215.835,415.244 211.919,417.496C211.267,417.871 210.768,418.247 210.435,418.633C210.24,418.859 210.064,419.039 210.139,419.245C210.24,419.526 210.544,419.73 210.937,419.952C211.611,420.333 212.535,420.636 213.689,420.86C218.771,421.844 226.08,420.842 229.996,418.59C230.648,418.215 231.148,417.84 231.481,417.453C231.675,417.228 231.851,417.048 231.777,416.841C231.676,416.56 231.372,416.357 230.979,416.135C230.304,415.753 229.38,415.45 228.226,415.227Z" style="fill:rgb(50,50,50);"/>
            </g>
        </g>
        <g id="Process">
            <g>
                <g id="Connectors">
                    <path d="M45.521,75L165.718,127.115" style="fill:none;stroke:rgb(193,193,193);stroke-width:1.04px;stroke-linecap:round;"/>
                    <path d="M175.521,75L218.158,117.691" style="fill:none;stroke:rgb(193,193,193);stroke-width:1.04px;stroke-linecap:round;"/>
                    <path d="M295.339,75L260.067,120.691" style="fill:none;stroke:rgb(193,193,193);stroke-width:1.04px;stroke-linecap:round;"/>
                    <path d="M390.521,75L296.277,129.115" style="fill:none;stroke:rgb(193,193,193);stroke-width:1.04px;stroke-linecap:round;"/>
                    <path d="M160.521,199.115L120.521,259.115" style="fill:none;stroke:rgb(193,193,193);stroke-width:1.04px;stroke-linecap:round;"/>
                    <path d="M295.521,209.115L325.521,239.115" style="fill:none;stroke:rgb(193,193,193);stroke-width:1.04px;stroke-linecap:round;"/>
                    <path d="M245.521,221.545L262.521,281.654" style="fill:none;stroke:rgb(193,193,193);stroke-width:1.04px;stroke-linecap:round;"/>
                    <path d="M200.521,207.115L195.521,237.115" style="fill:none;stroke:rgb(193,193,193);stroke-width:1.04px;stroke-linecap:round;"/>
                    <path d="M35.177,199.115L105.177,407.201" style="fill:none;stroke:rgb(100,93,93);stroke-width:1.04px;stroke-linecap:round;"/>
                    <path d="M413.568,229.115L335.177,386.055" style="fill:none;stroke:rgb(100,93,93);stroke-width:1.04px;stroke-linecap:round;"/>
                    <path d="M407.244,153.034L326.746,384.036" style="fill:none;stroke:rgb(100,93,93);stroke-width:1.04px;stroke-linecap:round;"/>
                </g>
                <path d="M330.715,159.131L379.319,141.772L375.014,138L399.289,139.949L381.741,156.835L382.683,151.189L333.638,168.706C333.32,165.42 332.324,162.217 330.715,159.131Z" style="fill:rgb(151,151,151);"/>
                <path d="M330.521,183.236C332.173,180.168 333.219,176.984 333.593,173.715L382.683,191.247L381.741,185.601L399.289,202.487L375.014,204.436L379.319,200.664L330.521,183.236Z" style="fill:rgb(151,151,151);"/>
                <path d="M330.521,183.236C332.173,180.168 333.219,176.984 333.593,173.715L382.683,191.247L381.741,185.601L399.289,202.487L375.014,204.436L379.319,200.664L330.521,183.236Z" style="fill:rgb(151,151,151);"/>
            </g>
            <path d="M65.521,174.115L65.521,164.115L104.784,164.115L101.81,159.115L125.521,169.115L101.81,179.115L104.784,174.115L65.521,174.115Z" style="fill:rgb(151,151,151);"/>
            <path d="M215.521,219.115C265.121,219.115 309.133,205.288 324.706,184.813C339.366,165.538 323.95,144.348 286.462,132.245C251.463,120.946 203.746,120.676 168.083,131.576C134.957,141.7 120.494,159.918 132.203,176.771C143.015,192.334 175.558,203.129 212.936,203.551C247.215,203.939 278.203,194.727 289.812,180.699C300.371,167.939 290.924,153.673 266.375,145.309C244.267,137.775 213.541,137.254 190.149,144.015C169.34,150.03 159.745,161.168 166.346,171.646C172.128,180.824 190.793,187.356 212.651,187.851C231.412,188.276 248.686,183.423 255.503,175.812C261.196,169.457 256.875,162.231 244.785,157.886C235.085,154.4 221.336,154.01 210.678,156.92C202.646,159.113 198.752,163.298 201.019,167.302C202.545,169.997 207.873,171.963 214.237,172.18C217.51,172.291 220.579,171.477 221.849,170.161C221.853,170.157 221.857,170.153 221.86,170.148" style="fill:none;stroke:rgb(151,151,151);stroke-width:1.98px;stroke-linecap:round;"/>
            <path d="M119.297,263.889L124.91,281.164L143.074,281.164L128.379,291.84L133.992,309.115L119.297,298.438L104.603,309.115L110.215,291.84L95.521,281.164L113.684,281.164L119.297,263.889Z" style="fill:white;stroke:black;stroke-width:2.08px;stroke-linecap:round;"/>
            <path d="M194.78,241.277L200.392,258.551L218.556,258.551L203.861,269.227L209.474,286.502L194.78,275.826L180.085,286.502L185.698,269.227L171.003,258.551L189.167,258.551L194.78,241.277Z" style="fill:white;stroke:black;stroke-width:2.08px;stroke-linecap:round;"/>
            <path d="M264.262,286.502L269.875,303.777L288.038,303.777L273.344,314.453L278.957,331.727L264.262,321.051L249.567,331.727L255.18,314.453L240.486,303.777L258.649,303.777L264.262,286.502Z" style="fill:white;stroke:black;stroke-width:2.08px;stroke-linecap:round;"/>
            <path d="M326.744,241.277L332.357,258.551L350.521,258.551L335.826,269.227L341.439,286.502L326.744,275.826L312.05,286.502L317.663,269.227L302.968,258.551L321.132,258.551L326.744,241.277Z" style="fill:white;stroke:black;stroke-width:2.08px;stroke-linecap:round;"/>
            <circle cx="430.521" cy="134.115" r="30" style="fill:white;"/>
            <clipPath id="_clip1">
                <circle cx="430.521" cy="134.115" r="30"/>
            </clipPath>
            <g clip-path="url(#_clip1)">
                <g>
                    <path d="M425.879,112.057C426.253,111.39 427.096,111.153 427.764,111.528C428.431,111.903 428.668,112.745 428.293,113.413L427.261,115.253L454.724,130.669C455.224,130.949 455.402,131.584 455.122,132.083L444.238,151.472C443.958,151.971 443.323,152.15 442.824,151.869L415.36,136.453L409.629,146.664C409.254,147.332 408.411,147.569 407.744,147.194C407.076,146.819 406.839,145.976 407.214,145.309L425.879,112.057ZM442.05,140.655L446.52,143.164L449.382,138.064L444.912,135.555L442.05,140.655ZM437.78,146.656L440.98,140.956L436.011,138.166L432.811,143.867L437.78,146.656ZM444.612,134.486L447.647,129.079L442.678,126.289L439.643,131.697L444.612,134.486ZM426.472,140.309L429.672,134.608L424.7,131.817L421.5,137.518L426.472,140.309ZM430.741,134.308L435.711,137.097L438.573,131.997L433.604,129.208L430.741,134.308ZM433.304,128.138L436.339,122.731L431.367,119.94L428.332,125.347L433.304,128.138ZM424.402,130.749L427.265,125.65L422.856,123.175L419.993,128.275L424.402,130.749Z" style="fill-rule:nonzero;"/>
                </g>
            </g>
            <circle cx="430.521" cy="134.115" r="30" style="fill:none;stroke:black;stroke-width:1.04px;stroke-linecap:round;"/>
            <circle cx="430.521" cy="204.367" r="30" style="fill:white;"/>
            <clipPath id="_clip2">
                <circle cx="430.521" cy="204.367" r="30"/>
            </clipPath>
            <g clip-path="url(#_clip2)">
                <g>
                    <path d="M425.879,182.31C426.253,181.642 427.096,181.405 427.764,181.78C428.431,182.155 428.668,182.998 428.293,183.665L427.261,185.505L454.724,200.921C455.224,201.202 455.402,201.836 455.122,202.335L444.238,221.724C443.958,222.223 443.323,222.402 442.824,222.121L415.36,206.705L409.629,216.917C409.254,217.584 408.411,217.821 407.744,217.446C407.076,217.072 406.839,216.229 407.214,215.561L425.879,182.31ZM442.05,210.907L446.52,213.416L449.382,208.317L444.912,205.808L442.05,210.907ZM437.78,216.908L440.98,211.208L436.011,208.419L432.811,214.119L437.78,216.908ZM444.612,204.738L447.647,199.331L442.678,196.541L439.643,201.949L444.612,204.738ZM426.472,210.561L429.672,204.86L424.7,202.069L421.5,207.77L426.472,210.561ZM430.741,204.56L435.711,207.349L438.573,202.249L433.604,199.46L430.741,204.56ZM433.304,198.39L436.339,192.983L431.367,190.192L428.332,195.6L433.304,198.39ZM424.402,201.001L427.265,195.902L422.856,193.427L419.993,198.527L424.402,201.001Z" style="fill-rule:nonzero;"/>
                </g>
            </g>
            <circle cx="430.521" cy="204.367" r="30" style="fill:none;stroke:black;stroke-width:1.04px;stroke-linecap:round;"/>
            <circle cx="30.521" cy="169.115" r="30" style="fill:white;"/>
            <clipPath id="_clip3">
                <circle cx="30.521" cy="169.115" r="30"/>
            </clipPath>
            <g clip-path="url(#_clip3)">
                <clipPath id="_clip4">
                    <rect x="9.49" y="149.115" width="40.03" height="40"/>
                </clipPath>
                <g clip-path="url(#_clip4)">
                    <path d="M9.969,182.562C9.881,180.569 11.315,178.09 13.654,177.184L16.951,177.149L17.044,177.242C15.884,178.786 15.407,180.279 15.143,181.225C14.736,182.679 15.717,183.868 17.238,183.531C18.303,183.294 19.926,182.711 21.435,181.629C21.442,181.636 21.449,181.642 21.456,181.647L21.422,184.923C20.564,187.07 18.353,188.667 16.098,188.741C16.407,187.605 17.685,185.055 15.897,186.229C14.643,187.051 12.367,188.338 10.681,187.979C10.064,184.76 14.197,181.331 11.69,181.936C11.129,182.072 10.552,182.297 9.969,182.562Z" style="fill:rgb(216,24,43);"/>
                    <path d="M49.341,149.215C49.669,149.475 49.513,150.437 49.163,151.581C48.657,153.23 47.796,155.417 47.544,155.959C46.735,157.692 45.604,159.557 44.268,161.455L37.179,154.366C39.081,153.038 40.949,151.911 42.679,151.097C43.196,150.854 45.319,150.033 46.962,149.524C48.088,149.176 49.053,148.986 49.341,149.215ZM43.253,162.852C41.721,164.895 39.989,166.947 38.199,168.88C35.222,172.095 32.081,174.991 29.444,176.993L29.353,181.521C29.351,181.631 29.303,181.732 29.229,181.807L22.047,188.99C21.888,189.149 21.638,189.157 21.489,189.008C21.409,188.928 21.374,188.82 21.383,188.712L21.456,181.647C21.444,181.638 21.432,181.628 21.421,181.617L16.951,177.149L9.893,177.222C9.785,177.231 9.677,177.196 9.597,177.116C9.448,176.967 9.456,176.717 9.615,176.558L16.797,169.375C16.873,169.302 16.974,169.254 17.084,169.252L21.693,169.16C23.559,166.605 26.293,163.611 29.359,160.752C31.402,158.847 33.594,157 35.778,155.377L43.253,162.852Z"/>
                </g>
            </g>
            <circle cx="30.521" cy="169.115" r="30" style="fill:none;stroke:black;stroke-width:1.04px;stroke-linecap:round;"/>
            <g id="Actors">
                <path d="M388.373,8.335C389.409,8.335 390.347,8.755 391.026,9.434C391.704,10.113 392.125,11.051 392.125,12.087C392.125,13.123 391.704,14.061 391.026,14.74C390.626,15.139 390.142,15.444 389.608,15.63L389.608,19.573L389.608,19.595L399.922,19.595C403.714,19.595 406.816,22.697 406.816,26.49L406.816,40.193C406.816,43.985 403.714,47.088 399.922,47.088L392.118,47.088L392.118,50.352L392.772,50.352C393.406,50.352 393.982,50.611 394.398,51.028C394.431,51.06 394.461,51.094 394.489,51.129C394.849,51.534 395.07,52.064 395.074,52.641L397.415,52.641C400.783,55.803 400.71,63.635 400.663,68.742L400.659,69.115L376.116,69.115L376.107,68.346C376.095,67.31 376.082,66.181 376.099,65.013C376.114,64.965 376.122,64.915 376.122,64.862C376.122,64.815 376.116,64.77 376.104,64.726C376.186,60.215 376.737,55.199 379.481,52.776C379.525,52.738 379.561,52.692 379.588,52.641L381.629,52.641C381.632,52.018 381.89,51.449 382.304,51.032L382.312,51.025C382.73,50.61 383.303,50.352 383.93,50.352L384.432,50.352L384.432,47.088L376.781,47.088C372.988,47.088 369.886,43.985 369.886,40.193L369.886,26.49C369.886,22.697 372.988,19.595 376.781,19.595L387.137,19.595L387.137,19.573L387.137,15.63C386.604,15.444 386.119,15.139 385.72,14.74C385.041,14.061 384.621,13.123 384.621,12.087C384.621,11.051 385.041,10.113 385.72,9.434C386.399,8.755 387.337,8.335 388.373,8.335ZM383.12,57.986L393.694,57.986C394.552,57.986 395.254,58.688 395.254,59.545L395.254,62.459C395.254,63.316 394.552,64.018 393.694,64.018L383.12,64.018C382.263,64.018 381.561,63.317 381.561,62.459L381.561,59.545C381.561,58.687 382.263,57.986 383.12,57.986ZM384.328,60.199C384.768,60.199 385.131,60.562 385.131,61.002C385.131,61.443 384.768,61.805 384.328,61.805C383.892,61.798 383.538,61.438 383.538,61.002C383.538,60.567 383.892,60.206 384.328,60.199ZM392.487,60.199C392.927,60.199 393.29,60.562 393.29,61.002C393.29,61.443 392.927,61.805 392.487,61.805C392.051,61.798 391.697,61.438 391.697,61.002C391.697,60.567 392.051,60.206 392.487,60.199ZM369.438,64.368L369.438,61.978C369.438,57.031 373.333,52.954 378.209,52.659C375.781,55.403 375.227,60.091 375.126,64.368L369.438,64.368ZM375.13,69.115L370.674,69.115C369.992,69.115 369.438,68.561 369.438,67.879L369.438,65.356L375.11,65.356C375.1,66.405 375.112,67.416 375.122,68.354C375.125,68.605 375.128,68.85 375.13,69.115ZM398.773,52.67C403.571,53.047 407.376,57.087 407.376,61.978L407.376,64.368L401.63,64.368C401.51,60.12 400.959,55.43 398.773,52.67ZM407.376,65.356L407.376,67.879C407.376,68.561 406.823,69.115 406.141,69.115L401.644,69.115L401.647,68.75C401.657,67.709 401.668,66.559 401.65,65.356L407.376,65.356ZM383.12,56.75L393.694,56.75C394.46,56.75 395.158,57.065 395.667,57.573L395.669,57.57C396.175,58.076 396.489,58.775 396.489,59.545L396.489,62.459C396.489,63.223 396.175,63.921 395.669,64.429L395.661,64.437C395.153,64.941 394.457,65.254 393.694,65.254L383.12,65.254C382.35,65.254 381.651,64.94 381.145,64.434C381.116,64.404 381.088,64.373 381.062,64.341C380.605,63.842 380.325,63.18 380.325,62.459L380.325,59.545C380.325,58.779 380.639,58.081 381.145,57.575L381.148,57.573L381.145,57.57C381.651,57.064 382.35,56.75 383.12,56.75ZM383.93,51.588L392.772,51.588C393.354,51.588 393.831,52.061 393.838,52.641L382.865,52.641C382.871,52.061 383.348,51.588 383.93,51.588ZM368.898,27.002L369.021,27.002L369.021,39.619L368.898,39.619C366.762,39.619 365.137,37.871 365.137,35.735L365.137,30.886C365.137,28.75 366.762,27.002 368.898,27.002ZM407.651,27.002L407.529,27.002L407.529,39.619L407.651,39.619C409.788,39.619 411.413,37.871 411.413,35.735L411.413,30.886C411.413,28.75 409.788,27.002 407.651,27.002ZM380.208,27.215C381.571,27.215 382.805,27.768 383.699,28.661C384.592,29.554 385.144,30.789 385.144,32.152C385.144,33.515 384.592,34.749 383.699,35.642C382.805,36.536 381.571,37.088 380.208,37.088C378.845,37.088 377.611,36.536 376.717,35.642C375.824,34.749 375.271,33.515 375.271,32.152C375.271,30.789 375.824,29.554 376.717,28.661C377.611,27.768 378.845,27.215 380.208,27.215ZM396.495,27.215C397.858,27.215 399.092,27.768 399.985,28.661C400.879,29.554 401.431,30.789 401.431,32.152C401.431,33.515 400.879,34.749 399.985,35.642C399.092,36.536 397.858,37.088 396.495,37.088C395.132,37.088 393.897,36.536 393.004,35.642C392.111,34.749 391.558,33.515 391.558,32.152C391.558,30.789 392.111,29.554 393.004,28.661C393.897,27.768 395.132,27.215 396.495,27.215ZM396.495,29.296C398.072,29.296 399.35,30.575 399.35,32.152C399.35,33.729 398.072,35.007 396.495,35.007C394.918,35.007 393.639,33.729 393.639,32.152C393.639,30.575 394.918,29.296 396.495,29.296ZM396.495,27.956C398.812,27.956 400.69,29.835 400.69,32.152C400.69,34.468 398.812,36.347 396.495,36.347C394.178,36.347 392.299,34.468 392.299,32.152C392.299,29.835 394.178,27.956 396.495,27.956ZM380.208,29.296C381.785,29.296 383.063,30.575 383.063,32.152C383.063,33.729 381.785,35.007 380.208,35.007C378.631,35.007 377.353,33.729 377.353,32.152C377.353,30.575 378.631,29.296 380.208,29.296ZM380.208,27.956C382.525,27.956 384.403,29.835 384.403,32.152C384.403,34.468 382.525,36.347 380.208,36.347C377.891,36.347 376.013,34.468 376.013,32.152C376.013,29.835 377.891,27.956 380.208,27.956ZM392.099,39.778C392.501,39.785 392.827,40.117 392.827,40.519C392.827,40.921 392.501,41.253 392.099,41.261L384.603,41.261C384.202,41.253 383.875,40.921 383.875,40.519C383.875,40.117 384.202,39.785 384.603,39.778L392.099,39.778ZM390.358,21.779C390.362,21.779 390.365,21.779 390.369,21.779C390.853,21.779 391.251,22.178 391.251,22.662C391.251,23.146 390.853,23.544 390.369,23.544C390.365,23.544 390.362,23.544 390.358,23.544C389.878,23.538 389.486,23.142 389.486,22.662C389.486,22.182 389.878,21.785 390.358,21.779ZM386.344,21.779C386.828,21.779 387.226,22.178 387.226,22.662C387.226,23.146 386.828,23.544 386.344,23.544C386.344,23.544 386.344,23.544 386.344,23.544C385.86,23.544 385.462,23.146 385.462,22.662L385.462,22.661C385.462,22.178 385.86,21.779 386.344,21.779C386.344,21.779 386.344,21.779 386.344,21.779Z"/>
                <clipPath id="_clip5">
                    <rect x="259.353" y="17.846" width="71.973" height="60.78"/>
                </clipPath>
                <g clip-path="url(#_clip5)">
                    <g>
                        <path d="M309.929,35.377C309.484,35.594 309.045,35.828 308.606,36.086C307.288,36.859 305.988,37.802 304.658,38.885L301.829,35.641C302.807,34.733 303.867,33.907 304.992,33.175C305.888,32.589 306.825,32.068 307.792,31.623C308.178,31.429 308.565,31.248 308.963,31.078C307.095,27.769 304.406,25.396 301.36,23.932C298.315,22.474 294.906,21.911 291.585,22.233C288.287,22.55 285.083,23.751 282.436,25.806C279.378,28.179 277.047,31.728 276.151,36.431L275.876,37.901L274.412,38.159C272.977,38.411 271.7,38.757 270.569,39.196C269.48,39.618 268.508,40.139 267.658,40.754C266.979,41.246 266.393,41.796 265.895,42.394C264.349,44.239 263.634,46.552 263.652,48.89C263.669,51.268 264.443,53.669 265.872,55.649C266.399,56.381 267.02,57.054 267.723,57.64C268.437,58.232 269.24,58.724 270.142,59.093C270.874,59.391 271.67,59.626 272.537,59.784L272.537,64.136C271.067,63.931 269.726,63.573 268.508,63.07C267.178,62.519 266.001,61.81 264.964,60.944C263.98,60.124 263.119,59.192 262.387,58.179C260.43,55.479 259.376,52.187 259.353,48.907C259.329,45.592 260.36,42.294 262.586,39.623C263.306,38.757 264.156,37.96 265.128,37.257C266.258,36.437 267.553,35.746 269.011,35.178C270.019,34.785 271.096,34.457 272.233,34.194C273.521,29.081 276.268,25.133 279.8,22.392C283.104,19.832 287.081,18.338 291.175,17.946C295.251,17.554 299.445,18.245 303.211,20.055C307.323,22.028 310.908,25.314 313.233,29.936C314.17,29.789 315.107,29.719 316.038,29.725C319.975,29.748 323.764,31.16 326.757,34.381C327.384,35.055 327.975,35.816 328.526,36.666C330.4,39.547 331.361,43.395 331.32,47.162C331.279,50.858 330.283,54.536 328.245,57.242C326.921,59.011 325.211,60.446 323.167,61.588C321.199,62.689 318.903,63.527 316.325,64.124L315.845,64.183L313.924,64.183L313.924,59.866L315.617,59.866C317.684,59.368 319.512,58.694 321.064,57.828C322.604,56.967 323.864,55.918 324.807,54.659C326.271,52.708 326.991,49.95 327.021,47.121C327.056,44.151 326.33,41.176 324.918,39.003C324.514,38.376 324.069,37.814 323.6,37.31C321.486,35.031 318.803,34.036 316.015,34.018C314,34.018 311.909,34.498 309.929,35.377ZM308.237,51.109C308.196,51.109 308.161,51.115 308.12,51.115L280.415,51.115C280.374,51.115 280.333,51.115 280.298,51.109C280.169,51.133 280.046,51.197 279.958,51.291C279.841,51.408 279.765,51.572 279.765,51.748L279.765,59.485C279.765,59.661 279.841,59.825 279.958,59.942C280.075,60.059 280.239,60.135 280.415,60.135L308.114,60.135C308.289,60.135 308.453,60.059 308.571,59.942C308.688,59.825 308.764,59.661 308.764,59.485L308.764,51.748C308.764,51.572 308.688,51.408 308.571,51.291C308.483,51.197 308.366,51.133 308.237,51.109ZM303.393,53.868C304.459,53.868 305.326,54.735 305.326,55.801C305.326,56.867 304.459,57.734 303.393,57.734C302.327,57.734 301.46,56.867 301.46,55.801C301.46,54.735 302.321,53.868 303.393,53.868ZM308.237,62.22C308.196,62.22 308.161,62.226 308.12,62.226L280.415,62.226C280.374,62.226 280.333,62.226 280.298,62.22C280.169,62.244 280.046,62.308 279.958,62.402C279.841,62.519 279.765,62.683 279.765,62.859L279.765,70.596C279.765,70.772 279.841,70.936 279.958,71.053C280.075,71.17 280.239,71.246 280.415,71.246L308.114,71.246C308.289,71.246 308.453,71.17 308.571,71.053C308.688,70.936 308.764,70.772 308.764,70.596L308.764,62.859C308.764,62.683 308.688,62.519 308.571,62.402C308.483,62.308 308.366,62.244 308.237,62.22ZM282.524,64.622L284.152,64.622L284.152,68.833L282.524,68.833L282.524,64.622ZM287.022,64.622L288.65,64.622L288.65,68.833L287.022,68.833L287.022,64.622ZM291.526,64.622L293.155,64.622L293.155,68.833L291.526,68.833L291.526,64.622ZM282.524,53.511L284.152,53.511L284.152,57.722L282.524,57.722L282.524,53.511ZM287.022,53.511L288.65,53.511L288.65,57.722L287.022,57.722L287.022,53.511ZM291.526,53.511L293.155,53.511L293.155,57.722L291.526,57.722L291.526,53.511Z" style="fill-rule:nonzero;"/>
                    </g>
                </g>
                <g>
                    <path d="M176.626,17.318C177.281,17.507 177.755,17.885 178.048,18.461C178.503,19.387 178.333,20.747 177.47,22.693C177.451,22.731 177.432,22.769 177.413,22.797L174.351,27.823C173.166,29.769 171.962,31.724 170.341,33.226C168.654,34.804 166.578,35.852 163.734,35.843C161.08,35.834 159.08,34.823 157.44,33.33C155.866,31.894 154.672,30.062 153.534,28.257L150.851,23.997C149.856,22.514 149.334,21.144 149.297,20.02C149.278,19.472 149.372,18.981 149.581,18.546C149.799,18.083 150.121,17.696 150.567,17.403C150.785,17.252 151.031,17.129 151.306,17.035C151.145,14.758 151.088,11.943 151.192,9.572C151.249,8.996 151.363,8.419 151.524,7.843C152.207,5.397 153.932,3.432 156.065,2.081C156.814,1.608 157.639,1.212 158.511,0.9C163.668,-0.961 170.512,0.059 174.171,4.008C175.66,5.614 176.598,7.749 176.797,10.564L176.626,17.318Z" style="fill:white;"/>
                    <path d="M195.322,62.926L197.265,55.541L195.927,54.082C195.322,53.206 195.195,52.437 195.527,51.776C196.249,50.346 197.753,50.608 199.159,50.608C200.633,50.608 202.449,50.326 202.908,52.165C203.064,52.778 202.869,53.42 202.44,54.082L201.102,55.541L202.264,59.978L209.968,53.303L213.961,53.401C212.584,50.647 210.837,48.312 208.806,46.113C212.633,47.592 216.549,49.051 219.448,50.861C221.294,52.009 222.241,52.885 222.993,54.276C224.575,57.244 224.75,59.9 224.985,63.111L225.541,65.894L203.826,65.894L203.846,65.962L195.536,65.962C195.351,67.86 194.257,68.959 192.119,69.115L138.973,69.115C136.825,68.949 135.732,67.85 135.556,65.933L136.298,54.218C136.503,51.513 137.265,49.373 138.505,47.738C139.325,46.658 140.34,45.86 141.463,45.237C145.027,43.262 153.346,42.678 156.578,39.779L161.528,54.286L164.018,45.675L162.798,44.342C162.251,43.544 162.124,42.844 162.436,42.24C163.1,40.937 164.467,41.18 165.746,41.18C167.084,41.18 168.734,40.927 169.154,42.6C169.291,43.155 169.115,43.739 168.724,44.342L167.504,45.675L169.994,54.286L174.475,39.779C177.707,42.678 186.036,43.262 189.59,45.237C190.713,45.86 191.738,46.658 192.549,47.738C193.789,49.373 194.55,51.503 194.755,54.218L195.322,62.926ZM120.47,46.94L123.79,56.66L125.46,50.89L124.64,49.995C124.269,49.46 124.191,48.993 124.396,48.584C124.835,47.709 125.753,47.874 126.612,47.874C127.51,47.874 128.614,47.709 128.897,48.828C128.994,49.197 128.867,49.596 128.614,49.995L127.793,50.89L129.463,56.66L132.47,46.94C132.91,47.329 133.515,47.66 134.228,47.942C133.984,48.458 133.759,49.003 133.564,49.567C133.056,51.036 132.724,52.671 132.588,54.491L132.597,54.491C132.597,54.529 132.588,54.578 132.588,54.617L131.865,65.884L107.836,65.884C106.391,65.777 105.658,65.038 105.541,63.753L106.039,56.612C106.176,54.802 106.693,53.372 107.523,52.272C108.07,51.552 108.754,51.017 109.505,50.599C111.888,49.275 118.303,48.886 120.47,46.94ZM118.84,33.162C118.518,33.192 118.274,33.26 118.098,33.376C118,33.445 117.922,33.532 117.873,33.629C117.815,33.746 117.795,33.902 117.795,34.067C117.815,34.602 118.098,35.322 118.654,36.149L118.664,36.169L120.519,39.107C121.261,40.275 122.033,41.472 122.99,42.347C123.898,43.175 125.001,43.739 126.466,43.739C128.047,43.739 129.199,43.155 130.147,42.279C131.133,41.355 131.914,40.09 132.685,38.825L134.765,35.41C135.185,34.456 135.312,33.882 135.175,33.61C135.087,33.445 134.745,33.396 134.179,33.445C133.818,33.522 133.437,33.454 133.037,33.25L134.081,30.136C130.264,30.088 127.657,29.426 124.562,27.461C123.546,26.818 123.243,26.079 122.228,26.147C121.457,26.293 120.812,26.634 120.304,27.188C119.816,27.714 119.445,28.434 119.201,29.358L119.816,33.085C119.504,33.279 119.172,33.299 118.84,33.162ZM135.37,32.238C135.819,32.374 136.151,32.627 136.347,33.026C136.659,33.659 136.542,34.602 135.946,35.945C135.937,35.974 135.927,35.994 135.907,36.023L133.798,39.487C132.978,40.83 132.148,42.172 131.035,43.213C129.873,44.303 128.438,45.023 126.475,45.013C124.64,45.013 123.263,44.313 122.13,43.282C121.047,42.289 120.217,41.024 119.435,39.779L117.58,36.84C116.887,35.809 116.536,34.875 116.506,34.096C116.496,33.717 116.555,33.376 116.702,33.085C116.848,32.763 117.073,32.501 117.385,32.296C117.531,32.199 117.707,32.112 117.893,32.043C117.776,30.467 117.736,28.521 117.815,26.887C117.854,26.488 117.932,26.089 118.039,25.69C118.518,24.006 119.699,22.644 121.173,21.71C121.691,21.379 122.257,21.107 122.863,20.893C126.426,19.608 131.143,20.309 133.671,23.033C134.697,24.143 135.351,25.612 135.488,27.558L135.37,32.238ZM154.02,19.229C153.61,19.278 153.287,19.385 153.053,19.54C152.907,19.638 152.789,19.774 152.721,19.92C152.643,20.095 152.604,20.319 152.604,20.572C152.623,21.379 153.053,22.44 153.893,23.666L153.912,23.685L156.675,28.074C157.779,29.825 158.931,31.606 160.357,32.9C161.714,34.135 163.364,34.972 165.531,34.982C167.894,34.992 169.613,34.116 171.019,32.812C172.493,31.44 173.665,29.543 174.817,27.655L177.922,22.557C178.547,21.136 178.742,20.28 178.537,19.871C178.41,19.608 177.863,19.55 176.946,19.638C176.877,19.647 176.809,19.647 176.741,19.638C176.36,19.638 175.95,19.54 175.501,19.336L176.897,14.685C171.195,14.617 167.299,13.625 162.69,10.686C161.177,9.723 160.718,8.623 159.204,8.73C158.062,8.954 157.095,9.46 156.334,10.277C155.601,11.066 155.045,12.136 154.684,13.508L155.67,19.132C155.084,19.433 154.537,19.453 154.02,19.229ZM178.82,17.838C179.494,18.032 179.982,18.421 180.285,19.015C180.754,19.969 180.578,21.37 179.689,23.374C179.67,23.413 179.65,23.452 179.631,23.481L176.477,28.657C175.256,30.662 174.016,32.676 172.347,34.223C170.609,35.848 168.47,36.928 165.541,36.918C162.807,36.908 160.747,35.867 159.058,34.33C157.437,32.851 156.207,30.963 155.035,29.105L152.272,24.717C151.247,23.189 150.71,21.778 150.671,20.62C150.651,20.056 150.749,19.55 150.964,19.103C151.188,18.626 151.52,18.227 151.979,17.925C152.204,17.77 152.457,17.643 152.741,17.546C152.575,15.201 152.516,12.301 152.623,9.859C152.682,9.266 152.799,8.672 152.965,8.078C153.668,5.558 155.445,3.535 157.642,2.143C158.413,1.657 159.263,1.248 160.161,0.927C165.473,-0.99 172.523,0.061 176.291,4.128C177.824,5.782 178.791,7.981 178.996,10.881L178.82,17.838ZM188.418,41.793L190.859,41.725L192.881,41.676C190.518,34.427 191.309,27.762 197.001,22.099C197.968,25.213 200.125,27.772 203.806,29.669C205.564,30.973 207.273,32.549 208.913,34.349C209.206,33.153 208.093,31.693 206.736,30.195C207.985,30.808 209.138,31.674 209.948,33.328C210.895,35.254 210.876,36.869 210.573,38.961C210.426,39.934 210.192,40.839 209.85,41.666L213.219,41.666C216.773,34.087 214.518,22.849 207.253,18.081C205.027,16.621 203.426,16.67 200.809,16.68C197.811,16.68 196.288,16.777 193.72,18.46C189.942,20.951 187.618,25.262 186.641,31.246C186.456,34.233 186.329,39.39 188.418,41.793Z"/>
                </g>
                <clipPath id="_clip6">
                    <rect x="19.353" y="6.115" width="52.377" height="63"/>
                </clipPath>
                <g clip-path="url(#_clip6)">
                    <g>
                        <path d="M41.378,7.412C44.352,5.397 47.741,5.843 50.54,7.976C51.273,8.54 51.904,9.232 52.401,10.068C52.827,10.78 53.57,12.236 52.181,12.462C51.632,12.549 50.678,11.806 49.94,11.565C48.992,11.257 48.018,11.062 47.049,10.96C45.249,10.775 43.475,10.924 41.952,11.344C41.127,11.575 40.322,11.852 39.553,12.205C39.194,12.37 38.461,12.862 38.261,12.231C37.794,10.785 40.312,8.135 41.378,7.412ZM43.501,43.875C43.224,43.777 43.08,43.47 43.183,43.193C43.285,42.916 43.588,42.772 43.865,42.875C44.449,43.085 45.023,43.177 45.577,43.167C46.131,43.157 46.679,43.039 47.218,42.834C47.495,42.731 47.797,42.87 47.905,43.142C48.007,43.418 47.869,43.721 47.597,43.829C46.951,44.075 46.29,44.213 45.603,44.228C44.911,44.244 44.213,44.131 43.501,43.875ZM54.898,46.356C58.953,47.925 62.214,49.135 65.28,51.058C67.233,52.278 68.238,53.201 69.033,54.687C70.709,57.835 70.894,60.66 71.145,64.075L71.73,69.12L63.239,69.12L62.281,64.736L61.589,69.12L31.058,69.12L30.135,64.736L29.417,69.12L19.353,69.12L19.937,64.075C20.188,60.66 20.373,57.835 22.05,54.687C22.839,53.206 23.844,52.288 25.802,51.058C28.868,49.135 32.093,47.94 36.149,46.366C38.276,55.046 54.898,52.606 54.898,46.356ZM49.381,34.098C49.181,33.954 49.135,33.677 49.269,33.477C49.407,33.267 49.694,33.216 49.899,33.354C50.248,33.585 50.832,33.708 51.447,33.698C52.032,33.687 52.622,33.559 53.047,33.282C53.257,33.149 53.539,33.205 53.673,33.421C53.77,33.667 53.724,33.877 53.534,34.046C52.15,34.687 50.766,34.744 49.381,34.098ZM37.425,34.108C37.241,33.923 37.118,33.728 37.292,33.467C37.43,33.257 37.717,33.205 37.923,33.344C38.302,33.6 38.871,33.708 39.45,33.703C40.091,33.698 40.748,33.549 41.173,33.298C41.394,33.17 41.67,33.247 41.793,33.462C41.824,33.58 41.824,33.693 41.799,33.8C41.706,34.144 41.378,34.185 41.071,34.292C40.45,34.508 39.937,34.621 39.415,34.61C38.815,34.6 38.21,34.441 37.425,34.108ZM49.807,31.462C49.602,31.606 49.32,31.56 49.176,31.355C49.033,31.15 49.079,30.868 49.284,30.724C50.14,30.119 51.017,29.806 51.909,29.801C52.806,29.796 53.698,30.104 54.595,30.719C54.806,30.862 54.852,31.15 54.713,31.35C54.57,31.56 54.283,31.606 54.083,31.467C53.344,30.96 52.622,30.709 51.919,30.714C51.207,30.709 50.504,30.965 49.807,31.462ZM37.015,31.462C36.81,31.606 36.528,31.56 36.384,31.355C36.241,31.15 36.287,30.868 36.492,30.724C37.348,30.119 38.225,29.806 39.117,29.801C40.014,29.796 40.906,30.104 41.804,30.719C42.014,30.862 42.06,31.15 41.922,31.35C41.778,31.56 41.491,31.606 41.291,31.467C40.553,30.96 39.83,30.709 39.127,30.714C38.42,30.709 37.717,30.965 37.015,31.462ZM31.268,29.212C31.396,29.13 31.545,29.094 31.688,29.104C31.437,27.807 31.473,26.561 31.529,25.105C31.668,21.296 32.632,18.25 35.636,15.605C40.168,11.616 49.14,11.267 54.129,14.702C54.867,15.21 55.554,15.815 56.175,16.522C58.2,18.845 60.004,23.946 59.963,27.094C59.953,27.822 59.835,28.56 59.589,29.314C59.579,29.391 59.563,29.468 59.543,29.56C60.092,29.904 60.517,30.329 60.835,30.806C61.301,31.519 61.507,32.339 61.455,33.205C61.409,34.036 61.122,34.908 60.609,35.764C60.009,36.753 59.092,37.727 57.872,38.558C56.805,41.045 55.313,43.536 53.509,45.536C51.991,47.217 50.248,48.556 48.346,49.258C46.397,49.976 44.3,50.032 42.127,49.12C40.999,48.648 39.855,47.915 38.707,46.879C37.656,45.931 36.702,44.757 35.841,43.388C35.041,42.121 34.323,40.686 33.672,39.107C33.385,39.019 33.108,38.912 32.852,38.794C32.483,38.625 32.144,38.42 31.837,38.184C30.935,37.492 30.34,36.553 29.991,35.518C29.607,34.364 29.535,33.088 29.689,31.914C29.771,31.303 29.94,30.775 30.191,30.334C30.463,29.873 30.817,29.499 31.268,29.212ZM32.021,30.365L32.006,30.375C31.755,30.534 31.55,30.75 31.396,31.027C31.232,31.314 31.119,31.678 31.058,32.103C30.924,33.082 30.981,34.144 31.299,35.087C31.56,35.877 32.006,36.584 32.673,37.092C32.908,37.271 33.16,37.425 33.431,37.553C33.708,37.681 34.011,37.789 34.339,37.871C34.564,37.922 34.734,38.086 34.816,38.286C35.472,39.922 36.2,41.388 37.005,42.665C37.8,43.926 38.671,44.997 39.63,45.864C40.66,46.792 41.67,47.443 42.66,47.858C44.48,48.627 46.238,48.576 47.869,47.976C49.545,47.361 51.109,46.156 52.483,44.628C54.221,42.706 55.662,40.27 56.677,37.845C56.738,37.707 56.831,37.599 56.949,37.522C58.082,36.779 58.907,35.923 59.43,35.061C59.825,34.405 60.04,33.754 60.081,33.144C60.112,32.565 59.984,32.031 59.686,31.575C59.528,31.334 59.322,31.109 59.066,30.914C58.548,32.093 57.677,33.641 56.554,35.179L56.554,28.13C53.324,26.633 51.212,23.341 50.13,18.394C48.843,27.812 37.282,27.407 34.375,29.119L34.375,34.615C33.821,33.841 33.329,33.052 32.883,32.252C32.503,31.58 32.221,30.96 32.021,30.365Z"/>
                    </g>
                </g>
            </g>
        </g>
        <g id="Abstraction">
        </g>
        <g id="Activity-Connectors" serif:id="Activity Connectors">
            <path d="M120.583,306.115L153.244,397.115" style="fill:none;stroke:rgb(100,93,93);stroke-width:1.04px;stroke-linecap:round;"/>
            <path d="M195.025,284.057L167.244,392.571" style="fill:none;stroke:rgb(100,93,93);stroke-width:1.04px;stroke-linecap:round;"/>
            <path d="M195.199,284.057L220.606,409.115" style="fill:none;stroke:rgb(100,93,93);stroke-width:1.04px;stroke-linecap:round;"/>
            <path d="M264.531,329.115L227.244,409.115" style="fill:none;stroke:rgb(100,93,93);stroke-width:1.04px;stroke-linecap:round;"/>
            <path d="M264.531,329.115L254.232,425.378" style="fill:none;stroke:rgb(100,93,93);stroke-width:1.04px;stroke-linecap:round;"/>
            <path d="M327.244,284.28L297.244,385.38" style="fill:none;stroke:rgb(100,93,93);stroke-width:1.04px;stroke-linecap:round;"/>
        </g>
        <g id="Process-Model" serif:id="Process Model">
            <g transform="matrix(0.9,0,0,1,-174.197241,0)">
                <g transform="matrix(27.083333,0,0,27.083333,929.389679,44.366667)">
                </g>
                <text x="769.815px" y="44.367px" style="font-family:'HelveticaNeue-Medium', 'Helvetica Neue', sans-serif;font-weight:500;font-size:27.083px;">Organisation</text>
            </g>
            <g transform="matrix(0.9,0,0,1,-174.153,0)">
                <g transform="matrix(27.083333,0,0,27.083333,913.848856,237.111613)">
                </g>
                <text x="783.334px" y="237.112px" style="font-family:'HelveticaNeue-Medium', 'Helvetica Neue', sans-serif;font-weight:500;font-size:27.083px;">Pr<tspan x="810.445px 826.505px " y="237.112px 237.112px ">oc</tspan>esses</text>
            </g>
            <g transform="matrix(1,0,0,1,-1993.492364,382.974042)">
                <g transform="matrix(0.9,0,0,1,250.52424,0)">
                    <text x="2505.242px" y="40.822px" style="font-family:'HelveticaNeue-Medium', 'Helvetica Neue', sans-serif;font-weight:500;font-size:27.083px;">Subject Ar<tspan x="2635.188px 2650.247px " y="40.822px 40.822px ">ea</tspan>s</text>
                </g>
                <g transform="matrix(0.9,0,0,1,250.502302,0)">
                    <g transform="matrix(27.083333,0,0,27.083333,2679.629272,72.072205)">
                    </g>
                    <text x="2505.023px" y="72.072px" style="font-family:'HelveticaNeue-Medium', 'Helvetica Neue', sans-serif;font-weight:500;font-size:27.083px;">(W<tspan x="2537.631px 2553.692px " y="72.072px 72.072px ">or</tspan>ld Model)</text>
                </g>
            </g>
            <rect x="495.177" y="4.306" width="190" height="475.362" style="fill:none;stroke:rgb(138,1,1);stroke-width:2.08px;stroke-linecap:round;stroke-dasharray:20.833,20.833,0,0,0,0;"/>
            <g>
                <path d="M590.177,55L590.177,210" style="fill:none;stroke:rgb(193,193,193);stroke-width:6.25px;stroke-linecap:round;"/>
                <clipPath id="_clip7">
                    <rect x="560.177" y="102.5" width="60" height="60"/>
                </clipPath>
                <g clip-path="url(#_clip7)">
                    <path d="M603.299,114.647L603.299,150.36C603.299,157.064 597.856,162.507 591.152,162.507L589.33,162.507C582.626,162.507 577.183,157.064 577.183,150.36L577.183,114.647C577.183,107.943 582.626,102.5 589.33,102.5L591.152,102.5C597.856,102.5 603.299,107.943 603.299,114.647Z" style="fill:white;"/>
                    <path d="M580.291,132.625C580,131.966 579.776,131.279 579.623,130.574C579.459,129.82 579.376,129.049 579.375,128.277L579.375,116.186C579.375,113.197 580.597,110.48 582.566,108.511C586.82,104.258 593.662,104.258 597.916,108.511C599.885,110.48 601.107,113.197 601.107,116.186L601.107,128.277C601.108,129.775 600.796,131.256 600.191,132.627C600.472,133.265 600.69,133.929 600.842,134.61C601.018,135.388 601.106,136.183 601.107,136.98L601.107,149.071C601.107,155.02 596.19,159.937 590.241,159.937C584.292,159.937 579.375,155.02 579.375,149.071L579.375,136.98C579.375,135.434 579.703,133.96 580.291,132.625ZM595.245,137.91L595.245,148.764C595.245,150.199 594.659,151.503 593.714,152.448C591.673,154.489 588.388,154.489 586.347,152.448C585.402,151.503 584.816,150.199 584.816,148.764L584.816,136.92C584.816,135.8 585.163,134.729 585.823,133.824C587.164,131.984 588.524,131.856 589.895,131.728C590.625,131.659 591.358,131.591 592.011,131.158C592.537,130.809 592.973,130.321 593.278,129.76C593.524,129.306 593.683,128.805 593.73,128.294C587.595,125.8 580.877,130.437 580.877,136.98L580.877,149.071C580.877,154.194 585.118,158.435 590.241,158.435C595.364,158.435 599.605,154.194 599.605,149.071L599.605,136.98C599.605,136.274 599.528,135.592 599.382,134.942C599.338,134.746 599.287,134.552 599.231,134.359C598.215,135.853 596.846,137.073 595.245,137.91ZM593.744,126.699L593.744,116.126C593.743,115.106 593.326,114.178 592.652,113.504C592.649,113.501 592.646,113.498 592.643,113.495C591.21,112.062 588.851,112.062 587.418,113.495C587.415,113.498 587.412,113.501 587.409,113.504C586.736,114.178 586.318,115.106 586.318,116.126L586.318,126.851C588.701,125.921 591.33,125.874 593.744,126.699ZM584.816,127.575L584.816,116.126C584.816,114.691 585.402,113.387 586.347,112.442C588.388,110.401 591.674,110.401 593.714,112.442C594.659,113.387 595.245,114.691 595.245,116.126L595.246,126.832C595.246,128.204 595.316,129.147 594.593,130.478C594.177,131.245 593.574,131.916 592.841,132.402C591.864,133.05 590.948,133.136 590.036,133.221C589.001,133.318 587.973,133.415 587.03,134.708C586.577,135.33 586.332,136.083 586.318,136.851C587.385,137.37 588.683,137.619 589.996,137.626C591.424,137.635 592.854,137.361 594.017,136.844C595.685,136.102 597.101,134.885 598.093,133.365C599.048,131.9 599.605,130.151 599.605,128.277L599.605,116.186C599.605,113.612 598.551,111.271 596.853,109.574C593.186,105.906 587.296,105.906 583.629,109.574C581.931,111.271 580.877,113.612 580.877,116.186L580.877,128.277C580.876,128.942 580.947,129.605 581.087,130.255C581.134,130.47 581.189,130.684 581.25,130.895C582.172,129.54 583.398,128.397 584.816,127.575ZM586.318,138.482L586.318,148.764C586.318,149.784 586.736,150.712 587.409,151.385C587.412,151.388 587.415,151.391 587.418,151.394C588.851,152.828 591.21,152.828 592.643,151.394C592.646,151.391 592.649,151.388 592.652,151.385C593.325,150.712 593.743,149.784 593.743,148.764L593.744,138.549C592.581,138.933 591.277,139.132 589.984,139.124C588.713,139.117 587.444,138.91 586.318,138.482Z" style="fill-rule:nonzero;"/>
                </g>
            </g>
            <g>
                <path d="M590.177,247.5L590.177,390" style="fill:none;stroke:rgb(193,193,193);stroke-width:6.25px;stroke-linecap:round;"/>
                <clipPath id="_clip8">
                    <rect x="560.177" y="290" width="60" height="60"/>
                </clipPath>
                <g clip-path="url(#_clip8)">
                    <path d="M603.299,302.147L603.299,337.86C603.299,344.564 597.856,350.007 591.152,350.007L589.33,350.007C582.626,350.007 577.183,344.564 577.183,337.86L577.183,302.147C577.183,295.443 582.626,290 589.33,290L591.152,290C597.856,290 603.299,295.443 603.299,302.147Z" style="fill:white;"/>
                    <path d="M580.291,320.125C580,319.466 579.776,318.779 579.623,318.074C579.459,317.32 579.376,316.549 579.375,315.777L579.375,303.686C579.375,300.697 580.597,297.98 582.566,296.011C586.82,291.758 593.662,291.758 597.916,296.011C599.885,297.98 601.107,300.697 601.107,303.686L601.107,315.777C601.108,317.275 600.796,318.756 600.191,320.127C600.472,320.765 600.69,321.429 600.842,322.11C601.018,322.888 601.106,323.683 601.107,324.48L601.107,336.571C601.107,342.52 596.19,347.437 590.241,347.437C584.292,347.437 579.375,342.52 579.375,336.571L579.375,324.48C579.375,322.934 579.703,321.46 580.291,320.125ZM595.245,325.41L595.245,336.264C595.245,337.699 594.659,339.003 593.714,339.948C591.673,341.989 588.388,341.989 586.347,339.948C585.402,339.003 584.816,337.699 584.816,336.264L584.816,324.42C584.816,323.3 585.163,322.229 585.823,321.324C587.164,319.484 588.524,319.356 589.895,319.228C590.625,319.159 591.358,319.091 592.011,318.658C592.537,318.309 592.973,317.821 593.278,317.26C593.524,316.806 593.683,316.305 593.73,315.794C587.595,313.3 580.877,317.937 580.877,324.48L580.877,336.571C580.877,341.694 585.118,345.935 590.241,345.935C595.364,345.935 599.605,341.694 599.605,336.571L599.605,324.48C599.605,323.774 599.528,323.092 599.382,322.442C599.338,322.246 599.287,322.052 599.231,321.859C598.215,323.353 596.846,324.573 595.245,325.41ZM593.744,314.199L593.744,303.626C593.743,302.606 593.326,301.678 592.652,301.004C592.649,301.001 592.646,300.998 592.643,300.995C591.21,299.562 588.851,299.562 587.418,300.995C587.415,300.998 587.412,301.001 587.409,301.004C586.736,301.678 586.318,302.606 586.318,303.626L586.318,314.351C588.701,313.421 591.33,313.374 593.744,314.199ZM584.816,315.075L584.816,303.626C584.816,302.191 585.402,300.887 586.347,299.942C588.388,297.901 591.674,297.901 593.714,299.942C594.659,300.887 595.245,302.191 595.245,303.626L595.246,314.332C595.246,315.704 595.316,316.647 594.593,317.978C594.177,318.745 593.574,319.416 592.841,319.902C591.864,320.55 590.948,320.636 590.036,320.721C589.001,320.818 587.973,320.915 587.03,322.208C586.577,322.83 586.332,323.583 586.318,324.351C587.385,324.87 588.683,325.119 589.996,325.126C591.424,325.135 592.854,324.861 594.017,324.344C595.685,323.602 597.101,322.385 598.093,320.865C599.048,319.4 599.605,317.651 599.605,315.777L599.605,303.686C599.605,301.112 598.551,298.771 596.853,297.074C593.186,293.406 587.296,293.406 583.629,297.074C581.931,298.771 580.877,301.112 580.877,303.686L580.877,315.777C580.876,316.442 580.947,317.105 581.087,317.755C581.134,317.97 581.189,318.184 581.25,318.395C582.172,317.04 583.398,315.897 584.816,315.075ZM586.318,325.982L586.318,336.264C586.318,337.284 586.736,338.212 587.409,338.885C587.412,338.888 587.415,338.891 587.418,338.894C588.851,340.328 591.21,340.328 592.643,338.894C592.646,338.891 592.649,338.888 592.652,338.885C593.325,338.212 593.743,337.284 593.743,336.264L593.744,326.049C592.581,326.433 591.277,326.632 589.984,326.624C588.713,326.617 587.444,326.41 586.318,325.982Z" style="fill-rule:nonzero;"/>
                </g>
            </g>
            <g transform="matrix(0,-1,1,0,270.423997,843.229277)">
                <g transform="matrix(37.5,0,0,37.5,674.218046,454.184971)">
                </g>
                <text x="555.438px" y="454.185px" style="font-family:'TimesNewRomanPS-ItalicMT', 'Times New Roman', serif;font-style:italic;font-size:37.5px;fill:rgb(138,1,1);stroke:rgb(138,1,1);stroke-width:1px;stroke-miterlimit:2;">Cosmos</text>
            </g>
        </g>
    </g>
</svg>
