<?xml version="1.0" encoding="UTF-8" standalone="no"?>
<!DOCTYPE svg PUBLIC "-//W3C//DTD SVG 1.1//EN" "http://www.w3.org/Graphics/SVG/1.1/DTD/svg11.dtd">
<svg width="100%" height="100%" viewBox="0 0 341 153" version="1.1" xmlns="http://www.w3.org/2000/svg" xmlns:xlink="http://www.w3.org/1999/xlink" xml:space="preserve" xmlns:serif="http://www.serif.com/" style="fill-rule:evenodd;clip-rule:evenodd;stroke-miterlimit:5;">
    <g transform="matrix(1,0,0,1,-374.688521,-344.688521)">
        <g id="Feature-Negotiation" serif:id="Feature Negotiation" transform="matrix(1,0,0,1,-30,250)">
            <g id="Tiers" transform="matrix(1.644107,0,0,1,-292.504755,-1760)">
                <g transform="matrix(1.003584,0,0,1,25.852789,1760)">
                    <path d="M400,100L600,100" style="fill:none;stroke:rgb(177,177,177);stroke-width:1.53px;"/>
                </g>
                <g transform="matrix(1.003584,0,0,1,25.852789,1807.416667)">
                    <path d="M400,100L600,100" style="fill:none;stroke:rgb(177,177,177);stroke-width:1.53px;"/>
                </g>
                <g transform="matrix(1.003584,0,0,1,25.852789,1854.833333)">
                    <path d="M400,100L600,100" style="fill:none;stroke:rgb(177,177,177);stroke-width:1.53px;"/>
                </g>
                <g transform="matrix(1.003584,0,0,1,25.852789,1901.754167)">
                    <path d="M400,100L600,100" style="fill:none;stroke:rgb(177,177,177);stroke-width:1.53px;"/>
                </g>
            </g>
            <g transform="matrix(1,0,0,1,-45.386481,-1759.058333)">
                <g transform="matrix(1,0,0,1,64.848595,1795.395338)">
                    <g transform="matrix(25,0,0,25,526.527469,143.342162)">
                    </g>
                    <text x="390.852px" y="143.342px" style="font-family:'HelveticaNeue-Light', 'Helvetica Neue';font-weight:300;font-size:25px;fill:rgb(128,128,128);">Organisation</text>
                </g>
                <g transform="matrix(1,0,0,1,68.684012,1842.316171)">
                    <g transform="matrix(25,0,0,25,519.602469,143.342162)">
                    </g>
                    <text x="397.777px" y="143.342px" style="font-family:'HelveticaNeue-Light', 'Helvetica Neue';font-weight:300;font-size:25px;fill:rgb(128,128,128);">T<tspan x="408.902px 421.877px " y="143.342px 143.342px ">ec</tspan>hnology</text>
                </g>
                <g transform="matrix(1,0,0,1,68.173595,1747.978671)">
                    <g transform="matrix(25,0,0,25,503.614969,143.342162)">
                    </g>
                    <text x="413.765px" y="143.342px" style="font-family:'HelveticaNeue-Light', 'Helvetica Neue';font-weight:300;font-size:25px;fill:rgb(128,128,128);">Strategy</text>
                </g>
            </g>
            <g transform="matrix(1,0,0,1,-27.286481,-1760)">
                <g transform="matrix(1.25,0,0,1.122449,-144.713519,1732.857143)">
                    <g style="filter:url(#_Effect1);">
                        <path d="M692,189C692,189 710,209.268 710,217.955C710,229.018 701.934,238 692,238C682.066,238 674,229.018 674,217.955C674,209.268 692,189 692,189Z" style="fill:rgb(0,0,170);"/>
                    </g>
                </g>
                <g transform="matrix(0.381194,0,0,0.381194,490.381779,1847.908224)">
                    <g style="filter:url(#_Effect2);">
                        <circle cx="603.117" cy="93.117" r="13.117" style="fill:rgb(0,0,170);"/>
                    </g>
                </g>
                <g transform="matrix(0.648148,0,0,0.612245,177.501296,1828.785714)">
                    <g style="filter:url(#_Effect3);">
                        <path d="M692,189C692,189 710,209.961 710,218.944C710,229.461 701.934,238 692,238C682.066,238 674,229.461 674,218.944C674,209.961 692,189 692,189Z" style="fill:rgb(170,0,0);"/>
                    </g>
                </g>
                <g transform="matrix(0.762389,0,0,0.762389,166.210411,1812.412671)">
                    <g style="filter:url(#_Effect4);">
                        <circle cx="603.117" cy="93.117" r="13.117" style="fill:rgb(170,0,0);"/>
                    </g>
                </g>
                <g transform="matrix(1,0,0,1.333333,26.019814,1386.666667)">
                    <g transform="matrix(1,-0,-0,0.75,405.955188,351.016391)">
                        <path d="M198.732,76.402L194.045,83.434L189.357,76.402" style="fill:none;stroke:rgb(255,147,0);stroke-width:2.08px;stroke-linecap:round;stroke-miterlimit:10;"/>
                        <path d="M194.045,45.311L194.045,83.434" style="fill:none;stroke:rgb(255,147,0);stroke-width:2.08px;stroke-linecap:round;"/>
                    </g>
                </g>
                <g transform="matrix(1,0,0,1.5,120.286481,1317.5)">
                    <g transform="matrix(1,-0,-0,0.666667,311.688521,358.125681)">
                        <path d="M292.999,76.402L288.311,83.434L283.624,76.402" style="fill:none;stroke:rgb(255,147,0);stroke-width:2.08px;stroke-linecap:round;stroke-miterlimit:10;"/>
                        <path d="M288.311,40.311L288.311,83.434" style="fill:none;stroke:rgb(255,147,0);stroke-width:2.08px;stroke-linecap:round;"/>
                    </g>
                </g>
                <g transform="matrix(2.036147,0.019981,-0.012462,1.149028,-603.947759,1446.976071)">
                    <g transform="matrix(0.491071,-0.008539,0.005326,0.870208,510.883592,345.948593)">
                        <path d="M252.181,118.187L261.556,111.937L252.181,105.687" style="fill:none;stroke:rgb(255,147,0);stroke-width:4.17px;stroke-linecap:round;stroke-miterlimit:10;"/>
                        <path d="M222.442,118.187L213.067,111.937L222.442,105.687" style="fill:none;stroke:rgb(255,147,0);stroke-width:4.17px;stroke-linecap:round;stroke-miterlimit:10;"/>
                        <path d="M261.556,111.937L213.067,111.937" style="fill:none;stroke:rgb(255,147,0);stroke-width:4.17px;stroke-linecap:round;"/>
                    </g>
                </g>
                <g transform="matrix(2.586356,0.019981,-0.01583,1.149028,-940.435832,1363.75449)">
                    <g transform="matrix(0.386603,-0.006723,0.005326,0.870208,533.193232,417.988466)">
                        <path d="M271.535,33.403L278.566,28.715L271.535,24.028" style="fill:none;stroke:rgb(255,147,0);stroke-width:2.08px;stroke-linecap:round;stroke-miterlimit:10;"/>
                        <path d="M215.121,31.337L211.189,28.715L215.121,26.094" style="fill:none;stroke:rgb(255,147,0);stroke-width:2.08px;stroke-linecap:round;stroke-miterlimit:10;"/>
                        <path d="M278.566,28.715L211.189,28.715" style="fill:none;stroke:rgb(255,147,0);stroke-width:2.08px;stroke-linecap:round;"/>
                    </g>
                </g>
            </g>
            <g transform="matrix(1.517378,0,0,0.894051,-301.817205,29.869703)">
                <path d="M574.555,187.777L574.555,181.036C574.555,178.938 574.896,176.974 575.489,175.295L576.312,175.874L575.943,177.381C575.668,178.507 575.516,179.742 575.516,181.036L575.516,187.777L574.555,187.777ZM584.029,169.851L584.029,171.482L581.145,171.482C580.383,171.482 579.655,171.74 578.992,172.207L578.104,172.833L577.763,171.437C578.752,170.43 579.909,169.851 581.145,169.851L584.029,169.851ZM591.717,169.851L591.717,171.482L585.951,171.482L585.951,169.851L591.717,169.851ZM599.406,169.851L599.406,171.482L593.639,171.482L593.639,169.851L599.406,169.851ZM607.095,169.851L607.095,171.482L601.328,171.482L601.328,169.851L607.095,169.851ZM614.783,169.851L614.783,171.482L609.017,171.482L609.017,169.851L614.783,169.851ZM622.472,169.851L622.472,171.482L616.706,171.482L616.706,169.851L622.472,169.851ZM630.161,169.851L630.161,171.482L624.394,171.482L624.394,169.851L630.161,169.851ZM637.849,169.851L637.849,171.482L632.083,171.482L632.083,169.851L637.849,169.851ZM645.538,169.851L645.538,171.482L639.772,171.482L639.772,169.851L645.538,169.851ZM653.227,169.851L653.227,171.482L647.46,171.482L647.46,169.851L653.227,169.851ZM660.916,169.851L660.916,171.482L655.149,171.482L655.149,169.851L660.916,169.851ZM668.604,169.851L668.604,171.482L662.838,171.482L662.838,169.851L668.604,169.851ZM676.792,171.437L676.451,172.833L675.563,172.207C674.9,171.74 674.172,171.482 673.41,171.482L670.526,171.482L670.526,169.851L673.41,169.851C674.646,169.851 675.803,170.43 676.792,171.437ZM680,187.777L679.039,187.777L679.039,181.036C679.039,179.742 678.887,178.507 678.612,177.381L678.243,175.874L679.066,175.295C679.659,176.974 680,178.938 680,181.036L680,187.777ZM679.066,207.218L678.243,206.638L678.612,205.132C678.887,204.006 679.039,202.771 679.039,201.477L679.039,194.735L680,194.735L680,201.477C680,203.575 679.659,205.539 679.066,207.218ZM670.526,212.662L670.526,211.03L673.41,211.03C674.172,211.03 674.9,210.773 675.563,210.305L676.451,209.68L676.792,211.076C675.803,212.083 674.646,212.662 673.41,212.662L670.526,212.662ZM662.838,212.662L662.838,211.03L668.604,211.03L668.604,212.662L662.838,212.662ZM655.149,212.662L655.149,211.03L660.915,211.03L660.915,212.662L655.149,212.662ZM647.46,212.662L647.46,211.03L653.227,211.03L653.227,212.662L647.46,212.662ZM639.772,212.662L639.772,211.03L645.538,211.03L645.538,212.662L639.772,212.662ZM632.083,212.662L632.083,211.03L637.849,211.03L637.849,212.662L632.083,212.662ZM624.394,212.662L624.394,211.03L630.161,211.03L630.161,212.662L624.394,212.662ZM616.705,212.662L616.705,211.03L622.472,211.03L622.472,212.662L616.705,212.662ZM609.017,212.662L609.017,211.03L614.783,211.03L614.783,212.662L609.017,212.662ZM601.328,212.662L601.328,211.03L607.095,211.03L607.095,212.662L601.328,212.662ZM593.639,212.662L593.639,211.03L599.406,211.03L599.406,212.662L593.639,212.662ZM585.951,212.662L585.951,211.03L591.717,211.03L591.717,212.662L585.951,212.662ZM577.763,211.076L578.104,209.68L578.992,210.305C579.655,210.773 580.383,211.03 581.145,211.03L584.029,211.03L584.029,212.662L581.145,212.662C579.909,212.662 578.752,212.083 577.763,211.076ZM574.555,194.735L575.516,194.735L575.516,201.477C575.516,202.771 575.668,204.006 575.943,205.132L576.312,206.638L575.489,207.218C574.896,205.539 574.555,203.575 574.555,201.477L574.555,194.735Z" style="fill:rgb(156,156,156);"/>
            </g>
        </g>
    </g>
    <defs>
        <filter id="_Effect1" filterUnits="userSpaceOnUse" x="662" y="175.636" width="60" height="75.727">
            <feGaussianBlur in="SourceGraphic" stdDeviation="2.104"/>
        </filter>
        <filter id="_Effect2" filterUnits="userSpaceOnUse" x="558.52" y="48.52" width="89.193" height="89.193">
            <feGaussianBlur in="SourceGraphic" stdDeviation="5.247"/>
        </filter>
        <filter id="_Effect3" filterUnits="userSpaceOnUse" x="650.857" y="164.5" width="82.286" height="98">
            <feGaussianBlur in="SourceGraphic" stdDeviation="3.965"/>
        </filter>
        <filter id="_Effect4" filterUnits="userSpaceOnUse" x="570.325" y="60.325" width="65.583" height="65.583">
            <feGaussianBlur in="SourceGraphic" stdDeviation="3.279"/>
        </filter>
    </defs>
</svg>
