<?xml version="1.0" encoding="UTF-8" standalone="no"?>
<!DOCTYPE svg PUBLIC "-//W3C//DTD SVG 1.1//EN" "http://www.w3.org/Graphics/SVG/1.1/DTD/svg11.dtd">
<svg width="100%" height="100%" viewBox="0 0 508 351" version="1.1" xmlns="http://www.w3.org/2000/svg" xmlns:xlink="http://www.w3.org/1999/xlink" xml:space="preserve" xmlns:serif="http://www.serif.com/" style="fill-rule:evenodd;clip-rule:evenodd;stroke-linecap:round;stroke-linejoin:round;stroke-miterlimit:1.5;">
    <g id="Process-Definition" serif:id="Process Definition">
        <rect x="26.553" y="89.115" width="480" height="260" style="fill:none;stroke:black;stroke-width:2.08px;stroke-dasharray:20.833,20.833,0,0,0,0;"/>
        <path d="M366.52,158.245L415.124,140.887L410.819,137.115L435.094,139.064L417.546,155.949L418.487,150.304L369.442,167.82C369.125,164.534 368.129,161.332 366.52,158.245Z" style="fill:rgb(151,151,151);"/>
        <path d="M366.325,182.351C367.978,179.283 369.024,176.098 369.398,172.829L418.487,190.362L417.546,184.716L435.094,201.602L410.819,203.551L415.124,199.779L366.325,182.351Z" style="fill:rgb(151,151,151);"/>
        <path d="M101.553,174.115L101.553,164.115L140.816,164.115L137.842,159.115L161.553,169.115L137.842,179.115L140.816,174.115L101.553,174.115Z" style="fill:rgb(151,151,151);"/>
        <path d="M251.553,219.115C301.153,219.115 345.165,205.288 360.738,184.813C375.398,165.538 359.982,144.348 322.494,132.245C287.495,120.946 239.778,120.676 204.115,131.576C170.989,141.7 156.526,159.918 168.235,176.771C179.047,192.334 211.59,203.129 248.968,203.551C283.247,203.939 314.235,194.727 325.844,180.699C336.403,167.939 326.955,153.673 302.407,145.309C280.299,137.775 249.572,137.254 226.181,144.015C205.372,150.03 195.777,161.168 202.378,171.646C208.16,180.824 226.825,187.356 248.683,187.851C267.444,188.276 284.718,183.423 291.535,175.812C297.228,169.457 292.907,162.231 280.817,157.886C271.117,154.4 257.368,154.01 246.71,156.92C238.678,159.113 234.784,163.298 237.051,167.302C238.577,169.997 243.905,171.963 250.269,172.18C253.542,172.291 256.611,171.477 257.881,170.161C257.885,170.157 257.889,170.153 257.892,170.148" style="fill:none;stroke:rgb(151,151,151);stroke-width:1.98px;"/>
        <path d="M155.329,263.889L160.942,281.164L179.106,281.164L164.411,291.84L170.024,309.115L155.329,298.438L140.635,309.115L146.247,291.84L131.553,281.164L149.716,281.164L155.329,263.889Z" style="fill:white;stroke:black;stroke-width:2.08px;"/>
        <path d="M230.812,241.277L236.424,258.551L254.588,258.551L239.893,269.227L245.506,286.502L230.812,275.826L216.117,286.502L221.73,269.227L207.035,258.551L225.199,258.551L230.812,241.277Z" style="fill:white;stroke:black;stroke-width:2.08px;"/>
        <path d="M300.294,286.502L305.907,303.777L324.07,303.777L309.376,314.453L314.989,331.727L300.294,321.051L285.599,331.727L291.212,314.453L276.518,303.777L294.681,303.777L300.294,286.502Z" style="fill:white;stroke:black;stroke-width:2.08px;"/>
        <path d="M362.776,241.277L368.389,258.551L386.553,258.551L371.858,269.227L377.471,286.502L362.776,275.826L348.082,286.502L353.695,269.227L339,258.551L357.163,258.551L362.776,241.277Z" style="fill:white;stroke:black;stroke-width:2.08px;"/>
        <circle cx="466.553" cy="134.115" r="30" style="fill:white;"/>
        <clipPath id="_clip1">
            <circle cx="466.553" cy="134.115" r="30"/>
        </clipPath>
        <g clip-path="url(#_clip1)">
            <g>
                <path d="M461.91,112.057C462.285,111.39 463.128,111.153 463.796,111.528C464.463,111.903 464.7,112.745 464.325,113.413L463.292,115.253L490.756,130.669C491.255,130.949 491.434,131.584 491.153,132.083L480.27,151.472C479.99,151.971 479.355,152.15 478.856,151.869L451.392,136.453L445.661,146.664C445.286,147.332 444.443,147.569 443.775,147.194C443.108,146.819 442.871,145.976 443.246,145.309L461.91,112.057ZM478.082,140.655L482.552,143.164L485.414,138.064L480.944,135.555L478.082,140.655ZM473.812,146.656L477.012,140.956L472.043,138.166L468.843,143.867L473.812,146.656ZM480.644,134.486L483.679,129.079L478.71,126.289L475.675,131.697L480.644,134.486ZM462.504,140.309L465.704,134.608L460.732,131.817L457.532,137.518L462.504,140.309ZM466.773,134.308L471.743,137.097L474.605,131.997L469.636,129.208L466.773,134.308ZM469.335,128.138L472.371,122.731L467.399,119.94L464.363,125.347L469.335,128.138ZM460.434,130.749L463.297,125.65L458.888,123.175L456.025,128.275L460.434,130.749Z" style="fill-rule:nonzero;"/>
            </g>
        </g>
        <circle cx="466.553" cy="134.115" r="30" style="fill:none;stroke:black;stroke-width:1.04px;"/>
        <circle cx="466.553" cy="204.367" r="30" style="fill:white;"/>
        <clipPath id="_clip2">
            <circle cx="466.553" cy="204.367" r="30"/>
        </clipPath>
        <g clip-path="url(#_clip2)">
            <g>
                <path d="M461.91,182.31C462.285,181.642 463.128,181.405 463.796,181.78C464.463,182.155 464.7,182.998 464.325,183.665L463.292,185.505L490.756,200.921C491.255,201.202 491.434,201.836 491.153,202.335L480.27,221.724C479.99,222.223 479.355,222.402 478.856,222.121L451.392,206.705L445.661,216.917C445.286,217.584 444.443,217.821 443.775,217.446C443.108,217.072 442.871,216.229 443.246,215.561L461.91,182.31ZM478.082,210.907L482.552,213.416L485.414,208.317L480.944,205.808L478.082,210.907ZM473.812,216.908L477.012,211.208L472.043,208.419L468.843,214.119L473.812,216.908ZM480.644,204.738L483.679,199.331L478.71,196.541L475.675,201.949L480.644,204.738ZM462.504,210.561L465.704,204.86L460.732,202.069L457.532,207.77L462.504,210.561ZM466.773,204.56L471.743,207.349L474.605,202.249L469.636,199.46L466.773,204.56ZM469.335,198.39L472.371,192.983L467.399,190.192L464.363,195.6L469.335,198.39ZM460.434,201.001L463.297,195.902L458.888,193.427L456.025,198.527L460.434,201.001Z" style="fill-rule:nonzero;"/>
            </g>
        </g>
        <circle cx="466.553" cy="204.367" r="30" style="fill:none;stroke:black;stroke-width:1.04px;"/>
        <circle cx="66.553" cy="169.115" r="30" style="fill:white;"/>
        <clipPath id="_clip3">
            <circle cx="66.553" cy="169.115" r="30"/>
        </clipPath>
        <g clip-path="url(#_clip3)">
            <clipPath id="_clip4">
                <rect x="45.522" y="149.115" width="40.03" height="40"/>
            </clipPath>
            <g clip-path="url(#_clip4)">
                <path d="M46.001,182.562C45.913,180.569 47.347,178.09 49.686,177.184L52.983,177.149L53.076,177.242C51.916,178.786 51.439,180.279 51.175,181.225C50.768,182.679 51.749,183.868 53.27,183.531C54.334,183.294 55.958,182.711 57.466,181.629C57.474,181.636 57.481,181.642 57.488,181.647L57.454,184.923C56.596,187.07 54.384,188.667 52.13,188.741C52.439,187.605 53.717,185.055 51.929,186.229C50.675,187.051 48.399,188.338 46.713,187.979C46.096,184.76 50.229,181.331 47.722,181.936C47.161,182.072 46.584,182.297 46.001,182.562Z" style="fill:rgb(216,24,43);"/>
                <path d="M85.373,149.215C85.701,149.475 85.545,150.437 85.195,151.581C84.689,153.23 83.828,155.417 83.575,155.959C82.767,157.692 81.636,159.557 80.3,161.455L73.211,154.366C75.113,153.038 76.981,151.911 78.711,151.097C79.228,150.854 81.351,150.033 82.994,149.524C84.12,149.176 85.084,148.986 85.373,149.215ZM79.285,162.852C77.753,164.895 76.02,166.947 74.231,168.88C71.254,172.095 68.113,174.991 65.476,176.993L65.385,181.521C65.383,181.631 65.335,181.732 65.261,181.807L58.079,188.99C57.92,189.149 57.67,189.157 57.52,189.008C57.441,188.928 57.406,188.82 57.415,188.712L57.488,181.647C57.476,181.638 57.464,181.628 57.453,181.617L52.983,177.149L45.925,177.222C45.817,177.231 45.709,177.196 45.629,177.116C45.48,176.967 45.488,176.717 45.647,176.558L52.829,169.375C52.904,169.302 53.006,169.254 53.116,169.252L57.725,169.16C59.591,166.605 62.325,163.611 65.391,160.752C67.433,158.847 69.626,157 71.809,155.377L79.285,162.852Z"/>
            </g>
        </g>
        <circle cx="66.553" cy="169.115" r="30" style="fill:none;stroke:black;stroke-width:1.04px;"/>
        <g id="Agents">
            <path d="M468.128,8.335C469.164,8.335 470.102,8.755 470.78,9.434C471.459,10.113 471.879,11.051 471.879,12.087C471.879,13.123 471.459,14.061 470.78,14.74C470.381,15.139 469.897,15.444 469.363,15.63L469.363,19.573L469.363,19.595L479.677,19.595C483.469,19.595 486.571,22.697 486.571,26.49L486.571,40.193C486.571,43.985 483.469,47.088 479.677,47.088L471.872,47.088L471.872,50.352L472.527,50.352C473.161,50.352 473.737,50.611 474.153,51.028C474.186,51.06 474.216,51.094 474.244,51.129C474.604,51.534 474.825,52.064 474.828,52.641L477.17,52.641C480.538,55.803 480.465,63.635 480.418,68.742L480.414,69.115L455.87,69.115L455.862,68.346C455.85,67.31 455.837,66.181 455.854,65.013C455.869,64.965 455.877,64.915 455.877,64.862C455.877,64.815 455.871,64.77 455.858,64.726C455.941,60.215 456.492,55.199 459.236,52.776C459.279,52.738 459.316,52.692 459.343,52.641L461.384,52.641C461.387,52.018 461.645,51.449 462.059,51.032L462.066,51.025C462.485,50.61 463.058,50.352 463.685,50.352L464.187,50.352L464.187,47.088L456.536,47.088C452.743,47.088 449.641,43.985 449.641,40.193L449.641,26.49C449.641,22.697 452.743,19.595 456.536,19.595L466.892,19.595L466.892,19.573L466.892,15.63C466.358,15.444 465.874,15.139 465.475,14.74C464.796,14.061 464.376,13.123 464.376,12.087C464.376,11.051 464.796,10.113 465.475,9.434C466.154,8.755 467.092,8.335 468.128,8.335ZM462.875,57.986L473.449,57.986C474.307,57.986 475.008,58.688 475.008,59.545L475.008,62.459C475.008,63.316 474.306,64.018 473.449,64.018L462.875,64.018C462.018,64.018 461.316,63.317 461.316,62.459L461.316,59.545C461.316,58.687 462.017,57.986 462.875,57.986ZM464.083,60.199C464.523,60.199 464.886,60.562 464.886,61.002C464.886,61.443 464.523,61.805 464.083,61.805C463.647,61.798 463.293,61.438 463.293,61.002C463.293,60.567 463.647,60.206 464.083,60.199ZM472.242,60.199C472.682,60.199 473.045,60.562 473.045,61.002C473.045,61.443 472.682,61.805 472.242,61.805C471.806,61.798 471.452,61.438 471.452,61.002C471.452,60.567 471.806,60.206 472.242,60.199ZM449.193,64.368L449.193,61.978C449.193,57.031 453.087,52.954 457.964,52.659C455.535,55.403 454.982,60.091 454.881,64.368L449.193,64.368ZM454.885,69.115L450.429,69.115C449.746,69.115 449.193,68.561 449.193,67.879L449.193,65.356L454.865,65.356C454.855,66.405 454.867,67.416 454.877,68.354C454.88,68.605 454.883,68.85 454.885,69.115ZM478.528,52.67C483.326,53.047 487.131,57.087 487.131,61.978L487.131,64.368L481.384,64.368C481.265,60.12 480.714,55.43 478.528,52.67ZM487.131,65.356L487.131,67.879C487.131,68.561 486.578,69.115 485.896,69.115L481.399,69.115L481.402,68.75C481.412,67.709 481.422,66.559 481.405,65.356L487.131,65.356ZM462.875,56.75L473.449,56.75C474.215,56.75 474.913,57.065 475.422,57.573L475.424,57.57C475.93,58.076 476.244,58.775 476.244,59.545L476.244,62.459C476.244,63.223 475.93,63.921 475.424,64.429L475.416,64.437C474.908,64.941 474.212,65.254 473.449,65.254L462.875,65.254C462.105,65.254 461.406,64.94 460.9,64.434C460.871,64.404 460.843,64.373 460.816,64.341C460.36,63.842 460.08,63.18 460.08,62.459L460.08,59.545C460.08,58.779 460.394,58.081 460.9,57.575L460.903,57.573L460.9,57.57C461.406,57.064 462.105,56.75 462.875,56.75ZM463.685,51.588L472.527,51.588C473.109,51.588 473.586,52.061 473.593,52.641L462.619,52.641C462.626,52.061 463.103,51.588 463.685,51.588ZM448.653,27.002L448.776,27.002L448.776,39.619L448.653,39.619C446.517,39.619 444.892,37.871 444.892,35.735L444.892,30.886C444.892,28.75 446.517,27.002 448.653,27.002ZM487.406,27.002L487.284,27.002L487.284,39.619L487.406,39.619C489.543,39.619 491.167,37.871 491.167,35.735L491.167,30.886C491.167,28.75 489.543,27.002 487.406,27.002ZM459.963,27.215C461.326,27.215 462.56,27.768 463.453,28.661C464.347,29.554 464.899,30.789 464.899,32.152C464.899,33.515 464.347,34.749 463.453,35.642C462.56,36.536 461.326,37.088 459.963,37.088C458.6,37.088 457.365,36.536 456.472,35.642C455.579,34.749 455.026,33.515 455.026,32.152C455.026,30.789 455.579,29.554 456.472,28.661C457.365,27.768 458.6,27.215 459.963,27.215ZM476.249,27.215C477.613,27.215 478.847,27.768 479.74,28.661C480.634,29.554 481.186,30.789 481.186,32.152C481.186,33.515 480.634,34.749 479.74,35.642C478.847,36.536 477.613,37.088 476.249,37.088C474.886,37.088 473.652,36.536 472.759,35.642C471.866,34.749 471.313,33.515 471.313,32.152C471.313,30.789 471.866,29.554 472.759,28.661C473.652,27.768 474.886,27.215 476.249,27.215ZM476.249,29.296C477.827,29.296 479.105,30.575 479.105,32.152C479.105,33.729 477.827,35.007 476.249,35.007C474.673,35.007 473.394,33.729 473.394,32.152C473.394,30.575 474.673,29.296 476.249,29.296ZM476.249,27.956C478.566,27.956 480.445,29.835 480.445,32.152C480.445,34.468 478.566,36.347 476.249,36.347C473.933,36.347 472.054,34.468 472.054,32.152C472.054,29.835 473.933,27.956 476.249,27.956ZM459.963,29.296C461.54,29.296 462.818,30.575 462.818,32.152C462.818,33.729 461.54,35.007 459.963,35.007C458.386,35.007 457.107,33.729 457.107,32.152C457.107,30.575 458.386,29.296 459.963,29.296ZM459.963,27.956C462.28,27.956 464.158,29.835 464.158,32.152C464.158,34.468 462.28,36.347 459.963,36.347C457.646,36.347 455.768,34.468 455.768,32.152C455.768,29.835 457.646,27.956 459.963,27.956ZM471.854,39.778C472.256,39.785 472.582,40.117 472.582,40.519C472.582,40.921 472.256,41.253 471.854,41.261L464.358,41.261C463.956,41.253 463.63,40.921 463.63,40.519C463.63,40.117 463.956,39.785 464.358,39.778L471.854,39.778ZM470.113,21.779C470.117,21.779 470.12,21.779 470.124,21.779C470.608,21.779 471.006,22.178 471.006,22.662C471.006,23.146 470.608,23.544 470.124,23.544C470.12,23.544 470.117,23.544 470.113,23.544C469.633,23.538 469.241,23.142 469.241,22.662C469.241,22.182 469.633,21.785 470.113,21.779ZM466.099,21.779C466.583,21.779 466.981,22.178 466.981,22.662C466.981,23.146 466.583,23.544 466.099,23.544C466.099,23.544 466.099,23.544 466.099,23.544C465.615,23.544 465.217,23.146 465.217,22.662L465.217,22.661C465.217,22.178 465.615,21.779 466.099,21.779C466.099,21.779 466.099,21.779 466.099,21.779Z"/>
            <clipPath id="_clip5">
                <rect x="339.108" y="17.846" width="71.973" height="60.78"/>
            </clipPath>
            <g clip-path="url(#_clip5)">
                <g>
                    <path d="M389.684,35.377C389.239,35.594 388.8,35.828 388.361,36.086C387.043,36.859 385.742,37.802 384.413,38.885L381.584,35.641C382.562,34.733 383.622,33.907 384.747,33.175C385.643,32.589 386.58,32.068 387.546,31.623C387.933,31.429 388.32,31.248 388.718,31.078C386.849,27.769 384.161,25.396 381.115,23.932C378.07,22.474 374.661,21.911 371.34,22.233C368.042,22.55 364.838,23.751 362.191,25.806C359.133,28.179 356.802,31.728 355.906,36.431L355.631,37.901L354.166,38.159C352.731,38.411 351.455,38.757 350.324,39.196C349.235,39.618 348.262,40.139 347.413,40.754C346.734,41.246 346.148,41.796 345.65,42.394C344.104,44.239 343.389,46.552 343.407,48.89C343.424,51.268 344.198,53.669 345.627,55.649C346.154,56.381 346.775,57.054 347.478,57.64C348.192,58.232 348.995,58.724 349.897,59.093C350.629,59.391 351.425,59.626 352.292,59.784L352.292,64.136C350.822,63.931 349.481,63.573 348.262,63.07C346.933,62.519 345.756,61.81 344.719,60.944C343.735,60.124 342.874,59.192 342.142,58.179C340.185,55.479 339.131,52.187 339.108,48.907C339.084,45.592 340.115,42.294 342.341,39.623C343.061,38.757 343.911,37.96 344.883,37.257C346.013,36.437 347.308,35.746 348.766,35.178C349.774,34.785 350.851,34.457 351.988,34.194C353.276,29.081 356.023,25.133 359.555,22.392C362.858,19.832 366.835,18.338 370.93,17.946C375.006,17.554 379.2,18.245 382.966,20.055C387.078,22.028 390.662,25.314 392.988,29.936C393.925,29.789 394.862,29.719 395.793,29.725C399.729,29.748 403.519,31.16 406.512,34.381C407.139,35.055 407.73,35.816 408.281,36.666C410.155,39.547 411.116,43.395 411.075,47.162C411.034,50.858 410.038,54.536 408,57.242C406.676,59.011 404.966,60.446 402.922,61.588C400.954,62.689 398.658,63.527 396.08,64.124L395.6,64.183L393.679,64.183L393.679,59.866L395.372,59.866C397.439,59.368 399.267,58.694 400.819,57.828C402.359,56.967 403.619,55.918 404.562,54.659C406.026,52.708 406.746,49.95 406.776,47.121C406.811,44.151 406.084,41.176 404.673,39.003C404.269,38.376 403.824,37.814 403.355,37.31C401.241,35.031 398.558,34.036 395.77,34.018C393.755,34.018 391.664,34.498 389.684,35.377ZM387.992,51.109C387.951,51.109 387.915,51.115 387.874,51.115L360.17,51.115C360.129,51.115 360.088,51.115 360.053,51.109C359.924,51.133 359.801,51.197 359.713,51.291C359.596,51.408 359.52,51.572 359.52,51.748L359.52,59.485C359.52,59.661 359.596,59.825 359.713,59.942C359.83,60.059 359.994,60.135 360.17,60.135L387.869,60.135C388.044,60.135 388.208,60.059 388.325,59.942C388.443,59.825 388.519,59.661 388.519,59.485L388.519,51.748C388.519,51.572 388.443,51.408 388.325,51.291C388.238,51.197 388.12,51.133 387.992,51.109ZM383.148,53.868C384.214,53.868 385.081,54.735 385.081,55.801C385.081,56.867 384.214,57.734 383.148,57.734C382.082,57.734 381.215,56.867 381.215,55.801C381.215,54.735 382.076,53.868 383.148,53.868ZM387.992,62.22C387.951,62.22 387.915,62.226 387.874,62.226L360.17,62.226C360.129,62.226 360.088,62.226 360.053,62.22C359.924,62.244 359.801,62.308 359.713,62.402C359.596,62.519 359.52,62.683 359.52,62.859L359.52,70.596C359.52,70.772 359.596,70.936 359.713,71.053C359.83,71.17 359.994,71.246 360.17,71.246L387.869,71.246C388.044,71.246 388.208,71.17 388.325,71.053C388.443,70.936 388.519,70.772 388.519,70.596L388.519,62.859C388.519,62.683 388.443,62.519 388.325,62.402C388.238,62.308 388.12,62.244 387.992,62.22ZM362.279,64.622L363.907,64.622L363.907,68.833L362.279,68.833L362.279,64.622ZM366.777,64.622L368.405,64.622L368.405,68.833L366.777,68.833L366.777,64.622ZM371.281,64.622L372.909,64.622L372.909,68.833L371.281,68.833L371.281,64.622ZM362.279,53.511L363.907,53.511L363.907,57.722L362.279,57.722L362.279,53.511ZM366.777,53.511L368.405,53.511L368.405,57.722L366.777,57.722L366.777,53.511ZM371.281,53.511L372.909,53.511L372.909,57.722L371.281,57.722L371.281,53.511Z" style="fill-rule:nonzero;"/>
                </g>
            </g>
            <g>
                <path d="M256.381,17.318C257.035,17.507 257.509,17.885 257.803,18.461C258.258,19.387 258.088,20.747 257.225,22.693C257.206,22.731 257.187,22.769 257.168,22.797L254.106,27.823C252.921,29.769 251.717,31.724 250.096,33.226C248.409,34.804 246.333,35.852 243.489,35.843C240.835,35.834 238.834,34.823 237.194,33.33C235.621,31.894 234.426,30.062 233.289,28.257L230.606,23.997C229.611,22.514 229.089,21.144 229.051,20.02C229.032,19.472 229.127,18.981 229.336,18.546C229.554,18.083 229.876,17.696 230.322,17.403C230.54,17.252 230.786,17.129 231.061,17.035C230.9,14.758 230.843,11.943 230.947,9.572C231.004,8.996 231.118,8.419 231.279,7.843C231.962,5.397 233.687,3.432 235.82,2.081C236.569,1.608 237.394,1.212 238.266,0.9C243.423,-0.961 250.267,0.059 253.926,4.008C255.414,5.614 256.353,7.749 256.552,10.564L256.381,17.318Z" style="fill:white;"/>
                <path d="M275.076,62.926L277.019,55.541L275.682,54.082C275.076,53.206 274.949,52.437 275.281,51.776C276.004,50.346 277.508,50.608 278.914,50.608C280.388,50.608 282.204,50.326 282.663,52.165C282.819,52.778 282.624,53.42 282.194,54.082L280.857,55.541L282.019,59.978L289.722,53.303L293.716,53.401C292.339,50.647 290.591,48.312 288.561,46.113C292.388,47.592 296.303,49.051 299.203,50.861C301.049,52.009 301.996,52.885 302.748,54.276C304.329,57.244 304.505,59.9 304.74,63.111L305.296,65.894L283.581,65.894L283.6,65.962L275.291,65.962C275.106,67.86 274.012,68.959 271.874,69.115L218.728,69.115C216.58,68.949 215.486,67.85 215.311,65.933L216.053,54.218C216.258,51.513 217.019,49.373 218.259,47.738C219.08,46.658 220.095,45.86 221.218,45.237C224.782,43.262 233.101,42.678 236.333,39.779L241.283,54.286L243.773,45.675L242.552,44.342C242.006,43.544 241.879,42.844 242.191,42.24C242.855,40.937 244.222,41.18 245.501,41.18C246.839,41.18 248.489,40.927 248.909,42.6C249.045,43.155 248.87,43.739 248.479,44.342L247.259,45.675L249.749,54.286L254.23,39.779C257.462,42.678 265.791,43.262 269.345,45.237C270.468,45.86 271.493,46.658 272.303,47.738C273.543,49.373 274.305,51.503 274.51,54.218L275.076,62.926ZM200.225,46.94L203.545,56.66L205.215,50.89L204.395,49.995C204.024,49.46 203.945,48.993 204.15,48.584C204.59,47.709 205.508,47.874 206.367,47.874C207.265,47.874 208.369,47.709 208.652,48.828C208.749,49.197 208.622,49.596 208.369,49.995L207.548,50.89L209.218,56.66L212.225,46.94C212.665,47.329 213.27,47.66 213.983,47.942C213.739,48.458 213.514,49.003 213.319,49.567C212.811,51.036 212.479,52.671 212.342,54.491L212.352,54.491C212.352,54.529 212.342,54.578 212.342,54.617L211.62,65.884L187.591,65.884C186.146,65.777 185.413,65.038 185.296,63.753L185.794,56.612C185.931,54.802 186.448,53.372 187.278,52.272C187.825,51.552 188.508,51.017 189.26,50.599C191.643,49.275 198.058,48.886 200.225,46.94ZM198.595,33.162C198.273,33.192 198.028,33.26 197.853,33.376C197.755,33.445 197.677,33.532 197.628,33.629C197.569,33.746 197.55,33.902 197.55,34.067C197.569,34.602 197.853,35.322 198.409,36.149L198.419,36.169L200.274,39.107C201.016,40.275 201.788,41.472 202.744,42.347C203.652,43.175 204.756,43.739 206.22,43.739C207.802,43.739 208.954,43.155 209.901,42.279C210.888,41.355 211.669,40.09 212.44,38.825L214.52,35.41C214.94,34.456 215.067,33.882 214.93,33.61C214.842,33.445 214.5,33.396 213.934,33.445C213.573,33.522 213.192,33.454 212.792,33.25L213.836,30.136C210.019,30.088 207.412,29.426 204.316,27.461C203.301,26.818 202.998,26.079 201.983,26.147C201.211,26.293 200.567,26.634 200.059,27.188C199.571,27.714 199.2,28.434 198.956,29.358L199.571,33.085C199.259,33.279 198.927,33.299 198.595,33.162ZM215.125,32.238C215.574,32.374 215.906,32.627 216.102,33.026C216.414,33.659 216.297,34.602 215.701,35.945C215.692,35.974 215.682,35.994 215.662,36.023L213.553,39.487C212.733,40.83 211.903,42.172 210.79,43.213C209.628,44.303 208.193,45.023 206.23,45.013C204.395,45.013 203.018,44.313 201.885,43.282C200.801,42.289 199.971,41.024 199.19,39.779L197.335,36.84C196.642,35.809 196.29,34.875 196.261,34.096C196.251,33.717 196.31,33.376 196.456,33.085C196.603,32.763 196.827,32.501 197.14,32.296C197.286,32.199 197.462,32.112 197.648,32.043C197.53,30.467 197.491,28.521 197.569,26.887C197.609,26.488 197.687,26.089 197.794,25.69C198.273,24.006 199.454,22.644 200.928,21.71C201.446,21.379 202.012,21.107 202.618,20.893C206.181,19.608 210.897,20.309 213.426,23.033C214.452,24.143 215.106,25.612 215.242,27.558L215.125,32.238ZM233.775,19.229C233.364,19.278 233.042,19.385 232.808,19.54C232.661,19.638 232.544,19.774 232.476,19.92C232.398,20.095 232.359,20.319 232.359,20.572C232.378,21.379 232.808,22.44 233.648,23.666L233.667,23.685L236.43,28.074C237.534,29.825 238.686,31.606 240.111,32.9C241.469,34.135 243.119,34.972 245.286,34.982C247.649,34.992 249.368,34.116 250.774,32.812C252.248,31.44 253.42,29.543 254.572,27.655L257.677,22.557C258.302,21.136 258.497,20.28 258.292,19.871C258.165,19.608 257.618,19.55 256.7,19.638C256.632,19.647 256.564,19.647 256.495,19.638C256.115,19.638 255.705,19.54 255.255,19.336L256.652,14.685C250.949,14.617 247.054,13.625 242.445,10.686C240.932,9.723 240.473,8.623 238.959,8.73C237.817,8.954 236.85,9.46 236.089,10.277C235.356,11.066 234.8,12.136 234.438,13.508L235.425,19.132C234.839,19.433 234.292,19.453 233.775,19.229ZM258.575,17.838C259.249,18.032 259.737,18.421 260.04,19.015C260.508,19.969 260.333,21.37 259.444,23.374C259.425,23.413 259.405,23.452 259.386,23.481L256.232,28.657C255.011,30.662 253.771,32.676 252.102,34.223C250.364,35.848 248.225,36.928 245.296,36.918C242.562,36.908 240.502,35.867 238.813,34.33C237.192,32.851 235.962,30.963 234.79,29.105L232.027,24.717C231.002,23.189 230.465,21.778 230.425,20.62C230.406,20.056 230.504,19.55 230.718,19.103C230.943,18.626 231.275,18.227 231.734,17.925C231.958,17.77 232.212,17.643 232.495,17.546C232.329,15.201 232.271,12.301 232.378,9.859C232.437,9.266 232.554,8.672 232.72,8.078C233.423,5.558 235.2,3.535 237.397,2.143C238.168,1.657 239.018,1.248 239.916,0.927C245.228,-0.99 252.277,0.061 256.046,4.128C257.579,5.782 258.546,7.981 258.751,10.881L258.575,17.838ZM268.173,41.793L270.614,41.725L272.635,41.676C270.273,34.427 271.063,27.762 276.756,22.099C277.722,25.213 279.88,27.772 283.561,29.669C285.319,30.973 287.028,32.549 288.668,34.349C288.961,33.153 287.848,31.693 286.491,30.195C287.74,30.808 288.893,31.674 289.703,33.328C290.65,35.254 290.631,36.869 290.328,38.961C290.181,39.934 289.947,40.839 289.605,41.666L292.974,41.666C296.528,34.087 294.273,22.849 287.008,18.081C284.782,16.621 283.181,16.67 280.564,16.68C277.566,16.68 276.043,16.777 273.475,18.46C269.696,20.951 267.373,25.262 266.396,31.246C266.211,34.233 266.084,39.39 268.173,41.793Z"/>
            </g>
            <clipPath id="_clip6">
                <rect x="99.108" y="6.115" width="52.377" height="63"/>
            </clipPath>
            <g clip-path="url(#_clip6)">
                <g>
                    <path d="M121.133,7.412C124.107,5.397 127.496,5.843 130.295,7.976C131.028,8.54 131.659,9.232 132.156,10.068C132.582,10.78 133.325,12.236 131.936,12.462C131.387,12.549 130.433,11.806 129.695,11.565C128.747,11.257 127.772,11.062 126.803,10.96C125.004,10.775 123.23,10.924 121.707,11.344C120.882,11.575 120.077,11.852 119.308,12.205C118.949,12.37 118.216,12.862 118.016,12.231C117.549,10.785 120.067,8.135 121.133,7.412ZM123.256,43.875C122.979,43.777 122.835,43.47 122.938,43.193C123.04,42.916 123.343,42.772 123.62,42.875C124.204,43.085 124.778,43.177 125.332,43.167C125.886,43.157 126.434,43.039 126.973,42.834C127.249,42.731 127.552,42.87 127.66,43.142C127.762,43.418 127.624,43.721 127.352,43.829C126.706,44.075 126.045,44.213 125.358,44.228C124.665,44.244 123.968,44.131 123.256,43.875ZM134.653,46.356C138.708,47.925 141.969,49.135 145.035,51.058C146.988,52.278 147.993,53.201 148.788,54.687C150.464,57.835 150.649,60.66 150.9,64.075L151.485,69.12L142.994,69.12L142.036,64.736L141.343,69.12L110.812,69.12L109.89,64.736L109.172,69.12L99.108,69.12L99.692,64.075C99.943,60.66 100.128,57.835 101.804,54.687C102.594,53.206 103.599,52.288 105.557,51.058C108.623,49.135 111.848,47.94 115.904,46.366C118.031,55.046 134.653,52.606 134.653,46.356ZM129.136,34.098C128.936,33.954 128.89,33.677 129.023,33.477C129.162,33.267 129.449,33.216 129.654,33.354C130.003,33.585 130.587,33.708 131.202,33.698C131.787,33.687 132.376,33.559 132.802,33.282C133.012,33.149 133.294,33.205 133.427,33.421C133.525,33.667 133.479,33.877 133.289,34.046C131.905,34.687 130.52,34.744 129.136,34.098ZM117.18,34.108C116.996,33.923 116.873,33.728 117.047,33.467C117.185,33.257 117.472,33.205 117.677,33.344C118.057,33.6 118.626,33.708 119.205,33.703C119.846,33.698 120.502,33.549 120.928,33.298C121.148,33.17 121.425,33.247 121.548,33.462C121.579,33.58 121.579,33.693 121.553,33.8C121.461,34.144 121.133,34.185 120.825,34.292C120.205,34.508 119.692,34.621 119.169,34.61C118.57,34.6 117.965,34.441 117.18,34.108ZM129.562,31.462C129.357,31.606 129.075,31.56 128.931,31.355C128.788,31.15 128.834,30.868 129.039,30.724C129.895,30.119 130.772,29.806 131.664,29.801C132.561,29.796 133.453,30.104 134.35,30.719C134.561,30.862 134.607,31.15 134.468,31.35C134.325,31.56 134.038,31.606 133.838,31.467C133.099,30.96 132.376,30.709 131.674,30.714C130.961,30.709 130.259,30.965 129.562,31.462ZM116.77,31.462C116.565,31.606 116.283,31.56 116.139,31.355C115.996,31.15 116.042,30.868 116.247,30.724C117.103,30.119 117.98,29.806 118.872,29.801C119.769,29.796 120.661,30.104 121.559,30.719C121.769,30.862 121.815,31.15 121.676,31.35C121.533,31.56 121.246,31.606 121.046,31.467C120.308,30.96 119.585,30.709 118.882,30.714C118.175,30.709 117.472,30.965 116.77,31.462ZM111.023,29.212C111.151,29.13 111.3,29.094 111.443,29.104C111.192,27.807 111.228,26.561 111.284,25.105C111.423,21.296 112.386,18.25 115.391,15.605C119.923,11.616 128.895,11.267 133.884,14.702C134.622,15.21 135.309,15.815 135.929,16.522C137.955,18.845 139.759,23.946 139.718,27.094C139.708,27.822 139.59,28.56 139.344,29.314C139.334,29.391 139.318,29.468 139.298,29.56C139.846,29.904 140.272,30.329 140.59,30.806C141.056,31.519 141.261,32.339 141.21,33.205C141.164,34.036 140.877,34.908 140.364,35.764C139.764,36.753 138.847,37.727 137.626,38.558C136.56,41.045 135.068,43.536 133.263,45.536C131.746,47.217 130.003,48.556 128.101,49.258C126.152,49.976 124.055,50.032 121.882,49.12C120.754,48.648 119.61,47.915 118.462,46.879C117.411,45.931 116.457,44.757 115.596,43.388C114.796,42.121 114.078,40.686 113.427,39.107C113.14,39.019 112.863,38.912 112.607,38.794C112.238,38.625 111.899,38.42 111.592,38.184C110.689,37.492 110.095,36.553 109.746,35.518C109.362,34.364 109.29,33.088 109.444,31.914C109.526,31.303 109.695,30.775 109.946,30.334C110.218,29.873 110.571,29.499 111.023,29.212ZM111.776,30.365L111.761,30.375C111.51,30.534 111.305,30.75 111.151,31.027C110.987,31.314 110.874,31.678 110.812,32.103C110.679,33.082 110.736,34.144 111.053,35.087C111.315,35.877 111.761,36.584 112.427,37.092C112.663,37.271 112.915,37.425 113.186,37.553C113.463,37.681 113.766,37.789 114.094,37.871C114.319,37.922 114.488,38.086 114.571,38.286C115.227,39.922 115.955,41.388 116.76,42.665C117.554,43.926 118.426,44.997 119.385,45.864C120.415,46.792 121.425,47.443 122.415,47.858C124.235,48.627 125.993,48.576 127.624,47.976C129.3,47.361 130.864,46.156 132.238,44.628C133.976,42.706 135.417,40.27 136.432,37.845C136.493,37.707 136.586,37.599 136.704,37.522C137.837,36.779 138.662,35.923 139.185,35.061C139.58,34.405 139.795,33.754 139.836,33.144C139.867,32.565 139.739,32.031 139.441,31.575C139.282,31.334 139.077,31.109 138.821,30.914C138.303,32.093 137.432,33.641 136.309,35.179L136.309,28.13C133.079,26.633 130.967,23.341 129.885,18.394C128.598,27.812 117.037,27.407 114.13,29.119L114.13,34.615C113.576,33.841 113.084,33.052 112.638,32.252C112.258,31.58 111.976,30.96 111.776,30.365Z"/>
                </g>
            </g>
        </g>
        <g transform="matrix(20.833333,0,0,20.833333,86.125488,129.114677)">
        </g>
        <text x="45.608px" y="129.115px" style="font-family:'TimesNewRomanPS-ItalicMT', 'Times New Roman', serif;font-style:italic;font-size:20.833px;fill:rgb(100,93,93);">Start</text>
        <g transform="matrix(20.833333,0,0,20.833333,490.992228,256.184582)">
        </g>
        <text x="441.218px" y="256.185px" style="font-family:'TimesNewRomanPS-ItalicMT', 'Times New Roman', serif;font-style:italic;font-size:20.833px;fill:rgb(100,93,93);">Goals</text>
        <g transform="matrix(20.833333,0,0,20.833333,265.084635,316.047253)">
        </g>
        <text x="187.57px" y="316.047px" style="font-family:'TimesNewRomanPS-ItalicMT', 'Times New Roman', serif;font-style:italic;font-size:20.833px;fill:rgb(100,93,93);">Activities</text>
        <g transform="matrix(20.833333,0,0,20.833333,84.271647,43.509963)">
        </g>
        <text x="27.57px" y="43.51px" style="font-family:'TimesNewRomanPS-ItalicMT', 'Times New Roman', serif;font-style:italic;font-size:20.833px;fill:rgb(100,93,93);">Agents</text>
        <g transform="matrix(0,-1,1,0,-427.716762,125.257568)">
            <g transform="matrix(25,0,0,25,-54.117118,444.269496)">
            </g>
            <text x="-132.34px" y="444.269px" style="font-family:'TimesNewRomanPS-ItalicMT', 'Times New Roman', serif;font-style:italic;font-size:25px;">Pr<tspan x="-108.268px -95.768px " y="444.269px 444.269px ">oc</tspan>ess</text>
        </g>
        <g>
            <rect x="210.559" y="157.115" width="109.263" height="20" style="fill:white;fill-opacity:0.6;"/>
            <g transform="matrix(20.833333,0,0,20.833333,320.666312,174.897168)">
            </g>
            <text x="209.155px" y="174.897px" style="font-family:'TimesNewRomanPS-ItalicMT', 'Times New Roman', serif;font-style:italic;font-size:20.833px;fill:rgb(100,93,93);">Coor<tspan x="251.218px 261.635px " y="174.897px 174.897px ">di</tspan>nation</text>
        </g>
        <path d="M125.296,75.626L201.749,127.115" style="fill:none;stroke:rgb(193,193,193);stroke-width:1.04px;"/>
        <path d="M245.296,75.626L254.914,121.115" style="fill:none;stroke:rgb(193,193,193);stroke-width:1.04px;"/>
        <path d="M371.916,75.626L294.553,121.611" style="fill:none;stroke:rgb(193,193,193);stroke-width:1.04px;"/>
        <path d="M466.553,75.626L330.553,129.814" style="fill:none;stroke:rgb(193,193,193);stroke-width:1.04px;"/>
        <path d="M196.553,199.115L156.553,259.115" style="fill:none;stroke:rgb(193,193,193);stroke-width:1.04px;"/>
        <path d="M331.553,209.115L361.553,239.115" style="fill:none;stroke:rgb(193,193,193);stroke-width:1.04px;"/>
        <path d="M281.553,221.545L298.553,281.654" style="fill:none;stroke:rgb(193,193,193);stroke-width:1.04px;"/>
        <path d="M236.553,207.115L231.553,237.115" style="fill:none;stroke:rgb(193,193,193);stroke-width:1.04px;"/>
    </g>
</svg>
