<?xml version="1.0" encoding="UTF-8" standalone="no"?>
<!DOCTYPE svg PUBLIC "-//W3C//DTD SVG 1.1//EN" "http://www.w3.org/Graphics/SVG/1.1/DTD/svg11.dtd">
<svg width="100%" height="100%" viewBox="0 0 512 351" version="1.1" xmlns="http://www.w3.org/2000/svg" xmlns:xlink="http://www.w3.org/1999/xlink" xml:space="preserve" xmlns:serif="http://www.serif.com/" style="fill-rule:evenodd;clip-rule:evenodd;stroke-linecap:round;stroke-linejoin:round;stroke-miterlimit:1.5;">
    <g id="Process-Definition" serif:id="Process Definition">
        <rect x="30.691" y="89.115" width="480" height="260" style="fill:none;stroke:black;stroke-width:2.08px;stroke-dasharray:20.833,20.833,0,0,0,0;"/>
        <path d="M370.658,158.245L419.262,140.887L414.957,137.115L439.232,139.064L421.684,155.949L422.625,150.304L373.58,167.82C373.263,164.534 372.267,161.332 370.658,158.245Z" style="fill:rgb(151,151,151);"/>
        <path d="M370.464,182.351C372.116,179.283 373.162,176.098 373.536,172.829L422.625,190.362L421.684,184.716L439.232,201.602L414.957,203.551L419.262,199.779L370.464,182.351Z" style="fill:rgb(151,151,151);"/>
        <path d="M105.691,174.115L105.691,164.115L144.954,164.115L141.98,159.115L165.691,169.115L141.98,179.115L144.954,174.115L105.691,174.115Z" style="fill:rgb(151,151,151);"/>
        <path d="M255.691,219.115C305.292,219.115 349.303,205.288 364.876,184.813C379.536,165.538 364.12,144.348 326.632,132.245C291.634,120.946 243.916,120.676 208.253,131.576C175.128,141.7 160.664,159.918 172.373,176.771C183.185,192.334 215.728,203.129 253.107,203.551C287.385,203.939 318.373,194.727 329.982,180.699C340.541,167.939 331.094,153.673 306.545,145.309C284.437,137.775 253.711,137.254 230.319,144.015C209.51,150.03 199.915,161.168 206.516,171.646C212.298,180.824 230.963,187.356 252.821,187.851C271.582,188.276 288.856,183.423 295.673,175.812C301.366,169.457 297.045,162.231 284.955,157.886C275.255,154.4 261.506,154.01 250.848,156.92C242.816,159.113 238.922,163.298 241.189,167.302C242.715,169.997 248.043,171.963 254.408,172.18C257.681,172.291 260.749,171.477 262.02,170.161C262.024,170.157 262.027,170.153 262.03,170.148" style="fill:none;stroke:rgb(151,151,151);stroke-width:1.98px;"/>
        <path d="M159.467,263.889L165.08,281.164L183.244,281.164L168.549,291.84L174.162,309.115L159.467,298.438L144.773,309.115L150.386,291.84L135.691,281.164L153.854,281.164L159.467,263.889Z" style="fill:white;stroke:black;stroke-width:2.08px;"/>
        <path d="M234.95,241.277L240.563,258.551L258.726,258.551L244.032,269.227L249.644,286.502L234.95,275.826L220.255,286.502L225.868,269.227L211.173,258.551L229.337,258.551L234.95,241.277Z" style="fill:white;stroke:black;stroke-width:2.08px;"/>
        <path d="M304.432,286.502L310.045,303.777L328.209,303.777L313.514,314.453L319.127,331.727L304.432,321.051L289.737,331.727L295.35,314.453L280.656,303.777L298.819,303.777L304.432,286.502Z" style="fill:white;stroke:black;stroke-width:2.08px;"/>
        <path d="M366.915,241.277L372.527,258.551L390.691,258.551L375.996,269.227L381.609,286.502L366.915,275.826L352.22,286.502L357.833,269.227L343.138,258.551L361.302,258.551L366.915,241.277Z" style="fill:white;stroke:black;stroke-width:2.08px;"/>
        <circle cx="470.691" cy="134.115" r="30" style="fill:white;"/>
        <clipPath id="_clip1">
            <circle cx="470.691" cy="134.115" r="30"/>
        </clipPath>
        <g clip-path="url(#_clip1)">
            <g>
                <path d="M466.049,112.057C466.423,111.39 467.266,111.153 467.934,111.528C468.601,111.903 468.838,112.745 468.464,113.413L467.431,115.253L494.894,130.669C495.394,130.949 495.572,131.584 495.292,132.083L484.408,151.472C484.128,151.971 483.494,152.15 482.994,151.869L455.531,136.453L449.799,146.664C449.424,147.332 448.581,147.569 447.914,147.194C447.246,146.819 447.009,145.976 447.384,145.309L466.049,112.057ZM482.22,140.655L486.69,143.164L489.552,138.064L485.082,135.555L482.22,140.655ZM477.95,146.656L481.15,140.956L476.181,138.166L472.981,143.867L477.95,146.656ZM484.782,134.486L487.817,129.079L482.848,126.289L479.813,131.697L484.782,134.486ZM466.642,140.309L469.842,134.608L464.87,131.817L461.67,137.518L466.642,140.309ZM470.912,134.308L475.881,137.097L478.743,131.997L473.774,129.208L470.912,134.308ZM473.474,128.138L476.509,122.731L471.537,119.94L468.502,125.347L473.474,128.138ZM464.572,130.749L467.435,125.65L463.026,123.175L460.163,128.275L464.572,130.749Z" style="fill-rule:nonzero;"/>
            </g>
        </g>
        <circle cx="470.691" cy="134.115" r="30" style="fill:none;stroke:black;stroke-width:1.04px;"/>
        <circle cx="470.691" cy="204.367" r="30" style="fill:white;"/>
        <clipPath id="_clip2">
            <circle cx="470.691" cy="204.367" r="30"/>
        </clipPath>
        <g clip-path="url(#_clip2)">
            <g>
                <path d="M466.049,182.31C466.423,181.642 467.266,181.405 467.934,181.78C468.601,182.155 468.838,182.998 468.464,183.665L467.431,185.505L494.894,200.921C495.394,201.202 495.572,201.836 495.292,202.335L484.408,221.724C484.128,222.223 483.494,222.402 482.994,222.121L455.531,206.705L449.799,216.917C449.424,217.584 448.581,217.821 447.914,217.446C447.246,217.072 447.009,216.229 447.384,215.561L466.049,182.31ZM482.22,210.907L486.69,213.416L489.552,208.317L485.082,205.808L482.22,210.907ZM477.95,216.908L481.15,211.208L476.181,208.419L472.981,214.119L477.95,216.908ZM484.782,204.738L487.817,199.331L482.848,196.541L479.813,201.949L484.782,204.738ZM466.642,210.561L469.842,204.86L464.87,202.069L461.67,207.77L466.642,210.561ZM470.912,204.56L475.881,207.349L478.743,202.249L473.774,199.46L470.912,204.56ZM473.474,198.39L476.509,192.983L471.537,190.192L468.502,195.6L473.474,198.39ZM464.572,201.001L467.435,195.902L463.026,193.427L460.163,198.527L464.572,201.001Z" style="fill-rule:nonzero;"/>
            </g>
        </g>
        <circle cx="470.691" cy="204.367" r="30" style="fill:none;stroke:black;stroke-width:1.04px;"/>
        <circle cx="70.691" cy="169.115" r="30" style="fill:white;"/>
        <clipPath id="_clip3">
            <circle cx="70.691" cy="169.115" r="30"/>
        </clipPath>
        <g clip-path="url(#_clip3)">
            <clipPath id="_clip4">
                <rect x="49.66" y="149.115" width="40.03" height="40"/>
            </clipPath>
            <g clip-path="url(#_clip4)">
                <path d="M50.139,182.562C50.051,180.569 51.485,178.09 53.824,177.184L57.122,177.149L57.214,177.242C56.054,178.786 55.577,180.279 55.313,181.225C54.906,182.679 55.887,183.868 57.409,183.531C58.473,183.294 60.096,182.711 61.605,181.629C61.612,181.636 61.619,181.642 61.626,181.647L61.592,184.923C60.734,187.07 58.523,188.667 56.269,188.741C56.577,187.605 57.855,185.055 56.067,186.229C54.813,187.051 52.537,188.338 50.851,187.979C50.234,184.76 54.367,181.331 51.861,181.936C51.299,182.072 50.722,182.297 50.139,182.562Z" style="fill:rgb(216,24,43);"/>
                <path d="M89.511,149.215C89.839,149.475 89.683,150.437 89.333,151.581C88.827,153.23 87.966,155.417 87.714,155.959C86.905,157.692 85.774,159.557 84.438,161.455L77.349,154.366C79.251,153.038 81.12,151.911 82.849,151.097C83.366,150.854 85.489,150.033 87.132,149.524C88.258,149.176 89.223,148.986 89.511,149.215ZM83.423,162.852C81.891,164.895 80.159,166.947 78.369,168.88C75.393,172.095 72.251,174.991 69.614,176.993L69.523,181.521C69.521,181.631 69.473,181.732 69.399,181.807L62.217,188.99C62.058,189.149 61.808,189.157 61.659,189.008C61.579,188.928 61.544,188.82 61.553,188.712L61.626,181.647C61.614,181.638 61.602,181.628 61.591,181.617L57.122,177.149L50.063,177.222C49.955,177.231 49.847,177.196 49.768,177.116C49.618,176.967 49.626,176.717 49.785,176.558L56.968,169.375C57.043,169.302 57.144,169.254 57.254,169.252L61.863,169.16C63.729,166.605 66.463,163.611 69.529,160.752C71.572,158.847 73.764,157 75.948,155.377L83.423,162.852Z"/>
            </g>
        </g>
        <circle cx="70.691" cy="169.115" r="30" style="fill:none;stroke:black;stroke-width:1.04px;"/>
        <g id="Agents">
            <path d="M472.266,8.335C473.302,8.335 474.24,8.755 474.919,9.434C475.598,10.113 476.018,11.051 476.018,12.087C476.018,13.123 475.598,14.061 474.919,14.74C474.519,15.139 474.035,15.444 473.501,15.63L473.501,19.573L473.501,19.595L483.815,19.595C487.607,19.595 490.71,22.697 490.71,26.49L490.71,40.193C490.71,43.985 487.607,47.088 483.815,47.088L476.011,47.088L476.011,50.352L476.665,50.352C477.299,50.352 477.875,50.611 478.291,51.028C478.324,51.06 478.354,51.094 478.382,51.129C478.742,51.534 478.963,52.064 478.967,52.641L481.308,52.641C484.676,55.803 484.603,63.635 484.556,68.742L484.552,69.115L460.009,69.115L460,68.346C459.988,67.31 459.975,66.181 459.992,65.013C460.007,64.965 460.015,64.915 460.015,64.862C460.015,64.815 460.009,64.77 459.997,64.726C460.079,60.215 460.63,55.199 463.374,52.776C463.418,52.738 463.454,52.692 463.481,52.641L465.522,52.641C465.525,52.018 465.783,51.449 466.197,51.032L466.205,51.025C466.623,50.61 467.196,50.352 467.824,50.352L468.325,50.352L468.325,47.088L460.674,47.088C456.882,47.088 453.779,43.985 453.779,40.193L453.779,26.49C453.779,22.697 456.882,19.595 460.674,19.595L471.03,19.595L471.03,19.573L471.03,15.63C470.497,15.444 470.012,15.139 469.613,14.74C468.934,14.061 468.514,13.123 468.514,12.087C468.514,11.051 468.934,10.113 469.613,9.434C470.292,8.755 471.23,8.335 472.266,8.335ZM467.013,57.986L477.587,57.986C478.445,57.986 479.147,58.688 479.147,59.545L479.147,62.459C479.147,63.316 478.445,64.018 477.587,64.018L467.013,64.018C466.156,64.018 465.454,63.317 465.454,62.459L465.454,59.545C465.454,58.687 466.156,57.986 467.013,57.986ZM468.221,60.199C468.661,60.199 469.024,60.562 469.024,61.002C469.024,61.443 468.661,61.805 468.221,61.805C467.785,61.798 467.431,61.438 467.431,61.002C467.431,60.567 467.785,60.206 468.221,60.199ZM476.38,60.199C476.82,60.199 477.183,60.562 477.183,61.002C477.183,61.443 476.82,61.805 476.38,61.805C475.944,61.798 475.59,61.438 475.59,61.002C475.59,60.567 475.944,60.206 476.38,60.199ZM453.331,64.368L453.331,61.978C453.331,57.031 457.226,52.954 462.102,52.659C459.674,55.403 459.12,60.091 459.019,64.368L453.331,64.368ZM459.023,69.115L454.567,69.115C453.885,69.115 453.331,68.561 453.331,67.879L453.331,65.356L459.003,65.356C458.993,66.405 459.005,67.416 459.015,68.354C459.018,68.605 459.021,68.85 459.023,69.115ZM482.666,52.67C487.464,53.047 491.269,57.087 491.269,61.978L491.269,64.368L485.523,64.368C485.403,60.12 484.852,55.43 482.666,52.67ZM491.269,65.356L491.269,67.879C491.269,68.561 490.716,69.115 490.034,69.115L485.537,69.115L485.54,68.75C485.55,67.709 485.561,66.559 485.543,65.356L491.269,65.356ZM467.013,56.75L477.587,56.75C478.353,56.75 479.051,57.065 479.56,57.573L479.562,57.57C480.068,58.076 480.382,58.775 480.382,59.545L480.382,62.459C480.382,63.223 480.068,63.921 479.562,64.429L479.554,64.437C479.046,64.941 478.35,65.254 477.587,65.254L467.013,65.254C466.244,65.254 465.544,64.94 465.038,64.434C465.009,64.404 464.981,64.373 464.955,64.341C464.498,63.842 464.218,63.18 464.218,62.459L464.218,59.545C464.218,58.779 464.532,58.081 465.038,57.575L465.041,57.573L465.038,57.57C465.544,57.064 466.243,56.75 467.013,56.75ZM467.824,51.588L476.665,51.588C477.247,51.588 477.724,52.061 477.731,52.641L466.758,52.641C466.765,52.061 467.242,51.588 467.824,51.588ZM452.791,27.002L452.914,27.002L452.914,39.619L452.791,39.619C450.655,39.619 449.03,37.871 449.03,35.735L449.03,30.886C449.03,28.75 450.655,27.002 452.791,27.002ZM491.545,27.002L491.422,27.002L491.422,39.619L491.545,39.619C493.681,39.619 495.306,37.871 495.306,35.735L495.306,30.886C495.306,28.75 493.681,27.002 491.545,27.002ZM464.101,27.215C465.464,27.215 466.698,27.768 467.592,28.661C468.485,29.554 469.037,30.789 469.037,32.152C469.037,33.515 468.485,34.749 467.592,35.642C466.698,36.536 465.464,37.088 464.101,37.088C462.738,37.088 461.504,36.536 460.61,35.642C459.717,34.749 459.164,33.515 459.164,32.152C459.164,30.789 459.717,29.554 460.61,28.661C461.504,27.768 462.738,27.215 464.101,27.215ZM480.388,27.215C481.751,27.215 482.985,27.768 483.878,28.661C484.772,29.554 485.324,30.789 485.324,32.152C485.324,33.515 484.772,34.749 483.878,35.642C482.985,36.536 481.751,37.088 480.388,37.088C479.025,37.088 477.79,36.536 476.897,35.642C476.004,34.749 475.451,33.515 475.451,32.152C475.451,30.789 476.004,29.554 476.897,28.661C477.79,27.768 479.025,27.215 480.388,27.215ZM480.388,29.296C481.965,29.296 483.243,30.575 483.243,32.152C483.243,33.729 481.965,35.007 480.388,35.007C478.811,35.007 477.532,33.729 477.532,32.152C477.532,30.575 478.811,29.296 480.388,29.296ZM480.388,27.956C482.705,27.956 484.583,29.835 484.583,32.152C484.583,34.468 482.705,36.347 480.388,36.347C478.071,36.347 476.192,34.468 476.192,32.152C476.192,29.835 478.071,27.956 480.388,27.956ZM464.101,29.296C465.678,29.296 466.956,30.575 466.956,32.152C466.956,33.729 465.678,35.007 464.101,35.007C462.524,35.007 461.246,33.729 461.246,32.152C461.246,30.575 462.524,29.296 464.101,29.296ZM464.101,27.956C466.418,27.956 468.296,29.835 468.296,32.152C468.296,34.468 466.418,36.347 464.101,36.347C461.784,36.347 459.906,34.468 459.906,32.152C459.906,29.835 461.784,27.956 464.101,27.956ZM475.992,39.778C476.394,39.785 476.72,40.117 476.72,40.519C476.72,40.921 476.394,41.253 475.992,41.261L468.496,41.261C468.095,41.253 467.768,40.921 467.768,40.519C467.768,40.117 468.095,39.785 468.496,39.778L475.992,39.778ZM474.251,21.779C474.255,21.779 474.258,21.779 474.262,21.779C474.746,21.779 475.144,22.178 475.144,22.662C475.144,23.146 474.746,23.544 474.262,23.544C474.258,23.544 474.255,23.544 474.252,23.544C473.771,23.538 473.379,23.142 473.379,22.662C473.379,22.182 473.771,21.785 474.251,21.779ZM470.237,21.779C470.721,21.779 471.119,22.178 471.119,22.662C471.119,23.146 470.721,23.544 470.237,23.544C470.237,23.544 470.237,23.544 470.237,23.544C469.753,23.544 469.355,23.146 469.355,22.662L469.355,22.661C469.355,22.178 469.753,21.779 470.237,21.779C470.237,21.779 470.237,21.779 470.237,21.779Z"/>
            <clipPath id="_clip5">
                <rect x="343.246" y="17.846" width="71.973" height="60.78"/>
            </clipPath>
            <g clip-path="url(#_clip5)">
                <g>
                    <path d="M393.823,35.377C393.377,35.594 392.938,35.828 392.499,36.086C391.181,36.859 389.881,37.802 388.551,38.885L385.722,35.641C386.7,34.733 387.76,33.907 388.885,33.175C389.781,32.589 390.718,32.068 391.685,31.623C392.071,31.429 392.458,31.248 392.856,31.078C390.988,27.769 388.299,25.396 385.253,23.932C382.208,22.474 378.799,21.911 375.478,22.233C372.18,22.55 368.976,23.751 366.329,25.806C363.271,28.179 360.94,31.728 360.044,36.431L359.769,37.901L358.305,38.159C356.87,38.411 355.593,38.757 354.462,39.196C353.373,39.618 352.401,40.139 351.551,40.754C350.872,41.246 350.286,41.796 349.788,42.394C348.242,44.239 347.527,46.552 347.545,48.89C347.563,51.268 348.336,53.669 349.765,55.649C350.292,56.381 350.913,57.054 351.616,57.64C352.33,58.232 353.133,58.724 354.035,59.093C354.767,59.391 355.563,59.626 356.43,59.784L356.43,64.136C354.96,63.931 353.619,63.573 352.401,63.07C351.071,62.519 349.894,61.81 348.857,60.944C347.873,60.124 347.012,59.192 346.28,58.179C344.324,55.479 343.269,52.187 343.246,48.907C343.222,45.592 344.253,42.294 346.479,39.623C347.199,38.757 348.049,37.96 349.021,37.257C350.151,36.437 351.446,35.746 352.904,35.178C353.912,34.785 354.989,34.457 356.126,34.194C357.414,29.081 360.161,25.133 363.693,22.392C366.997,19.832 370.974,18.338 375.068,17.946C379.144,17.554 383.338,18.245 387.104,20.055C391.216,22.028 394.801,25.314 397.126,29.936C398.063,29.789 399,29.719 399.932,29.725C403.868,29.748 407.657,31.16 410.65,34.381C411.277,35.055 411.868,35.816 412.419,36.666C414.293,39.547 415.254,43.395 415.213,47.162C415.172,50.858 414.176,54.536 412.138,57.242C410.814,59.011 409.104,60.446 407.06,61.588C405.092,62.689 402.796,63.527 400.219,64.124L399.738,64.183L397.817,64.183L397.817,59.866L399.51,59.866C401.577,59.368 403.405,58.694 404.957,57.828C406.497,56.967 407.757,55.918 408.7,54.659C410.164,52.708 410.884,49.95 410.914,47.121C410.949,44.151 410.223,41.176 408.811,39.003C408.407,38.376 407.962,37.814 407.493,37.31C405.379,35.031 402.696,34.036 399.908,34.018C397.893,34.018 395.802,34.498 393.823,35.377ZM392.13,51.109C392.089,51.109 392.054,51.115 392.013,51.115L364.308,51.115C364.267,51.115 364.226,51.115 364.191,51.109C364.062,51.133 363.939,51.197 363.851,51.291C363.734,51.408 363.658,51.572 363.658,51.748L363.658,59.485C363.658,59.661 363.734,59.825 363.851,59.942C363.968,60.059 364.132,60.135 364.308,60.135L392.007,60.135C392.183,60.135 392.347,60.059 392.464,59.942C392.581,59.825 392.657,59.661 392.657,59.485L392.657,51.748C392.657,51.572 392.581,51.408 392.464,51.291C392.376,51.197 392.259,51.133 392.13,51.109ZM387.286,53.868C388.352,53.868 389.219,54.735 389.219,55.801C389.219,56.867 388.352,57.734 387.286,57.734C386.22,57.734 385.353,56.867 385.353,55.801C385.353,54.735 386.214,53.868 387.286,53.868ZM392.13,62.22C392.089,62.22 392.054,62.226 392.013,62.226L364.308,62.226C364.267,62.226 364.226,62.226 364.191,62.22C364.062,62.244 363.939,62.308 363.851,62.402C363.734,62.519 363.658,62.683 363.658,62.859L363.658,70.596C363.658,70.772 363.734,70.936 363.851,71.053C363.968,71.17 364.132,71.246 364.308,71.246L392.007,71.246C392.183,71.246 392.347,71.17 392.464,71.053C392.581,70.936 392.657,70.772 392.657,70.596L392.657,62.859C392.657,62.683 392.581,62.519 392.464,62.402C392.376,62.308 392.259,62.244 392.13,62.22ZM366.417,64.622L368.045,64.622L368.045,68.833L366.417,68.833L366.417,64.622ZM370.915,64.622L372.543,64.622L372.543,68.833L370.915,68.833L370.915,64.622ZM375.419,64.622L377.048,64.622L377.048,68.833L375.419,68.833L375.419,64.622ZM366.417,53.511L368.045,53.511L368.045,57.722L366.417,57.722L366.417,53.511ZM370.915,53.511L372.543,53.511L372.543,57.722L370.915,57.722L370.915,53.511ZM375.419,53.511L377.048,53.511L377.048,57.722L375.419,57.722L375.419,53.511Z" style="fill-rule:nonzero;"/>
                </g>
            </g>
            <g>
                <path d="M260.52,17.318C261.174,17.507 261.648,17.885 261.941,18.461C262.396,19.387 262.226,20.747 261.363,22.693C261.344,22.731 261.325,22.769 261.306,22.797L258.244,27.823C257.059,29.769 255.856,31.724 254.234,33.226C252.547,34.804 250.471,35.852 247.627,35.843C244.973,35.834 242.973,34.823 241.333,33.33C239.759,31.894 238.565,30.062 237.427,28.257L234.744,23.997C233.749,22.514 233.228,21.144 233.19,20.02C233.171,19.472 233.265,18.981 233.474,18.546C233.692,18.083 234.014,17.696 234.46,17.403C234.678,17.252 234.924,17.129 235.199,17.035C235.038,14.758 234.981,11.943 235.086,9.572C235.142,8.996 235.256,8.419 235.417,7.843C236.1,5.397 237.825,3.432 239.958,2.081C240.707,1.608 241.532,1.212 242.404,0.9C247.561,-0.961 254.405,0.059 258.064,4.008C259.553,5.614 260.491,7.749 260.69,10.564L260.52,17.318Z" style="fill:white;"/>
                <path d="M279.215,62.926L281.158,55.541L279.82,54.082C279.215,53.206 279.088,52.437 279.42,51.776C280.142,50.346 281.646,50.608 283.052,50.608C284.526,50.608 286.342,50.326 286.801,52.165C286.957,52.778 286.762,53.42 286.333,54.082L284.995,55.541L286.157,59.978L293.861,53.303L297.854,53.401C296.477,50.647 294.73,48.312 292.699,46.113C296.526,47.592 300.442,49.051 303.342,50.861C305.187,52.009 306.134,52.885 306.886,54.276C308.468,57.244 308.643,59.9 308.878,63.111L309.434,65.894L287.719,65.894L287.739,65.962L279.429,65.962C279.244,67.86 278.15,68.959 276.012,69.115L222.866,69.115C220.718,68.949 219.625,67.85 219.449,65.933L220.191,54.218C220.396,51.513 221.158,49.373 222.398,47.738C223.218,46.658 224.233,45.86 225.356,45.237C228.92,43.262 237.239,42.678 240.471,39.779L245.421,54.286L247.911,45.675L246.691,44.342C246.144,43.544 246.017,42.844 246.329,42.24C246.993,40.937 248.36,41.18 249.639,41.18C250.977,41.18 252.627,40.927 253.047,42.6C253.184,43.155 253.008,43.739 252.617,44.342L251.397,45.675L253.887,54.286L258.368,39.779C261.6,42.678 269.929,43.262 273.483,45.237C274.606,45.86 275.631,46.658 276.442,47.738C277.682,49.373 278.443,51.503 278.648,54.218L279.215,62.926ZM204.363,46.94L207.683,56.66L209.353,50.89L208.533,49.995C208.162,49.46 208.084,48.993 208.289,48.584C208.728,47.709 209.646,47.874 210.505,47.874C211.403,47.874 212.507,47.709 212.79,48.828C212.887,49.197 212.761,49.596 212.507,49.995L211.687,50.89L213.356,56.66L216.363,46.94C216.803,47.329 217.408,47.66 218.121,47.942C217.877,48.458 217.652,49.003 217.457,49.567C216.949,51.036 216.617,52.671 216.481,54.491L216.49,54.491C216.49,54.529 216.481,54.578 216.481,54.617L215.758,65.884L191.729,65.884C190.284,65.777 189.551,65.038 189.434,63.753L189.932,56.612C190.069,54.802 190.586,53.372 191.416,52.272C191.963,51.552 192.647,51.017 193.398,50.599C195.781,49.275 202.196,48.886 204.363,46.94ZM202.733,33.162C202.411,33.192 202.167,33.26 201.991,33.376C201.893,33.445 201.815,33.532 201.766,33.629C201.708,33.746 201.688,33.902 201.688,34.067C201.708,34.602 201.991,35.322 202.547,36.149L202.557,36.169L204.412,39.107C205.154,40.275 205.926,41.472 206.883,42.347C207.791,43.175 208.894,43.739 210.359,43.739C211.94,43.739 213.093,43.155 214.04,42.279C215.026,41.355 215.807,40.09 216.578,38.825L218.658,35.41C219.078,34.456 219.205,33.882 219.068,33.61C218.98,33.445 218.639,33.396 218.072,33.445C217.711,33.522 217.33,33.454 216.93,33.25L217.975,30.136C214.157,30.088 211.55,29.426 208.455,27.461C207.439,26.818 207.136,26.079 206.121,26.147C205.35,26.293 204.705,26.634 204.198,27.188C203.709,27.714 203.338,28.434 203.094,29.358L203.709,33.085C203.397,33.279 203.065,33.299 202.733,33.162ZM219.263,32.238C219.713,32.374 220.045,32.627 220.24,33.026C220.552,33.659 220.435,34.602 219.839,35.945C219.83,35.974 219.82,35.994 219.8,36.023L217.691,39.487C216.871,40.83 216.041,42.172 214.928,43.213C213.766,44.303 212.331,45.023 210.368,45.013C208.533,45.013 207.156,44.313 206.023,43.282C204.94,42.289 204.11,41.024 203.329,39.779L201.473,36.84C200.78,35.809 200.429,34.875 200.399,34.096C200.39,33.717 200.448,33.376 200.595,33.085C200.741,32.763 200.966,32.501 201.278,32.296C201.425,32.199 201.6,32.112 201.786,32.043C201.669,30.467 201.63,28.521 201.708,26.887C201.747,26.488 201.825,26.089 201.932,25.69C202.411,24.006 203.592,22.644 205.067,21.71C205.584,21.379 206.15,21.107 206.756,20.893C210.32,19.608 215.036,20.309 217.564,23.033C218.59,24.143 219.244,25.612 219.381,27.558L219.263,32.238ZM237.913,19.229C237.503,19.278 237.18,19.385 236.946,19.54C236.8,19.638 236.682,19.774 236.614,19.92C236.536,20.095 236.497,20.319 236.497,20.572C236.516,21.379 236.946,22.44 237.786,23.666L237.805,23.685L240.569,28.074C241.672,29.825 242.824,31.606 244.25,32.9C245.607,34.135 247.257,34.972 249.425,34.982C251.787,34.992 253.506,34.116 254.912,32.812C256.386,31.44 257.558,29.543 258.71,27.655L261.815,22.557C262.44,21.136 262.635,20.28 262.43,19.871C262.303,19.608 261.756,19.55 260.839,19.638C260.77,19.647 260.702,19.647 260.634,19.638C260.253,19.638 259.843,19.54 259.394,19.336L260.79,14.685C255.088,14.617 251.192,13.625 246.583,10.686C245.07,9.723 244.611,8.623 243.097,8.73C241.955,8.954 240.988,9.46 240.227,10.277C239.494,11.066 238.938,12.136 238.577,13.508L239.563,19.132C238.977,19.433 238.43,19.453 237.913,19.229ZM262.713,17.838C263.387,18.032 263.875,18.421 264.178,19.015C264.647,19.969 264.471,21.37 263.582,23.374C263.563,23.413 263.543,23.452 263.524,23.481L260.37,28.657C259.15,30.662 257.909,32.676 256.24,34.223C254.502,35.848 252.363,36.928 249.434,36.918C246.7,36.908 244.64,35.867 242.951,34.33C241.33,32.851 240.1,30.963 238.928,29.105L236.165,24.717C235.14,23.189 234.603,21.778 234.564,20.62C234.544,20.056 234.642,19.55 234.857,19.103C235.081,18.626 235.413,18.227 235.872,17.925C236.097,17.77 236.35,17.643 236.634,17.546C236.468,15.201 236.409,12.301 236.516,9.859C236.575,9.266 236.692,8.672 236.858,8.078C237.561,5.558 239.338,3.535 241.535,2.143C242.307,1.657 243.156,1.248 244.054,0.927C249.366,-0.99 256.416,0.061 260.184,4.128C261.717,5.782 262.684,7.981 262.889,10.881L262.713,17.838ZM272.311,41.793L274.752,41.725L276.774,41.676C274.411,34.427 275.202,27.762 280.894,22.099C281.861,25.213 284.018,27.772 287.7,29.669C289.457,30.973 291.166,32.549 292.806,34.349C293.099,33.153 291.986,31.693 290.629,30.195C291.879,30.808 293.031,31.674 293.841,33.328C294.788,35.254 294.769,36.869 294.466,38.961C294.32,39.934 294.085,40.839 293.743,41.666L297.112,41.666C300.666,34.087 298.411,22.849 291.146,18.081C288.92,16.621 287.319,16.67 284.702,16.68C281.704,16.68 280.181,16.777 277.613,18.46C273.835,20.951 271.511,25.262 270.534,31.246C270.349,34.233 270.222,39.39 272.311,41.793Z"/>
            </g>
            <clipPath id="_clip6">
                <rect x="103.246" y="6.115" width="52.377" height="63"/>
            </clipPath>
            <g clip-path="url(#_clip6)">
                <g>
                    <path d="M125.271,7.412C128.245,5.397 131.634,5.843 134.433,7.976C135.166,8.54 135.797,9.232 136.294,10.068C136.72,10.78 137.463,12.236 136.074,12.462C135.525,12.549 134.571,11.806 133.833,11.565C132.885,11.257 131.911,11.062 130.942,10.96C129.142,10.775 127.368,10.924 125.845,11.344C125.02,11.575 124.215,11.852 123.446,12.205C123.087,12.37 122.354,12.862 122.154,12.231C121.687,10.785 124.205,8.135 125.271,7.412ZM127.394,43.875C127.117,43.777 126.973,43.47 127.076,43.193C127.178,42.916 127.481,42.772 127.758,42.875C128.342,43.085 128.916,43.177 129.47,43.167C130.024,43.157 130.572,43.039 131.111,42.834C131.388,42.731 131.69,42.87 131.798,43.142C131.9,43.418 131.762,43.721 131.49,43.829C130.844,44.075 130.183,44.213 129.496,44.228C128.804,44.244 128.106,44.131 127.394,43.875ZM138.791,46.356C142.846,47.925 146.107,49.135 149.173,51.058C151.126,52.278 152.131,53.201 152.926,54.687C154.602,57.835 154.787,60.66 155.038,64.075L155.623,69.12L147.133,69.12L146.174,64.736L145.482,69.12L114.951,69.12L114.028,64.736L113.31,69.12L103.246,69.12L103.83,64.075C104.082,60.66 104.266,57.835 105.943,54.687C106.732,53.206 107.737,52.288 109.696,51.058C112.761,49.135 115.986,47.94 120.042,46.366C122.169,55.046 138.791,52.606 138.791,46.356ZM133.274,34.098C133.074,33.954 133.028,33.677 133.162,33.477C133.3,33.267 133.587,33.216 133.792,33.354C134.141,33.585 134.725,33.708 135.341,33.698C135.925,33.687 136.515,33.559 136.94,33.282C137.15,33.149 137.432,33.205 137.566,33.421C137.663,33.667 137.617,33.877 137.427,34.046C136.043,34.687 134.659,34.744 133.274,34.098ZM121.318,34.108C121.134,33.923 121.011,33.728 121.185,33.467C121.323,33.257 121.611,33.205 121.816,33.344C122.195,33.6 122.764,33.708 123.343,33.703C123.984,33.698 124.641,33.549 125.066,33.298C125.287,33.17 125.563,33.247 125.686,33.462C125.717,33.58 125.717,33.693 125.692,33.8C125.599,34.144 125.271,34.185 124.964,34.292C124.343,34.508 123.831,34.621 123.308,34.61C122.708,34.6 122.103,34.441 121.318,34.108ZM133.7,31.462C133.495,31.606 133.213,31.56 133.069,31.355C132.926,31.15 132.972,30.868 133.177,30.724C134.033,30.119 134.91,29.806 135.802,29.801C136.699,29.796 137.591,30.104 138.488,30.719C138.699,30.862 138.745,31.15 138.606,31.35C138.463,31.56 138.176,31.606 137.976,31.467C137.238,30.96 136.515,30.709 135.812,30.714C135.1,30.709 134.397,30.965 133.7,31.462ZM120.908,31.462C120.703,31.606 120.421,31.56 120.278,31.355C120.134,31.15 120.18,30.868 120.385,30.724C121.241,30.119 122.118,29.806 123.01,29.801C123.907,29.796 124.8,30.104 125.697,30.719C125.907,30.862 125.953,31.15 125.815,31.35C125.671,31.56 125.384,31.606 125.184,31.467C124.446,30.96 123.723,30.709 123.02,30.714C122.313,30.709 121.611,30.965 120.908,31.462ZM115.161,29.212C115.289,29.13 115.438,29.094 115.581,29.104C115.33,27.807 115.366,26.561 115.422,25.105C115.561,21.296 116.525,18.25 119.529,15.605C124.061,11.616 133.033,11.267 138.022,14.702C138.76,15.21 139.447,15.815 140.068,16.522C142.093,18.845 143.897,23.946 143.856,27.094C143.846,27.822 143.728,28.56 143.482,29.314C143.472,29.391 143.457,29.468 143.436,29.56C143.985,29.904 144.41,30.329 144.728,30.806C145.195,31.519 145.4,32.339 145.348,33.205C145.302,34.036 145.015,34.908 144.502,35.764C143.903,36.753 142.985,37.727 141.765,38.558C140.698,41.045 139.206,43.536 137.402,45.536C135.884,47.217 134.141,48.556 132.239,49.258C130.29,49.976 128.194,50.032 126.02,49.12C124.892,48.648 123.748,47.915 122.6,46.879C121.549,45.931 120.595,44.757 119.734,43.388C118.934,42.121 118.217,40.686 117.565,39.107C117.278,39.019 117.001,38.912 116.745,38.794C116.376,38.625 116.038,38.42 115.73,38.184C114.828,37.492 114.233,36.553 113.884,35.518C113.5,34.364 113.428,33.088 113.582,31.914C113.664,31.303 113.833,30.775 114.084,30.334C114.356,29.873 114.71,29.499 115.161,29.212ZM115.915,30.365L115.899,30.375C115.648,30.534 115.443,30.75 115.289,31.027C115.125,31.314 115.012,31.678 114.951,32.103C114.817,33.082 114.874,34.144 115.192,35.087C115.453,35.877 115.899,36.584 116.566,37.092C116.801,37.271 117.053,37.425 117.324,37.553C117.601,37.681 117.904,37.789 118.232,37.871C118.457,37.922 118.627,38.086 118.709,38.286C119.365,39.922 120.093,41.388 120.898,42.665C121.693,43.926 122.564,44.997 123.523,45.864C124.553,46.792 125.563,47.443 126.553,47.858C128.373,48.627 130.132,48.576 131.762,47.976C133.438,47.361 135.002,46.156 136.376,44.628C138.114,42.706 139.555,40.27 140.57,37.845C140.632,37.707 140.724,37.599 140.842,37.522C141.975,36.779 142.8,35.923 143.323,35.061C143.718,34.405 143.933,33.754 143.974,33.144C144.005,32.565 143.877,32.031 143.58,31.575C143.421,31.334 143.216,31.109 142.959,30.914C142.441,32.093 141.57,33.641 140.447,35.179L140.447,28.13C137.217,26.633 135.105,23.341 134.023,18.394C132.736,27.812 121.175,27.407 118.268,29.119L118.268,34.615C117.714,33.841 117.222,33.052 116.776,32.252C116.396,31.58 116.114,30.96 115.915,30.365Z"/>
                </g>
            </g>
        </g>
        <g transform="matrix(25,0,0,25,94.315389,129.114677)">
        </g>
        <text x="45.695px" y="129.115px" style="font-family:'TimesNewRomanPS-ItalicMT', 'Times New Roman', serif;font-style:italic;font-size:25px;fill:rgb(100,93,93);">Start</text>
        <g transform="matrix(25,0,0,25,500.018311,261.114677)">
        </g>
        <text x="440.289px" y="261.115px" style="font-family:'TimesNewRomanPS-ItalicMT', 'Times New Roman', serif;font-style:italic;font-size:25px;fill:rgb(100,93,93);">Goals</text>
        <g transform="matrix(25,0,0,25,274.929199,328.821708)">
        </g>
        <text x="181.912px" y="328.822px" style="font-family:'TimesNewRomanPS-ItalicMT', 'Times New Roman', serif;font-style:italic;font-size:25px;fill:rgb(100,93,93);">Activities</text>
        <g transform="matrix(25,0,0,25,94.079997,43.509963)">
        </g>
        <text x="26.038px" y="43.51px" style="font-family:'TimesNewRomanPS-ItalicMT', 'Times New Roman', serif;font-style:italic;font-size:25px;fill:rgb(100,93,93);">Agents</text>
        <g transform="matrix(0,-1,1,0,-423.578578,129.395752)">
            <g transform="matrix(31.25,0,0,31.25,-40.201102,444.269496)">
            </g>
            <text x="-137.979px" y="444.269px" style="font-family:'TimesNewRomanPS-ItalicMT', 'Times New Roman', serif;font-style:italic;font-size:31.25px;">Pr<tspan x="-107.889px -92.264px " y="444.269px 444.269px ">oc</tspan>ess</text>
        </g>
        <g>
            <rect x="190.691" y="159.115" width="150" height="20" style="fill:white;fill-opacity:0.6;"/>
            <g transform="matrix(25,0,0,25,338.720511,176.897168)">
            </g>
            <text x="199.377px" y="176.897px" style="font-family:'TimesNewRomanPS-ItalicMT', 'Times New Roman', serif;font-style:italic;font-size:25px;fill:rgb(100,93,93);">Or<tspan x="226.233px 237.329px " y="176.897px 176.897px ">ch</tspan>estration</text>
        </g>
        <path d="M129.434,75.626L205.888,127.115" style="fill:none;stroke:rgb(193,193,193);stroke-width:1.04px;"/>
        <path d="M249.434,75.626L259.052,121.115" style="fill:none;stroke:rgb(193,193,193);stroke-width:1.04px;"/>
        <path d="M376.055,75.626L298.691,121.611" style="fill:none;stroke:rgb(193,193,193);stroke-width:1.04px;"/>
        <path d="M470.691,75.626L334.691,129.814" style="fill:none;stroke:rgb(193,193,193);stroke-width:1.04px;"/>
        <path d="M200.691,199.115L160.691,259.115" style="fill:none;stroke:rgb(193,193,193);stroke-width:1.04px;"/>
        <path d="M335.691,209.115L365.691,239.115" style="fill:none;stroke:rgb(193,193,193);stroke-width:1.04px;"/>
        <path d="M285.691,221.545L302.691,281.654" style="fill:none;stroke:rgb(193,193,193);stroke-width:1.04px;"/>
        <path d="M240.691,207.115L235.691,237.115" style="fill:none;stroke:rgb(193,193,193);stroke-width:1.04px;"/>
    </g>
</svg>
