<?xml version="1.0" encoding="UTF-8" standalone="no"?>
<!DOCTYPE svg PUBLIC "-//W3C//DTD SVG 1.1//EN" "http://www.w3.org/Graphics/SVG/1.1/DTD/svg11.dtd">
<svg width="100%" height="100%" viewBox="0 0 440 140" version="1.1" xmlns="http://www.w3.org/2000/svg" xmlns:xlink="http://www.w3.org/1999/xlink" xml:space="preserve" xmlns:serif="http://www.serif.com/" style="fill-rule:evenodd;clip-rule:evenodd;stroke-linecap:round;stroke-linejoin:round;stroke-miterlimit:1.5;">
    <g id="Building-Construction" serif:id="Building Construction">
        <rect x="-0" y="0" width="440" height="140" style="fill:none;"/>
        <g>
            <path d="M312.578,90.368C312.583,90.386 312.587,90.404 312.591,90.422C313.997,94.914 317.115,98.185 319.467,101.696C322.785,106.65 338.3,107.012 340.74,102.052L340.771,102.031C343.86,99.425 346.152,95.673 347.313,91.391L347.696,89.953C348.392,89.788 349.035,89.327 349.598,88.666C350.261,87.89 350.828,86.823 351.244,85.642L351.254,85.62C352.679,81.421 352.355,78.175 350.713,74.183C351.058,74.002 351.391,73.814 351.711,73.62L354.57,73.62L355.41,74.46L389.98,41.51C396.56,36.89 400.62,38.44 404.41,50.22L416.61,81.87L413.88,83.03L414.12,83.03C417.61,83.03 420.44,85.86 420.44,89.35C420.44,91.95 418.87,94.18 416.63,95.15L416.7,99.69C425.04,123.6 395.56,128.47 387.19,113.05C385.67,110.26 384.07,107.52 383.03,103.98C382.31,101.51 385.59,100.56 386.4,102.22L387.86,105.42L412.88,98.15L412.95,95.55C410.02,95 407.8,92.43 407.81,89.34C407.81,87.55 408.55,85.93 409.75,84.78L407.13,85.89L392.95,54.5L364.98,84.04L366.82,85.89L366.82,105.46C366.82,108.32 364.48,110.67 361.61,110.67L306.36,110.67C303.5,110.67 301.15,108.33 301.15,105.46L301.15,98.97C301.15,96.11 303.49,93.77 306.35,93.77L310.57,93.77L310.57,93C310.57,91.75 311.425,90.687 312.578,90.368ZM394.57,44.4C392.63,44.4 391.07,45.97 391.07,47.9C391.07,49.83 392.64,51.4 394.57,51.4C396.5,51.4 398.07,49.83 398.07,47.9C398.07,45.97 396.5,44.4 394.57,44.4ZM311.15,112.82L356.63,112.82C364.1,112.82 370.22,118.93 370.22,126.41C370.22,133.88 364.11,140 356.63,140L311.15,140C303.67,139.99 297.56,133.88 297.56,126.4C297.56,118.93 303.67,112.82 311.15,112.82ZM355.21,116.46C349.72,116.46 345.27,120.91 345.27,126.4C345.27,131.89 349.72,136.34 355.21,136.34C360.7,136.34 365.15,131.89 365.15,126.4C365.15,120.91 360.7,116.46 355.21,116.46ZM353.98,124.08C353.98,123.92 354.53,123.8 355.21,123.8C355.89,123.8 356.44,123.93 356.44,124.08L356.44,125.17L357.53,125.17C357.69,125.17 357.81,125.72 357.81,126.4C357.81,127.08 357.68,127.63 357.53,127.63L356.44,127.63L356.44,128.72C356.44,128.88 355.89,129 355.21,129C354.53,129 353.98,128.87 353.98,128.72L353.98,127.63L352.89,127.63C352.73,127.63 352.61,127.08 352.61,126.4C352.61,125.72 352.74,125.17 352.89,125.17L353.98,125.17L353.98,124.08ZM312.69,116.46C307.2,116.46 302.75,120.91 302.75,126.4C302.75,131.89 307.2,136.34 312.69,136.34C318.18,136.34 322.63,131.89 322.63,126.4C322.63,120.91 318.18,116.46 312.69,116.46ZM315.01,125.18C315.17,125.18 315.29,125.73 315.29,126.41C315.29,127.09 315.16,127.64 315.01,127.64L313.92,127.64L313.92,128.73C313.92,128.89 313.37,129.01 312.69,129.01C312.01,129.01 311.46,128.88 311.46,128.73L311.46,127.64L310.37,127.64C310.21,127.64 310.09,127.09 310.09,126.41C310.09,125.73 310.22,125.18 310.37,125.18L311.46,125.18L311.46,124.09C311.46,123.93 312.01,123.81 312.69,123.81C313.37,123.81 313.92,123.94 313.92,124.09L313.92,125.18L315.01,125.18Z"/>
            <path d="M322.49,50.676C322.284,50.684 322.085,50.645 321.901,50.584C316.648,52.93 312.396,58.093 311.242,66.688C311.119,67.638 310.216,68.301 309.231,68.187C308.243,68.064 307.547,67.2 307.671,66.259C309.016,56.242 314.155,50.185 320.509,47.401C323.714,45.996 327.209,45.436 330.666,45.636C334.114,45.827 337.532,46.768 340.607,48.357C347.113,51.73 352.069,58.031 352.429,66.422C352.466,67.376 351.694,68.179 350.701,68.218C349.706,68.256 348.873,67.515 348.834,66.559C348.537,59.53 344.369,54.248 338.9,51.409C338.664,51.286 338.435,51.173 338.191,51.057C337.991,51.128 337.778,51.165 337.547,51.157C334.413,51.083 335.475,64.727 335.475,67.896C335.475,68.868 334.672,69.655 333.686,69.655C332.699,69.655 331.895,68.868 331.895,67.896C331.895,62.928 331.049,53.12 333.631,49.521C332.586,49.3 331.522,49.153 330.458,49.092C329.121,49.016 327.782,49.077 326.466,49.268C328.906,53.051 328.081,62.828 328.081,67.896C328.081,68.86 327.301,69.64 326.337,69.64C325.373,69.64 324.593,68.86 324.593,67.896C324.593,64.647 325.678,50.586 322.49,50.676ZM350.713,74.183C352.355,78.175 352.679,81.421 351.254,85.62L351.244,85.642C350.828,86.823 350.261,87.89 349.598,88.666C349.035,89.327 348.392,89.788 347.696,89.953L347.313,91.391C346.152,95.673 343.86,99.425 340.771,102.031L340.74,102.052C338.3,107.012 322.785,106.65 319.467,101.696C317.115,98.185 313.997,94.914 312.591,90.422C312.521,90.129 312.398,89.798 312.302,89.505C311.168,89.366 310.277,88.525 309.6,87.413C307.886,84.588 307.512,81.223 308.339,78.066C308.65,76.875 309.082,75.71 309.508,74.682C307.481,73.601 305.561,72.101 304.558,69.984L307.831,68.555C310.386,73.951 323.755,74.909 328.746,74.924C336.071,74.948 343.536,73.755 348.322,71.483C350.212,70.588 351.626,69.548 352.353,68.387L355.442,70.16C354.46,71.734 352.82,73.077 350.713,74.183ZM312.717,76.068C309.886,78.907 312.026,87.266 313.577,86.955C314.947,86.559 315.213,88.609 315.485,89.487C316.967,94.191 319.639,97.628 322.795,99.72C325.149,101.282 327.776,102.099 330.376,102.136C332.975,102.173 335.557,101.438 337.823,99.898C340.589,98.019 342.896,94.936 344.22,90.598C344.445,89.716 344.738,87.272 346.095,87.534C348.279,87.962 348.937,81.706 348.732,80.115C348.564,78.799 348.13,77.513 347.545,75.808C347.523,75.739 347.516,75.666 347.526,75.595L347.53,75.56C338.236,78.889 322.554,79.513 312.717,76.068Z"/>
        </g>
        <g>
            <g id="Blueprint">
                <path d="M289.5,46.097L289.5,91.097L233,91.097L233,58.225L244.3,58.225L244.3,46.097L233,58.225L244.3,46.097L289.5,46.097Z" style="fill:none;stroke:black;stroke-width:2.5px;"/>
                <g>
                    <rect x="248.047" y="71.088" width="2.348" height="5.611" style="fill:none;stroke:black;stroke-width:1px;"/>
                    <rect x="252.717" y="71.088" width="2.348" height="5.611" style="fill:none;stroke:black;stroke-width:1px;"/>
                    <rect x="257.386" y="71.088" width="2.348" height="5.611" style="fill:none;stroke:black;stroke-width:1px;"/>
                    <rect x="262.056" y="71.088" width="2.348" height="5.611" style="fill:none;stroke:black;stroke-width:1px;"/>
                    <rect x="266.725" y="71.088" width="2.348" height="5.611" style="fill:none;stroke:black;stroke-width:1px;"/>
                    <rect x="271.395" y="71.088" width="2.862" height="5.611" style="fill:none;stroke:black;stroke-width:1px;"/>
                    <rect x="245.527" y="71.088" width="28.73" height="5.611" style="fill:none;stroke:black;stroke-width:1px;"/>
                    <rect x="239.216" y="76.699" width="35.652" height="10.161" style="fill:none;stroke:black;stroke-width:1px;"/>
                    <rect x="243.25" y="79.499" width="4.198" height="7.323" style="fill:none;stroke:black;stroke-width:1px;"/>
                    <rect x="251.451" y="79.537" width="4.198" height="7.323" style="fill:none;stroke:black;stroke-width:1px;"/>
                    <rect x="259.572" y="79.537" width="4.198" height="7.323" style="fill:none;stroke:black;stroke-width:1px;"/>
                    <rect x="267.693" y="79.537" width="4.198" height="7.323" style="fill:none;stroke:black;stroke-width:1px;"/>
                    <rect x="277.914" y="67.372" width="5.027" height="16.275" style="fill:none;stroke:black;stroke-width:1px;"/>
                    <rect x="275.811" y="61.041" width="9.426" height="3.402" style="fill:none;stroke:black;stroke-width:1px;"/>
                    <rect x="275.811" y="54.486" width="9.426" height="2.608" style="fill:none;stroke:black;stroke-width:1px;"/>
                    <rect x="275.811" y="58.901" width="9.426" height="2.141" style="fill:none;stroke:black;stroke-width:1px;"/>
                    <rect x="278.525" y="61.041" width="3.813" height="3.402" style="fill:none;stroke:black;stroke-width:1px;"/>
                    <rect x="277.914" y="83.647" width="5.027" height="3.175" style="fill:none;stroke:black;stroke-width:1px;"/>
                    <rect x="239.253" y="79.499" width="32.792" height="7.361" style="fill:none;stroke:black;stroke-width:1px;"/>
                    <path d="M236.264,86.86L286.236,86.86" style="fill:none;stroke:black;stroke-width:1px;"/>
                    <path d="M280.438,50.683L280.438,54.486" style="fill:none;stroke:black;stroke-width:1px;"/>
                    <path d="M275.811,57.094L277.409,58.692" style="fill:none;stroke:black;stroke-width:1px;"/>
                    <path d="M285.237,57.094L283.639,58.692" style="fill:none;stroke:black;stroke-width:1px;"/>
                    <path d="M277.245,64.444L277.914,67.372" style="fill:none;stroke:black;stroke-width:1px;"/>
                    <path d="M283.609,64.444L282.94,67.372" style="fill:none;stroke:black;stroke-width:1px;"/>
                </g>
            </g>
            <path d="M167.681,104.53C164.166,106.285 156.122,106.14 156.488,106.049C150.124,105.859 143.941,104.167 142.884,101.187C142.87,101.148 142.862,101.107 142.862,101.065C142.862,100.913 142.962,100.778 143.107,100.733L143.19,100.733C146.836,100.528 150.145,98.504 151.989,95.351C153.904,92.281 154.928,88.153 155.44,83.663C155.696,81.376 155.861,79.057 156.017,76.762C156.843,64.974 157.602,53.599 171.809,47.871C173.945,47.006 176.193,46.45 178.487,46.22C183.404,45.718 188.358,46.757 192.66,49.191C197.263,51.849 200.827,55.996 202.763,60.946C203.813,63.589 204.478,66.369 204.736,69.201C204.736,76.531 205.842,85.413 208.946,91.893C211.282,96.788 214.724,100.312 219.677,100.709C219.87,100.73 220.013,100.903 219.999,101.096L219.999,101.212C218.81,104.448 211.472,106.099 204.373,105.917C197.274,105.736 195.938,105.059 193.683,103.87C192.254,103.116 190.637,101.963 190.134,100.568C190.134,100.461 190.059,100.354 190.026,100.246C187.202,102.497 183.73,103.785 180.121,103.92C177.096,103.886 174.149,102.949 171.66,101.229C171.115,102.648 169.823,103.462 167.681,104.53ZM185.858,60.608C177.999,68.54 169.745,71.677 161.053,73.84C160.962,74.299 160.935,74.768 160.97,75.235C160.97,87.22 170.05,101.6 180.096,101.6C190.142,101.6 200.378,87.22 200.378,75.235C200.403,73.413 200.124,71.599 199.552,69.869C191.942,69.787 188.97,65.957 185.883,60.608L185.858,60.608Z"/>
            <path d="M142.5,27.097C142.5,28.749 141.885,30.395 140.596,31.928C139.639,33.065 138.266,34.163 136.5,35.151L150.726,49.134L125.183,38.797C122.05,39.324 118.688,39.597 115.29,39.597C105.059,39.597 96.211,37.102 91.801,33.662C89.318,31.724 88.08,29.428 88.08,27.097C88.08,24.765 89.318,22.469 91.801,20.532C96.211,17.091 105.059,14.597 115.29,14.597C125.521,14.597 134.369,17.091 138.778,20.532C141.261,22.469 142.5,24.765 142.5,27.097ZM140,27.097C140,21.578 128.928,17.097 115.29,17.097C101.652,17.097 90.58,21.578 90.58,27.097C90.58,32.616 101.652,37.097 115.29,37.097C118.795,37.097 122.261,36.795 125.456,36.211L140,42.097L132.169,34.4C137.165,32.509 140,29.865 140,27.097Z"/>
            <g transform="matrix(17,0,0,17,120.122,33.09673)">
            </g>
            <text x="110.67px" y="33.097px" style="font-family:'HelveticaNeue', 'Helvetica Neue';font-size:17px;">?</text>
        </g>
        <g>
            <path d="M24.996,80.868C25.612,79.157 26.552,78.602 27.791,78.637L26.974,78.095C26.532,72.554 27.83,62.941 21.813,61.121C33.198,47.052 46.319,39.401 56.171,51.916C68.041,52.54 72.802,71.401 63.335,79.341L63.28,79.81C63.65,79.697 64.021,79.625 64.377,79.598C65.076,79.544 65.745,79.658 66.315,79.961C66.94,80.295 67.418,80.835 67.663,81.6C67.899,82.332 67.908,83.267 67.598,84.416L66.118,88.616C65.878,89.299 65.659,89.778 65.181,90.158C64.689,90.547 64.093,90.693 63.171,90.643C63.018,90.635 62.865,90.619 62.716,90.591C62.642,91.623 62.413,92.637 62.037,93.601C61.526,94.913 60.814,95.985 60.114,96.973C59.321,98.089 58.449,99.001 57.606,100.006C51.592,107.178 40.595,107.474 35.069,100.753C33.94,99.38 32.844,98.138 31.863,96.49L31.796,96.385C30.911,94.899 29.842,93.105 29.506,90.613L29.218,90.619C28.615,90.612 28.035,90.473 27.491,90.165C26.617,89.667 26.004,88.819 25.591,87.862L25.555,87.766C25.09,86.643 24.878,85.364 24.828,84.396C24.81,84.034 24.81,83.317 24.83,82.631L24.83,82.622C24.845,82.033 24.876,81.464 24.92,81.145C24.935,81.047 24.959,80.955 24.996,80.868ZM37.083,99.582L37.157,99.645C39.987,102.352 43.124,103.37 46.102,103.254C49.694,103.112 53.088,101.341 55.478,98.893C55.554,98.815 55.64,98.745 55.738,98.692C56.623,97.805 57.473,96.794 58.275,95.666C58.891,94.797 59.514,93.862 59.933,92.787C60.341,91.74 60.573,90.514 60.446,89.005C60.431,88.762 60.488,88.511 60.632,88.294C60.972,87.778 61.675,87.632 62.192,87.971C62.389,88.1 62.59,88.207 62.791,88.281C62.965,88.343 63.132,88.382 63.285,88.39C63.608,88.406 63.754,88.406 63.774,88.39C63.809,88.364 63.881,88.17 63.988,87.866L65.424,83.798C65.607,83.112 65.62,82.618 65.515,82.29C65.461,82.124 65.367,82.011 65.253,81.95C65.083,81.86 64.834,81.829 64.545,81.851C63.914,81.899 63.177,82.205 62.522,82.701C62.282,82.882 61.971,82.968 61.652,82.913C61.038,82.808 60.623,82.223 60.728,81.609C61.792,75.401 61.305,71.355 59.983,68.597C58.825,66.179 56.977,64.715 54.973,63.622C50.525,67.027 47.394,67.416 44.271,67.802C41.687,68.121 39.109,68.44 35.694,70.802C34.081,71.918 33.006,73.267 32.451,74.835C31.881,76.444 31.837,78.318 32.298,80.44C32.357,80.654 32.351,80.888 32.268,81.113C32.058,81.698 31.409,82 30.825,81.79L29.79,81.416C28.455,80.949 27.509,80.732 27.144,81.571C27.115,81.842 27.094,82.257 27.083,82.684L27.083,82.694C27.067,83.311 27.067,83.957 27.081,84.281C27.12,85.046 27.28,86.042 27.629,86.887L27.67,86.97C27.904,87.517 28.215,87.982 28.603,88.201C28.798,88.312 29.016,88.364 29.244,88.366C29.525,88.369 29.836,88.31 30.168,88.213C30.273,88.176 30.386,88.155 30.504,88.154C30.513,88.153 30.522,88.153 30.531,88.153C31.139,88.153 31.643,88.645 31.658,89.253C31.719,91.852 32.834,93.722 33.732,95.229L33.795,95.334C34.798,97.019 35.905,98.434 37.083,99.582Z" style="fill-rule:nonzero;"/>
            <path d="M153.5,65.175C153.5,69.678 150.61,73.986 145.362,77.362C138.462,81.8 127.343,84.754 114.79,84.754C107.93,84.754 101.207,83.861 95.347,82.188L70.795,88.773L82.54,76.19C78.244,72.918 76.08,69.033 76.08,65.175C76.08,60.672 78.969,56.365 84.217,52.989C91.118,48.55 102.237,45.597 114.79,45.597C127.343,45.597 138.462,48.55 145.362,52.989C150.61,56.365 153.5,60.672 153.5,65.175ZM151,65.175C151,55.749 134.775,48.097 114.79,48.097C94.805,48.097 78.58,55.749 78.58,65.175C78.58,69.015 81.322,72.742 86.365,75.756L78.58,84.097L95.377,79.592C101.181,81.331 107.914,82.254 114.79,82.254C134.775,82.254 151,74.601 151,65.175Z"/>
            <g transform="matrix(17,0,0,17,138.959,68.954722)">
            </g>
            <text x="87.653px" y="68.955px" style="font-family:'HelveticaNeue', 'Helvetica Neue';font-size:17px;">Airport</text>
        </g>
    </g>
</svg>
