<?xml version="1.0" encoding="UTF-8" standalone="no"?>
<!DOCTYPE svg PUBLIC "-//W3C//DTD SVG 1.1//EN" "http://www.w3.org/Graphics/SVG/1.1/DTD/svg11.dtd">
<svg width="100%" height="100%" viewBox="0 0 1050 50" version="1.1" xmlns="http://www.w3.org/2000/svg" xmlns:xlink="http://www.w3.org/1999/xlink" xml:space="preserve" xmlns:serif="http://www.serif.com/" style="fill-rule:evenodd;clip-rule:evenodd;stroke-linejoin:round;stroke-miterlimit:2;">
    <g transform="matrix(1,0,0,1,-100,-1100)">
        <g transform="matrix(1,0,0,1,1.54898e-12,300)">
            <g transform="matrix(0.979931,0,0,0.979931,-1122.21,-261.104)">
                <path d="M1298.27,1082.84L1298.27,1087.11L1261.08,1087.11C1258.45,1087.11 1256.19,1088.04 1254.32,1089.91C1252.45,1091.79 1251.52,1094.04 1251.52,1096.68C1251.52,1099.31 1252.45,1101.56 1254.32,1103.4C1256.19,1105.25 1258.45,1106.18 1261.08,1106.18L1284.43,1106.18C1287.06,1106.18 1289.6,1106.94 1291.83,1108.35C1293.78,1109.58 1295.35,1111.23 1296.51,1113.29C1297.68,1115.35 1298.27,1117.6 1298.27,1120.02C1298.27,1123.85 1296.92,1127.11 1294.22,1129.81C1291.52,1132.51 1288.26,1133.86 1284.43,1133.86L1247.24,1133.86L1247.24,1129.59L1284.43,1129.59C1287.06,1129.59 1289.32,1128.65 1291.19,1126.78C1293.06,1124.91 1294,1122.65 1294,1120.02C1294,1117.38 1293.06,1115.14 1291.19,1113.29C1289.32,1111.44 1287.06,1110.52 1284.43,1110.52L1261.08,1110.52C1258.45,1110.52 1255.8,1109.68 1253.69,1108.35C1251.73,1107.11 1250.17,1105.47 1249,1103.4C1247.83,1101.34 1247.24,1099.1 1247.24,1096.68C1247.24,1092.85 1248.59,1089.59 1251.29,1086.88C1253.99,1084.19 1257.26,1082.84 1261.08,1082.84L1298.27,1082.84Z" style="fill:rgb(64,64,64);"/>
            </g>
            <g transform="matrix(0.97995,0,0,0.97995,383.333,-261.124)">
                <path d="M17.008,1133.8L45.674,1082.84L74.277,1133.8L69.054,1133.8L45.674,1092.07L22.232,1133.8L17.008,1133.8Z" style="fill:rgb(64,64,64);fill-rule:nonzero;"/>
            </g>
            <g transform="matrix(-0.979873,1.2e-16,-1.20151e-16,-0.981104,1184.42,1912.37)">
                <path d="M428.066,1082.84C435.116,1082.84 441.125,1085.32 446.094,1090.29C451.063,1095.26 453.547,1101.27 453.547,1108.32C453.547,1115.37 451.063,1121.38 446.094,1126.34C441.125,1131.31 435.116,1133.8 428.066,1133.8L402.585,1133.8L402.52,1129.55L428.066,1129.53C431.888,1129.53 435.434,1128.59 438.704,1126.69C441.975,1124.81 444.555,1122.23 446.444,1118.95C448.334,1115.68 449.279,1112.14 449.279,1108.32C449.279,1104.49 448.334,1100.95 446.444,1097.68C444.555,1094.41 441.975,1091.83 438.704,1089.94C435.434,1088.05 431.888,1087.1 428.066,1087.1L402.585,1087.1L402.585,1082.84L428.066,1082.84Z" style="fill:rgb(64,64,64);fill-rule:nonzero;"/>
            </g>
            <g transform="matrix(0.981123,0,0,0.981104,-10.726,-262.374)">
                <path d="M612.284,1087.1L612.284,1082.84L663.246,1082.84L663.246,1087.1L639.931,1087.1L639.931,1133.8L635.599,1133.8L635.599,1087.1L612.284,1087.1Z" style="fill:rgb(64,64,64);fill-rule:nonzero;"/>
            </g>
            <g transform="matrix(0.97995,0,0,0.97995,356.662,-261.124)">
                <path d="M344.426,1082.86L344.426,1133.86L340.323,1133.83L340.158,1082.84L344.426,1082.86Z" style="fill:rgb(64,64,64);fill-rule:nonzero;"/>
            </g>
            <g transform="matrix(5.99999e-17,-0.979873,0.981104,6.00753e-17,-562.374,1244.42)">
                <path d="M428.066,1082.84C435.116,1082.84 441.125,1085.32 446.094,1090.29C451.063,1095.26 453.547,1101.27 453.547,1108.32C453.547,1115.37 451.063,1121.38 446.094,1126.34C441.125,1131.31 435.116,1133.8 428.066,1133.8L402.585,1133.8L402.52,1129.55L428.066,1129.53C431.888,1129.53 435.434,1128.59 438.704,1126.69C441.975,1124.81 444.555,1122.23 446.444,1118.95C448.334,1115.68 449.279,1112.14 449.279,1108.32C449.279,1104.49 448.334,1100.95 446.444,1097.68C444.555,1094.41 441.975,1091.83 438.704,1089.94C435.434,1088.05 431.888,1087.1 428.066,1087.1L402.585,1087.1L402.585,1082.84L428.066,1082.84Z" style="fill:rgb(64,64,64);fill-rule:nonzero;"/>
            </g>
            <g transform="matrix(0.881951,0,0,0.981104,262.095,-373.617)">
                <path d="M745.965,1223.17L745.965,1218.9L757.304,1218.9L757.304,1223L745.965,1223.17ZM751.598,1247.18C743.766,1247.18 737.089,1244.7 731.569,1239.73C726.048,1234.76 723.288,1228.75 723.288,1221.7C723.288,1214.65 726.048,1208.64 731.569,1203.67C737.089,1198.71 743.766,1196.22 751.598,1196.22L779.908,1196.22L779.981,1200.47L751.598,1200.49C747.352,1200.49 743.412,1201.43 739.779,1203.32C736.145,1205.21 733.279,1207.79 731.18,1211.06C729.08,1214.33 728.03,1217.88 728.03,1221.7C728.03,1225.53 729.08,1229.07 731.18,1232.34C733.279,1235.61 736.145,1238.19 739.779,1240.08C743.412,1241.97 747.352,1242.92 751.598,1242.92L779.908,1242.92L779.908,1247.18L751.598,1247.18Z" style="fill:rgb(64,64,64);"/>
            </g>
            <g transform="matrix(0.881951,0,0,0.981104,462.095,-373.617)">
                <path d="M745.965,1223.17L745.965,1218.9L757.304,1218.9L757.304,1223L745.965,1223.17ZM751.598,1247.18C743.766,1247.18 737.089,1244.7 731.569,1239.73C726.048,1234.76 723.288,1228.75 723.288,1221.7C723.288,1214.65 726.048,1208.64 731.569,1203.67C737.089,1198.71 743.766,1196.22 751.598,1196.22L779.908,1196.22L779.981,1200.47L751.598,1200.49C747.352,1200.49 743.412,1201.43 739.779,1203.32C736.145,1205.21 733.279,1207.79 731.18,1211.06C729.08,1214.33 728.03,1217.88 728.03,1221.7C728.03,1225.53 729.08,1229.07 731.18,1232.34C733.279,1235.61 736.145,1238.19 739.779,1240.08C743.412,1241.97 747.352,1242.92 751.598,1242.92L779.908,1242.92L779.908,1247.18L751.598,1247.18Z" style="fill:rgb(64,64,64);"/>
            </g>
            <g id="DUNE-Font" serif:id="DUNE Font" transform="matrix(1.25,0,0,1.25,621.451,149.76)">
                <path d="M339.489,521.892L339.489,520.192L342.839,520.192L342.839,521.892C342.839,525.326 342.031,528.517 340.414,531.467C338.797,534.417 336.589,536.809 333.789,538.642C330.989,540.476 327.906,541.526 324.539,541.792L324.539,560.192L321.139,560.192L321.139,541.792C317.772,541.526 314.689,540.476 311.889,538.642C309.089,536.809 306.881,534.417 305.264,531.467C303.647,528.517 302.839,525.326 302.839,521.892L302.839,520.192L306.189,520.192L306.189,521.892C306.189,524.892 306.931,527.667 308.414,530.217C309.897,532.767 311.922,534.784 314.489,536.267C317.056,537.751 319.839,538.492 322.839,538.492C325.839,538.492 328.622,537.751 331.189,536.267C333.756,534.784 335.781,532.767 337.264,530.217C338.747,527.667 339.489,524.892 339.489,521.892Z" style="fill:rgb(64,64,64);fill-rule:nonzero;"/>
            </g>
            <g transform="matrix(0.881951,0,0,0.981104,-437.905,-373.617)">
                <path d="M745.965,1223.17L745.965,1218.9L757.304,1218.9L757.304,1223L745.965,1223.17ZM751.598,1247.18C743.766,1247.18 737.089,1244.7 731.569,1239.73C726.048,1234.76 723.288,1228.75 723.288,1221.7C723.288,1214.65 726.048,1208.64 731.569,1203.67C737.089,1198.71 743.766,1196.22 751.598,1196.22L779.908,1196.22L779.981,1200.47L751.598,1200.49C747.352,1200.49 743.412,1201.43 739.779,1203.32C736.145,1205.21 733.279,1207.79 731.18,1211.06C729.08,1214.33 728.03,1217.88 728.03,1221.7C728.03,1225.53 729.08,1229.07 731.18,1232.34C733.279,1235.61 736.145,1238.19 739.779,1240.08C743.412,1241.97 747.352,1242.92 751.598,1242.92L779.908,1242.92L779.908,1247.18L751.598,1247.18Z" style="fill:rgb(64,64,64);"/>
            </g>
            <g transform="matrix(5.40039e-17,0.881951,-0.981104,6.00753e-17,1523.62,162.095)">
                <path d="M745.965,1223.17L745.965,1218.9L757.304,1218.9L757.304,1223L745.965,1223.17ZM751.598,1247.18C743.766,1247.18 737.089,1244.7 731.569,1239.73C726.048,1234.76 723.288,1228.75 723.288,1221.7C723.288,1214.65 726.048,1208.64 731.569,1203.67C737.089,1198.71 743.766,1196.22 751.598,1196.22L779.908,1196.22L779.981,1200.47L751.598,1200.49C747.352,1200.49 743.412,1201.43 739.779,1203.32C736.145,1205.21 733.279,1207.79 731.18,1211.06C729.08,1214.33 728.03,1217.88 728.03,1221.7C728.03,1225.53 729.08,1229.07 731.18,1232.34C733.279,1235.61 736.145,1238.19 739.779,1240.08C743.412,1241.97 747.352,1242.92 751.598,1242.92L779.908,1242.92L779.908,1247.18L751.598,1247.18Z" style="fill:rgb(64,64,64);"/>
            </g>
        </g>
    </g>
</svg>
