<?xml version="1.0" encoding="UTF-8" standalone="no"?>
<!DOCTYPE svg PUBLIC "-//W3C//DTD SVG 1.1//EN" "http://www.w3.org/Graphics/SVG/1.1/DTD/svg11.dtd">
<svg width="100%" height="100%" viewBox="0 0 1046 561" version="1.1" xmlns="http://www.w3.org/2000/svg" xmlns:xlink="http://www.w3.org/1999/xlink" xml:space="preserve" xmlns:serif="http://www.serif.com/" style="fill-rule:evenodd;clip-rule:evenodd;stroke-linecap:round;stroke-linejoin:round;stroke-miterlimit:1.5;">
    <g transform="matrix(1,0,0,1,-204,-1200)">
        <g id="Title-for-dark-background" serif:id="Title for dark background" transform="matrix(1,0,0,1,100,-175)">
            <g id="Logo-light" serif:id="Logo light" transform="matrix(-1.074425,0,0,1.066667,725.494523,1819.386746)">
                <g id="Hand" transform="matrix(1.097209,0,0,1.097209,-8.372764,-6.802367)">
                    <path d="M60.196,29.651C60.251,30.059 60.35,30.724 60.275,31.772C60.131,33.785 56.704,33.511 55.482,42.064C54.811,46.766 47.886,50.17 51.5,58C53.609,62.569 64.885,59.237 67.704,62C70.497,64.737 71.448,65.78 74,66.5C75.192,66.836 76.608,66.387 78.423,67.598C78.77,67.829 81.249,70.026 85,69.5C87.435,69.158 88.483,65.392 91.543,65.712C96.65,66.246 95.52,60.4 100.343,62.255C102.217,62.976 105.116,65.856 106.5,66C109.607,66.324 113.665,68.001 123.205,63.355C125.297,62.337 126.635,60.946 128,60.5C129.558,59.991 131,60.5 131,60.5C133.205,63.02 129.557,70 136,70C135.775,71.576 135.545,71.011 136,72.5C144.725,73.65 144.738,74.857 144.889,75.611C145.671,79.523 143.918,84.447 147,85C147.238,85.058 154.835,81.516 158,83.5C159.993,84.75 161.099,82.83 163,83C165.113,83.189 165.46,82.602 166.397,85.039C169.06,84.933 173.141,85.215 173.958,84.725C174.197,84.581 175.249,85.01 175.5,82M175.5,82C175.538,80.765 176,80.05 176,37.5C176,11.563 176.282,9.711 173.5,10C171.32,9.75 170.842,9.866 169,11C168.533,11.287 163.094,13.013 161.5,12C158.698,10.219 156.894,11.944 154.5,11.5C151.853,11.009 150.788,8.679 146.382,10.01C142.093,11.305 142.984,13.453 138.525,13.388C135.104,13.338 131.944,14.324 131.5,14.62C129.672,15.838 130.81,20.948 127.5,20.5C126.304,20.338 126.348,20.745 113.62,14.959C112.497,14.449 112.694,14.278 99.5,9C87.534,4.214 86.83,5.422 84.5,5.5C80.615,5.631 71.648,8.78 70.645,9.067C65.397,10.567 47.461,13.37 42.5,13.5C33.91,13.725 35.749,14.984 26.441,15.711C18.049,16.366 12.739,16.772 9.5,18C6.442,19.159 5.623,22.2 7,24C10.33,28.353 14.694,30.457 21.5,29.5C23.592,29.206 26.515,28.03 29.5,27.863C34.152,27.603 36.297,30.311 44,28C49.57,26.329 49.636,29.968 58.459,29.707C58.591,29.703 60.196,29.651 60.196,29.651" style="fill:none;stroke:rgb(224,224,224);stroke-width:1.4px;"/>
                    <g transform="matrix(-0.362302,-0.772586,-0.767007,0.364937,526.548779,29.707012)">
                        <path d="M181.573,452.547C181.573,452.547 181.152,459.647 181.774,461.669C183.693,467.917 183.63,470.047 183.63,470.047C183.63,470.047 179.639,466.755 178.956,461.04C178.322,455.736 181.573,452.547 181.573,452.547Z" style="fill:rgb(224,224,224);"/>
                    </g>
                    <g transform="matrix(-0.841834,-0.105062,0.104304,-0.847957,195.459874,444.274344)">
                        <path d="M171.691,432.013C175.434,431.925 178.914,432.682 184.927,431.627C186.751,431.307 190.737,430.663 193.414,430.072C193.428,430.069 199.676,429.014 205.903,429.532C205.241,430.262 196.168,432.209 193.629,432.678C190.558,433.245 188.737,433.592 186.342,433.971C183.009,434.498 179.76,434.318 178.261,434.131C175.199,433.75 172.245,432.365 171.691,432.013Z" style="fill:rgb(224,224,224);"/>
                    </g>
                    <g transform="matrix(-0.819555,0.220436,0.218844,0.825516,132.410168,-366.548854)">
                        <path d="M181.573,452.547C181.573,452.547 182.216,453.589 182.325,456.27C182.412,458.385 182.479,459.4 182.739,461.5C182.954,463.238 182.537,464.352 182.537,464.352C182.537,464.352 179.801,461.548 179.685,458.01C179.56,454.193 181.573,452.547 181.573,452.547Z" style="fill:rgb(224,224,224);"/>
                    </g>
                    <g transform="matrix(0.848271,0,-0,0.85444,-76.46896,-339.613273)">
                        <path d="M181.573,452.547C181.573,452.547 182.437,453.657 182.547,456.338C182.634,458.453 182.643,459.497 183.088,461.507C183.466,463.217 182.8,464.69 182.8,464.69C182.8,464.69 180.116,462.376 180,458.838C179.875,455.021 181.573,452.547 181.573,452.547Z" style="fill:rgb(224,224,224);"/>
                    </g>
                    <g transform="matrix(-0.848271,0,0,0.85444,231.283901,-339.324665)">
                        <path d="M187,433.745C188.489,433.224 190.472,433.755 192.5,432.5C192.512,432.492 196.232,430.391 199.771,431.5C198.359,432.58 196.984,432.87 195.128,433.684C193.797,434.267 193.834,434.472 191.5,435.131C190.64,435.373 188.792,434.887 188.174,434.559C187.585,434.246 187.554,434.097 187,433.745Z" style="fill:rgb(224,224,224);"/>
                    </g>
                    <g transform="matrix(-0.537044,-0.661393,-0.656618,0.54095,460.433765,-77.052849)">
                        <path d="M178.479,433.608C181.456,432.876 184.212,433.144 185.071,433.012C186.901,432.73 188.974,431.64 191.652,431.049C191.666,431.046 195.934,430.072 199.771,431.5C197.898,432.148 195.589,432.161 193.629,432.678C190.609,433.475 188.513,434.252 186.179,434.911C185.32,435.153 182.153,434.535 181.468,434.394C180.695,434.234 179.033,433.961 178.479,433.608Z" style="fill:rgb(224,224,224);"/>
                    </g>
                    <g transform="matrix(-0.848271,0,0,0.85444,231.283901,-339.324665)">
                        <path d="M169.354,427.655C169.354,427.655 170.033,427.596 174,433.752C178.429,440.624 178.249,441.5 178.249,441.5C178.249,441.5 174.799,439.357 172.261,435C169.068,429.52 169.354,427.655 169.354,427.655Z" style="fill:rgb(224,224,224);"/>
                    </g>
                    <g transform="matrix(-0.848271,0,0,0.85444,223.861355,-320.232012)">
                        <path d="M172.504,429.864C172.504,429.864 174.169,432.139 174.043,435.956C173.927,439.494 171.226,442.007 171.226,442.007C171.226,442.007 170.809,440.893 171.024,439.155C171.284,437.055 171.343,435.767 171.484,433.655C171.649,431.196 172.504,429.864 172.504,429.864Z" style="fill:rgb(224,224,224);"/>
                    </g>
                    <g transform="matrix(0.819555,-0.220436,0.218844,0.825516,-152.627779,-270.120444)">
                        <path d="M172.504,429.864C172.504,429.864 174.169,432.139 174.043,435.956C173.927,439.494 171.226,442.007 171.226,442.007C171.226,442.007 170.809,440.893 171.024,439.155C171.284,437.055 171.343,435.767 171.484,433.655C171.649,431.196 172.504,429.864 172.504,429.864Z" style="fill:rgb(224,224,224);"/>
                    </g>
                    <g transform="matrix(1.087212,0,0,1.087212,-4.557604,-5.119909)">
                        <path d="M57.134,49.696C59.089,49.526 59.934,49.672 60.13,49.696C65.683,50.381 63.635,55.872 61.205,57.649C58.44,59.671 54.066,59.568 53.282,58.383C50.122,53.605 52.295,51.611 53.71,50.654C54.539,50.093 55.407,49.846 57.134,49.696ZM55.281,56.783C55.257,56.782 55.305,56.784 55.281,56.783C55.305,56.784 55.257,56.781 55.281,56.783C61.413,57.42 62.359,55.082 62.071,51.537C59.829,53.936 60.757,54.688 57.99,55.807C57.321,56.077 55.338,56.443 55.281,56.783Z" style="fill:rgb(224,224,224);"/>
                    </g>
                    <path d="M8.23,21.241C8.263,19.766 10.648,18.896 13.5,18.5C15.511,18.221 17.993,18.109 20.622,17.944C18.171,21.526 15.737,21.905 8.23,21.241Z" style="fill:rgb(224,224,224);"/>
                    <path d="M21.643,17.877C24.09,17.71 26.626,17.475 29,17C34.884,15.823 36.637,15.249 39.5,15C41.332,14.841 44.557,15.027 48,14.535C50.506,14.177 63.023,13.234 79.448,8C87.642,5.389 94.211,8.384 101.5,11.5C106.078,13.457 108.019,14.205 112,16C120.387,19.781 127.288,22.604 130.681,22.447C131.41,22.414 132.353,24.706 132.229,24.768C132.179,24.793 132.273,24.809 132.925,24.846C133.613,24.884 134.112,24.742 134.112,24.742C135.094,22.746 133.402,15.128 133.414,14.939C133.442,14.482 135.741,14.472 135.741,14.472C135.741,14.472 136.299,15.183 136.5,15.5C137.733,17.446 140.89,15.261 145,17C148.951,18.671 148.998,51.49 149,57.5C149.003,67.403 148.054,67.012 146.908,70.495C143.201,70.676 143.327,72.563 140.381,70.034C138.025,70.097 136.206,69.092 136.206,69.092C136.206,69.092 136.185,67.255 136.252,65.386C136.316,63.598 137.342,53.647 136.871,42.331C136.562,34.931 135.698,31.037 136,30.5L132.5,30.5C130.901,33.675 132.716,39.392 128.5,41.5C126.888,42.306 127.313,42.846 106.884,42.5C105.054,42.469 105.323,41.596 103.5,41.5C99.035,41.265 99.058,44.383 97.646,45.503C95.105,47.516 73.965,45.604 71.5,46.5C68.035,47.76 65.443,49.384 63.842,48.551C60.596,46.864 57.653,48.435 53.371,48.318C53.962,47.509 54.113,47.408 54.552,46.895C60.153,40.361 64.086,41.135 71.5,41C86.245,40.732 87.674,38.675 94,34C102.658,27.601 104.758,25.07 104,25.679C99.581,24.9 97.265,26.189 93.7,28.172C92.482,28.85 91.154,29.121 90.5,27.5C90.14,26.607 90.702,23.01 89,22.5C84.514,21.157 84.95,28.899 82.5,24C82.231,23.463 82.729,21.035 81,20.5C80.213,20.256 78.394,20.009 76.834,21.209C74.4,23.081 70.22,22.473 70,22.5C64.034,23.246 61.983,21.542 58.652,20.59C55.233,19.613 55.29,23.113 47.589,21.828C45.859,21.54 45.918,21.291 45.423,21.287C41.856,21.258 41.607,22.603 40.626,22.911C39.858,23.152 31.645,23.092 31.11,22.757C28.182,20.924 22.161,25.532 15.676,24.976C14.214,24.85 13.178,24.989 11.023,24.191C9.598,23.663 8.361,22.134 8.23,21.708C16.469,22.357 18.498,22.008 21.643,17.877ZM143.37,57.417C140.216,56.203 137.256,65.189 140.275,66.933C146.188,70.351 148.176,59.268 143.37,57.417Z" style="fill:rgb(224,224,224);"/>
                </g>
                <g id="Rectangle" transform="matrix(0.958812,0,0,1.022994,-96.159156,-227.46131)">
                    <path d="M60,227.493L60,200L89.121,200L89.121,202.749L62.912,202.749L62.912,227.493L60,227.493ZM328.887,227.493L328.887,202.749L302.678,202.749L302.678,200L331.799,200L331.799,227.493L328.887,227.493ZM331.799,300.807L331.799,328.3L302.678,328.3L302.678,325.551L328.887,325.551L328.887,300.807L331.799,300.807ZM62.912,300.807L62.912,325.551L89.121,325.551L89.121,328.3L60,328.3L60,300.807L62.912,300.807Z" style="fill:rgb(161,161,161);stroke:black;stroke-width:0.94px;stroke-linecap:square;stroke-linejoin:miter;"/>
                </g>
            </g>
            <g id="FRAMEWORK" transform="matrix(0.699445,0,0,0.699445,257.802768,1099.924413)">
                <g id="K" transform="matrix(2.604167,0,0,2.604167,-644.944888,-2813.559671)">
                    <path d="M610.116,1387.607L612.612,1387.607L601.212,1397.207L612.612,1406.807L610.116,1406.807L599.94,1398.263L595.02,1402.415L595.02,1406.807L593.412,1406.807L593.412,1387.607L595.02,1387.607L595.02,1400.303L610.116,1387.607Z" style="fill:rgb(161,161,161);fill-rule:nonzero;"/>
                </g>
                <g transform="matrix(1.359774,0,0,1.359774,394.468967,347.937409)">
                    <path d="M335.034,342.407C335.034,344.155 334.612,345.773 333.769,347.26C332.926,348.747 331.799,349.936 330.388,350.825C331.799,351.714 332.926,352.903 333.769,354.39C334.612,355.877 335.034,357.495 335.034,359.243L335.034,369.225L331.952,369.225L331.952,359.243C331.952,357.342 331.277,355.724 329.928,354.39C328.579,353.056 326.953,352.389 325.052,352.389L301.316,352.389L301.316,369.225L298.234,369.225L298.234,349.261L325.052,349.261C326.953,349.261 328.579,348.594 329.928,347.26C331.277,345.926 331.952,344.308 331.952,342.407C331.952,340.506 331.277,338.88 329.928,337.531C328.579,336.182 326.953,335.507 325.052,335.507L298.234,335.507L298.234,332.425L325.052,332.425C327.812,332.425 330.166,333.399 332.113,335.346C334.06,337.293 335.034,339.647 335.034,342.407Z" style="fill:rgb(161,161,161);fill-rule:nonzero;"/>
                </g>
                <g id="O" transform="matrix(0.981104,0,0,0.981104,199.405451,-373.617134)">
                    <path d="M517.69,1203.674C522.659,1198.705 528.668,1196.221 535.718,1196.221C542.767,1196.221 548.777,1198.705 553.746,1203.674C558.715,1208.643 561.199,1214.653 561.199,1221.702C561.199,1228.752 558.715,1234.761 553.746,1239.73C548.777,1244.699 542.767,1247.184 535.718,1247.184C528.668,1247.184 522.659,1244.699 517.69,1239.73C512.721,1234.761 510.236,1228.752 510.236,1221.702C510.236,1214.653 512.721,1208.643 517.69,1203.674ZM525.079,1240.113C528.349,1241.982 531.895,1242.916 535.718,1242.916C539.54,1242.916 543.086,1241.971 546.356,1240.081C549.626,1238.191 552.206,1235.611 554.096,1232.341C555.986,1229.071 556.931,1225.525 556.931,1221.702C556.931,1217.88 555.986,1214.334 554.096,1211.064C552.206,1207.794 549.626,1205.214 546.356,1203.324C543.086,1201.434 539.54,1200.489 535.718,1200.489C531.895,1200.489 528.349,1201.434 525.079,1203.324C521.809,1205.214 519.229,1207.794 517.339,1211.064C515.449,1214.334 514.504,1217.88 514.504,1221.702C514.504,1225.525 515.449,1229.071 517.339,1232.341C519.229,1235.611 521.809,1238.202 525.079,1240.113Z" style="fill:rgb(161,161,161);fill-rule:nonzero;"/>
                </g>
                <g id="M" transform="matrix(0,-0.881951,-0.981104,-0,1823.617134,1487.944328)">
                    <path d="M742.677,1223.166L742.686,1218.898L765.354,1218.898L765.34,1223L742.677,1223.166ZM751.598,1247.184C743.766,1247.184 737.089,1244.7 731.569,1239.731C726.048,1234.762 723.288,1228.753 723.288,1221.703C723.288,1214.653 726.048,1208.644 731.569,1203.675C737.089,1198.706 743.766,1196.221 751.598,1196.221L779.908,1196.221L779.981,1200.466L751.598,1200.489C747.352,1200.489 743.412,1201.434 739.779,1203.324C736.145,1205.214 733.279,1207.794 731.18,1211.064C729.08,1214.334 728.03,1217.88 728.03,1221.703C728.03,1225.525 729.08,1229.071 731.18,1232.341C733.279,1235.611 736.145,1238.191 739.779,1240.081C743.412,1241.971 747.352,1242.916 751.598,1242.916L779.908,1242.916L779.908,1247.184L751.598,1247.184Z" style="fill:rgb(161,161,161);"/>
                </g>
                <g id="E" transform="matrix(0.881951,0,0,0.981104,-137.90463,-373.617134)">
                    <path d="M742.677,1223.166L742.686,1218.898L765.354,1218.898L765.34,1223L742.677,1223.166ZM751.598,1247.184C743.766,1247.184 737.089,1244.7 731.569,1239.731C726.048,1234.762 723.288,1228.753 723.288,1221.703C723.288,1214.653 726.048,1208.644 731.569,1203.675C737.089,1198.706 743.766,1196.221 751.598,1196.221L779.908,1196.221L779.981,1200.466L751.598,1200.489C747.352,1200.489 743.412,1201.434 739.779,1203.324C736.145,1205.214 733.279,1207.794 731.18,1211.064C729.08,1214.334 728.03,1217.88 728.03,1221.703C728.03,1225.525 729.08,1229.071 731.18,1232.341C733.279,1235.611 736.145,1238.191 739.779,1240.081C743.412,1241.971 747.352,1242.916 751.598,1242.916L779.908,1242.916L779.908,1247.184L751.598,1247.184Z" style="fill:rgb(161,161,161);"/>
                </g>
                <g id="M1" serif:id="M" transform="matrix(0,0.881951,-0.981104,0,1623.617134,162.09537)">
                    <path d="M742.677,1223.166L742.686,1218.898L765.354,1218.898L765.34,1223L742.677,1223.166ZM751.598,1247.184C743.766,1247.184 737.089,1244.7 731.569,1239.731C726.048,1234.762 723.288,1228.753 723.288,1221.703C723.288,1214.653 726.048,1208.644 731.569,1203.675C737.089,1198.706 743.766,1196.221 751.598,1196.221L779.908,1196.221L779.981,1200.466L751.598,1200.489C747.352,1200.489 743.412,1201.434 739.779,1203.324C736.145,1205.214 733.279,1207.794 731.18,1211.064C729.08,1214.334 728.03,1217.88 728.03,1221.703C728.03,1225.525 729.08,1229.071 731.18,1232.341C733.279,1235.611 736.145,1238.191 739.779,1240.081C743.412,1241.971 747.352,1242.916 751.598,1242.916L779.908,1242.916L779.908,1247.184L751.598,1247.184Z" style="fill:rgb(161,161,161);"/>
                </g>
                <g id="A" transform="matrix(0.981104,0,0,0.981104,283.313384,-262.373683)">
                    <path d="M17.008,1133.798L45.674,1082.835L74.277,1133.798L69.054,1133.798L45.674,1092.072L22.232,1133.798L17.008,1133.798Z" style="fill:rgb(161,161,161);fill-rule:nonzero;"/>
                </g>
                <g transform="matrix(1.359774,0,0,1.359774,-205.57073,347.937409)">
                    <path d="M335.034,342.407C335.034,344.155 334.612,345.773 333.769,347.26C332.926,348.747 331.799,349.936 330.388,350.825C331.799,351.714 332.926,352.903 333.769,354.39C334.612,355.877 335.034,357.495 335.034,359.243L335.034,369.225L331.952,369.225L331.952,359.243C331.952,357.342 331.277,355.724 329.928,354.39C328.579,353.056 326.953,352.389 325.052,352.389L301.316,352.389L301.316,369.225L298.234,369.225L298.234,349.261L325.052,349.261C326.953,349.261 328.579,348.594 329.928,347.26C331.277,345.926 331.952,344.308 331.952,342.407C331.952,340.506 331.277,338.88 329.928,337.531C328.579,336.182 326.953,335.507 325.052,335.507L298.234,335.507L298.234,332.425L325.052,332.425C327.812,332.425 330.166,333.399 332.113,335.346C334.06,337.293 335.034,339.647 335.034,342.407Z" style="fill:rgb(161,161,161);fill-rule:nonzero;"/>
                </g>
                <g transform="matrix(1.359774,0,0,1.359774,402.876005,348.720337)">
                    <path d="M-218.852,349.261L-192.034,349.261L-192.034,352.389L-215.77,352.389L-215.77,369.225L-218.852,369.225L-218.852,349.261ZM-182.052,335.507L-218.852,335.507L-218.852,332.425L-182.052,332.425L-182.052,335.507Z" style="fill:rgb(161,161,161);fill-rule:nonzero;"/>
                </g>
            </g>
            <g id="SEMANTIC-EYE" serif:id="SEMANTIC EYE" transform="matrix(1,0,0,1,0,710)">
                <g id="E1" serif:id="E" transform="matrix(0.881951,0,0,0.981104,462.09537,-373.617134)">
                    <path d="M742.677,1223.166L742.686,1218.898L765.354,1218.898L765.34,1223L742.677,1223.166ZM751.598,1247.184C743.766,1247.184 737.089,1244.7 731.569,1239.731C726.048,1234.762 723.288,1228.753 723.288,1221.703C723.288,1214.653 726.048,1208.644 731.569,1203.675C737.089,1198.706 743.766,1196.221 751.598,1196.221L779.908,1196.221L779.981,1200.466L751.598,1200.489C747.352,1200.489 743.412,1201.434 739.779,1203.324C736.145,1205.214 733.279,1207.794 731.18,1211.064C729.08,1214.334 728.03,1217.88 728.03,1221.703C728.03,1225.525 729.08,1229.071 731.18,1232.341C733.279,1235.611 736.145,1238.191 739.779,1240.081C743.412,1241.971 747.352,1242.916 751.598,1242.916L779.908,1242.916L779.908,1247.184L751.598,1247.184Z" style="fill:rgb(240,240,240);"/>
                </g>
                <g id="Y" transform="matrix(1.25,0,0,1.25,621.451277,149.759534)">
                    <path d="M339.489,521.892L339.489,520.192L342.839,520.192L342.839,521.892C342.839,525.326 342.031,528.517 340.414,531.467C338.797,534.417 336.589,536.809 333.789,538.642C330.989,540.476 327.906,541.526 324.539,541.792L324.539,560.192L321.139,560.192L321.139,541.792C317.772,541.526 314.689,540.476 311.889,538.642C309.089,536.809 306.881,534.417 305.264,531.467C303.647,528.517 302.839,525.326 302.839,521.892L302.839,520.192L306.189,520.192L306.189,521.892C306.189,524.892 306.931,527.667 308.414,530.217C309.897,532.767 311.922,534.784 314.489,536.267C317.056,537.751 319.839,538.492 322.839,538.492C325.839,538.492 328.622,537.751 331.189,536.267C333.756,534.784 335.781,532.767 337.264,530.217C338.747,527.667 339.489,524.892 339.489,521.892Z" style="fill:rgb(240,240,240);fill-rule:nonzero;"/>
                </g>
                <g id="E2" serif:id="E" transform="matrix(0.881951,0,0,0.981104,262.09537,-373.617134)">
                    <path d="M742.677,1223.166L742.686,1218.898L765.354,1218.898L765.34,1223L742.677,1223.166ZM751.598,1247.184C743.766,1247.184 737.089,1244.7 731.569,1239.731C726.048,1234.762 723.288,1228.753 723.288,1221.703C723.288,1214.653 726.048,1208.644 731.569,1203.675C737.089,1198.706 743.766,1196.221 751.598,1196.221L779.908,1196.221L779.981,1200.466L751.598,1200.489C747.352,1200.489 743.412,1201.434 739.779,1203.324C736.145,1205.214 733.279,1207.794 731.18,1211.064C729.08,1214.334 728.03,1217.88 728.03,1221.703C728.03,1225.525 729.08,1229.071 731.18,1232.341C733.279,1235.611 736.145,1238.191 739.779,1240.081C743.412,1241.971 747.352,1242.916 751.598,1242.916L779.908,1242.916L779.908,1247.184L751.598,1247.184Z" style="fill:rgb(240,240,240);"/>
                </g>
                <g id="C" transform="matrix(-0.979873,0,-0,-0.981104,1184.418641,1912.373683)">
                    <path d="M428.066,1082.835C435.116,1082.835 441.125,1085.319 446.094,1090.288C451.063,1095.257 453.547,1101.266 453.547,1108.316C453.547,1115.366 451.063,1121.375 446.094,1126.344C441.125,1131.313 435.116,1133.798 428.066,1133.798L402.585,1133.798L402.52,1129.553L428.066,1129.53C431.888,1129.53 435.434,1128.585 438.704,1126.695C441.975,1124.805 444.555,1122.225 446.444,1118.955C448.334,1115.685 449.279,1112.139 449.279,1108.316C449.279,1104.494 448.334,1100.948 446.444,1097.678C444.555,1094.408 441.975,1091.828 438.704,1089.938C435.434,1088.048 431.888,1087.103 428.066,1087.103L402.585,1087.103L402.585,1082.835L428.066,1082.835Z" style="fill:rgb(240,240,240);fill-rule:nonzero;"/>
                </g>
                <g id="I" transform="matrix(0.97995,0,0,0.97995,356.662094,-261.124395)">
                    <path d="M344.426,1082.856L344.426,1133.858L340.323,1133.827L340.158,1082.835L344.426,1082.856Z" style="fill:rgb(240,240,240);fill-rule:nonzero;"/>
                </g>
                <g id="T" transform="matrix(0.981123,0,0,0.981104,-10.726031,-262.373683)">
                    <path d="M612.284,1087.103L612.284,1082.835L663.246,1082.835L663.246,1087.103L639.931,1087.103L639.931,1133.798L635.599,1133.798L635.599,1087.103L612.284,1087.103Z" style="fill:rgb(240,240,240);fill-rule:nonzero;"/>
                </g>
                <g id="N" transform="matrix(0,-0.979873,0.981104,0,-562.373683,1244.418641)">
                    <path d="M428.066,1082.835C435.116,1082.835 441.125,1085.319 446.094,1090.288C451.063,1095.257 453.547,1101.266 453.547,1108.316C453.547,1115.366 451.063,1121.375 446.094,1126.344C441.125,1131.313 435.116,1133.798 428.066,1133.798L402.585,1133.798L402.52,1129.553L428.066,1129.53C431.888,1129.53 435.434,1128.585 438.704,1126.695C441.975,1124.805 444.555,1122.225 446.444,1118.955C448.334,1115.685 449.279,1112.139 449.279,1108.316C449.279,1104.494 448.334,1100.948 446.444,1097.678C444.555,1094.408 441.975,1091.828 438.704,1089.938C435.434,1088.048 431.888,1087.103 428.066,1087.103L402.585,1087.103L402.585,1082.835L428.066,1082.835Z" style="fill:rgb(240,240,240);fill-rule:nonzero;"/>
                </g>
                <g id="A1" serif:id="A" transform="matrix(0.97995,0,0,0.97995,383.333007,-261.124395)">
                    <path d="M17.008,1133.798L45.674,1082.835L74.277,1133.798L69.054,1133.798L45.674,1092.072L22.232,1133.798L17.008,1133.798Z" style="fill:rgb(240,240,240);fill-rule:nonzero;"/>
                </g>
                <g id="M2" serif:id="M" transform="matrix(0,0.881951,-0.981104,0,1523.617134,162.09537)">
                    <path d="M742.677,1223.166L742.686,1218.898L765.354,1218.898L765.34,1223L742.677,1223.166ZM751.598,1247.184C743.766,1247.184 737.089,1244.7 731.569,1239.731C726.048,1234.762 723.288,1228.753 723.288,1221.703C723.288,1214.653 726.048,1208.644 731.569,1203.675C737.089,1198.706 743.766,1196.221 751.598,1196.221L779.908,1196.221L779.981,1200.466L751.598,1200.489C747.352,1200.489 743.412,1201.434 739.779,1203.324C736.145,1205.214 733.279,1207.794 731.18,1211.064C729.08,1214.334 728.03,1217.88 728.03,1221.703C728.03,1225.525 729.08,1229.071 731.18,1232.341C733.279,1235.611 736.145,1238.191 739.779,1240.081C743.412,1241.971 747.352,1242.916 751.598,1242.916L779.908,1242.916L779.908,1247.184L751.598,1247.184Z" style="fill:rgb(240,240,240);"/>
                </g>
                <g id="E3" serif:id="E" transform="matrix(0.881951,0,0,0.981104,-437.90463,-373.617134)">
                    <path d="M742.677,1223.166L742.686,1218.898L765.354,1218.898L765.34,1223L742.677,1223.166ZM751.598,1247.184C743.766,1247.184 737.089,1244.7 731.569,1239.731C726.048,1234.762 723.288,1228.753 723.288,1221.703C723.288,1214.653 726.048,1208.644 731.569,1203.675C737.089,1198.706 743.766,1196.221 751.598,1196.221L779.908,1196.221L779.981,1200.466L751.598,1200.489C747.352,1200.489 743.412,1201.434 739.779,1203.324C736.145,1205.214 733.279,1207.794 731.18,1211.064C729.08,1214.334 728.03,1217.88 728.03,1221.703C728.03,1225.525 729.08,1229.071 731.18,1232.341C733.279,1235.611 736.145,1238.191 739.779,1240.081C743.412,1241.971 747.352,1242.916 751.598,1242.916L779.908,1242.916L779.908,1247.184L751.598,1247.184Z" style="fill:rgb(240,240,240);"/>
                </g>
                <g id="S" transform="matrix(0.979931,0,0,0.979931,-1118.213076,-261.103598)">
                    <path d="M1298.268,1082.835L1298.268,1087.109L1261.084,1087.109C1258.448,1087.109 1256.195,1088.044 1254.324,1089.915C1252.453,1091.786 1251.517,1094.039 1251.517,1096.676C1251.517,1099.312 1252.453,1101.555 1254.324,1103.404C1256.195,1105.254 1258.448,1106.179 1261.084,1106.179L1284.428,1106.179C1287.064,1106.179 1289.601,1106.944 1291.826,1108.347C1293.782,1109.58 1295.345,1111.228 1296.514,1113.29C1297.683,1115.353 1298.268,1117.596 1298.268,1120.019C1298.268,1123.846 1296.918,1127.109 1294.218,1129.809C1291.518,1132.509 1288.255,1133.859 1284.428,1133.859L1247.244,1133.859L1247.244,1129.586L1284.428,1129.586C1287.064,1129.586 1289.317,1128.651 1291.188,1126.78C1293.059,1124.909 1293.995,1122.655 1293.995,1120.019C1293.995,1117.383 1293.059,1115.14 1291.188,1113.29C1289.317,1111.441 1287.064,1110.516 1284.428,1110.516L1261.084,1110.516C1258.448,1110.516 1255.797,1109.677 1253.686,1108.347C1251.73,1107.114 1250.167,1105.467 1248.998,1103.404C1247.829,1101.342 1247.244,1099.099 1247.244,1096.676C1247.244,1092.849 1248.594,1089.586 1251.294,1086.885C1253.994,1084.186 1257.257,1082.836 1261.084,1082.835L1298.268,1082.835Z" style="fill:rgb(240,240,240);"/>
                </g>
            </g>
            <g id="THE" transform="matrix(0.7,0,0,0.7,123,815)">
                <g id="E4" serif:id="E" transform="matrix(0.881951,0,0,0.981104,162.09537,-373.617134)">
                    <path d="M742.677,1223.166L742.686,1218.898L765.354,1218.898L765.34,1223L742.677,1223.166ZM751.598,1247.184C743.766,1247.184 737.089,1244.7 731.569,1239.731C726.048,1234.762 723.288,1228.753 723.288,1221.703C723.288,1214.653 726.048,1208.644 731.569,1203.675C737.089,1198.706 743.766,1196.221 751.598,1196.221L779.908,1196.221L779.981,1200.466L751.598,1200.489C747.352,1200.489 743.412,1201.434 739.779,1203.324C736.145,1205.214 733.279,1207.794 731.18,1211.064C729.08,1214.334 728.03,1217.88 728.03,1221.703C728.03,1225.525 729.08,1229.071 731.18,1232.341C733.279,1235.611 736.145,1238.191 739.779,1240.081C743.412,1241.971 747.352,1242.916 751.598,1242.916L779.908,1242.916L779.908,1247.184L751.598,1247.184Z" style="fill:rgb(161,161,161);"/>
                </g>
                <g transform="matrix(1.358696,0,0,1.358696,868.603185,348.335707)">
                    <path d="M-97.734,349.261L-97.734,332.425L-94.652,332.425L-94.652,369.225L-97.734,369.225L-97.734,352.389L-128.37,352.389L-128.37,369.225L-131.452,369.225L-131.452,332.425L-128.37,332.425L-128.37,349.261L-97.734,349.261Z" style="fill:rgb(161,161,161);fill-rule:nonzero;"/>
                </g>
                <g id="T1" serif:id="T" transform="matrix(0.981123,0,0,0.981104,-10.726031,-262.373683)">
                    <path d="M612.284,1087.103L612.284,1082.835L663.246,1082.835L663.246,1087.103L639.931,1087.103L639.931,1133.798L635.599,1133.798L635.599,1087.103L612.284,1087.103Z" style="fill:rgb(161,161,161);fill-rule:nonzero;"/>
                </g>
            </g>
        </g>
    </g>
</svg>
