<?xml version="1.0" encoding="UTF-8" standalone="no"?>
<!DOCTYPE svg PUBLIC "-//W3C//DTD SVG 1.1//EN" "http://www.w3.org/Graphics/SVG/1.1/DTD/svg11.dtd">
<svg width="100%" height="100%" viewBox="0 0 440 140" version="1.1" xmlns="http://www.w3.org/2000/svg" xmlns:xlink="http://www.w3.org/1999/xlink" xml:space="preserve" xmlns:serif="http://www.serif.com/" style="fill-rule:evenodd;clip-rule:evenodd;stroke-linecap:round;stroke-linejoin:round;stroke-miterlimit:1.5;">
    <g transform="matrix(1,0,0,1,-520,-739.90327)">
        <g id="Building-Construction" serif:id="Building Construction">
            <g transform="matrix(1.62963,0,0,1.342444,373.333333,431.141195)">
                <rect x="90" y="230" width="270" height="104.287" style="fill:none;"/>
            </g>
            <g transform="matrix(1,0,0,1,-20.77817,480)">
                <g transform="matrix(1,0,0,1,838.33817,299.00327)">
                    <path d="M15.018,51.268C15.023,51.286 15.027,51.304 15.031,51.322C16.437,55.814 19.555,59.085 21.907,62.596C25.225,67.55 40.74,67.912 43.18,62.952L43.211,62.931C46.3,60.325 48.592,56.573 49.753,52.291L50.136,50.853C50.832,50.688 51.475,50.227 52.038,49.566C52.701,48.79 53.268,47.723 53.684,46.542L53.694,46.52C55.119,42.321 54.795,39.075 53.153,35.083C53.498,34.902 53.831,34.714 54.151,34.52L57.01,34.52L57.85,35.36L92.42,2.41C99,-2.21 103.06,-0.66 106.85,11.12L119.05,42.77L116.32,43.93L116.56,43.93C120.05,43.93 122.88,46.76 122.88,50.25C122.88,52.85 121.31,55.08 119.07,56.05L119.14,60.59C127.48,84.5 98,89.37 89.63,73.95C88.11,71.16 86.51,68.42 85.47,64.88C84.75,62.41 88.03,61.46 88.84,63.12L90.3,66.32L115.32,59.05L115.39,56.45C112.46,55.9 110.24,53.33 110.25,50.24C110.25,48.45 110.99,46.83 112.19,45.68L109.57,46.79L95.39,15.4L67.42,44.94L69.26,46.79L69.26,66.36C69.26,69.22 66.92,71.57 64.05,71.57L8.8,71.57C5.94,71.57 3.59,69.23 3.59,66.36L3.59,59.87C3.59,57.01 5.93,54.67 8.79,54.67L13.01,54.67L13.01,53.9C13.01,52.65 13.865,51.587 15.018,51.268ZM97.01,5.3C95.07,5.3 93.51,6.87 93.51,8.8C93.51,10.73 95.08,12.3 97.01,12.3C98.94,12.3 100.51,10.73 100.51,8.8C100.51,6.87 98.94,5.3 97.01,5.3ZM13.59,73.72L59.07,73.72C66.54,73.72 72.66,79.83 72.66,87.31C72.66,94.78 66.55,100.9 59.07,100.9L13.59,100.9C6.11,100.89 0,94.78 0,87.3C0,79.83 6.11,73.72 13.59,73.72ZM57.65,77.36C52.16,77.36 47.71,81.81 47.71,87.3C47.71,92.79 52.16,97.24 57.65,97.24C63.14,97.24 67.59,92.79 67.59,87.3C67.59,81.81 63.14,77.36 57.65,77.36ZM56.42,84.98C56.42,84.82 56.97,84.7 57.65,84.7C58.33,84.7 58.88,84.83 58.88,84.98L58.88,86.07L59.97,86.07C60.13,86.07 60.25,86.62 60.25,87.3C60.25,87.98 60.12,88.53 59.97,88.53L58.88,88.53L58.88,89.62C58.88,89.78 58.33,89.9 57.65,89.9C56.97,89.9 56.42,89.77 56.42,89.62L56.42,88.53L55.33,88.53C55.17,88.53 55.05,87.98 55.05,87.3C55.05,86.62 55.18,86.07 55.33,86.07L56.42,86.07L56.42,84.98ZM15.13,77.36C9.64,77.36 5.19,81.81 5.19,87.3C5.19,92.79 9.64,97.24 15.13,97.24C20.62,97.24 25.07,92.79 25.07,87.3C25.07,81.81 20.62,77.36 15.13,77.36ZM17.45,86.08C17.61,86.08 17.73,86.63 17.73,87.31C17.73,87.99 17.6,88.54 17.45,88.54L16.36,88.54L16.36,89.63C16.36,89.79 15.81,89.91 15.13,89.91C14.45,89.91 13.9,89.78 13.9,89.63L13.9,88.54L12.81,88.54C12.65,88.54 12.53,87.99 12.53,87.31C12.53,86.63 12.66,86.08 12.81,86.08L13.9,86.08L13.9,84.99C13.9,84.83 14.45,84.71 15.13,84.71C15.81,84.71 16.36,84.84 16.36,84.99L16.36,86.08L17.45,86.08Z"/>
                </g>
                <g transform="matrix(0.195503,0,0,0.195503,820.734198,305.500019)">
                    <path d="M217.56,25.98C216.51,26.02 215.49,25.82 214.55,25.51C187.68,37.51 165.93,63.92 160.03,107.88C159.4,112.74 154.78,116.13 149.74,115.55C144.69,114.92 141.13,110.5 141.76,105.69C148.64,54.45 174.93,23.47 207.43,9.23C223.82,2.04 241.7,-0.82 259.38,0.2C277.02,1.18 294.5,5.99 310.23,14.12C343.51,31.37 368.86,63.6 370.7,106.52C370.89,111.4 366.94,115.51 361.86,115.71C356.77,115.9 352.51,112.11 352.31,107.22C350.79,71.27 329.47,44.25 301.5,29.73C300.29,29.1 299.12,28.52 297.87,27.93C296.85,28.29 295.76,28.48 294.58,28.44C278.55,28.06 283.98,97.85 283.98,114.06C283.98,119.03 279.87,123.06 274.83,123.06C269.78,123.06 265.67,119.03 265.67,114.06C265.67,88.65 261.34,38.48 274.55,20.07C269.2,18.94 263.76,18.19 258.32,17.88C251.48,17.49 244.63,17.8 237.9,18.78C250.38,38.13 246.16,88.14 246.16,114.06C246.16,118.99 242.17,122.98 237.24,122.98C232.31,122.98 228.32,118.99 228.32,114.06C228.32,97.44 233.87,25.52 217.56,25.98ZM361.92,146.22C370.32,166.64 371.98,183.24 364.69,204.72L364.64,204.83C362.51,210.87 359.61,216.33 356.22,220.3C353.34,223.68 350.05,226.04 346.49,226.88L344.53,234.24C338.59,256.14 326.87,275.33 311.07,288.66L310.91,288.77C298.432,314.139 219.072,312.288 202.1,286.95C190.07,268.989 174.12,252.26 166.93,229.28C166.57,227.78 165.94,226.09 165.45,224.59C159.65,223.88 155.09,219.58 151.63,213.89C142.86,199.44 140.95,182.23 145.18,166.08C146.77,159.99 148.98,154.03 151.16,148.77C140.79,143.24 130.97,135.57 125.84,124.74L142.58,117.43C155.65,145.03 224.03,149.93 249.56,150.01C287.03,150.13 325.21,144.03 349.69,132.41C359.36,127.83 366.59,122.51 370.31,116.57L386.11,125.64C381.09,133.69 372.7,140.56 361.92,146.22ZM167.57,155.86C153.09,170.38 164.04,213.14 171.97,211.55C178.98,209.52 180.34,220.01 181.73,224.5C189.31,248.56 202.98,266.14 219.12,276.84C231.16,284.83 244.6,289.01 257.9,289.2C271.19,289.39 284.4,285.63 295.99,277.75C310.14,268.14 321.94,252.37 328.71,230.18C329.86,225.67 331.36,213.17 338.3,214.51C349.47,216.7 352.84,184.7 351.79,176.56C350.93,169.83 348.71,163.25 345.72,154.53C345.603,154.179 345.569,153.806 345.62,153.44L345.64,153.26C298.1,170.29 217.89,173.48 167.57,155.86Z"/>
                </g>
            </g>
            <g transform="matrix(1,0,0,1,0,480)">
                <g id="Blueprint" transform="matrix(0.058232,0,0,0.058232,208.245181,168.171634)">
                    <g transform="matrix(1,0,0,1.073294,9368.777052,2414.064789)">
                        <path d="M1050.909,-43.943L1050.909,778.008L-56.737,778.008L-56.737,177.586L164.792,177.586L164.792,-43.943L-56.737,177.586L164.792,-43.943L1050.909,-43.943Z" style="fill:none;stroke:black;stroke-width:33.11px;"/>
                    </g>
                    <g transform="matrix(1,0,0,1,9350.481298,2435.841003)">
                        <g transform="matrix(0.895371,0,0,1,74.214436,0)">
                            <rect x="203.648" y="421" width="51.403" height="110.002" style="fill:none;stroke:black;stroke-width:18.09px;"/>
                        </g>
                        <g transform="matrix(0.895371,0,0,1,165.756813,0)">
                            <rect x="203.648" y="421" width="51.403" height="110.002" style="fill:none;stroke:black;stroke-width:18.09px;"/>
                        </g>
                        <g transform="matrix(0.895371,0,0,1,257.299189,0)">
                            <rect x="203.648" y="421" width="51.403" height="110.002" style="fill:none;stroke:black;stroke-width:18.09px;"/>
                        </g>
                        <g transform="matrix(0.895371,0,0,1,348.841566,0)">
                            <rect x="203.648" y="421" width="51.403" height="110.002" style="fill:none;stroke:black;stroke-width:18.09px;"/>
                        </g>
                        <g transform="matrix(0.895371,0,0,1,440.383942,0)">
                            <rect x="203.648" y="421" width="51.403" height="110.002" style="fill:none;stroke:black;stroke-width:18.09px;"/>
                        </g>
                        <g transform="matrix(1.091585,0,0,1,491.967709,0)">
                            <rect x="203.648" y="421" width="51.403" height="110.002" style="fill:none;stroke:black;stroke-width:16.41px;"/>
                        </g>
                        <rect x="207.137" y="421" width="563.24" height="110.002" style="fill:none;stroke:black;stroke-width:17.17px;"/>
                        <rect x="83.411" y="531.002" width="698.927" height="199.202" style="fill:none;stroke:black;stroke-width:17.17px;"/>
                        <rect x="162.498" y="585.895" width="82.301" height="143.571" style="fill:none;stroke:black;stroke-width:17.17px;"/>
                        <g transform="matrix(1,0,0,1,160.787695,0.738449)">
                            <rect x="162.498" y="585.895" width="82.301" height="143.571" style="fill:none;stroke:black;stroke-width:17.17px;"/>
                        </g>
                        <g transform="matrix(1,0,0,1,319.993913,0.738449)">
                            <rect x="162.498" y="585.895" width="82.301" height="143.571" style="fill:none;stroke:black;stroke-width:17.17px;"/>
                        </g>
                        <g transform="matrix(1,0,0,1,479.200131,0.738449)">
                            <rect x="162.498" y="585.895" width="82.301" height="143.571" style="fill:none;stroke:black;stroke-width:17.17px;"/>
                        </g>
                        <rect x="842.063" y="348.153" width="98.542" height="319.061" style="fill:none;stroke:black;stroke-width:17.17px;"/>
                        <rect x="800.838" y="224.038" width="184.792" height="66.704" style="fill:none;stroke:black;stroke-width:17.17px;"/>
                        <rect x="800.838" y="95.535" width="184.792" height="51.124" style="fill:none;stroke:black;stroke-width:17.17px;"/>
                        <rect x="800.838" y="182.074" width="184.792" height="41.964" style="fill:none;stroke:black;stroke-width:17.17px;"/>
                        <rect x="854.044" y="224.038" width="74.746" height="66.704" style="fill:none;stroke:black;stroke-width:17.17px;"/>
                        <rect x="842.063" y="667.214" width="98.542" height="62.252" style="fill:none;stroke:black;stroke-width:17.17px;"/>
                        <rect x="84.154" y="585.895" width="642.865" height="144.309" style="fill:none;stroke:black;stroke-width:17.17px;"/>
                        <path d="M25.541,730.204L1005.223,730.204" style="fill:none;stroke:black;stroke-width:17.17px;"/>
                        <path d="M891.554,20.976L891.554,95.535" style="fill:none;stroke:black;stroke-width:17.17px;"/>
                        <path d="M800.838,146.658L832.167,177.988" style="fill:none;stroke:black;stroke-width:17.17px;"/>
                        <g transform="matrix(-1,0,0,1,1786.466943,0)">
                            <path d="M800.838,146.658L832.167,177.988" style="fill:none;stroke:black;stroke-width:17.17px;"/>
                        </g>
                        <path d="M828.959,290.741L842.063,348.153" style="fill:none;stroke:black;stroke-width:17.17px;"/>
                        <g transform="matrix(-1,0,0,1,1782.667985,0)">
                            <path d="M828.959,290.741L842.063,348.153" style="fill:none;stroke:black;stroke-width:17.17px;"/>
                        </g>
                    </g>
                </g>
                <g transform="matrix(1,0,0,1,90.924134,-7.574038)">
                    <g transform="matrix(0.9,0,0,1,61.699987,0)">
                        <g transform="matrix(14,0,0,14,673.265866,292.819463)">
                        </g>
                        <text x="617px" y="292.819px" style="font-family:'HelveticaNeue', 'Helvetica Neue';font-size:14px;fill:rgb(83,83,83);">Blueprint</text>
                    </g>
                </g>
                <g transform="matrix(-0.795373,0,0,1.760717,972.436534,164.333055)">
                    <g transform="matrix(-1.257272,0,0,0.567951,568.835757,54.279162)">
                        <path d="M260.864,38.565L264.668,39.302L266.812,36.075" style="fill:none;stroke:rgb(144,144,144);stroke-width:1.43px;stroke-linejoin:miter;stroke-miterlimit:10;"/>
                        <path d="M264.668,39.302C260.915,30.431 256.933,24.286 250,21.705C247.693,20.846 245.06,20.381 242,20.342" style="fill:none;stroke:rgb(144,144,144);stroke-width:1.43px;stroke-linejoin:miter;stroke-miterlimit:6;"/>
                    </g>
                </g>
                <g transform="matrix(1,0,0,1,8.431134,99.048537)">
                    <g transform="matrix(0.9,0,0,1,56.822527,0)">
                        <g transform="matrix(14,0,0,14,678.685266,292.819463)">
                        </g>
                        <text x="568.225px" y="292.819px" style="font-family:'HelveticaNeue', 'Helvetica Neue';font-size:14px;fill:rgb(83,83,83);">Building Ar<tspan x="636.419px 643.937px " y="292.819px 292.819px ">ch</tspan>itect</text>
                    </g>
                </g>
                <g transform="matrix(0.825462,0,0,0.825462,659.075461,305.990959)">
                    <path d="M39.5,70.8C35.241,72.925 25.496,72.749 25.94,72.64C18.23,72.41 10.74,70.36 9.46,66.75C9.442,66.703 9.433,66.652 9.433,66.602C9.433,66.418 9.554,66.254 9.73,66.2L9.83,66.2C14.247,65.951 18.256,63.499 20.49,59.68C22.81,55.96 24.05,50.96 24.67,45.52C24.98,42.75 25.18,39.94 25.37,37.16C26.37,22.88 27.29,9.1 44.5,2.16C47.088,1.112 49.812,0.439 52.59,0.16C58.547,-0.447 64.548,0.811 69.76,3.76C75.336,6.98 79.654,12.003 82,18C83.272,21.201 84.077,24.569 84.39,28C84.39,36.88 85.73,47.64 89.49,55.49C92.32,61.42 96.49,65.69 102.49,66.17C102.724,66.196 102.897,66.405 102.88,66.64L102.88,66.78C101.44,70.7 92.55,72.7 83.95,72.48C75.35,72.26 73.731,71.44 71,70C69.268,69.087 67.31,67.69 66.7,66C66.7,65.87 66.61,65.74 66.57,65.61C63.149,68.337 58.942,69.897 54.57,70.06C50.905,70.02 47.335,68.884 44.32,66.8C43.66,68.52 42.095,69.505 39.5,70.8ZM61.52,17.59C52,27.2 42,31 31.47,33.62C31.361,34.176 31.327,34.745 31.37,35.31C31.37,49.83 42.37,67.25 54.54,67.25C66.71,67.25 79.11,49.83 79.11,35.31C79.14,33.103 78.802,30.906 78.11,28.81C68.89,28.71 65.29,24.07 61.55,17.59L61.52,17.59Z"/>
                </g>
                <g transform="matrix(-1.004682,-0,-0,-1.291715,943.814569,473.036591)">
                    <g transform="matrix(-0.99534,0,0,-0.774164,421.839713,165.000237)">
                        <path d="M183.206,113.448L181.683,110.715L178.574,111.071" style="fill:none;stroke:rgb(144,144,144);stroke-width:1.16px;stroke-linejoin:miter;stroke-miterlimit:10;"/>
                        <path d="M181.683,110.715C175.925,121.96 173.362,128.142 158,128.096" style="fill:none;stroke:rgb(144,144,144);stroke-width:1.16px;stroke-linejoin:miter;stroke-miterlimit:6;"/>
                    </g>
                </g>
                <g transform="matrix(0.930788,0,0,0.5,50.452693,132)">
                    <path d="M665,310C665,315.536 661.558,320.825 655.493,324.606L665,340L647.342,328.229C643.463,329.396 639.256,330 635,330C618.443,330 605,321.038 605,310C605,298.962 618.443,290 635,290C651.557,290 665,298.962 665,310Z" style="fill:none;"/>
                    <clipPath id="_clip1">
                        <path d="M665,310C665,315.536 661.558,320.825 655.493,324.606L665,340L647.342,328.229C643.463,329.396 639.256,330 635,330C618.443,330 605,321.038 605,310C605,298.962 618.443,290 635,290C651.557,290 665,298.962 665,310Z"/>
                    </clipPath>
                    <g clip-path="url(#_clip1)">
                        <g transform="matrix(1.074358,0,0,2,-28.56036,-262.784925)">
                            <g transform="matrix(17,0,0,17,620.950966,292.819463)">
                            </g>
                            <text x="611.499px" y="292.819px" style="font-family:'HelveticaNeue', 'Helvetica Neue';font-size:17px;">?</text>
                        </g>
                    </g>
                    <path d="M667.686,310C667.686,313.37 666.944,316.761 665.347,319.889C664.221,322.093 662.609,324.227 660.54,326.151L677.532,353.665L647.083,333.365C643.262,334.442 639.153,335 635,335C622.733,335 612.111,330.098 606.825,323.302C603.792,319.404 602.314,314.691 602.314,310C602.314,305.309 603.792,300.596 606.825,296.698C612.111,289.902 622.733,285 635,285C647.267,285 657.889,289.902 663.175,296.698C666.208,300.596 667.686,305.309 667.686,310ZM665,310C665,298.962 651.557,290 635,290C618.443,290 605,298.962 605,310C605,321.038 618.443,330 635,330C639.256,330 643.463,329.396 647.342,328.229L665,340L655.493,324.606C661.558,320.825 665,315.536 665,310Z"/>
                </g>
            </g>
            <g transform="matrix(1,0,0,1,-4.912901,479.5)">
                <g transform="matrix(0.184395,0,0,0.184395,524.15983,306.000343)">
                    <path d="M139.64,191.28C142.98,182 148.08,178.99 154.8,179.18L150.37,176.24C147.97,146.19 155.01,94.06 122.38,84.19C184.12,7.89 255.28,-33.6 308.71,34.27C373.08,37.65 398.9,139.94 347.56,183L347.26,185.54C349.27,184.93 351.28,184.54 353.21,184.39C357,184.1 360.63,184.72 363.72,186.36C367.11,188.17 369.7,191.1 371.03,195.25C372.31,199.22 372.36,204.29 370.68,210.52L362.65,233.3C361.35,237 360.16,239.6 357.57,241.66C354.9,243.77 351.67,244.56 346.67,244.29C345.84,244.25 345.01,244.16 344.2,244.01C343.802,249.604 342.562,255.106 340.52,260.33C337.75,267.45 333.89,273.26 330.09,278.62C325.79,284.67 321.062,289.619 316.49,295.07C283.874,333.964 224.235,335.566 194.27,299.12C188.146,291.671 182.2,284.94 176.88,276L176.52,275.43C171.72,267.37 165.92,257.64 164.1,244.13L162.54,244.16C159.27,244.12 156.12,243.37 153.17,241.7C148.43,239 145.11,234.4 142.87,229.21L142.67,228.69C140.15,222.6 139,215.66 138.73,210.41C138.63,208.45 138.63,204.56 138.74,200.84L138.74,200.79C138.82,197.6 138.99,194.51 139.23,192.78C139.31,192.25 139.44,191.75 139.64,191.28ZM205.19,292.77L205.59,293.11C220.94,307.79 237.95,313.31 254.1,312.68C273.58,311.91 291.99,302.31 304.95,289.03C305.36,288.61 305.83,288.23 306.36,287.94C311.16,283.13 315.77,277.65 320.12,271.53C323.46,266.82 326.84,261.75 329.11,255.92C331.32,250.24 332.58,243.59 331.89,235.41C331.81,234.09 332.12,232.73 332.9,231.55C334.742,228.751 338.559,227.961 341.36,229.8C342.43,230.5 343.52,231.08 344.61,231.48C345.55,231.82 346.46,232.03 347.29,232.07C349.04,232.16 349.83,232.16 349.94,232.07C350.13,231.93 350.52,230.88 351.1,229.23L358.89,207.17C359.88,203.45 359.95,200.77 359.38,198.99C359.09,198.09 358.58,197.48 357.96,197.15C357.04,196.66 355.69,196.49 354.12,196.61C350.7,196.87 346.7,198.53 343.15,201.22C341.85,202.2 340.16,202.67 338.43,202.37C335.1,201.8 332.85,198.63 333.42,195.3C339.19,161.63 336.55,139.69 329.38,124.73C323.1,111.62 313.08,103.68 302.21,97.75C278.09,116.22 261.11,118.33 244.17,120.42C230.16,122.15 216.18,123.88 197.66,136.69C188.91,142.74 183.08,150.06 180.07,158.56C176.98,167.29 176.74,177.45 179.24,188.96C179.56,190.12 179.53,191.39 179.08,192.61C177.94,195.78 174.42,197.42 171.25,196.28L165.64,194.25C158.4,191.72 153.27,190.54 151.29,195.09C151.13,196.56 151.02,198.81 150.96,201.13L150.96,201.18C150.87,204.53 150.87,208.03 150.95,209.79C151.16,213.94 152.03,219.34 153.92,223.92L154.14,224.37C155.41,227.34 157.1,229.86 159.2,231.05C160.26,231.65 161.44,231.93 162.68,231.94C164.2,231.96 165.89,231.64 167.69,231.11C168.26,230.91 168.87,230.8 169.51,230.79C169.56,230.789 169.611,230.788 169.661,230.788C172.957,230.788 175.69,233.455 175.77,236.75C176.1,250.85 182.15,260.99 187.02,269.16L187.36,269.73C192.8,278.87 198.8,286.54 205.19,292.77Z" style="fill-rule:nonzero;"/>
                </g>
                <g transform="matrix(1.207008,0,0,0.72,-126.747495,99.7)">
                    <path d="M665,313.72C665,326.812 651.557,337.441 635,337.441C629.304,337.441 623.725,336.158 618.916,333.744L605,340L611.45,328.415C607.272,324.23 605,319.053 605,313.72C605,300.629 618.443,290 635,290C651.557,290 665,300.629 665,313.72Z" style="fill:none;"/>
                    <clipPath id="_clip2">
                        <path d="M665,313.72C665,326.812 651.557,337.441 635,337.441C629.304,337.441 623.725,336.158 618.916,333.744L605,340L611.45,328.415C607.272,324.23 605,319.053 605,313.72C605,300.629 618.443,290 635,290C651.557,290 665,300.629 665,313.72Z"/>
                    </clipPath>
                    <g clip-path="url(#_clip2)">
                        <g transform="matrix(0.828495,0,0,1.388889,107.178592,-86.138143)">
                            <g transform="matrix(0.9,0,0,1,61.406427,0)">
                                <g transform="matrix(17,0,0,17,665.370266,292.819463)">
                                </g>
                                <text x="614.064px" y="292.819px" style="font-family:'HelveticaNeue', 'Helvetica Neue';font-size:17px;">Airport</text>
                            </g>
                        </g>
                    </g>
                    <path d="M667.071,313.72C667.071,319.974 664.677,325.957 660.329,330.646C654.612,336.81 645.4,340.913 635,340.913C629.316,340.913 623.747,339.673 618.892,337.349L598.55,346.495L608.282,329.018C604.722,324.474 602.929,319.079 602.929,313.72C602.929,307.466 605.323,301.484 609.671,296.795C615.388,290.63 624.6,286.528 635,286.528C645.4,286.528 654.612,290.63 660.329,296.795C664.677,301.484 667.071,307.466 667.071,313.72ZM665,313.72C665,300.629 651.557,290 635,290C618.443,290 605,300.629 605,313.72C605,319.053 607.272,324.23 611.45,328.415L605,340L618.916,333.744C623.725,336.158 629.304,337.441 635,337.441C651.557,337.441 665,326.812 665,313.72Z"/>
                </g>
                <g transform="matrix(1,0,0,1,-81.876341,-7.074038)">
                    <g transform="matrix(0.9,0,0,1,63.753787,0)">
                        <g transform="matrix(14,0,0,14,670.983866,292.819463)">
                        </g>
                        <text x="637.538px" y="292.819px" style="font-family:'HelveticaNeue', 'Helvetica Neue';font-size:14px;fill:rgb(83,83,83);">Need</text>
                    </g>
                </g>
                <g transform="matrix(-0.518721,0,0,2.562882,726.154119,112.024463)">
                    <g transform="matrix(-1.927817,0,0,0.390186,387.956234,57.895283)">
                        <path d="M84.032,44.17L87.746,45.274L90.194,42.27" style="fill:none;stroke:rgb(144,144,144);stroke-width:1.43px;stroke-linejoin:miter;stroke-miterlimit:10;"/>
                        <path d="M87.746,45.274C84.801,35.416 83.366,20.493 64,20.342" style="fill:none;stroke:rgb(144,144,144);stroke-width:1.43px;stroke-linejoin:miter;stroke-miterlimit:6;"/>
                    </g>
                </g>
            </g>
        </g>
    </g>
</svg>
