<?xml version="1.0" encoding="UTF-8" standalone="no"?>
<!DOCTYPE svg PUBLIC "-//W3C//DTD SVG 1.1//EN" "http://www.w3.org/Graphics/SVG/1.1/DTD/svg11.dtd">
<svg width="100%" height="100%" viewBox="0 0 440 140" version="1.1" xmlns="http://www.w3.org/2000/svg" xmlns:xlink="http://www.w3.org/1999/xlink" xml:space="preserve" xmlns:serif="http://www.serif.com/" style="fill-rule:evenodd;clip-rule:evenodd;stroke-linejoin:round;stroke-miterlimit:2;">
    <g id="Software-Construction" serif:id="Software Construction">
        <rect x="-0" y="0" width="440" height="140" style="fill:none;"/>
        <g>
            <g>
                <path d="M264.108,90.368C264.113,90.386 264.117,90.404 264.121,90.422C265.527,94.914 268.645,98.185 270.997,101.696C274.315,106.65 289.83,107.012 292.27,102.052L292.301,102.031C295.39,99.425 297.681,95.673 298.843,91.391L299.226,89.953C299.922,89.788 300.565,89.327 301.128,88.666C301.791,87.89 302.358,86.823 302.774,85.642L302.784,85.62C304.209,81.421 303.885,78.175 302.242,74.183C302.588,74.002 302.921,73.814 303.24,73.62L306.1,73.62L306.94,74.46L341.51,41.51C348.09,36.89 352.15,38.44 355.94,50.22L368.14,81.87L365.41,83.03L365.65,83.03C369.14,83.03 371.97,85.86 371.97,89.35C371.97,91.95 370.4,94.18 368.16,95.15L368.23,99.69C376.57,123.6 347.09,128.47 338.72,113.05C337.2,110.26 335.6,107.52 334.56,103.98C333.84,101.51 337.12,100.56 337.93,102.22L339.39,105.42L364.41,98.15L364.48,95.55C361.55,95 359.33,92.43 359.34,89.34C359.34,87.55 360.08,85.93 361.28,84.78L358.66,85.89L344.48,54.5L316.51,84.04L318.35,85.89L318.35,105.46C318.35,108.32 316.01,110.67 313.14,110.67L257.89,110.67C255.03,110.67 252.68,108.33 252.68,105.46L252.68,98.97C252.68,96.11 255.02,93.77 257.88,93.77L262.1,93.77L262.1,93C262.1,91.75 262.955,90.687 264.108,90.368ZM346.1,44.4C344.16,44.4 342.6,45.97 342.6,47.9C342.6,49.83 344.17,51.4 346.1,51.4C348.03,51.4 349.6,49.83 349.6,47.9C349.6,45.97 348.03,44.4 346.1,44.4ZM262.68,112.82L308.16,112.82C315.63,112.82 321.75,118.93 321.75,126.41C321.75,133.88 315.64,140 308.16,140L262.68,140C255.2,139.99 249.09,133.88 249.09,126.4C249.09,118.93 255.2,112.82 262.68,112.82ZM306.74,116.46C301.25,116.46 296.8,120.91 296.8,126.4C296.8,131.89 301.25,136.34 306.74,136.34C312.23,136.34 316.68,131.89 316.68,126.4C316.68,120.91 312.23,116.46 306.74,116.46ZM305.51,124.08C305.51,123.92 306.06,123.8 306.74,123.8C307.42,123.8 307.97,123.93 307.97,124.08L307.97,125.17L309.06,125.17C309.22,125.17 309.34,125.72 309.34,126.4C309.34,127.08 309.21,127.63 309.06,127.63L307.97,127.63L307.97,128.72C307.97,128.88 307.42,129 306.74,129C306.06,129 305.51,128.87 305.51,128.72L305.51,127.63L304.42,127.63C304.26,127.63 304.14,127.08 304.14,126.4C304.14,125.72 304.27,125.17 304.42,125.17L305.51,125.17L305.51,124.08ZM264.22,116.46C258.73,116.46 254.28,120.91 254.28,126.4C254.28,131.89 258.73,136.34 264.22,136.34C269.71,136.34 274.16,131.89 274.16,126.4C274.16,120.91 269.71,116.46 264.22,116.46ZM266.54,125.18C266.7,125.18 266.82,125.73 266.82,126.41C266.82,127.09 266.69,127.64 266.54,127.64L265.45,127.64L265.45,128.73C265.45,128.89 264.9,129.01 264.22,129.01C263.54,129.01 262.99,128.88 262.99,128.73L262.99,127.64L261.9,127.64C261.74,127.64 261.62,127.09 261.62,126.41C261.62,125.73 261.75,125.18 261.9,125.18L262.99,125.18L262.99,124.09C262.99,123.93 263.54,123.81 264.22,123.81C264.9,123.81 265.45,123.94 265.45,124.09L265.45,125.18L266.54,125.18Z"/>
                <path d="M274.02,50.676C273.814,50.684 273.615,50.645 273.431,50.584C268.178,52.93 263.926,58.093 262.772,66.688C262.649,67.638 261.746,68.301 260.761,68.187C259.773,68.064 259.077,67.2 259.2,66.259C260.546,56.242 265.685,50.185 272.039,47.401C275.243,45.996 278.739,45.436 282.196,45.636C285.644,45.827 289.062,46.768 292.137,48.357C298.643,51.73 303.599,58.031 303.959,66.422C303.996,67.376 303.224,68.179 302.231,68.218C301.236,68.256 300.403,67.515 300.364,66.559C300.067,59.53 295.898,54.248 290.43,51.409C290.194,51.286 289.965,51.173 289.721,51.057C289.521,51.128 289.308,51.165 289.077,51.157C285.943,51.083 287.005,64.727 287.005,67.896C287.005,68.868 286.201,69.655 285.216,69.655C284.229,69.655 283.425,68.868 283.425,67.896C283.425,62.928 282.579,53.12 285.161,49.521C284.115,49.3 283.052,49.153 281.988,49.092C280.651,49.016 279.312,49.077 277.996,49.268C280.436,53.051 279.611,62.828 279.611,67.896C279.611,68.86 278.831,69.64 277.867,69.64C276.903,69.64 276.123,68.86 276.123,67.896C276.123,64.647 277.208,50.586 274.02,50.676ZM302.242,74.183C303.885,78.175 304.209,81.421 302.784,85.62L302.774,85.642C302.358,86.823 301.791,87.89 301.128,88.666C300.565,89.327 299.922,89.788 299.226,89.953L298.843,91.391C297.681,95.673 295.39,99.425 292.301,102.031L292.27,102.052C289.83,107.012 274.315,106.65 270.997,101.696C268.645,98.185 265.527,94.914 264.121,90.422C264.051,90.129 263.928,89.798 263.832,89.505C262.698,89.366 261.807,88.525 261.13,87.413C259.416,84.588 259.042,81.223 259.869,78.066C260.18,76.875 260.612,75.71 261.038,74.682C259.011,73.601 257.091,72.101 256.088,69.984L259.361,68.555C261.916,73.951 275.285,74.909 280.276,74.924C287.601,74.948 295.066,73.755 299.851,71.483C301.742,70.588 303.156,69.548 303.883,68.387L306.972,70.16C305.99,71.734 304.35,73.077 302.242,74.183ZM264.246,76.068C261.416,78.907 263.556,87.266 265.107,86.955C266.477,86.559 266.743,88.609 267.015,89.487C268.497,94.191 271.169,97.628 274.325,99.72C276.678,101.282 279.306,102.099 281.906,102.136C284.504,102.173 287.087,101.438 289.353,99.898C292.119,98.019 294.426,94.936 295.75,90.598C295.975,89.716 296.268,87.272 297.625,87.534C299.808,87.962 300.467,81.706 300.262,80.115C300.094,78.799 299.66,77.513 299.075,75.808C299.052,75.739 299.046,75.666 299.056,75.595L299.06,75.56C289.765,78.889 274.084,79.513 264.246,76.068Z"/>
                <path d="M235.217,67.572C235.217,70.731 232.38,73.774 227.27,76.096L235.217,85.662L216.592,79.205C212.982,79.825 209.118,80.144 205.217,80.144C188.66,80.144 175.217,74.511 175.217,67.572C175.217,60.633 188.66,55 205.217,55C221.774,55 235.217,60.633 235.217,67.572Z" style="fill:none;"/>
                <clipPath id="_clip1">
                    <path d="M235.217,67.572C235.217,70.731 232.38,73.774 227.27,76.096L235.217,85.662L216.592,79.205C212.982,79.825 209.118,80.144 205.217,80.144C188.66,80.144 175.217,74.511 175.217,67.572C175.217,60.633 188.66,55 205.217,55C221.774,55 235.217,60.633 235.217,67.572Z"/>
                </clipPath>
                <g clip-path="url(#_clip1)">
                    <g transform="matrix(17,0,0,17,222.267951,72.138)">
                    </g>
                    <text x="189.526px" y="72.138px" style="font-family:'HelveticaNeue', 'Helvetica Neue';font-size:17px;">A<tspan x="200.236px 208.736px " y="72.138px 72.138px ">ye</tspan>!</text>
                </g>
                <path d="M237.717,67.572C237.717,70.814 235.535,74.18 231.159,76.865L242.869,90.96L216.376,81.776C212.817,82.349 209.034,82.644 205.217,82.644C194.768,82.644 185.512,80.448 179.768,77.166C175.164,74.534 172.717,71.082 172.717,67.572C172.717,64.062 175.164,60.61 179.768,57.979C185.512,54.696 194.768,52.5 205.217,52.5C215.666,52.5 224.922,54.696 230.666,57.979C235.27,60.61 237.717,64.062 237.717,67.572ZM235.217,67.572C235.217,60.633 221.774,55 205.217,55C188.66,55 175.217,60.633 175.217,67.572C175.217,74.511 188.66,80.144 205.217,80.144C209.118,80.144 212.982,79.825 216.592,79.205L235.217,85.662L227.27,76.096C232.38,73.774 235.217,70.731 235.217,67.572Z"/>
            </g>
            <g>
                <path d="M71.213,80.868C71.829,79.157 72.769,78.602 74.008,78.637L73.191,78.095C72.749,72.554 74.047,62.941 68.03,61.121C79.415,47.052 92.536,39.401 102.388,51.916C114.258,52.54 119.019,71.401 109.552,79.341L109.497,79.81C109.867,79.697 110.238,79.625 110.594,79.598C111.293,79.544 111.962,79.658 112.532,79.961C113.157,80.295 113.635,80.835 113.88,81.6C114.116,82.332 114.125,83.267 113.815,84.416L112.335,88.616C112.095,89.299 111.875,89.778 111.398,90.158C110.906,90.547 110.31,90.693 109.388,90.643C109.235,90.635 109.082,90.619 108.933,90.591C108.859,91.623 108.63,92.637 108.254,93.601C107.743,94.913 107.031,95.985 106.331,96.973C105.538,98.089 104.666,99.001 103.823,100.006C97.809,107.178 86.812,107.474 81.286,100.753C80.157,99.38 79.061,98.138 78.08,96.49L78.013,96.385C77.128,94.899 76.059,93.105 75.723,90.613L75.435,90.619C74.832,90.612 74.252,90.473 73.708,90.165C72.834,89.667 72.221,88.819 71.808,87.862L71.771,87.766C71.307,86.643 71.095,85.364 71.045,84.396C71.027,84.034 71.027,83.317 71.047,82.631L71.047,82.622C71.062,82.033 71.093,81.464 71.137,81.145C71.152,81.047 71.176,80.955 71.213,80.868ZM83.3,99.582L83.374,99.645C86.204,102.352 89.341,103.37 92.319,103.254C95.911,103.112 99.305,101.341 101.695,98.893C101.771,98.815 101.857,98.745 101.955,98.692C102.84,97.805 103.69,96.794 104.492,95.666C105.108,94.797 105.731,93.862 106.15,92.787C106.558,91.74 106.79,90.514 106.663,89.005C106.648,88.762 106.705,88.511 106.849,88.294C107.188,87.778 107.892,87.632 108.409,87.971C108.606,88.1 108.807,88.207 109.008,88.281C109.181,88.343 109.349,88.382 109.502,88.39C109.825,88.406 109.971,88.406 109.991,88.39C110.026,88.364 110.098,88.17 110.205,87.866L111.641,83.798C111.824,83.112 111.837,82.618 111.732,82.29C111.678,82.124 111.584,82.011 111.47,81.95C111.3,81.86 111.051,81.829 110.762,81.851C110.131,81.899 109.394,82.205 108.739,82.701C108.499,82.882 108.188,82.968 107.869,82.913C107.255,82.808 106.84,82.223 106.945,81.609C108.009,75.401 107.522,71.355 106.2,68.597C105.042,66.179 103.194,64.715 101.19,63.622C96.742,67.027 93.611,67.416 90.488,67.802C87.904,68.121 85.326,68.44 81.911,70.802C80.298,71.918 79.223,73.267 78.668,74.835C78.098,76.444 78.054,78.318 78.515,80.44C78.574,80.654 78.568,80.888 78.485,81.113C78.275,81.698 77.626,82 77.041,81.79L76.007,81.416C74.672,80.949 73.726,80.732 73.361,81.571C73.331,81.842 73.311,82.257 73.3,82.684L73.3,82.694C73.284,83.311 73.284,83.957 73.298,84.281C73.337,85.046 73.497,86.042 73.846,86.887L73.886,86.97C74.121,87.517 74.432,87.982 74.82,88.201C75.015,88.312 75.233,88.364 75.461,88.366C75.741,88.369 76.053,88.31 76.385,88.213C76.49,88.176 76.603,88.155 76.721,88.154C76.73,88.153 76.739,88.153 76.748,88.153C77.356,88.153 77.86,88.645 77.875,89.253C77.936,91.852 79.051,93.722 79.949,95.229L80.012,95.334C81.015,97.019 82.122,98.434 83.3,99.582Z" style="fill-rule:nonzero;"/>
                <path d="M201.427,33.794C201.427,43.22 185.202,50.873 165.217,50.873C158.341,50.873 151.608,49.95 145.804,48.211L129.007,52.716L136.792,44.375C131.75,41.361 129.007,37.634 129.007,33.794C129.007,24.369 145.232,16.716 165.217,16.716C185.202,16.716 201.427,24.369 201.427,33.794Z" style="fill:none;"/>
                <clipPath id="_clip2">
                    <path d="M201.427,33.794C201.427,43.22 185.202,50.873 165.217,50.873C158.341,50.873 151.608,49.95 145.804,48.211L129.007,52.716L136.792,44.375C131.75,41.361 129.007,37.634 129.007,33.794C129.007,24.369 145.232,16.716 165.217,16.716C185.202,16.716 201.427,24.369 201.427,33.794Z"/>
                </clipPath>
                <g clip-path="url(#_clip2)">
                    <g transform="matrix(17,0,0,17,192.739951,38.61915)">
                    </g>
                    <text x="137.626px" y="38.619px" style="font-family:'HelveticaNeue', 'Helvetica Neue';font-size:17px;">T<tspan x="145.82px 151.175px 160.304px " y="38.619px 38.619px 38.619px ">ren</tspan>ch!</text>
                </g>
                <path d="M203.927,33.794C203.927,38.297 201.037,42.605 195.789,45.981C188.889,50.419 177.77,53.373 165.217,53.373C158.357,53.373 151.634,52.481 145.775,50.807L121.222,57.392L132.968,44.809C128.671,41.537 126.507,37.652 126.507,33.794C126.507,29.292 129.396,24.984 134.645,21.608C141.545,17.17 152.664,14.216 165.217,14.216C177.77,14.216 188.889,17.17 195.789,21.608C201.037,24.984 203.927,29.292 203.927,33.794ZM201.427,33.794C201.427,24.369 185.202,16.716 165.217,16.716C145.232,16.716 129.007,24.369 129.007,33.794C129.007,37.634 131.75,41.361 136.792,44.375L129.007,52.716L145.804,48.211C151.608,49.95 158.341,50.873 165.217,50.873C185.202,50.873 201.427,43.22 201.427,33.794Z"/>
            </g>
        </g>
    </g>
</svg>
