<?xml version="1.0" encoding="UTF-8" standalone="no"?>
<!DOCTYPE svg PUBLIC "-//W3C//DTD SVG 1.1//EN" "http://www.w3.org/Graphics/SVG/1.1/DTD/svg11.dtd">
<svg width="100%" height="100%" viewBox="0 0 40 41" version="1.1" xmlns="http://www.w3.org/2000/svg" xmlns:xlink="http://www.w3.org/1999/xlink" xml:space="preserve" xmlns:serif="http://www.serif.com/" style="fill-rule:evenodd;clip-rule:evenodd;stroke-linejoin:round;stroke-miterlimit:2;">
    <path d="M40,0C40,0 36.029,0.126 34,6.75C32.354,12.124 29.836,28.169 27.5,29.25C23.999,30.872 17.032,31.781 10,33.25C3.8,34.546 0,40 0,40C0,40 2.793,24.931 10.5,16.985C22.305,4.814 34.171,-0.053 40,0ZM35.423,1.706C29.196,3.432 20.203,8.417 11.218,17.681C6.041,23.019 3.145,31.652 1.841,36.526C3.677,34.868 6.397,32.982 9.795,32.272C16.739,30.82 23.623,29.944 27.08,28.343C27.228,28.275 27.321,28.05 27.47,27.777C27.871,27.048 28.268,25.953 28.666,24.639C30.312,19.211 31.892,10.22 33.044,6.458C33.699,4.319 34.547,2.794 35.423,1.706Z" style="fill:rgb(19,0,35);"/>
    <path d="M0,0L40,0C33.769,0.59 8.519,27.435 5.5,31.485C3.492,34.178 0,40 0,40L0,0Z" style="fill:rgb(19,0,35);"/>
</svg>
