<?xml version="1.0" encoding="UTF-8" standalone="no"?>
<!DOCTYPE svg PUBLIC "-//W3C//DTD SVG 1.1//EN" "http://www.w3.org/Graphics/SVG/1.1/DTD/svg11.dtd">
<svg width="100%" height="100%" viewBox="0 0 100 50" version="1.1" xmlns="http://www.w3.org/2000/svg" xmlns:xlink="http://www.w3.org/1999/xlink" xml:space="preserve" xmlns:serif="http://www.serif.com/" style="fill-rule:evenodd;clip-rule:evenodd;stroke-linecap:round;stroke-miterlimit:10;">
    <g id="Image-and-Text" serif:id="Image and Text">
        <path d="M40,0C40,0 36.029,0.126 34,6.75C32.354,12.124 29.836,28.169 27.5,29.25C23.999,30.872 17.032,31.781 10,33.25C3.8,34.546 -0,40 -0,40C-0,40 2.793,24.931 10.5,16.985C22.305,4.814 34.171,-0.053 40,0ZM35.423,1.706C29.196,3.432 20.203,8.417 11.218,17.681C6.041,23.019 3.145,31.652 1.841,36.526C3.677,34.868 6.397,32.982 9.795,32.272C16.739,30.82 23.623,29.944 27.08,28.343C27.228,28.275 27.321,28.05 27.47,27.777C27.871,27.048 28.268,25.953 28.666,24.639C30.312,19.211 31.892,10.22 33.044,6.458C33.699,4.319 34.547,2.794 35.423,1.706Z" style="fill:rgb(19,0,35);"/>
        <path d="M0,0L40,0C33.769,0.59 8.519,27.435 5.5,31.485C3.492,34.178 0,40 0,40L0,0Z" style="fill:rgb(19,0,35);"/>
        <path d="M32.402,31.062L29.723,30.694L28.353,33.025" style="fill:none;stroke:black;stroke-width:1px;"/>
        <path d="M29.723,30.694C34.731,40.818 41.723,43.417 54,43" style="fill:none;stroke:black;stroke-width:1px;stroke-miterlimit:6;"/>
        <g transform="matrix(1,0,0,1,-274.066586,-34.970589)">
            <text x="331.318px" y="82.252px" style="font-family:'HelveticaNeue-Light', 'Helvetica Neue';font-weight:300;font-size:13px;">Flip</text>
            <g transform="matrix(13,0,0,13,374.893586,82.252159)">
            </g>
            <text x="354.185px" y="82.252px" style="font-family:'HelveticaNeue-Light', 'Helvetica Neue';font-weight:300;font-size:13px;fill:white;">me!</text>
            <path d="M372.892,75.739L372.892,72.97L373.776,72.97L373.776,75.739L373.581,79.938L373.087,79.938L372.892,75.739ZM354.965,75.544L355.719,75.544L355.719,76.675L355.758,76.675C355.974,76.259 356.258,75.934 356.609,75.7C356.96,75.466 357.409,75.349 357.955,75.349C358.397,75.349 358.797,75.457 359.157,75.674C359.517,75.891 359.757,76.22 359.879,76.662C360.078,76.22 360.373,75.891 360.763,75.674C361.153,75.457 361.569,75.349 362.011,75.349C363.493,75.349 364.234,76.133 364.234,77.702L364.234,82.252L363.415,82.252L363.415,77.741C363.415,77.186 363.298,76.764 363.064,76.474C362.83,76.183 362.418,76.038 361.829,76.038C361.473,76.038 361.179,76.105 360.945,76.24C360.711,76.374 360.524,76.554 360.386,76.779C360.247,77.004 360.149,77.262 360.093,77.553C360.037,77.843 360.009,78.144 360.009,78.456L360.009,82.252L359.19,82.252L359.19,77.702C359.19,77.477 359.166,77.262 359.118,77.059C359.07,76.855 358.992,76.677 358.884,76.526C358.776,76.374 358.631,76.255 358.449,76.168C358.267,76.081 358.046,76.038 357.786,76.038C357.439,76.038 357.138,76.101 356.882,76.227C356.626,76.352 356.418,76.526 356.258,76.747C356.098,76.968 355.979,77.228 355.901,77.527C355.823,77.826 355.784,78.153 355.784,78.508L355.784,82.252L354.965,82.252L354.965,75.544ZM366.275,79.119C366.275,79.414 366.316,79.719 366.398,80.036C366.48,80.352 366.613,80.636 366.795,80.887C366.977,81.138 367.206,81.346 367.484,81.511C367.761,81.676 368.095,81.758 368.485,81.758C369.083,81.758 369.551,81.602 369.889,81.29C370.227,80.978 370.461,80.562 370.591,80.042L371.41,80.042C371.236,80.805 370.918,81.394 370.454,81.81C369.99,82.226 369.334,82.434 368.485,82.434C367.956,82.434 367.499,82.341 367.113,82.155C366.727,81.968 366.413,81.713 366.171,81.388C365.928,81.063 365.748,80.686 365.631,80.257C365.514,79.828 365.456,79.375 365.456,78.898C365.456,78.456 365.514,78.023 365.631,77.598C365.748,77.173 365.928,76.794 366.171,76.461C366.413,76.127 366.727,75.858 367.113,75.655C367.499,75.451 367.956,75.349 368.485,75.349C369.022,75.349 369.481,75.457 369.863,75.674C370.244,75.891 370.554,76.175 370.792,76.526C371.03,76.877 371.202,77.28 371.306,77.735C371.41,78.19 371.453,78.651 371.436,79.119L366.275,79.119ZM370.617,78.43C370.608,78.118 370.554,77.819 370.454,77.533C370.354,77.247 370.214,76.994 370.032,76.773C369.85,76.552 369.629,76.374 369.369,76.24C369.109,76.105 368.814,76.038 368.485,76.038C368.147,76.038 367.848,76.105 367.588,76.24C367.328,76.374 367.107,76.552 366.925,76.773C366.743,76.994 366.597,77.249 366.489,77.54C366.381,77.83 366.309,78.127 366.275,78.43L370.617,78.43ZM372.788,82.252L372.788,80.874L373.88,80.874L373.88,82.252L372.788,82.252ZM373.599,81.563L373.474,81.438L373.194,81.438L373.069,81.563L373.334,81.828L373.599,81.563Z"/>
        </g>
    </g>
</svg>
