<?xml version="1.0" encoding="UTF-8" standalone="no"?>
<!DOCTYPE svg PUBLIC "-//W3C//DTD SVG 1.1//EN" "http://www.w3.org/Graphics/SVG/1.1/DTD/svg11.dtd">
<svg width="100%" height="100%" viewBox="0 0 240 240" version="1.1" xmlns="http://www.w3.org/2000/svg" xmlns:xlink="http://www.w3.org/1999/xlink" xml:space="preserve" xmlns:serif="http://www.serif.com/" style="fill-rule:evenodd;clip-rule:evenodd;stroke-linecap:square;stroke-miterlimit:5;">
    <g transform="matrix(1,0,0,1,-20,-60)">
        <g id="Digital-Transformation-Tiers" serif:id="Digital-Transformation Tiers" transform="matrix(1,0,0,1,-121.318388,-302.5)">
            <g transform="matrix(0.923077,0,0,0.923077,122.856849,307.115385)">
                <rect x="20" y="60" width="260" height="260" style="fill:rgb(231,231,231);"/>
            </g>
            <g transform="matrix(1,0,0,1,-265.978251,-57.5)">
                <path d="M612.921,590L526.318,540L526.318,440C581.547,440 626.318,484.772 626.318,540C626.318,557.554 621.698,574.798 612.921,590Z" style="fill:rgb(198,198,198);stroke:white;stroke-width:2.08px;"/>
                <g>
                    <g transform="matrix(0.952314,0.305121,-0.305121,0.952314,168.687892,-142.868045)">
                        <text x="541.414px" y="468.241px" style="font-family:'HelveticaNeue-Light', 'Helvetica Neue';font-weight:300;font-size:27.083px;fill:white;">T</text>
                    </g>
                    <g transform="matrix(0.896027,0.444,-0.444,0.896027,266.733591,-196.171274)">
                        <text x="552.225px" y="471.435px" style="font-family:'HelveticaNeue-Light', 'Helvetica Neue';font-weight:300;font-size:27.083px;fill:white;">e</text>
                    </g>
                    <g transform="matrix(0.806393,0.59138,-0.59138,0.806393,391.180263,-240.989334)">
                        <text x="563.646px" y="476.943px" style="font-family:'HelveticaNeue-Light', 'Helvetica Neue';font-weight:300;font-size:27.083px;fill:white;">c</text>
                    </g>
                    <g transform="matrix(0.692201,0.721704,-0.721704,0.692201,526.164097,-265.136064)">
                        <text x="573.918px" y="484.288px" style="font-family:'HelveticaNeue-Light', 'Helvetica Neue';font-weight:300;font-size:27.083px;fill:white;">h</text>
                    </g>
                    <g transform="matrix(0.554193,0.832388,-0.832388,0.554193,670.798411,-265.2645)">
                        <text x="583.043px" y="493.608px" style="font-family:'HelveticaNeue-Light', 'Helvetica Neue';font-weight:300;font-size:27.083px;fill:white;">n</text>
                    </g>
                    <g transform="matrix(0.395186,0.918601,-0.918601,0.395186,820.315038,-237.302501)">
                        <text x="590.367px" y="504.302px" style="font-family:'HelveticaNeue-Light', 'Helvetica Neue';font-weight:300;font-size:27.083px;fill:white;">o</text>
                    </g>
                    <g transform="matrix(0.269089,0.963115,-0.963115,0.269089,934.340265,-195.358553)">
                        <text x="595.881px" y="517.907px" style="font-family:'HelveticaNeue-Light', 'Helvetica Neue';font-weight:300;font-size:27.083px;fill:white;">l</text>
                    </g>
                    <g transform="matrix(0.138589,0.99035,-0.99035,0.138589,1031.949514,-141.792062)">
                        <text x="597.483px" y="522.312px" style="font-family:'HelveticaNeue-Light', 'Helvetica Neue';font-weight:300;font-size:27.083px;fill:white;">o</text>
                    </g>
                    <g transform="matrix(-0.039534,0.999218,-0.999218,-0.039534,1158.453522,-42.102876)">
                        <text x="599.462px" y="535.712px" style="font-family:'HelveticaNeue-Light', 'Helvetica Neue';font-weight:300;font-size:27.083px;fill:white;">g</text>
                    </g>
                    <g transform="matrix(-0.211744,0.977325,-0.977325,-0.211744,1262.580797,80.295747)">
                        <text x="598.909px" y="549.312px" style="font-family:'HelveticaNeue-Light', 'Helvetica Neue';font-weight:300;font-size:27.083px;fill:white;">y</text>
                    </g>
                </g>
                <g transform="matrix(1.05,0,0,1.05,-26.315483,-27)">
                    <path d="M439.698,589.97L526.318,540L612.921,590C595.058,620.94 562.045,640 526.318,640C490.579,640 457.557,620.927 439.698,589.97Z" style="fill:rgb(162,50,0);stroke:white;stroke-width:1.98px;"/>
                </g>
                <path d="M439.698,589.97L526.318,540L612.921,590C595.058,620.94 562.045,640 526.318,640C490.579,640 457.557,620.927 439.698,589.97Z" style="fill:rgb(128,128,128);stroke:white;stroke-width:2.08px;"/>
                <g>
                    <g transform="matrix(0.887785,0.460258,-0.460258,0.887785,335.625191,-151.466542)">
                        <text x="478.439px" y="612.564px" style="font-family:'HelveticaNeue-Light', 'Helvetica Neue';font-weight:300;font-size:27.083px;fill:white;">P</text>
                    </g>
                    <g transform="matrix(0.950614,0.310376,-0.310376,0.950614,217.054123,-122.88251)">
                        <text x="494.666px" y="620.617px" style="font-family:'HelveticaNeue-Light', 'Helvetica Neue';font-weight:300;font-size:27.083px;fill:white;">r</text>
                    </g>
                    <g transform="matrix(0.984188,0.177125,-0.177125,0.984188,118.446092,-79.335323)">
                        <text x="503.587px" y="623.759px" style="font-family:'HelveticaNeue-Light', 'Helvetica Neue';font-weight:300;font-size:27.083px;fill:white;">o</text>
                    </g>
                    <g transform="matrix(0.999999,-0.001042,0.001042,0.999999,-0.652459,0.54142)">
                        <text x="519.3px" y="626.466px" style="font-family:'HelveticaNeue-Light', 'Helvetica Neue';font-weight:300;font-size:27.083px;fill:white;">c</text>
                    </g>
                    <g transform="matrix(0.98483,-0.173525,0.173525,0.98483,-100.58852,102.213977)">
                        <text x="534.284px" y="626.389px" style="font-family:'HelveticaNeue-Light', 'Helvetica Neue';font-weight:300;font-size:27.083px;fill:white;">e</text>
                    </g>
                    <g transform="matrix(0.942286,-0.334808,0.334808,0.942286,-177.113159,219.842278)">
                        <text x="549.117px" y="623.655px" style="font-family:'HelveticaNeue-Light', 'Helvetica Neue';font-weight:300;font-size:27.083px;fill:white;">s</text>
                    </g>
                    <g transform="matrix(0.875708,-0.48284,0.48284,0.875708,-228.913473,348.448065)">
                        <text x="562.358px" y="618.858px" style="font-family:'HelveticaNeue-Light', 'Helvetica Neue';font-weight:300;font-size:27.083px;fill:white;">s</text>
                    </g>
                </g>
                <path d="M526.318,440L526.318,540L439.716,590C430.939,574.798 426.318,557.554 426.318,540C426.318,484.772 471.09,440 526.318,440Z" style="fill:rgb(198,198,198);stroke:white;stroke-width:2.08px;"/>
                <g>
                    <g transform="matrix(0.031655,-0.999499,0.999499,0.031655,-107.057554,981.808732)">
                        <text x="453.169px" y="546.155px" style="font-family:'HelveticaNeue-Light', 'Helvetica Neue';font-weight:300;font-size:27.083px;fill:white;">S</text>
                    </g>
                    <g transform="matrix(0.184714,-0.982792,0.982792,0.184714,-150.794029,878.298998)">
                        <text x="453.979px" y="530.037px" style="font-family:'HelveticaNeue-Light', 'Helvetica Neue';font-weight:300;font-size:27.083px;fill:white;">t</text>
                    </g>
                    <g transform="matrix(0.308067,-0.951365,0.951365,0.308067,-181.85367,794.641738)">
                        <text x="455.364px" y="522.34px" style="font-family:'HelveticaNeue-Light', 'Helvetica Neue';font-weight:300;font-size:27.083px;fill:white;">r</text>
                    </g>
                    <g transform="matrix(0.43888,-0.898546,0.898546,0.43888,-205.709429,699.888166)">
                        <text x="457.526px" y="514.65px" style="font-family:'HelveticaNeue-Light', 'Helvetica Neue';font-weight:300;font-size:27.083px;fill:white;">a</text>
                    </g>
                    <g transform="matrix(0.557315,-0.830301,0.830301,0.557315,-211.96204,607.425191)">
                        <text x="463.663px" y="502.491px" style="font-family:'HelveticaNeue-Light', 'Helvetica Neue';font-weight:300;font-size:27.083px;fill:white;">t</text>
                    </g>
                    <g transform="matrix(0.672867,-0.739764,0.739764,0.672867,-214.158837,508.21176)">
                        <text x="467.543px" y="496.25px" style="font-family:'HelveticaNeue-Light', 'Helvetica Neue';font-weight:300;font-size:27.083px;fill:white;">e</text>
                    </g>
                    <g transform="matrix(0.789714,-0.613475,0.613475,0.789714,-198.533134,394.35716)">
                        <text x="475.971px" y="486.773px" style="font-family:'HelveticaNeue-Light', 'Helvetica Neue';font-weight:300;font-size:27.083px;fill:white;">g</text>
                    </g>
                    <g transform="matrix(0.883908,-0.46766,0.46766,0.883908,-167.232468,283.170855)">
                        <text x="486.743px" y="478.423px" style="font-family:'HelveticaNeue-Light', 'Helvetica Neue';font-weight:300;font-size:27.083px;fill:white;">y</text>
                    </g>
                </g>
                <g transform="matrix(0.51093,0,0,0.945325,344.640703,312.028487)">
                    <path d="M341.882,209.686L341.882,220L312.523,204.132L341.882,188.265L341.882,198.579L381.026,198.579L381.026,188.265L410.384,204.132L381.026,220L381.026,209.686L341.882,209.686Z" style="fill:rgb(68,68,68);"/>
                </g>
                <g transform="matrix(0.51093,0,0,0.945325,341.640703,310.028487)">
                    <path d="M341.882,209.686L341.882,220L312.523,204.132L341.882,188.265L341.882,198.579L381.026,198.579L381.026,188.265L410.384,204.132L381.026,220L381.026,209.686L341.882,209.686Z" style="fill:white;"/>
                </g>
                <g transform="matrix(0.255465,-0.442479,0.818676,0.472663,301.870932,624.44981)">
                    <path d="M341.882,209.686L341.882,220L312.523,204.132L341.882,188.265L341.882,198.579L381.026,198.579L381.026,188.265L410.384,204.132L381.026,220L381.026,209.686L341.882,209.686Z" style="fill:rgb(68,68,68);"/>
                </g>
                <g transform="matrix(0.255465,-0.442479,0.818676,0.472663,298.870932,622.44981)">
                    <path d="M341.882,209.686L341.882,220L312.523,204.132L341.882,188.265L341.882,198.579L381.026,198.579L381.026,188.265L410.384,204.132L381.026,220L381.026,209.686L341.882,209.686Z" style="fill:white;"/>
                </g>
                <g transform="matrix(-0.255465,-0.442479,0.818676,-0.472663,422.529379,817.421324)">
                    <path d="M341.882,209.686L341.882,220L312.523,204.132L341.882,188.265L341.882,198.579L381.026,198.579L381.026,188.265L410.384,204.132L381.026,220L381.026,209.686L341.882,209.686Z" style="fill:rgb(68,68,68);"/>
                </g>
                <g transform="matrix(-0.255465,-0.442479,0.818676,-0.472663,419.529379,815.421324)">
                    <path d="M341.882,209.686L341.882,220L312.523,204.132L341.882,188.265L341.882,198.579L381.026,198.579L381.026,188.265L410.384,204.132L381.026,220L381.026,209.686L341.882,209.686Z" style="fill:white;"/>
                </g>
            </g>
        </g>
    </g>
</svg>
