<?xml version="1.0" encoding="UTF-8" standalone="no"?>
<!DOCTYPE svg PUBLIC "-//W3C//DTD SVG 1.1//EN" "http://www.w3.org/Graphics/SVG/1.1/DTD/svg11.dtd">
<svg width="100%" height="100%" viewBox="0 0 202 95" version="1.1" xmlns="http://www.w3.org/2000/svg" xmlns:xlink="http://www.w3.org/1999/xlink" xml:space="preserve" xmlns:serif="http://www.serif.com/" style="fill-rule:evenodd;clip-rule:evenodd;stroke-linecap:round;stroke-linejoin:round;stroke-miterlimit:1.5;">
    <g transform="matrix(1,0,0,1,-84.340113,-230.210287)">
        <g transform="matrix(-1.074425,0,0,1.066667,283.657544,232.076771)">
            <g id="Hand" transform="matrix(1.097209,0,0,1.097209,-8.372764,-6.802367)">
                <path d="M60.196,29.651C60.251,30.059 60.35,30.724 60.275,31.772C60.131,33.785 56.704,33.511 55.482,42.064C54.811,46.766 47.886,50.17 51.5,58C53.609,62.569 64.885,59.237 67.704,62C70.497,64.737 71.448,65.78 74,66.5C75.192,66.836 76.608,66.387 78.423,67.598C78.77,67.829 81.249,70.026 85,69.5C87.435,69.158 88.483,65.392 91.543,65.712C96.65,66.246 95.52,60.4 100.343,62.255C102.217,62.976 105.116,65.856 106.5,66C109.607,66.324 113.665,68.001 123.205,63.355C125.297,62.337 126.635,60.946 128,60.5C129.558,59.991 131,60.5 131,60.5C133.205,63.02 129.557,70 136,70C135.775,71.576 135.545,71.011 136,72.5C144.725,73.65 144.738,74.857 144.889,75.611C145.671,79.523 143.918,84.447 147,85C147.238,85.058 154.835,81.516 158,83.5C159.993,84.75 161.099,82.83 163,83C165.113,83.189 165.46,82.602 166.397,85.039C169.06,84.933 173.141,85.215 173.958,84.725C174.197,84.581 175.249,85.01 175.5,82M175.5,82C175.538,80.765 176,80.05 176,37.5C176,11.563 176.282,9.711 173.5,10C171.32,9.75 170.842,9.866 169,11C168.533,11.287 163.094,13.013 161.5,12C158.698,10.219 156.894,11.944 154.5,11.5C151.853,11.009 150.788,8.679 146.382,10.01C142.093,11.305 142.984,13.453 138.525,13.388C135.104,13.338 131.944,14.324 131.5,14.62C129.672,15.838 130.81,20.948 127.5,20.5C126.304,20.338 126.348,20.745 113.62,14.959C112.497,14.449 112.694,14.278 99.5,9C87.534,4.214 86.83,5.422 84.5,5.5C80.615,5.631 71.648,8.78 70.645,9.067C65.397,10.567 47.461,13.37 42.5,13.5C33.91,13.725 35.749,14.984 26.441,15.711C18.049,16.366 12.739,16.772 9.5,18C6.442,19.159 5.623,22.2 7,24C10.33,28.353 14.694,30.457 21.5,29.5C23.592,29.206 26.515,28.03 29.5,27.863C34.152,27.603 36.297,30.311 44,28C49.57,26.329 49.636,29.968 58.459,29.707C58.591,29.703 60.196,29.651 60.196,29.651" style="fill:none;stroke:rgb(224,224,224);stroke-width:1.4px;"/>
                <g transform="matrix(-0.362302,-0.772586,-0.767007,0.364937,526.548779,29.707012)">
                    <path d="M181.573,452.547C181.573,452.547 181.152,459.647 181.774,461.669C183.693,467.917 183.63,470.047 183.63,470.047C183.63,470.047 179.639,466.755 178.956,461.04C178.322,455.736 181.573,452.547 181.573,452.547Z" style="fill:rgb(224,224,224);"/>
                </g>
                <g transform="matrix(-0.841834,-0.105062,0.104304,-0.847957,195.459874,444.274344)">
                    <path d="M171.691,432.013C175.434,431.925 178.914,432.682 184.927,431.627C186.751,431.307 190.737,430.663 193.414,430.072C193.428,430.069 199.676,429.014 205.903,429.532C205.241,430.262 196.168,432.209 193.629,432.678C190.558,433.245 188.737,433.592 186.342,433.971C183.009,434.498 179.76,434.318 178.261,434.131C175.199,433.75 172.245,432.365 171.691,432.013Z" style="fill:rgb(224,224,224);"/>
                </g>
                <g transform="matrix(-0.819555,0.220436,0.218844,0.825516,132.410168,-366.548854)">
                    <path d="M181.573,452.547C181.573,452.547 182.216,453.589 182.325,456.27C182.412,458.385 182.479,459.4 182.739,461.5C182.954,463.238 182.537,464.352 182.537,464.352C182.537,464.352 179.801,461.548 179.685,458.01C179.56,454.193 181.573,452.547 181.573,452.547Z" style="fill:rgb(224,224,224);"/>
                </g>
                <g transform="matrix(0.848271,0,-0,0.85444,-76.46896,-339.613273)">
                    <path d="M181.573,452.547C181.573,452.547 182.437,453.657 182.547,456.338C182.634,458.453 182.643,459.497 183.088,461.507C183.466,463.217 182.8,464.69 182.8,464.69C182.8,464.69 180.116,462.376 180,458.838C179.875,455.021 181.573,452.547 181.573,452.547Z" style="fill:rgb(224,224,224);"/>
                </g>
                <g transform="matrix(-0.848271,0,0,0.85444,231.283901,-339.324665)">
                    <path d="M187,433.745C188.489,433.224 190.472,433.755 192.5,432.5C192.512,432.492 196.232,430.391 199.771,431.5C198.359,432.58 196.984,432.87 195.128,433.684C193.797,434.267 193.834,434.472 191.5,435.131C190.64,435.373 188.792,434.887 188.174,434.559C187.585,434.246 187.554,434.097 187,433.745Z" style="fill:rgb(224,224,224);"/>
                </g>
                <g transform="matrix(-0.537044,-0.661393,-0.656618,0.54095,460.433765,-77.052849)">
                    <path d="M178.479,433.608C181.456,432.876 184.212,433.144 185.071,433.012C186.901,432.73 188.974,431.64 191.652,431.049C191.666,431.046 195.934,430.072 199.771,431.5C197.898,432.148 195.589,432.161 193.629,432.678C190.609,433.475 188.513,434.252 186.179,434.911C185.32,435.153 182.153,434.535 181.468,434.394C180.695,434.234 179.033,433.961 178.479,433.608Z" style="fill:rgb(224,224,224);"/>
                </g>
                <g transform="matrix(-0.848271,0,0,0.85444,231.283901,-339.324665)">
                    <path d="M169.354,427.655C169.354,427.655 170.033,427.596 174,433.752C178.429,440.624 178.249,441.5 178.249,441.5C178.249,441.5 174.799,439.357 172.261,435C169.068,429.52 169.354,427.655 169.354,427.655Z" style="fill:rgb(224,224,224);"/>
                </g>
                <g transform="matrix(-0.848271,0,0,0.85444,223.861355,-320.232012)">
                    <path d="M172.504,429.864C172.504,429.864 174.169,432.139 174.043,435.956C173.927,439.494 171.226,442.007 171.226,442.007C171.226,442.007 170.809,440.893 171.024,439.155C171.284,437.055 171.343,435.767 171.484,433.655C171.649,431.196 172.504,429.864 172.504,429.864Z" style="fill:rgb(224,224,224);"/>
                </g>
                <g transform="matrix(0.819555,-0.220436,0.218844,0.825516,-152.627779,-270.120444)">
                    <path d="M172.504,429.864C172.504,429.864 174.169,432.139 174.043,435.956C173.927,439.494 171.226,442.007 171.226,442.007C171.226,442.007 170.809,440.893 171.024,439.155C171.284,437.055 171.343,435.767 171.484,433.655C171.649,431.196 172.504,429.864 172.504,429.864Z" style="fill:rgb(224,224,224);"/>
                </g>
                <g transform="matrix(1.087212,0,0,1.087212,-4.557604,-5.119909)">
                    <path d="M57.134,49.696C59.089,49.526 59.934,49.672 60.13,49.696C65.683,50.381 63.635,55.872 61.205,57.649C58.44,59.671 54.066,59.568 53.282,58.383C50.122,53.605 52.295,51.611 53.71,50.654C54.539,50.093 55.407,49.846 57.134,49.696ZM55.281,56.783C55.257,56.782 55.305,56.784 55.281,56.783C55.305,56.784 55.257,56.781 55.281,56.783C61.413,57.42 62.359,55.082 62.071,51.537C59.829,53.936 60.757,54.688 57.99,55.807C57.321,56.077 55.338,56.443 55.281,56.783Z" style="fill:rgb(224,224,224);"/>
                </g>
                <path d="M8.23,21.241C8.263,19.766 10.648,18.896 13.5,18.5C15.511,18.221 17.993,18.109 20.622,17.944C18.171,21.526 15.737,21.905 8.23,21.241Z" style="fill:rgb(224,224,224);"/>
                <path d="M21.643,17.877C24.09,17.71 26.626,17.475 29,17C34.884,15.823 36.637,15.249 39.5,15C41.332,14.841 44.557,15.027 48,14.535C50.506,14.177 63.023,13.234 79.448,8C87.642,5.389 94.211,8.384 101.5,11.5C106.078,13.457 108.019,14.205 112,16C120.387,19.781 127.288,22.604 130.681,22.447C131.41,22.414 132.353,24.706 132.229,24.768C132.179,24.793 132.273,24.809 132.925,24.846C133.613,24.884 134.112,24.742 134.112,24.742C135.094,22.746 133.402,15.128 133.414,14.939C133.442,14.482 135.741,14.472 135.741,14.472C135.741,14.472 136.299,15.183 136.5,15.5C137.733,17.446 140.89,15.261 145,17C148.951,18.671 148.998,51.49 149,57.5C149.003,67.403 148.054,67.012 146.908,70.495C143.201,70.676 143.327,72.563 140.381,70.034C138.025,70.097 136.206,69.092 136.206,69.092C136.206,69.092 136.185,67.255 136.252,65.386C136.316,63.598 137.342,53.647 136.871,42.331C136.562,34.931 135.698,31.037 136,30.5L132.5,30.5C130.901,33.675 132.716,39.392 128.5,41.5C126.888,42.306 127.313,42.846 106.884,42.5C105.054,42.469 105.323,41.596 103.5,41.5C99.035,41.265 99.058,44.383 97.646,45.503C95.105,47.516 73.965,45.604 71.5,46.5C68.035,47.76 65.443,49.384 63.842,48.551C60.596,46.864 57.653,48.435 53.371,48.318C53.962,47.509 54.113,47.408 54.552,46.895C60.153,40.361 64.086,41.135 71.5,41C86.245,40.732 87.674,38.675 94,34C102.658,27.601 104.758,25.07 104,25.679C99.581,24.9 97.265,26.189 93.7,28.172C92.482,28.85 91.154,29.121 90.5,27.5C90.14,26.607 90.702,23.01 89,22.5C84.514,21.157 84.95,28.899 82.5,24C82.231,23.463 82.729,21.035 81,20.5C80.213,20.256 78.394,20.009 76.834,21.209C74.4,23.081 70.22,22.473 70,22.5C64.034,23.246 61.983,21.542 58.652,20.59C55.233,19.613 55.29,23.113 47.589,21.828C45.859,21.54 45.918,21.291 45.423,21.287C41.856,21.258 41.607,22.603 40.626,22.911C39.858,23.152 31.645,23.092 31.11,22.757C28.182,20.924 22.161,25.532 15.676,24.976C14.214,24.85 13.178,24.989 11.023,24.191C9.598,23.663 8.361,22.134 8.23,21.708C16.469,22.357 18.498,22.008 21.643,17.877ZM143.37,57.417C140.216,56.203 137.256,65.189 140.275,66.933C146.188,70.351 148.176,59.268 143.37,57.417Z" style="fill:rgb(224,224,224);"/>
            </g>
        </g>
    </g>
</svg>
