<?xml version="1.0" encoding="UTF-8" standalone="no"?>
<!DOCTYPE svg PUBLIC "-//W3C//DTD SVG 1.1//EN" "http://www.w3.org/Graphics/SVG/1.1/DTD/svg11.dtd">
<svg width="100%" height="100%" viewBox="0 0 282 142" version="1.1" xmlns="http://www.w3.org/2000/svg" xmlns:xlink="http://www.w3.org/1999/xlink" xml:space="preserve" xmlns:serif="http://www.serif.com/" style="fill-rule:evenodd;clip-rule:evenodd;stroke-linecap:round;stroke-linejoin:round;stroke-miterlimit:1.5;">
    <g id="Logo-dark" serif:id="Logo dark">
        <g id="Manicule">
            <path d="M177.428,52.734C177.364,53.213 177.248,53.99 177.336,55.217C177.505,57.572 181.545,57.253 182.986,67.262C183.777,72.765 191.94,76.749 187.68,85.913C185.194,91.261 171.9,87.361 168.577,90.594C165.285,93.798 164.164,95.018 161.156,95.861C159.75,96.255 158.081,95.729 155.941,97.146C155.532,97.416 152.609,99.988 148.188,99.372C145.317,98.972 144.081,94.564 140.474,94.939C134.455,95.564 135.786,88.722 130.101,90.893C127.891,91.737 124.474,95.107 122.842,95.276C119.18,95.655 114.396,97.617 103.149,92.18C100.684,90.988 99.106,89.361 97.497,88.839C95.66,88.243 93.96,88.839 93.96,88.839C91.361,91.788 95.661,99.957 88.066,99.957C88.331,101.802 88.602,101.14 88.066,102.883C77.78,104.229 77.765,105.641 77.587,106.524C76.665,111.103 78.732,116.865 75.098,117.513C74.817,117.58 65.861,113.435 62.13,115.757C59.781,117.22 58.477,114.973 56.236,115.172C53.746,115.393 53.336,114.707 52.231,117.558C49.092,117.435 44.281,117.764 43.318,117.19C43.036,117.022 41.796,117.525 41.5,114.002M41.5,114.002C41.456,112.556 40.911,111.72 40.911,61.921C40.911,31.565 40.578,29.397 43.858,29.736C46.428,29.444 46.991,29.579 49.163,30.906C49.714,31.243 56.126,33.262 58.004,32.077C61.307,29.993 63.435,32.011 66.257,31.491C69.377,30.917 70.633,28.189 75.827,29.747C80.883,31.263 79.832,33.777 85.089,33.701C89.122,33.643 92.847,34.796 93.371,35.143C95.525,36.569 94.184,42.549 98.086,42.025C99.496,41.835 99.444,42.311 114.449,35.54C115.773,34.943 115.54,34.742 131.094,28.565C145.201,22.964 146.031,24.378 148.777,24.469C153.357,24.622 163.928,28.309 165.11,28.644C171.298,30.399 192.441,33.68 198.29,33.832C208.417,34.096 206.248,35.569 217.221,36.419C227.115,37.186 233.375,37.662 237.193,39.099C240.797,40.455 241.763,44.015 240.14,46.121C236.214,51.215 231.069,53.678 223.046,52.558C220.58,52.213 217.134,50.837 213.615,50.642C208.131,50.337 205.602,53.507 196.522,50.802C189.955,48.847 189.877,53.106 179.476,52.8C179.32,52.796 177.428,52.734 177.428,52.734" style="fill:none;stroke:rgb(224,224,224);stroke-width:1.65px;"/>
            <path d="M114.404,81.907C114.404,81.907 120.644,85.32 122.738,85.622C129.207,86.555 131.106,87.522 131.106,87.522C131.106,87.522 126.425,89.725 120.966,87.901C115.899,86.209 114.404,81.907 114.404,81.907Z" style="fill:rgb(224,224,224);"/>
            <path d="M135.238,88.146C138.964,87.773 142.324,86.594 148.421,86.901C150.27,86.995 154.305,87.144 157.035,87.401C157.049,87.403 163.38,87.681 169.495,86.401C168.748,85.759 159.505,84.942 156.928,84.789C153.81,84.603 151.961,84.483 149.537,84.401C146.164,84.288 142.962,84.866 141.498,85.236C138.506,85.991 135.744,87.729 135.238,88.146Z" style="fill:rgb(224,224,224);"/>
            <path d="M150.972,73.11C150.972,73.11 151.324,74.283 150.738,76.901C150.276,78.968 150.079,79.965 149.788,82.061C149.548,83.796 148.857,84.764 148.857,84.764C148.857,84.764 146.938,81.35 147.738,77.901C148.602,74.181 150.972,73.11 150.972,73.11Z" style="fill:rgb(224,224,224);"/>
            <path d="M156.965,73.11C156.965,73.11 156.102,74.221 155.992,76.901C155.905,79.017 155.895,80.061 155.451,82.071C155.073,83.78 155.738,85.253 155.738,85.253C155.738,85.253 158.423,82.939 158.539,79.401C158.664,75.584 156.965,73.11 156.965,73.11Z" style="fill:rgb(224,224,224);"/>
            <path d="M162.738,54.646C164.227,54.126 166.211,54.656 168.238,53.401C168.251,53.394 171.97,51.293 175.51,52.401C174.098,53.481 172.723,53.771 170.867,54.585C169.536,55.169 169.573,55.374 167.238,56.032C166.379,56.275 164.53,55.789 163.912,55.46C163.324,55.147 163.292,54.998 162.738,54.646Z" style="fill:rgb(224,224,224);"/>
            <path d="M154.238,64.217C155.556,61.45 157.508,59.486 157.95,58.737C158.89,57.143 159.359,54.848 160.597,52.401C160.603,52.389 162.552,48.468 166.086,46.401C165.402,48.262 163.95,50.057 163.11,51.901C161.814,54.744 161.089,56.858 160.121,59.082C159.765,59.901 157.281,61.96 156.738,62.401C156.126,62.899 154.861,64.012 154.238,64.217Z" style="fill:rgb(224,224,224);"/>
            <path d="M145.092,48.556C145.092,48.556 145.771,48.497 149.738,54.653C154.167,61.526 153.987,62.401 153.987,62.401C153.987,62.401 150.537,60.259 147.999,55.901C144.807,50.421 145.092,48.556 145.092,48.556Z" style="fill:rgb(224,224,224);"/>
            <path d="M156.993,73.11C156.993,73.11 158.657,75.386 158.532,79.203C158.416,82.741 155.715,85.253 155.715,85.253C155.715,85.253 155.298,84.139 155.513,82.401C155.772,80.301 155.831,79.014 155.973,76.901C156.137,74.443 156.993,73.11 156.993,73.11Z" style="fill:rgb(224,224,224);"/>
            <path d="M150.755,72.703C150.755,72.703 148.56,74.472 147.697,78.192C146.896,81.64 148.857,84.764 148.857,84.764C148.857,84.764 149.548,83.796 149.788,82.061C150.079,79.965 150.355,78.706 150.763,76.629C151.238,74.211 150.755,72.703 150.755,72.703Z" style="fill:rgb(224,224,224);"/>
            <path d="M180.537,75.274C178.032,75.059 176.949,75.244 176.697,75.274C169.58,76.146 172.204,83.134 175.319,85.395C178.863,87.967 184.47,87.836 185.474,86.328C189.525,80.249 186.74,77.712 184.926,76.493C183.863,75.78 182.751,75.465 180.537,75.274ZM182.912,84.292C182.942,84.291 182.882,84.293 182.912,84.292C182.882,84.293 182.942,84.289 182.912,84.292C175.053,85.103 173.841,82.128 174.209,77.618C177.084,80.67 175.893,81.627 179.44,83.05C180.298,83.394 182.839,83.859 182.912,84.292Z" style="fill:rgb(224,224,224);"/>
            <path d="M238.689,42.892C238.651,41.166 235.84,40.148 232.477,39.684C230.107,39.357 227.181,39.226 224.081,39.033C226.97,43.225 229.841,43.668 238.689,42.892Z" style="fill:rgb(224,224,224);"/>
            <path d="M222.878,38.955C219.993,38.76 217.004,38.484 214.205,37.928C207.268,36.551 205.202,35.878 201.826,35.588C199.667,35.401 195.865,35.619 191.806,35.043C188.852,34.624 174.096,33.521 154.733,27.395C145.073,24.339 137.329,27.844 128.737,31.491C123.34,33.782 121.052,34.657 116.358,36.758C106.472,41.183 98.336,44.486 94.336,44.303C93.477,44.264 92.365,46.947 92.511,47.02C92.571,47.049 92.459,47.068 91.691,47.11C90.88,47.155 90.292,46.99 90.292,46.99C89.134,44.654 91.128,35.738 91.114,35.516C91.081,34.981 88.371,34.97 88.371,34.97C88.371,34.97 87.713,35.802 87.476,36.173C86.022,38.451 82.301,35.893 77.456,37.928C72.798,39.885 72.743,78.295 72.74,85.328C72.736,96.918 73.855,96.46 75.206,100.536C79.576,100.749 79.428,102.957 82.901,99.998C85.679,100.071 87.823,98.894 87.823,98.894C87.823,98.894 87.847,96.745 87.769,94.557C87.693,92.464 86.483,80.819 87.039,67.574C87.403,58.914 88.422,54.357 88.066,53.728L92.192,53.728C94.077,57.444 91.937,64.135 96.907,66.602C98.807,67.545 98.307,68.178 122.39,67.772C124.547,67.736 124.23,66.714 126.379,66.602C131.643,66.327 131.615,69.976 133.281,71.287C136.275,73.643 161.196,71.405 164.103,72.454C168.188,73.929 171.243,75.829 173.131,74.854C176.957,72.88 180.427,74.719 185.474,74.581C184.778,73.634 184.6,73.516 184.082,72.916C177.48,65.269 172.843,66.175 164.103,66.017C146.72,65.703 145.035,63.296 137.578,57.824C127.371,50.335 124.896,47.373 125.789,48.086C130.999,47.174 133.729,48.683 137.932,51.004C139.367,51.797 140.934,52.115 141.704,50.217C142.128,49.172 141.466,44.962 143.472,44.365C148.761,42.793 148.247,51.854 151.135,46.121C151.452,45.492 150.865,42.651 152.903,42.025C153.832,41.739 155.975,41.45 157.815,42.855C160.683,45.045 165.612,44.333 165.871,44.365C172.904,45.238 175.322,43.244 179.248,42.13C183.279,40.987 183.212,45.082 192.291,43.579C194.33,43.241 194.26,42.95 194.845,42.945C199.049,42.912 199.342,44.486 200.499,44.847C201.404,45.129 211.087,45.058 211.718,44.666C215.169,42.521 222.267,47.913 229.911,47.263C231.635,47.116 232.857,47.278 235.398,46.344C237.077,45.726 238.535,43.937 238.689,43.438C228.976,44.198 226.585,43.789 222.878,38.955ZM79.378,85.231C83.095,83.81 86.585,94.326 83.026,96.368C76.055,100.368 73.712,87.397 79.378,85.231Z" style="fill:rgb(224,224,224);"/>
        </g>
        <path id="Frame" d="M280.901,30.901L280.901,0.901L250.901,0.901L250.901,3.901L277.901,3.901L277.901,30.901L280.901,30.901ZM3.901,30.901L3.901,3.901L30.901,3.901L30.901,0.901L0.901,0.901L0.901,30.901L3.901,30.901ZM0.901,110.901L0.901,140.901L30.901,140.901L30.901,137.901L3.901,137.901L3.901,110.901L0.901,110.901ZM277.901,110.901L277.901,137.901L250.901,137.901L250.901,140.901L280.901,140.901L280.901,110.901L277.901,110.901Z" style="fill:rgb(224,224,224);stroke:black;stroke-width:1px;stroke-linecap:square;stroke-linejoin:miter;"/>
    </g>
</svg>
