<?xml version="1.0" encoding="UTF-8" standalone="no"?>
<!DOCTYPE svg PUBLIC "-//W3C//DTD SVG 1.1//EN" "http://www.w3.org/Graphics/SVG/1.1/DTD/svg11.dtd">
<svg width="100%" height="100%" viewBox="0 0 24 24" version="1.1" xmlns="http://www.w3.org/2000/svg" xmlns:xlink="http://www.w3.org/1999/xlink" xml:space="preserve" xmlns:serif="http://www.serif.com/" style="fill-rule:evenodd;clip-rule:evenodd;stroke-linejoin:round;stroke-miterlimit:2;">
    <g transform="matrix(0.025,0,0,0.025,0,24)">
        <path d="M96.727,-560L40,-560L40,-800C40,-822 47.833,-840.833 63.5,-856.5C79.167,-872.167 98,-880 120,-880L400,-880L400,-824.653L96.727,-824.653L96.727,-560ZM560,-824.653L560,-880L840,-880C862,-880 880.833,-872.167 896.5,-856.5C912.167,-840.833 920,-822 920,-800L920,-560L863.273,-560L863.273,-824.653L560,-824.653ZM863.273,-400L920,-400L920,-160C920,-138 912.167,-119.167 896.5,-103.5C880.833,-87.833 862,-80 840,-80L560,-80L560,-135.347L863.273,-135.347L863.273,-400ZM400,-135.347L400,-80L120,-80C98,-80 79.167,-87.833 63.5,-103.5C47.833,-119.167 40,-138 40,-160L40,-400L96.727,-400L96.727,-135.347L400,-135.347Z" style="fill:rgb(31,31,31);"/>
    </g>
    <g transform="matrix(0.020014,0,0,0.020014,2.393301,22.006978)">
        <path d="M80,-200L80,-560L240,-720L280,-720L280,-800L360,-800L360,-720L720,-720L880,-560L880,-200L80,-200ZM640,-280L800,-280L800,-527L720,-607L640,-527L640,-280ZM160,-280L560,-280L560,-480L160,-480L160,-280Z" style="fill:rgb(31,31,31);fill-rule:nonzero;"/>
    </g>
</svg>
