<?xml version="1.0" encoding="UTF-8" standalone="no"?>
<!DOCTYPE svg PUBLIC "-//W3C//DTD SVG 1.1//EN" "http://www.w3.org/Graphics/SVG/1.1/DTD/svg11.dtd">
<svg width="100%" height="100%" viewBox="0 0 24 24" version="1.1" xmlns="http://www.w3.org/2000/svg" xmlns:xlink="http://www.w3.org/1999/xlink" xml:space="preserve" xmlns:serif="http://www.serif.com/" style="fill-rule:evenodd;clip-rule:evenodd;stroke-linejoin:round;stroke-miterlimit:2;">
    <g transform="matrix(0.025,0,0,0.025,0,24)">
        <path d="M0,-160L0,-240L160,-240L160,-280C138,-280 119.167,-287.833 103.5,-303.5C87.833,-319.167 80,-338 80,-360L80,-760C80,-782 87.833,-800.833 103.5,-816.5C119.167,-832.167 138,-840 160,-840L800,-840C822,-840 840.833,-832.167 856.5,-816.5C872.167,-800.833 880,-782 880,-760L880,-360C880,-338 872.167,-319.167 856.5,-303.5C840.833,-287.833 822,-280 800,-280L800,-240L960,-240L960,-160L0,-160ZM160,-360L800,-360L800,-760L160,-760L160,-360ZM160,-360L160,-760L160,-360Z" style="fill:rgb(31,31,31);fill-rule:nonzero;"/>
    </g>
    <g transform="matrix(0.013945,0,0,0.01212,5.306263,15.799631)">
        <path d="M800,-561.015L800,-120L520,-120L520,-360L440,-360L440,-120L160,-120L160,-600L480,-840L480,-740L240,-560L240,-200L360,-200L360,-440L600,-440L600,-200L720,-200L720,-560L718.647,-561.015L800,-561.015Z" style="fill:rgb(31,31,31);"/>
    </g>
</svg>
