<?xml version="1.0" encoding="UTF-8" standalone="no"?>
<!DOCTYPE svg PUBLIC "-//W3C//DTD SVG 1.1//EN" "http://www.w3.org/Graphics/SVG/1.1/DTD/svg11.dtd">
<svg width="100%" height="100%" viewBox="0 0 24 24" version="1.1" xmlns="http://www.w3.org/2000/svg" xmlns:xlink="http://www.w3.org/1999/xlink" xml:space="preserve" xmlns:serif="http://www.serif.com/" style="fill-rule:evenodd;clip-rule:evenodd;stroke-linejoin:round;stroke-miterlimit:2;">
    <g transform="matrix(0.025,0,0,0.025,0,24)">
        <path d="M560,-80L560,-203L781,-423C787,-429 793.667,-433.333 801,-436C808.333,-438.667 815.667,-440 823,-440C831,-440 838.667,-438.5 846,-435.5C853.333,-432.5 860,-428 866,-422L903,-385C908.333,-379 912.5,-372.333 915.5,-365C918.5,-357.667 920,-350.333 920,-343C920,-335.667 918.667,-328.167 916,-320.5C913.333,-312.833 909,-306 903,-300L683,-80L560,-80ZM742,-299L620,-178L620,-140L658,-140L779,-262L742,-299ZM517.56,-160L160,-160L160,-272C160,-294.667 165.833,-315.5 177.5,-334.5C189.167,-353.5 204.667,-368 224,-378C265.333,-398.667 307.333,-414.167 350,-424.5C392.667,-434.833 436,-440 480,-440C524,-440 567.333,-434.833 610,-424.5C642.53,-416.622 674.672,-405.74 706.426,-391.855L644.616,-330.045C626.824,-336.609 608.952,-342.094 591,-346.5C554.333,-355.5 517.333,-360 480,-360C442.667,-360 405.667,-355.5 369,-346.5C332.333,-337.5 296,-324 260,-306C254,-302.667 249.167,-298 245.5,-292C241.833,-286 240,-279.333 240,-272L240,-240L554.571,-240L517.79,-203.219L517.56,-160ZM367,-527C335.667,-558.333 320,-596 320,-640C320,-684 335.667,-721.667 367,-753C398.333,-784.333 436,-800 480,-800C524,-800 561.667,-784.333 593,-753C624.333,-721.667 640,-684 640,-640C640,-596 624.333,-558.333 593,-527C561.667,-495.667 524,-480 480,-480C436,-480 398.333,-495.667 367,-527ZM536.5,-583.5C552.167,-599.167 560,-618 560,-640C560,-662 552.167,-680.833 536.5,-696.5C520.833,-712.167 502,-720 480,-720C458,-720 439.167,-712.167 423.5,-696.5C407.833,-680.833 400,-662 400,-640C400,-618 407.833,-599.167 423.5,-583.5C439.167,-567.833 458,-560 480,-560C502,-560 520.833,-567.833 536.5,-583.5Z" style="fill:rgb(31,31,31);"/>
    </g>
</svg>
