<?xml version="1.0" encoding="UTF-8" standalone="no"?>
<!DOCTYPE svg PUBLIC "-//W3C//DTD SVG 1.1//EN" "http://www.w3.org/Graphics/SVG/1.1/DTD/svg11.dtd">
<svg width="100%" height="100%" viewBox="0 0 24 24" version="1.1" xmlns="http://www.w3.org/2000/svg" xmlns:xlink="http://www.w3.org/1999/xlink" xml:space="preserve" xmlns:serif="http://www.serif.com/" style="fill-rule:evenodd;clip-rule:evenodd;stroke-linejoin:round;stroke-miterlimit:2;">
    <g transform="matrix(0.025,0,0,0.025,0,24)">
        <path d="M560,-80L560,-203L781,-423C787,-429 793.667,-433.333 801,-436C808.333,-438.667 815.667,-440 823,-440C831,-440 838.667,-438.5 846,-435.5C853.333,-432.5 860,-428 866,-422L903,-385C908.333,-379 912.5,-372.333 915.5,-365C918.5,-357.667 920,-350.333 920,-343C920,-335.667 918.667,-328.167 916,-320.5C913.333,-312.833 909,-306 903,-300L683,-80L560,-80ZM620,-140L658,-140L779,-262L761,-281L742,-299L620,-178L620,-140ZM240,-80C218,-80 199.167,-87.833 183.5,-103.5C167.833,-119.167 160,-138 160,-160L160,-800C160,-822 167.833,-840.833 183.5,-856.5C199.167,-872.167 218,-880 240,-880L560,-880L800,-640L800,-520L720,-520L719.581,-641.349L559.437,-641.055L559.887,-799.958L240,-800L240,-160L480,-160L480,-80L240,-80ZM761,-281L742,-299L779,-262L761,-281Z" style="fill:rgb(31,31,31);fill-rule:nonzero;"/>
    </g>
    <g transform="matrix(0.014844,0,0,0.014961,4.547568,19.8339)">
        <path d="M577.539,-120L160,-120L160,-600L480,-840L800,-600L800,-340.722L720,-261.347L720,-560L480,-740L240,-560L240,-200L658.169,-200L577.539,-120Z" style="fill:rgb(31,31,31);"/>
    </g>
</svg>
