<svg xmlns="http://www.w3.org/2000/svg" xml:space="preserve" style="fill-rule:evenodd;clip-rule:evenodd;stroke-linejoin:round;stroke-miterlimit:2" viewBox="0 0 24 24"><path d="M560-80v-123l221-220c6-6 12.667-10.333 20-13s14.667-4 22-4c8 0 15.667 1.5 23 4.5s14 7.5 20 13.5l37 37c5.333 6 9.5 12.667 12.5 20s4.5 14.667 4.5 22-1.333 14.833-4 22.5-7 14.5-13 20.5L683-80H560Zm182-219L620-178v38h38l121-122-37-37ZM517.56-160H160v-112c0-22.667 5.833-43.5 17.5-62.5S204.667-368 224-378c41.333-20.667 83.333-36.167 126-46.5 42.667-10.333 86-15.5 130-15.5s87.333 5.167 130 15.5c32.53 7.878 64.672 18.76 96.426 32.645l-61.81 61.81c-17.792-6.564-35.664-12.049-53.616-16.455-36.667-9-73.667-13.5-111-13.5s-74.333 4.5-111 13.5S296-324 260-306c-6 3.333-10.833 8-14.5 14s-5.5 12.667-5.5 20v32h314.571l-36.781 36.781-.23 43.219ZM367-527c-31.333-31.333-47-69-47-113s15.667-81.667 47-113 69-47 113-47 81.667 15.667 113 47 47 69 47 113-15.667 81.667-47 113-69 47-113 47-81.667-15.667-113-47Zm169.5-56.5C552.167-599.167 560-618 560-640s-7.833-40.833-23.5-56.5C520.833-712.167 502-720 480-720s-40.833 7.833-56.5 23.5C407.833-680.833 400-662 400-640s7.833 40.833 23.5 56.5C439.167-567.833 458-560 480-560s40.833-7.833 56.5-23.5Z" style="fill:#1f1f1f" transform="matrix(.025 0 0 .025 0 24)"/></svg>