<?xml version="1.0" encoding="UTF-8" standalone="no"?>
<!DOCTYPE svg PUBLIC "-//W3C//DTD SVG 1.1//EN" "http://www.w3.org/Graphics/SVG/1.1/DTD/svg11.dtd">
<svg width="100%" height="100%" viewBox="0 0 24 24" version="1.1" xmlns="http://www.w3.org/2000/svg" xmlns:xlink="http://www.w3.org/1999/xlink" xml:space="preserve" xmlns:serif="http://www.serif.com/" style="fill-rule:evenodd;clip-rule:evenodd;stroke-linejoin:round;stroke-miterlimit:2;">
    <g transform="matrix(0.025,0,0,0.025,0,24)">
        <path d="M80,-80L80,-800C80,-822 87.833,-840.833 103.5,-856.5C119.167,-872.167 138,-880 160,-880L800,-880C822,-880 840.833,-872.167 856.5,-856.5C872.167,-840.833 880,-822 880,-800L880,-320C880,-298 872.167,-279.167 856.5,-263.5C840.833,-247.833 822,-240 800,-240L240,-240L80,-80ZM206,-320L800,-320L800,-800L160,-800L160,-275L206,-320ZM160,-320L160,-800L160,-320Z" style="fill:rgb(31,31,31);fill-rule:nonzero;"/>
    </g>
    <g transform="matrix(0.013767,0,0,0.013767,5.391679,17.107697)">
        <path d="M160,-120L160,-495L88,-440L40,-504L160,-596L160,-720L240,-720L240,-657L480,-840L920,-504L872,-441L800,-495L800,-120L160,-120ZM240,-200L440,-200L440,-360L520,-360L520,-200L720,-200L720,-556L480,-739L240,-556L240,-200ZM160,-760C160,-793.333 171.667,-821.667 195,-845C218.333,-868.333 246.667,-880 280,-880C291.333,-880 300.833,-883.833 308.5,-891.5C316.167,-899.167 320,-908.667 320,-920L400,-920C400,-886.667 388.333,-858.333 365,-835C341.667,-811.667 313.333,-800 280,-800C268.667,-800 259.167,-796.167 251.5,-788.5C243.833,-780.833 240,-771.333 240,-760L160,-760ZM240,-200L720,-200L240,-200Z" style="fill:rgb(31,31,31);fill-rule:nonzero;"/>
    </g>
</svg>
