<?xml version="1.0" encoding="UTF-8" standalone="no"?>
<!DOCTYPE svg PUBLIC "-//W3C//DTD SVG 1.1//EN" "http://www.w3.org/Graphics/SVG/1.1/DTD/svg11.dtd">
<svg width="100%" height="100%" viewBox="0 0 24 24" version="1.1" xmlns="http://www.w3.org/2000/svg" xmlns:xlink="http://www.w3.org/1999/xlink" xml:space="preserve" xmlns:serif="http://www.serif.com/" style="fill-rule:evenodd;clip-rule:evenodd;stroke-linejoin:round;stroke-miterlimit:2;">
    <g transform="matrix(0.022239,0,0,0.022778,1.103059,21.549796)">
        <path d="M720,-720C698,-720 679.167,-727.833 663.5,-743.5C647.833,-759.167 640,-778 640,-800C640,-822 647.833,-840.833 663.5,-856.5C679.167,-872.167 698,-880 720,-880C742,-880 760.833,-872.167 776.5,-856.5C792.167,-840.833 800,-822 800,-800C800,-778 792.167,-759.167 776.5,-743.5C760.833,-727.833 742,-720 720,-720ZM680,-80L680,-400C680,-426.667 673.167,-450.667 659.5,-472C645.833,-493.333 628.333,-510 607,-522L642,-625C647.333,-641.667 657.167,-655 671.5,-665C685.833,-675 702,-680 720,-680C738,-680 754.167,-675 768.5,-665C782.833,-655 792.667,-641.667 798,-625L900,-320L800,-320L800,-80L680,-80ZM457.5,-517.5C445.833,-529.167 440,-543.333 440,-560C440,-576.667 445.833,-590.833 457.5,-602.5C469.167,-614.167 483.333,-620 500,-620C516.667,-620 530.833,-614.167 542.5,-602.5C554.167,-590.833 560,-576.667 560,-560C560,-543.333 554.167,-529.167 542.5,-517.5C530.833,-505.833 516.667,-500 500,-500C483.333,-500 469.167,-505.833 457.5,-517.5ZM220,-720C198,-720 179.167,-727.833 163.5,-743.5C147.833,-759.167 140,-778 140,-800C140,-822 147.833,-840.833 163.5,-856.5C179.167,-872.167 198,-880 220,-880C242,-880 260.833,-872.167 276.5,-856.5C292.167,-840.833 300,-822 300,-800C300,-778 292.167,-759.167 276.5,-743.5C260.833,-727.833 242,-720 220,-720ZM140,-80L140,-360L80,-360L80,-600C80,-622 87.833,-640.833 103.5,-656.5C119.167,-672.167 138,-680 160,-680L280,-680C302,-680 320.833,-672.167 336.5,-656.5C352.167,-640.833 360,-622 360,-600L360,-360L300,-360L300,-80L140,-80ZM440,-80L440,-240L400,-240L400,-400C400,-416.667 405.833,-430.833 417.5,-442.5C429.167,-454.167 443.333,-460 460,-460L540,-460C556.667,-460 570.833,-454.167 582.5,-442.5C594.167,-430.833 600,-416.667 600,-400L600,-240L560,-240L560,-80L440,-80Z" style="fill:rgb(31,31,31);fill-rule:nonzero;"/>
    </g>
</svg>
