<?xml version="1.0" encoding="UTF-8" standalone="no"?>
<!DOCTYPE svg PUBLIC "-//W3C//DTD SVG 1.1//EN" "http://www.w3.org/Graphics/SVG/1.1/DTD/svg11.dtd">
<svg width="100%" height="100%" viewBox="0 0 24 24" version="1.1" xmlns="http://www.w3.org/2000/svg" xmlns:xlink="http://www.w3.org/1999/xlink" xml:space="preserve" xmlns:serif="http://www.serif.com/" style="fill-rule:evenodd;clip-rule:evenodd;stroke-linejoin:round;stroke-miterlimit:2;">
    <g transform="matrix(0.028484,0,0,0.027187,-1.672092,25.049792)">
        <path d="M80,-80L80,-800C80,-822 87.833,-840.833 103.5,-856.5C119.167,-872.167 138,-880 160,-880L800,-880C822,-880 840.833,-872.167 856.5,-856.5C872.167,-840.833 880,-822 880,-800L880,-320C880,-298 872.167,-279.167 856.5,-263.5C840.833,-247.833 822,-240 800,-240L240,-240L80,-80ZM206,-320L800,-320L800,-800L160,-800L160,-275L206,-320ZM160,-320L160,-800L160,-320Z" style="fill:rgb(31,31,31);fill-rule:nonzero;"/>
    </g>
    <g transform="matrix(0.776744,0,0,0.776744,3.139489,0.78698)">
        <g transform="matrix(0.01202,0,0,0.011828,10.797978,21.911064)">
            <path d="M331.5,-411.5C323.833,-419.167 320,-428.667 320,-440C320,-451.333 323.833,-460.833 331.5,-468.5C339.167,-476.167 348.667,-480 360,-480C371.333,-480 380.833,-476.167 388.5,-468.5C396.167,-460.833 400,-451.333 400,-440C400,-428.667 396.167,-419.167 388.5,-411.5C380.833,-403.833 371.333,-400 360,-400C348.667,-400 339.167,-403.833 331.5,-411.5ZM571.5,-411.5C563.833,-419.167 560,-428.667 560,-440C560,-451.333 563.833,-460.833 571.5,-468.5C579.167,-476.167 588.667,-480 600,-480C611.333,-480 620.833,-476.167 628.5,-468.5C636.167,-460.833 640,-451.333 640,-440C640,-428.667 636.167,-419.167 628.5,-411.5C620.833,-403.833 611.333,-400 600,-400C588.667,-400 579.167,-403.833 571.5,-411.5ZM200,-516L200,-252C200,-242.667 203,-235 209,-229C215,-223 222.667,-220 232,-220L248,-220C257.333,-220 265,-223 271,-229C277,-235 280,-242.667 280,-252L280,-300L680,-300L680,-252C680,-242.667 683,-235 689,-229C695,-223 702.667,-220 712,-220L728,-220C737.333,-220 745,-223 751,-229C757,-235 760,-242.667 760,-252L760,-516L694,-708C690.667,-717.333 685.167,-725 677.5,-731C669.833,-737 661.333,-740 652,-740L308,-740C298.667,-740 290.167,-737 282.5,-731C274.833,-725 269.333,-717.333 266,-708L200,-516ZM306,-580L334,-660L626,-660L654,-580L306,-580ZM280,-380L280,-500L680,-500L680,-380L280,-380Z" style="fill:rgb(31,31,31);fill-rule:nonzero;"/>
        </g>
        <g transform="matrix(0.01202,0,0,0.011828,1.30555,21.911064)">
            <path d="M331.5,-411.5C323.833,-419.167 320,-428.667 320,-440C320,-451.333 323.833,-460.833 331.5,-468.5C339.167,-476.167 348.667,-480 360,-480C371.333,-480 380.833,-476.167 388.5,-468.5C396.167,-460.833 400,-451.333 400,-440C400,-428.667 396.167,-419.167 388.5,-411.5C380.833,-403.833 371.333,-400 360,-400C348.667,-400 339.167,-403.833 331.5,-411.5ZM571.5,-411.5C563.833,-419.167 560,-428.667 560,-440C560,-451.333 563.833,-460.833 571.5,-468.5C579.167,-476.167 588.667,-480 600,-480C611.333,-480 620.833,-476.167 628.5,-468.5C636.167,-460.833 640,-451.333 640,-440C640,-428.667 636.167,-419.167 628.5,-411.5C620.833,-403.833 611.333,-400 600,-400C588.667,-400 579.167,-403.833 571.5,-411.5ZM200,-516L200,-252C200,-242.667 203,-235 209,-229C215,-223 222.667,-220 232,-220L248,-220C257.333,-220 265,-223 271,-229C277,-235 280,-242.667 280,-252L280,-300L680,-300L680,-252C680,-242.667 683,-235 689,-229C695,-223 702.667,-220 712,-220L728,-220C737.333,-220 745,-223 751,-229C757,-235 760,-242.667 760,-252L760,-516L694,-708C690.667,-717.333 685.167,-725 677.5,-731C669.833,-737 661.333,-740 652,-740L308,-740C298.667,-740 290.167,-737 282.5,-731C274.833,-725 269.333,-717.333 266,-708L200,-516ZM306,-580L334,-660L626,-660L654,-580L306,-580ZM280,-380L280,-500L680,-500L680,-380L280,-380Z" style="fill:rgb(31,31,31);fill-rule:nonzero;"/>
        </g>
        <g transform="matrix(0.007688,0,0,0.007688,12.877231,10.96022)">
            <path d="M424,-282C432.667,-274.667 441.833,-269.5 451.5,-266.5C461.167,-263.5 470.667,-262 480,-262C499.333,-262 516.833,-268.167 532.5,-280.5C548.167,-292.833 557.333,-310.667 560,-334C563.333,-365.333 553.667,-388.5 531,-403.5C508.333,-418.5 491.333,-438 480,-462C476.667,-452.667 475,-444 475,-436C475,-428 476,-419.333 478,-410C480,-398.667 482.333,-388 485,-378C487.667,-368 488,-357.333 486,-346C482.667,-334 475.333,-321.667 464,-309C452.667,-296.333 439.333,-287.333 424,-282ZM80,-80L80,-880L880,-880L880,-80L80,-80ZM480,-240C513.333,-240 541.667,-251.667 565,-275C588.333,-298.333 600,-326.667 600,-360C600,-376 596.667,-389.333 590,-400C583.333,-410.667 574,-420.667 562,-430C536.667,-448 515.5,-466.833 498.5,-486.5C481.5,-506.167 468,-526 458,-546C428.667,-522.667 405,-496.167 387,-466.5C369,-436.833 360,-402 360,-362C360,-338.667 372,-312.5 396,-283.5C420,-254.5 448,-240 480,-240ZM160,-160L240,-160L240,-240L330,-240C314.667,-259.333 302.5,-279.667 293.5,-301C284.5,-322.333 280,-342.667 280,-362C280,-392.667 283.333,-421.5 290,-448.5C296.667,-475.5 308.833,-501.667 326.5,-527C344.167,-552.333 368.667,-577.5 400,-602.5C431.333,-627.5 471.333,-653.333 520,-680C512.667,-650.667 515.833,-619.5 529.5,-586.5C543.167,-553.5 568.667,-523.333 606,-496C628,-480 645.833,-461.167 659.5,-439.5C673.167,-417.833 680,-391.333 680,-360C680,-336.667 676.333,-315.167 669,-295.5C661.667,-275.833 652,-257.333 640,-240L720,-240L720,-160L800,-160L800,-800L160,-800L160,-160Z" style="fill:rgb(31,31,31);fill-rule:nonzero;"/>
        </g>
        <g transform="matrix(0.014979,0,0,0.015377,-0.114634,14.650676)">
            <path d="M200,-280L260,-280L260,-340L700,-340L700,-280L760,-280L760,-434C760,-448 757.333,-461.167 752,-473.5C746.667,-485.833 739.333,-496.667 730,-506L730,-600C730,-622 722.167,-640.833 706.5,-656.5C690.833,-672.167 672,-680 650,-680L520,-680C512.667,-680 505.667,-679 499,-677C492.333,-675 486,-672 480,-668C474,-672 467.667,-675 461,-677C454.333,-679 447.333,-680 440,-680L310,-680C288,-680 269.167,-672.167 253.5,-656.5C237.833,-640.833 230,-622 230,-600L230,-506C220.667,-496.667 213.333,-485.833 208,-473.5C202.667,-461.167 200,-448 200,-434L200,-280ZM260,-400L260,-440C260,-451.333 263.833,-460.833 271.5,-468.5C279.167,-476.167 288.667,-480 300,-480L660,-480C671.333,-480 680.833,-476.167 688.5,-468.5C696.167,-460.833 700,-451.333 700,-440L700,-400L260,-400ZM290,-540L290,-620L450,-620L450,-540L290,-540ZM510,-540L510,-620L670,-620L670,-540L510,-540Z" style="fill:rgb(31,31,31);fill-rule:nonzero;"/>
        </g>
    </g>
</svg>
