<?xml version="1.0" encoding="UTF-8" standalone="no"?>
<!DOCTYPE svg PUBLIC "-//W3C//DTD SVG 1.1//EN" "http://www.w3.org/Graphics/SVG/1.1/DTD/svg11.dtd">
<svg width="100%" height="100%" viewBox="0 0 891 487" version="1.1" xmlns="http://www.w3.org/2000/svg" xmlns:xlink="http://www.w3.org/1999/xlink" xml:space="preserve" xmlns:serif="http://www.serif.com/" style="fill-rule:evenodd;clip-rule:evenodd;stroke-linecap:round;stroke-linejoin:round;stroke-miterlimit:1.5;">
    <g>
        <g id="Cosmos">
            <g transform="matrix(0.9,0,0,1,-157.377169,0)">
                <g transform="matrix(27.083333,0,0,27.083333,1058.116436,44.366667)">
                </g>
                <text x="970.312px" y="44.367px" style="font-family:'HelveticaNeue-Medium', 'Helvetica Neue', sans-serif;font-weight:500;font-size:27.083px;">Agents</text>
            </g>
            <g transform="matrix(0.9,0,0,1,-157.655897,0)">
                <g transform="matrix(27.083333,0,0,27.083333,1078.819884,237.111613)">
                </g>
                <text x="948.305px" y="237.112px" style="font-family:'HelveticaNeue-Medium', 'Helvetica Neue', sans-serif;font-weight:500;font-size:27.083px;">Pr<tspan x="975.416px 991.476px " y="237.112px 237.112px ">oc</tspan>esses</text>
            </g>
            <g transform="matrix(1,0,0,1,-1828.521336,382.974042)">
                <g transform="matrix(0.9,0,0,1,250.52424,0)">
                    <text x="2505.242px" y="40.822px" style="font-family:'HelveticaNeue-Medium', 'Helvetica Neue', sans-serif;font-weight:500;font-size:27.083px;">Subject Ar<tspan x="2635.188px 2650.247px " y="40.822px 40.822px ">ea</tspan>s</text>
                </g>
                <g transform="matrix(0.9,0,0,1,250.502302,0)">
                    <g transform="matrix(27.083333,0,0,27.083333,2679.629272,72.072205)">
                    </g>
                    <text x="2505.023px" y="72.072px" style="font-family:'HelveticaNeue-Medium', 'Helvetica Neue', sans-serif;font-weight:500;font-size:27.083px;">(W<tspan x="2537.631px 2553.692px " y="72.072px 72.072px ">or</tspan>ld Model)</text>
                </g>
            </g>
            <rect x="660.148" y="4.306" width="190" height="475.362" style="fill:none;stroke:rgb(138,1,1);stroke-width:2.08px;stroke-dasharray:20.833,20.833,0,0,0,0;"/>
            <g>
                <path d="M755.148,55L755.148,210" style="fill:none;stroke:rgb(193,193,193);stroke-width:6.25px;"/>
                <clipPath id="_clip1">
                    <rect x="725.148" y="102.5" width="60" height="60"/>
                </clipPath>
                <g clip-path="url(#_clip1)">
                    <path d="M768.27,114.647L768.27,150.36C768.27,157.064 762.827,162.507 756.123,162.507L754.301,162.507C747.597,162.507 742.154,157.064 742.154,150.36L742.154,114.647C742.154,107.943 747.597,102.5 754.301,102.5L756.123,102.5C762.827,102.5 768.27,107.943 768.27,114.647Z" style="fill:white;"/>
                    <path d="M745.262,132.625C744.971,131.966 744.747,131.279 744.594,130.574C744.43,129.82 744.347,129.049 744.346,128.277L744.346,116.186C744.346,113.197 745.568,110.48 747.537,108.511C751.791,104.258 758.633,104.258 762.887,108.511C764.856,110.48 766.078,113.197 766.078,116.186L766.078,128.277C766.079,129.775 765.767,131.256 765.162,132.627C765.443,133.265 765.661,133.929 765.813,134.61C765.989,135.388 766.077,136.183 766.078,136.98L766.078,149.071C766.078,155.02 761.161,159.937 755.212,159.937C749.263,159.937 744.346,155.02 744.346,149.071L744.346,136.98C744.346,135.434 744.674,133.96 745.262,132.625ZM760.216,137.91L760.216,148.764C760.216,150.199 759.63,151.503 758.685,152.448C756.644,154.489 753.359,154.489 751.318,152.448C750.373,151.503 749.787,150.199 749.787,148.764L749.787,136.92C749.787,135.8 750.134,134.729 750.794,133.824C752.135,131.984 753.495,131.856 754.866,131.728C755.596,131.659 756.33,131.591 756.982,131.158C757.508,130.809 757.944,130.321 758.249,129.76C758.496,129.306 758.654,128.805 758.701,128.294C752.566,125.8 745.848,130.437 745.848,136.98L745.848,149.071C745.848,154.194 750.089,158.435 755.212,158.435C760.335,158.435 764.576,154.194 764.576,149.071L764.576,136.98C764.576,136.274 764.499,135.592 764.353,134.942C764.309,134.746 764.258,134.552 764.202,134.359C763.186,135.853 761.817,137.073 760.216,137.91ZM758.715,126.699L758.715,116.126C758.715,115.106 758.297,114.178 757.623,113.504C757.62,113.501 757.617,113.498 757.614,113.495C756.181,112.062 753.822,112.062 752.389,113.495C752.386,113.498 752.383,113.501 752.38,113.504C751.707,114.178 751.289,115.106 751.289,116.126L751.289,126.851C753.672,125.921 756.301,125.874 758.715,126.699ZM749.787,127.575L749.787,116.126C749.787,114.691 750.373,113.387 751.318,112.442C753.359,110.401 756.645,110.401 758.685,112.442C759.63,113.387 760.217,114.691 760.217,116.126L760.217,126.832C760.217,128.204 760.287,129.147 759.564,130.478C759.148,131.245 758.545,131.916 757.812,132.402C756.835,133.05 755.919,133.136 755.007,133.221C753.972,133.318 752.944,133.415 752.001,134.708C751.548,135.33 751.303,136.083 751.289,136.851C752.356,137.37 753.654,137.619 754.967,137.626C756.395,137.635 757.825,137.361 758.988,136.844C760.656,136.102 762.072,134.885 763.064,133.365C764.019,131.9 764.576,130.151 764.576,128.277L764.576,116.186C764.576,113.612 763.522,111.271 761.824,109.574C758.157,105.906 752.267,105.906 748.6,109.574C746.902,111.271 745.848,113.612 745.848,116.186L745.848,128.277C745.847,128.942 745.918,129.605 746.058,130.255C746.105,130.47 746.16,130.684 746.222,130.895C747.143,129.54 748.369,128.397 749.787,127.575ZM751.289,138.482L751.289,148.764C751.289,149.784 751.707,150.712 752.38,151.385C752.383,151.388 752.386,151.391 752.389,151.394C753.822,152.828 756.181,152.828 757.614,151.394C757.617,151.391 757.62,151.388 757.623,151.385C758.296,150.712 758.714,149.784 758.715,148.764L758.715,138.549C757.552,138.933 756.248,139.132 754.955,139.124C753.684,139.117 752.415,138.91 751.289,138.482Z" style="fill-rule:nonzero;"/>
                </g>
            </g>
            <g>
                <path d="M755.148,247.5L755.148,390" style="fill:none;stroke:rgb(193,193,193);stroke-width:6.25px;"/>
                <clipPath id="_clip2">
                    <rect x="725.148" y="290" width="60" height="60"/>
                </clipPath>
                <g clip-path="url(#_clip2)">
                    <path d="M768.27,302.147L768.27,337.86C768.27,344.564 762.827,350.007 756.123,350.007L754.301,350.007C747.597,350.007 742.154,344.564 742.154,337.86L742.154,302.147C742.154,295.443 747.597,290 754.301,290L756.123,290C762.827,290 768.27,295.443 768.27,302.147Z" style="fill:white;"/>
                    <path d="M745.262,320.125C744.971,319.466 744.747,318.779 744.594,318.074C744.43,317.32 744.347,316.549 744.346,315.777L744.346,303.686C744.346,300.697 745.568,297.98 747.537,296.011C751.791,291.758 758.633,291.758 762.887,296.011C764.856,297.98 766.078,300.697 766.078,303.686L766.078,315.777C766.079,317.275 765.767,318.756 765.162,320.127C765.443,320.765 765.661,321.429 765.813,322.11C765.989,322.888 766.077,323.683 766.078,324.48L766.078,336.571C766.078,342.52 761.161,347.437 755.212,347.437C749.263,347.437 744.346,342.52 744.346,336.571L744.346,324.48C744.346,322.934 744.674,321.46 745.262,320.125ZM760.216,325.41L760.216,336.264C760.216,337.699 759.63,339.003 758.685,339.948C756.644,341.989 753.359,341.989 751.318,339.948C750.373,339.003 749.787,337.699 749.787,336.264L749.787,324.42C749.787,323.3 750.134,322.229 750.794,321.324C752.135,319.484 753.495,319.356 754.866,319.228C755.596,319.159 756.33,319.091 756.982,318.658C757.508,318.309 757.944,317.821 758.249,317.26C758.496,316.806 758.654,316.305 758.701,315.794C752.566,313.3 745.848,317.937 745.848,324.48L745.848,336.571C745.848,341.694 750.089,345.935 755.212,345.935C760.335,345.935 764.576,341.694 764.576,336.571L764.576,324.48C764.576,323.774 764.499,323.092 764.353,322.442C764.309,322.246 764.258,322.052 764.202,321.859C763.186,323.353 761.817,324.573 760.216,325.41ZM758.715,314.199L758.715,303.626C758.715,302.606 758.297,301.678 757.623,301.004C757.62,301.001 757.617,300.998 757.614,300.995C756.181,299.562 753.822,299.562 752.389,300.995C752.386,300.998 752.383,301.001 752.38,301.004C751.707,301.678 751.289,302.606 751.289,303.626L751.289,314.351C753.672,313.421 756.301,313.374 758.715,314.199ZM749.787,315.075L749.787,303.626C749.787,302.191 750.373,300.887 751.318,299.942C753.359,297.901 756.645,297.901 758.685,299.942C759.63,300.887 760.217,302.191 760.217,303.626L760.217,314.332C760.217,315.704 760.287,316.647 759.564,317.978C759.148,318.745 758.545,319.416 757.812,319.902C756.835,320.55 755.919,320.636 755.007,320.721C753.972,320.818 752.944,320.915 752.001,322.208C751.548,322.83 751.303,323.583 751.289,324.351C752.356,324.87 753.654,325.119 754.967,325.126C756.395,325.135 757.825,324.861 758.988,324.344C760.656,323.602 762.072,322.385 763.064,320.865C764.019,319.4 764.576,317.651 764.576,315.777L764.576,303.686C764.576,301.112 763.522,298.771 761.824,297.074C758.157,293.406 752.267,293.406 748.6,297.074C746.902,298.771 745.848,301.112 745.848,303.686L745.848,315.777C745.847,316.442 745.918,317.105 746.058,317.755C746.105,317.97 746.16,318.184 746.222,318.395C747.143,317.04 748.369,315.897 749.787,315.075ZM751.289,325.982L751.289,336.264C751.289,337.284 751.707,338.212 752.38,338.885C752.383,338.888 752.386,338.891 752.389,338.894C753.822,340.328 756.181,340.328 757.614,338.894C757.617,338.891 757.62,338.888 757.623,338.885C758.296,338.212 758.714,337.284 758.715,336.264L758.715,326.049C757.552,326.433 756.248,326.632 754.955,326.624C753.684,326.617 752.415,326.41 751.289,325.982Z" style="fill-rule:nonzero;"/>
                </g>
            </g>
            <g transform="matrix(0,-1,1,0,435.395026,1008.200306)">
                <g transform="matrix(37.5,0,0,37.5,839.189075,454.184971)">
                </g>
                <text x="720.409px" y="454.185px" style="font-family:'TimesNewRomanPS-ItalicMT', 'Times New Roman', serif;font-style:italic;font-size:37.5px;fill:rgb(138,1,1);stroke:rgb(138,1,1);stroke-width:1px;stroke-linecap:butt;stroke-miterlimit:2;">Cosmos</text>
            </g>
        </g>
        <g id="World">
            <g>
                <path d="M576.588,404.352L422.532,486.396L210.148,429.617L394.463,360.757L576.588,404.352Z" style="fill:rgb(238,238,238);"/>
                <path d="M576.588,404.352L422.532,486.396L210.148,429.617L394.463,360.757L576.588,404.352ZM570.755,405.098L394.596,362.931L216.982,429.287L422.277,484.172L570.755,405.098Z"/>
                <path d="M356.476,412.339L327.825,419.381L303.281,414.627L307.388,402.831L336.04,395.788L360.584,400.542L356.476,412.339Z" style="fill:rgb(50,50,50);"/>
                <path d="M481.535,404.574L452.883,411.616L428.339,406.862L432.447,395.066L461.098,388.024L485.642,392.778L481.535,404.574Z" style="fill:rgb(50,50,50);"/>
                <path d="M367.614,447.443L338.963,454.486L314.419,449.732L318.527,437.935L347.178,430.893L371.722,435.647L367.614,447.443Z" style="fill:rgb(50,50,50);"/>
                <path d="M467.944,440.705L439.293,447.747L414.749,442.993L418.856,431.197L447.508,424.155L472.052,428.909L467.944,440.705Z" style="fill:rgb(50,50,50);"/>
                <path d="M456.991,399.82L385.929,418.043L331.932,407.585" style="fill:none;stroke:rgb(50,50,50);stroke-width:1.56px;stroke-linecap:butt;"/>
                <path d="M387.196,417.315L344.319,441.971" style="fill:none;stroke:rgb(50,50,50);stroke-width:1.56px;stroke-linecap:butt;"/>
                <path d="M456.991,399.82L443.4,435.951" style="fill:none;stroke:rgb(50,50,50);stroke-width:1.56px;stroke-linecap:butt;"/>
                <path d="M393.494,413.693C398.913,414.742 399.922,417.544 395.746,419.945C391.571,422.346 383.782,423.443 378.363,422.394C372.945,421.344 371.936,418.543 376.111,416.142C380.287,413.741 388.076,412.643 393.494,413.693Z" style="fill:white;"/>
                <path d="M393.494,413.693C398.913,414.742 399.922,417.544 395.746,419.945C391.571,422.346 383.782,423.443 378.363,422.394C372.945,421.344 371.936,418.543 376.111,416.142C380.287,413.741 388.076,412.643 393.494,413.693ZM393.197,415.227C388.115,414.242 380.806,415.244 376.89,417.496C376.238,417.871 375.739,418.247 375.406,418.633C375.211,418.859 375.035,419.039 375.11,419.245C375.211,419.526 375.515,419.73 375.908,419.952C376.582,420.333 377.506,420.636 378.661,420.86C383.742,421.844 391.051,420.842 394.967,418.59C395.619,418.215 396.119,417.84 396.452,417.453C396.646,417.228 396.822,417.048 396.748,416.841C396.647,416.56 396.343,416.357 395.95,416.135C395.275,415.753 394.351,415.45 393.197,415.227Z" style="fill:rgb(50,50,50);"/>
            </g>
        </g>
        <g id="Process">
            <g>
                <g id="Connectors">
                    <g id="Activity-Connectors" serif:id="Activity Connectors">
                        <path d="M285.554,306.115L318.215,397.115" style="fill:none;stroke:rgb(100,93,93);stroke-width:1.04px;"/>
                        <path d="M359.996,284.057L332.215,392.571" style="fill:none;stroke:rgb(100,93,93);stroke-width:1.04px;"/>
                        <path d="M360.17,284.057L385.577,409.115" style="fill:none;stroke:rgb(100,93,93);stroke-width:1.04px;"/>
                        <path d="M429.502,329.115L392.215,409.115" style="fill:none;stroke:rgb(100,93,93);stroke-width:1.04px;"/>
                        <path d="M429.502,329.115L419.203,425.378" style="fill:none;stroke:rgb(100,93,93);stroke-width:1.04px;"/>
                        <path d="M492.215,284.28L462.215,385.38" style="fill:none;stroke:rgb(100,93,93);stroke-width:1.04px;"/>
                    </g>
                    <path d="M210.492,75L330.689,127.115" style="fill:none;stroke:rgb(193,193,193);stroke-width:1.04px;"/>
                    <path d="M340.492,75L383.129,117.691" style="fill:none;stroke:rgb(193,193,193);stroke-width:1.04px;"/>
                    <path d="M460.31,75L425.038,120.691" style="fill:none;stroke:rgb(193,193,193);stroke-width:1.04px;"/>
                    <path d="M555.492,75L461.248,129.115" style="fill:none;stroke:rgb(193,193,193);stroke-width:1.04px;"/>
                    <path d="M325.492,199.115L285.492,259.115" style="fill:none;stroke:rgb(193,193,193);stroke-width:1.04px;"/>
                    <path d="M460.492,209.115L490.492,239.115" style="fill:none;stroke:rgb(193,193,193);stroke-width:1.04px;"/>
                    <path d="M410.492,221.545L427.492,281.654" style="fill:none;stroke:rgb(193,193,193);stroke-width:1.04px;"/>
                    <path d="M365.492,207.115L360.492,237.115" style="fill:none;stroke:rgb(193,193,193);stroke-width:1.04px;"/>
                    <path d="M200.148,199.115L270.148,407.201" style="fill:none;stroke:rgb(100,93,93);stroke-width:1.04px;"/>
                    <path d="M578.539,229.115L500.148,386.055" style="fill:none;stroke:rgb(100,93,93);stroke-width:1.04px;"/>
                    <path d="M572.215,153.034L491.717,384.036" style="fill:none;stroke:rgb(100,93,93);stroke-width:1.04px;"/>
                </g>
                <path d="M495.686,159.131L544.29,141.772L539.985,138L564.26,139.949L546.712,156.835L547.654,151.189L498.609,168.706C498.291,165.42 497.295,162.217 495.686,159.131Z" style="fill:rgb(151,151,151);"/>
                <path d="M495.492,183.236C497.144,180.168 498.19,176.984 498.564,173.715L547.654,191.247L546.712,185.601L564.26,202.487L539.985,204.436L544.29,200.664L495.492,183.236Z" style="fill:rgb(151,151,151);"/>
                <path d="M495.492,183.236C497.144,180.168 498.19,176.984 498.564,173.715L547.654,191.247L546.712,185.601L564.26,202.487L539.985,204.436L544.29,200.664L495.492,183.236Z" style="fill:rgb(151,151,151);"/>
            </g>
            <path d="M230.492,174.115L230.492,164.115L269.755,164.115L266.781,159.115L290.492,169.115L266.781,179.115L269.755,174.115L230.492,174.115Z" style="fill:rgb(151,151,151);"/>
            <path d="M380.492,219.115C430.093,219.115 474.104,205.288 489.677,184.813C504.337,165.538 488.921,144.348 451.433,132.245C416.434,120.946 368.717,120.676 333.054,131.576C299.928,141.7 285.465,159.918 297.174,176.771C307.986,192.334 340.529,203.129 377.907,203.551C412.186,203.939 443.174,194.727 454.783,180.699C465.342,167.939 455.895,153.673 431.346,145.309C409.238,137.775 378.512,137.254 355.12,144.015C334.311,150.03 324.716,161.168 331.317,171.646C337.099,180.824 355.764,187.356 377.622,187.851C396.383,188.276 413.657,183.423 420.474,175.812C426.167,169.457 421.846,162.231 409.756,157.886C400.056,154.4 386.307,154.01 375.649,156.92C367.617,159.113 363.723,163.298 365.99,167.302C367.516,169.997 372.844,171.963 379.208,172.18C382.482,172.291 385.55,171.477 386.82,170.161C386.824,170.157 386.828,170.153 386.831,170.148" style="fill:none;stroke:rgb(151,151,151);stroke-width:1.98px;"/>
            <path d="M284.268,263.889L289.881,281.164L308.045,281.164L293.35,291.84L298.963,309.115L284.268,298.438L269.574,309.115L275.186,291.84L260.492,281.164L278.655,281.164L284.268,263.889Z" style="fill:white;stroke:black;stroke-width:2.08px;"/>
            <path d="M359.751,241.277L365.364,258.551L383.527,258.551L368.832,269.227L374.445,286.502L359.751,275.826L345.056,286.502L350.669,269.227L335.974,258.551L354.138,258.551L359.751,241.277Z" style="fill:white;stroke:black;stroke-width:2.08px;"/>
            <path d="M429.233,286.502L434.846,303.777L453.009,303.777L438.315,314.453L443.928,331.727L429.233,321.051L414.538,331.727L420.151,314.453L405.457,303.777L423.62,303.777L429.233,286.502Z" style="fill:white;stroke:black;stroke-width:2.08px;"/>
            <path d="M491.715,241.277L497.328,258.551L515.492,258.551L500.797,269.227L506.41,286.502L491.715,275.826L477.021,286.502L482.634,269.227L467.939,258.551L486.103,258.551L491.715,241.277Z" style="fill:white;stroke:black;stroke-width:2.08px;"/>
            <circle cx="595.492" cy="134.115" r="30" style="fill:white;"/>
            <clipPath id="_clip3">
                <circle cx="595.492" cy="134.115" r="30"/>
            </clipPath>
            <g clip-path="url(#_clip3)">
                <g>
                    <path d="M590.85,112.057C591.224,111.39 592.067,111.153 592.735,111.528C593.402,111.903 593.639,112.745 593.264,113.413L592.232,115.253L619.695,130.669C620.195,130.949 620.373,131.584 620.093,132.083L609.209,151.472C608.929,151.971 608.295,152.15 607.795,151.869L580.331,136.453L574.6,146.664C574.225,147.332 573.382,147.569 572.715,147.194C572.047,146.819 571.81,145.976 572.185,145.309L590.85,112.057ZM607.021,140.655L611.491,143.164L614.353,138.064L609.883,135.555L607.021,140.655ZM602.751,146.656L605.951,140.956L600.982,138.166L597.782,143.867L602.751,146.656ZM609.583,134.486L612.618,129.079L607.649,126.289L604.614,131.697L609.583,134.486ZM591.443,140.309L594.643,134.608L589.671,131.817L586.471,137.518L591.443,140.309ZM595.713,134.308L600.682,137.097L603.544,131.997L598.575,129.208L595.713,134.308ZM598.275,128.138L601.31,122.731L596.338,119.94L593.303,125.347L598.275,128.138ZM589.373,130.749L592.236,125.65L587.827,123.175L584.964,128.275L589.373,130.749Z" style="fill-rule:nonzero;"/>
                </g>
            </g>
            <circle cx="595.492" cy="134.115" r="30" style="fill:none;stroke:black;stroke-width:1.04px;"/>
            <circle cx="595.492" cy="204.367" r="30" style="fill:white;"/>
            <clipPath id="_clip4">
                <circle cx="595.492" cy="204.367" r="30"/>
            </clipPath>
            <g clip-path="url(#_clip4)">
                <g>
                    <path d="M590.85,182.31C591.224,181.642 592.067,181.405 592.735,181.78C593.402,182.155 593.639,182.998 593.264,183.665L592.232,185.505L619.695,200.921C620.195,201.202 620.373,201.836 620.093,202.335L609.209,221.724C608.929,222.223 608.295,222.402 607.795,222.121L580.331,206.705L574.6,216.917C574.225,217.584 573.382,217.821 572.715,217.446C572.047,217.072 571.81,216.229 572.185,215.561L590.85,182.31ZM607.021,210.907L611.491,213.416L614.353,208.317L609.883,205.808L607.021,210.907ZM602.751,216.908L605.951,211.208L600.982,208.419L597.782,214.119L602.751,216.908ZM609.583,204.738L612.618,199.331L607.649,196.541L604.614,201.949L609.583,204.738ZM591.443,210.561L594.643,204.86L589.671,202.069L586.471,207.77L591.443,210.561ZM595.713,204.56L600.682,207.349L603.544,202.249L598.575,199.46L595.713,204.56ZM598.275,198.39L601.31,192.983L596.338,190.192L593.303,195.6L598.275,198.39ZM589.373,201.001L592.236,195.902L587.827,193.427L584.964,198.527L589.373,201.001Z" style="fill-rule:nonzero;"/>
                </g>
            </g>
            <circle cx="595.492" cy="204.367" r="30" style="fill:none;stroke:black;stroke-width:1.04px;"/>
            <circle cx="195.492" cy="169.115" r="30" style="fill:white;"/>
            <clipPath id="_clip5">
                <circle cx="195.492" cy="169.115" r="30"/>
            </clipPath>
            <g clip-path="url(#_clip5)">
                <clipPath id="_clip6">
                    <rect x="174.461" y="149.115" width="40.03" height="40"/>
                </clipPath>
                <g clip-path="url(#_clip6)">
                    <path d="M174.94,182.562C174.852,180.569 176.286,178.09 178.625,177.184L181.923,177.149L182.015,177.242C180.855,178.786 180.378,180.279 180.114,181.225C179.707,182.679 180.688,183.868 182.209,183.531C183.274,183.294 184.897,182.711 186.406,181.629C186.413,181.636 186.42,181.642 186.427,181.647L186.393,184.923C185.535,187.07 183.324,188.667 181.07,188.741C181.378,187.605 182.656,185.055 180.868,186.229C179.614,187.051 177.338,188.338 175.652,187.979C175.035,184.76 179.168,181.331 176.661,181.936C176.1,182.072 175.523,182.297 174.94,182.562Z" style="fill:rgb(216,24,43);"/>
                    <path d="M214.312,149.215C214.64,149.475 214.484,150.437 214.134,151.581C213.628,153.23 212.767,155.417 212.515,155.959C211.706,157.692 210.575,159.557 209.239,161.455L202.15,154.366C204.052,153.038 205.92,151.911 207.65,151.097C208.167,150.854 210.29,150.033 211.933,149.524C213.059,149.176 214.024,148.986 214.312,149.215ZM208.224,162.852C206.692,164.895 204.96,166.947 203.17,168.88C200.193,172.095 197.052,174.991 194.415,176.993L194.324,181.521C194.322,181.631 194.274,181.732 194.2,181.807L187.018,188.99C186.859,189.149 186.609,189.157 186.46,189.008C186.38,188.928 186.345,188.82 186.354,188.712L186.427,181.647C186.415,181.638 186.403,181.628 186.392,181.617L181.923,177.149L174.864,177.222C174.756,177.231 174.648,177.196 174.568,177.116C174.419,176.967 174.427,176.717 174.586,176.558L181.768,169.375C181.844,169.302 181.945,169.254 182.055,169.252L186.664,169.16C188.53,166.605 191.264,163.611 194.33,160.752C196.373,158.847 198.565,157 200.749,155.377L208.224,162.852Z"/>
                </g>
            </g>
            <circle cx="195.492" cy="169.115" r="30" style="fill:none;stroke:black;stroke-width:1.04px;"/>
        </g>
        <g id="Agents">
            <path d="M553.344,8.335C554.38,8.335 555.318,8.755 555.997,9.434C556.676,10.113 557.096,11.051 557.096,12.087C557.096,13.123 556.676,14.061 555.997,14.74C555.597,15.139 555.113,15.444 554.579,15.63L554.579,19.573L554.579,19.595L564.893,19.595C568.685,19.595 571.787,22.697 571.787,26.49L571.787,40.193C571.787,43.985 568.685,47.088 564.893,47.088L557.089,47.088L557.089,50.352L557.743,50.352C558.377,50.352 558.953,50.611 559.369,51.028C559.402,51.06 559.432,51.094 559.46,51.129C559.82,51.534 560.041,52.064 560.045,52.641L562.386,52.641C565.754,55.803 565.681,63.635 565.634,68.742L565.63,69.115L541.087,69.115L541.078,68.346C541.066,67.31 541.053,66.181 541.07,65.013C541.085,64.965 541.093,64.915 541.093,64.862C541.093,64.815 541.087,64.77 541.075,64.726C541.157,60.215 541.708,55.199 544.452,52.776C544.496,52.738 544.532,52.692 544.559,52.641L546.6,52.641C546.603,52.018 546.861,51.449 547.275,51.032L547.283,51.025C547.701,50.61 548.274,50.352 548.902,50.352L549.403,50.352L549.403,47.088L541.752,47.088C537.96,47.088 534.857,43.985 534.857,40.193L534.857,26.49C534.857,22.697 537.96,19.595 541.752,19.595L552.108,19.595L552.108,19.573L552.108,15.63C551.575,15.444 551.09,15.139 550.691,14.74C550.012,14.061 549.592,13.123 549.592,12.087C549.592,11.051 550.012,10.113 550.691,9.434C551.37,8.755 552.308,8.335 553.344,8.335ZM548.091,57.986L558.665,57.986C559.523,57.986 560.225,58.688 560.225,59.545L560.225,62.459C560.225,63.316 559.523,64.018 558.665,64.018L548.091,64.018C547.234,64.018 546.532,63.317 546.532,62.459L546.532,59.545C546.532,58.687 547.234,57.986 548.091,57.986ZM549.299,60.199C549.739,60.199 550.102,60.562 550.102,61.002C550.102,61.443 549.739,61.805 549.299,61.805C548.863,61.798 548.509,61.438 548.509,61.002C548.509,60.567 548.863,60.206 549.299,60.199ZM557.458,60.199C557.898,60.199 558.261,60.562 558.261,61.002C558.261,61.443 557.898,61.805 557.458,61.805C557.022,61.798 556.668,61.438 556.668,61.002C556.668,60.567 557.022,60.206 557.458,60.199ZM534.409,64.368L534.409,61.978C534.409,57.031 538.304,52.954 543.18,52.659C540.752,55.403 540.198,60.091 540.097,64.368L534.409,64.368ZM540.101,69.115L535.645,69.115C534.963,69.115 534.409,68.561 534.409,67.879L534.409,65.356L540.081,65.356C540.071,66.405 540.083,67.416 540.093,68.354C540.096,68.605 540.099,68.85 540.101,69.115ZM563.744,52.67C568.542,53.047 572.347,57.087 572.347,61.978L572.347,64.368L566.601,64.368C566.481,60.12 565.93,55.43 563.744,52.67ZM572.347,65.356L572.347,67.879C572.347,68.561 571.794,69.115 571.112,69.115L566.615,69.115L566.618,68.75C566.628,67.709 566.639,66.559 566.621,65.356L572.347,65.356ZM548.091,56.75L558.665,56.75C559.431,56.75 560.129,57.065 560.638,57.573L560.64,57.57C561.146,58.076 561.46,58.775 561.46,59.545L561.46,62.459C561.46,63.223 561.146,63.921 560.64,64.429L560.632,64.437C560.124,64.941 559.428,65.254 558.665,65.254L548.091,65.254C547.321,65.254 546.622,64.94 546.116,64.434C546.087,64.404 546.059,64.373 546.033,64.341C545.576,63.842 545.296,63.18 545.296,62.459L545.296,59.545C545.296,58.779 545.61,58.081 546.116,57.575L546.119,57.573L546.116,57.57C546.622,57.064 547.321,56.75 548.091,56.75ZM548.902,51.588L557.743,51.588C558.325,51.588 558.802,52.061 558.809,52.641L547.836,52.641C547.843,52.061 548.32,51.588 548.902,51.588ZM533.869,27.002L533.992,27.002L533.992,39.619L533.869,39.619C531.733,39.619 530.108,37.871 530.108,35.735L530.108,30.886C530.108,28.75 531.733,27.002 533.869,27.002ZM572.622,27.002L572.5,27.002L572.5,39.619L572.622,39.619C574.759,39.619 576.384,37.871 576.384,35.735L576.384,30.886C576.384,28.75 574.759,27.002 572.622,27.002ZM545.179,27.215C546.542,27.215 547.776,27.768 548.67,28.661C549.563,29.554 550.115,30.789 550.115,32.152C550.115,33.515 549.563,34.749 548.67,35.642C547.776,36.536 546.542,37.088 545.179,37.088C543.816,37.088 542.582,36.536 541.688,35.642C540.795,34.749 540.242,33.515 540.242,32.152C540.242,30.789 540.795,29.554 541.688,28.661C542.582,27.768 543.816,27.215 545.179,27.215ZM561.466,27.215C562.829,27.215 564.063,27.768 564.956,28.661C565.85,29.554 566.402,30.789 566.402,32.152C566.402,33.515 565.85,34.749 564.956,35.642C564.063,36.536 562.829,37.088 561.466,37.088C560.103,37.088 558.868,36.536 557.975,35.642C557.082,34.749 556.529,33.515 556.529,32.152C556.529,30.789 557.082,29.554 557.975,28.661C558.868,27.768 560.103,27.215 561.466,27.215ZM561.466,29.296C563.043,29.296 564.321,30.575 564.321,32.152C564.321,33.729 563.043,35.007 561.466,35.007C559.889,35.007 558.61,33.729 558.61,32.152C558.61,30.575 559.889,29.296 561.466,29.296ZM561.466,27.956C563.783,27.956 565.661,29.835 565.661,32.152C565.661,34.468 563.783,36.347 561.466,36.347C559.149,36.347 557.27,34.468 557.27,32.152C557.27,29.835 559.149,27.956 561.466,27.956ZM545.179,29.296C546.756,29.296 548.034,30.575 548.034,32.152C548.034,33.729 546.756,35.007 545.179,35.007C543.602,35.007 542.324,33.729 542.324,32.152C542.324,30.575 543.602,29.296 545.179,29.296ZM545.179,27.956C547.496,27.956 549.374,29.835 549.374,32.152C549.374,34.468 547.496,36.347 545.179,36.347C542.862,36.347 540.984,34.468 540.984,32.152C540.984,29.835 542.862,27.956 545.179,27.956ZM557.07,39.778C557.472,39.785 557.798,40.117 557.798,40.519C557.798,40.921 557.472,41.253 557.07,41.261L549.574,41.261C549.173,41.253 548.846,40.921 548.846,40.519C548.846,40.117 549.173,39.785 549.574,39.778L557.07,39.778ZM555.329,21.779C555.333,21.779 555.336,21.779 555.34,21.779C555.824,21.779 556.222,22.178 556.222,22.662C556.222,23.146 555.824,23.544 555.34,23.544C555.336,23.544 555.333,23.544 555.33,23.544C554.849,23.538 554.457,23.142 554.457,22.662C554.457,22.182 554.849,21.785 555.329,21.779ZM551.315,21.779C551.799,21.779 552.197,22.178 552.197,22.662C552.197,23.146 551.799,23.544 551.315,23.544C551.315,23.544 551.315,23.544 551.315,23.544C550.831,23.544 550.433,23.146 550.433,22.662L550.433,22.661C550.433,22.178 550.831,21.779 551.315,21.779C551.315,21.779 551.315,21.779 551.315,21.779Z"/>
            <clipPath id="_clip7">
                <rect x="424.324" y="17.846" width="71.973" height="60.78"/>
            </clipPath>
            <g clip-path="url(#_clip7)">
                <g>
                    <path d="M474.9,35.377C474.455,35.594 474.016,35.828 473.577,36.086C472.259,36.859 470.959,37.802 469.629,38.885L466.8,35.641C467.778,34.733 468.838,33.907 469.963,33.175C470.859,32.589 471.796,32.068 472.763,31.623C473.149,31.429 473.536,31.248 473.934,31.078C472.066,27.769 469.377,25.396 466.331,23.932C463.286,22.474 459.877,21.911 456.556,22.233C453.258,22.55 450.054,23.751 447.407,25.806C444.349,28.179 442.018,31.728 441.122,36.431L440.847,37.901L439.383,38.159C437.948,38.411 436.671,38.757 435.54,39.196C434.451,39.618 433.479,40.139 432.629,40.754C431.95,41.246 431.364,41.796 430.866,42.394C429.32,44.239 428.605,46.552 428.623,48.89C428.641,51.268 429.414,53.669 430.843,55.649C431.37,56.381 431.991,57.054 432.694,57.64C433.408,58.232 434.211,58.724 435.113,59.093C435.845,59.391 436.641,59.626 437.508,59.784L437.508,64.136C436.038,63.931 434.697,63.573 433.479,63.07C432.149,62.519 430.972,61.81 429.935,60.944C428.951,60.124 428.09,59.192 427.358,58.179C425.401,55.479 424.347,52.187 424.324,48.907C424.3,45.592 425.331,42.294 427.557,39.623C428.277,38.757 429.127,37.96 430.099,37.257C431.229,36.437 432.524,35.746 433.982,35.178C434.99,34.785 436.067,34.457 437.204,34.194C438.492,29.081 441.239,25.133 444.771,22.392C448.075,19.832 452.052,18.338 456.146,17.946C460.222,17.554 464.416,18.245 468.182,20.055C472.294,22.028 475.879,25.314 478.204,29.936C479.141,29.789 480.078,29.719 481.01,29.725C484.946,29.748 488.735,31.16 491.728,34.381C492.355,35.055 492.946,35.816 493.497,36.666C495.371,39.547 496.332,43.395 496.291,47.162C496.25,50.858 495.254,54.536 493.216,57.242C491.892,59.011 490.182,60.446 488.138,61.588C486.17,62.689 483.874,63.527 481.297,64.124L480.816,64.183L478.895,64.183L478.895,59.866L480.588,59.866C482.655,59.368 484.483,58.694 486.035,57.828C487.575,56.967 488.835,55.918 489.778,54.659C491.242,52.708 491.962,49.95 491.992,47.121C492.027,44.151 491.301,41.176 489.889,39.003C489.485,38.376 489.04,37.814 488.571,37.31C486.457,35.031 483.774,34.036 480.986,34.018C478.971,34.018 476.88,34.498 474.9,35.377ZM473.208,51.109C473.167,51.109 473.132,51.115 473.091,51.115L445.386,51.115C445.345,51.115 445.304,51.115 445.269,51.109C445.14,51.133 445.017,51.197 444.929,51.291C444.812,51.408 444.736,51.572 444.736,51.748L444.736,59.485C444.736,59.661 444.812,59.825 444.929,59.942C445.046,60.059 445.21,60.135 445.386,60.135L473.085,60.135C473.26,60.135 473.424,60.059 473.542,59.942C473.659,59.825 473.735,59.661 473.735,59.485L473.735,51.748C473.735,51.572 473.659,51.408 473.542,51.291C473.454,51.197 473.337,51.133 473.208,51.109ZM468.364,53.868C469.43,53.868 470.297,54.735 470.297,55.801C470.297,56.867 469.43,57.734 468.364,57.734C467.298,57.734 466.431,56.867 466.431,55.801C466.431,54.735 467.292,53.868 468.364,53.868ZM473.208,62.22C473.167,62.22 473.132,62.226 473.091,62.226L445.386,62.226C445.345,62.226 445.304,62.226 445.269,62.22C445.14,62.244 445.017,62.308 444.929,62.402C444.812,62.519 444.736,62.683 444.736,62.859L444.736,70.596C444.736,70.772 444.812,70.936 444.929,71.053C445.046,71.17 445.21,71.246 445.386,71.246L473.085,71.246C473.26,71.246 473.424,71.17 473.542,71.053C473.659,70.936 473.735,70.772 473.735,70.596L473.735,62.859C473.735,62.683 473.659,62.519 473.542,62.402C473.454,62.308 473.337,62.244 473.208,62.22ZM447.495,64.622L449.123,64.622L449.123,68.833L447.495,68.833L447.495,64.622ZM451.993,64.622L453.621,64.622L453.621,68.833L451.993,68.833L451.993,64.622ZM456.497,64.622L458.126,64.622L458.126,68.833L456.497,68.833L456.497,64.622ZM447.495,53.511L449.123,53.511L449.123,57.722L447.495,57.722L447.495,53.511ZM451.993,53.511L453.621,53.511L453.621,57.722L451.993,57.722L451.993,53.511ZM456.497,53.511L458.126,53.511L458.126,57.722L456.497,57.722L456.497,53.511Z" style="fill-rule:nonzero;"/>
                </g>
            </g>
            <g>
                <path d="M341.597,17.318C342.252,17.507 342.726,17.885 343.019,18.461C343.474,19.387 343.304,20.747 342.441,22.693C342.422,22.731 342.403,22.769 342.384,22.797L339.322,27.823C338.137,29.769 336.933,31.724 335.312,33.226C333.625,34.804 331.549,35.852 328.705,35.843C326.051,35.834 324.051,34.823 322.411,33.33C320.837,31.894 319.643,30.062 318.505,28.257L315.822,23.997C314.827,22.514 314.305,21.144 314.268,20.02C314.249,19.472 314.343,18.981 314.552,18.546C314.77,18.083 315.092,17.696 315.538,17.403C315.756,17.252 316.002,17.129 316.277,17.035C316.116,14.758 316.059,11.943 316.164,9.572C316.22,8.996 316.334,8.419 316.495,7.843C317.178,5.397 318.903,3.432 321.036,2.081C321.785,1.608 322.61,1.212 323.482,0.9C328.639,-0.961 335.483,0.059 339.142,4.008C340.631,5.614 341.569,7.749 341.768,10.564L341.597,17.318Z" style="fill:white;"/>
                <path d="M360.293,62.926L362.236,55.541L360.898,54.082C360.293,53.206 360.166,52.437 360.498,51.776C361.22,50.346 362.724,50.608 364.13,50.608C365.604,50.608 367.42,50.326 367.879,52.165C368.035,52.778 367.84,53.42 367.411,54.082L366.073,55.541L367.235,59.978L374.939,53.303L378.932,53.401C377.555,50.647 375.808,48.312 373.777,46.113C377.604,47.592 381.52,49.051 384.419,50.861C386.265,52.009 387.212,52.885 387.964,54.276C389.546,57.244 389.721,59.9 389.956,63.111L390.512,65.894L368.797,65.894L368.817,65.962L360.507,65.962C360.322,67.86 359.228,68.959 357.09,69.115L303.944,69.115C301.796,68.949 300.703,67.85 300.527,65.933L301.269,54.218C301.474,51.513 302.236,49.373 303.476,47.738C304.296,46.658 305.311,45.86 306.434,45.237C309.998,43.262 318.317,42.678 321.549,39.779L326.499,54.286L328.989,45.675L327.769,44.342C327.222,43.544 327.095,42.844 327.407,42.24C328.071,40.937 329.438,41.18 330.717,41.18C332.055,41.18 333.705,40.927 334.125,42.6C334.262,43.155 334.086,43.739 333.695,44.342L332.475,45.675L334.965,54.286L339.446,39.779C342.678,42.678 351.007,43.262 354.561,45.237C355.684,45.86 356.709,46.658 357.52,47.738C358.76,49.373 359.521,51.503 359.726,54.218L360.293,62.926ZM285.441,46.94L288.761,56.66L290.431,50.89L289.611,49.995C289.24,49.46 289.162,48.993 289.367,48.584C289.806,47.709 290.724,47.874 291.583,47.874C292.481,47.874 293.585,47.709 293.868,48.828C293.965,49.197 293.839,49.596 293.585,49.995L292.764,50.89L294.434,56.66L297.441,46.94C297.881,47.329 298.486,47.66 299.199,47.942C298.955,48.458 298.73,49.003 298.535,49.567C298.027,51.036 297.695,52.671 297.559,54.491L297.568,54.491C297.568,54.529 297.559,54.578 297.559,54.617L296.836,65.884L272.807,65.884C271.362,65.777 270.629,65.038 270.512,63.753L271.01,56.612C271.147,54.802 271.664,53.372 272.494,52.272C273.041,51.552 273.725,51.017 274.476,50.599C276.859,49.275 283.274,48.886 285.441,46.94ZM283.811,33.162C283.489,33.192 283.245,33.26 283.069,33.376C282.971,33.445 282.893,33.532 282.844,33.629C282.786,33.746 282.766,33.902 282.766,34.067C282.786,34.602 283.069,35.322 283.625,36.149L283.635,36.169L285.49,39.107C286.232,40.275 287.004,41.472 287.961,42.347C288.869,43.175 289.972,43.739 291.437,43.739C293.018,43.739 294.171,43.155 295.118,42.279C296.104,41.355 296.885,40.09 297.656,38.825L299.736,35.41C300.156,34.456 300.283,33.882 300.146,33.61C300.058,33.445 299.716,33.396 299.15,33.445C298.789,33.522 298.408,33.454 298.008,33.25L299.053,30.136C295.235,30.088 292.628,29.426 289.533,27.461C288.517,26.818 288.214,26.079 287.199,26.147C286.428,26.293 285.783,26.634 285.275,27.188C284.787,27.714 284.416,28.434 284.172,29.358L284.787,33.085C284.475,33.279 284.143,33.299 283.811,33.162ZM300.341,32.238C300.791,32.374 301.122,32.627 301.318,33.026C301.63,33.659 301.513,34.602 300.917,35.945C300.908,35.974 300.898,35.994 300.878,36.023L298.769,39.487C297.949,40.83 297.119,42.172 296.006,43.213C294.844,44.303 293.409,45.023 291.446,45.013C289.611,45.013 288.234,44.313 287.101,43.282C286.018,42.289 285.188,41.024 284.406,39.779L282.551,36.84C281.858,35.809 281.507,34.875 281.477,34.096C281.467,33.717 281.526,33.376 281.673,33.085C281.819,32.763 282.044,32.501 282.356,32.296C282.502,32.199 282.678,32.112 282.864,32.043C282.747,30.467 282.708,28.521 282.786,26.887C282.825,26.488 282.903,26.089 283.01,25.69C283.489,24.006 284.67,22.644 286.144,21.71C286.662,21.379 287.228,21.107 287.834,20.893C291.398,19.608 296.114,20.309 298.642,23.033C299.668,24.143 300.322,25.612 300.459,27.558L300.341,32.238ZM318.991,19.229C318.581,19.278 318.258,19.385 318.024,19.54C317.878,19.638 317.76,19.774 317.692,19.92C317.614,20.095 317.575,20.319 317.575,20.572C317.594,21.379 318.024,22.44 318.864,23.666L318.883,23.685L321.647,28.074C322.75,29.825 323.902,31.606 325.328,32.9C326.685,34.135 328.335,34.972 330.502,34.982C332.865,34.992 334.584,34.116 335.99,32.812C337.464,31.44 338.636,29.543 339.788,27.655L342.893,22.557C343.518,21.136 343.713,20.28 343.508,19.871C343.381,19.608 342.834,19.55 341.917,19.638C341.848,19.647 341.78,19.647 341.712,19.638C341.331,19.638 340.921,19.54 340.472,19.336L341.868,14.685C336.166,14.617 332.27,13.625 327.661,10.686C326.148,9.723 325.689,8.623 324.175,8.73C323.033,8.954 322.066,9.46 321.305,10.277C320.572,11.066 320.016,12.136 319.655,13.508L320.641,19.132C320.055,19.433 319.508,19.453 318.991,19.229ZM343.791,17.838C344.465,18.032 344.953,18.421 345.256,19.015C345.725,19.969 345.549,21.37 344.66,23.374C344.641,23.413 344.621,23.452 344.602,23.481L341.448,28.657C340.227,30.662 338.987,32.676 337.318,34.223C335.58,35.848 333.441,36.928 330.512,36.918C327.778,36.908 325.718,35.867 324.029,34.33C322.408,32.851 321.178,30.963 320.006,29.105L317.243,24.717C316.218,23.189 315.681,21.778 315.642,20.62C315.622,20.056 315.72,19.55 315.935,19.103C316.159,18.626 316.491,18.227 316.95,17.925C317.175,17.77 317.428,17.643 317.712,17.546C317.546,15.201 317.487,12.301 317.594,9.859C317.653,9.266 317.77,8.672 317.936,8.078C318.639,5.558 320.416,3.535 322.613,2.143C323.385,1.657 324.234,1.248 325.132,0.927C330.444,-0.99 337.494,0.061 341.262,4.128C342.795,5.782 343.762,7.981 343.967,10.881L343.791,17.838ZM353.389,41.793L355.83,41.725L357.852,41.676C355.489,34.427 356.28,27.762 361.972,22.099C362.939,25.213 365.096,27.772 368.778,29.669C370.535,30.973 372.244,32.549 373.884,34.349C374.177,33.153 373.064,31.693 371.707,30.195C372.957,30.808 374.109,31.674 374.919,33.328C375.866,35.254 375.847,36.869 375.544,38.961C375.398,39.934 375.163,40.839 374.821,41.666L378.19,41.666C381.744,34.087 379.489,22.849 372.224,18.081C369.998,16.621 368.397,16.67 365.78,16.68C362.782,16.68 361.259,16.777 358.691,18.46C354.913,20.951 352.589,25.262 351.612,31.246C351.427,34.233 351.3,39.39 353.389,41.793Z"/>
            </g>
            <clipPath id="_clip8">
                <rect x="184.324" y="6.115" width="52.377" height="63"/>
            </clipPath>
            <g clip-path="url(#_clip8)">
                <g>
                    <path d="M206.349,7.412C209.323,5.397 212.712,5.843 215.511,7.976C216.244,8.54 216.875,9.232 217.372,10.068C217.798,10.78 218.541,12.236 217.152,12.462C216.603,12.549 215.649,11.806 214.911,11.565C213.963,11.257 212.989,11.062 212.02,10.96C210.22,10.775 208.446,10.924 206.923,11.344C206.098,11.575 205.293,11.852 204.524,12.205C204.165,12.37 203.432,12.862 203.232,12.231C202.765,10.785 205.283,8.135 206.349,7.412ZM208.472,43.875C208.195,43.777 208.051,43.47 208.154,43.193C208.256,42.916 208.559,42.772 208.836,42.875C209.42,43.085 209.994,43.177 210.548,43.167C211.102,43.157 211.65,43.039 212.189,42.834C212.466,42.731 212.768,42.87 212.876,43.142C212.978,43.418 212.84,43.721 212.568,43.829C211.922,44.075 211.261,44.213 210.574,44.228C209.882,44.244 209.184,44.131 208.472,43.875ZM219.869,46.356C223.924,47.925 227.185,49.135 230.251,51.058C232.204,52.278 233.209,53.201 234.004,54.687C235.68,57.835 235.865,60.66 236.116,64.075L236.701,69.12L228.21,69.12L227.252,64.736L226.56,69.12L196.029,69.12L195.106,64.736L194.388,69.12L184.324,69.12L184.908,64.075C185.159,60.66 185.344,57.835 187.021,54.687C187.81,53.206 188.815,52.288 190.773,51.058C193.839,49.135 197.064,47.94 201.12,46.366C203.247,55.046 219.869,52.606 219.869,46.356ZM214.352,34.098C214.152,33.954 214.106,33.677 214.24,33.477C214.378,33.267 214.665,33.216 214.87,33.354C215.219,33.585 215.803,33.708 216.418,33.698C217.003,33.687 217.593,33.559 218.018,33.282C218.228,33.149 218.51,33.205 218.644,33.421C218.741,33.667 218.695,33.877 218.505,34.046C217.121,34.687 215.737,34.744 214.352,34.098ZM202.396,34.108C202.212,33.923 202.089,33.728 202.263,33.467C202.401,33.257 202.689,33.205 202.894,33.344C203.273,33.6 203.842,33.708 204.421,33.703C205.062,33.698 205.719,33.549 206.144,33.298C206.365,33.17 206.641,33.247 206.764,33.462C206.795,33.58 206.795,33.693 206.77,33.8C206.677,34.144 206.349,34.185 206.042,34.292C205.421,34.508 204.908,34.621 204.386,34.61C203.786,34.6 203.181,34.441 202.396,34.108ZM214.778,31.462C214.573,31.606 214.291,31.56 214.147,31.355C214.004,31.15 214.05,30.868 214.255,30.724C215.111,30.119 215.988,29.806 216.88,29.801C217.777,29.796 218.669,30.104 219.566,30.719C219.777,30.862 219.823,31.15 219.684,31.35C219.541,31.56 219.254,31.606 219.054,31.467C218.315,30.96 217.593,30.709 216.89,30.714C216.178,30.709 215.475,30.965 214.778,31.462ZM201.986,31.462C201.781,31.606 201.499,31.56 201.356,31.355C201.212,31.15 201.258,30.868 201.463,30.724C202.319,30.119 203.196,29.806 204.088,29.801C204.985,29.796 205.877,30.104 206.775,30.719C206.985,30.862 207.031,31.15 206.893,31.35C206.749,31.56 206.462,31.606 206.262,31.467C205.524,30.96 204.801,30.709 204.098,30.714C203.391,30.709 202.689,30.965 201.986,31.462ZM196.239,29.212C196.367,29.13 196.516,29.094 196.659,29.104C196.408,27.807 196.444,26.561 196.5,25.105C196.639,21.296 197.603,18.25 200.607,15.605C205.139,11.616 214.111,11.267 219.1,14.702C219.838,15.21 220.525,15.815 221.146,16.522C223.171,18.845 224.975,23.946 224.934,27.094C224.924,27.822 224.806,28.56 224.56,29.314C224.55,29.391 224.534,29.468 224.514,29.56C225.063,29.904 225.488,30.329 225.806,30.806C226.273,31.519 226.478,32.339 226.426,33.205C226.38,34.036 226.093,34.908 225.58,35.764C224.981,36.753 224.063,37.727 222.843,38.558C221.776,41.045 220.284,43.536 218.48,45.536C216.962,47.217 215.219,48.556 213.317,49.258C211.368,49.976 209.272,50.032 207.098,49.12C205.97,48.648 204.826,47.915 203.678,46.879C202.627,45.931 201.673,44.757 200.812,43.388C200.012,42.121 199.294,40.686 198.643,39.107C198.356,39.019 198.079,38.912 197.823,38.794C197.454,38.625 197.116,38.42 196.808,38.184C195.906,37.492 195.311,36.553 194.962,35.518C194.578,34.364 194.506,33.088 194.66,31.914C194.742,31.303 194.911,30.775 195.162,30.334C195.434,29.873 195.788,29.499 196.239,29.212ZM196.992,30.365L196.977,30.375C196.726,30.534 196.521,30.75 196.367,31.027C196.203,31.314 196.09,31.678 196.029,32.103C195.895,33.082 195.952,34.144 196.27,35.087C196.531,35.877 196.977,36.584 197.644,37.092C197.879,37.271 198.131,37.425 198.402,37.553C198.679,37.681 198.982,37.789 199.31,37.871C199.535,37.922 199.705,38.086 199.787,38.286C200.443,39.922 201.171,41.388 201.976,42.665C202.771,43.926 203.642,44.997 204.601,45.864C205.631,46.792 206.641,47.443 207.631,47.858C209.451,48.627 211.21,48.576 212.84,47.976C214.516,47.361 216.08,46.156 217.454,44.628C219.192,42.706 220.633,40.27 221.648,37.845C221.71,37.707 221.802,37.599 221.92,37.522C223.053,36.779 223.878,35.923 224.401,35.061C224.796,34.405 225.011,33.754 225.052,33.144C225.083,32.565 224.955,32.031 224.658,31.575C224.499,31.334 224.293,31.109 224.037,30.914C223.519,32.093 222.648,33.641 221.525,35.179L221.525,28.13C218.295,26.633 216.183,23.341 215.101,18.394C213.814,27.812 202.253,27.407 199.346,29.119L199.346,34.615C198.792,33.841 198.3,33.052 197.854,32.252C197.474,31.58 197.192,30.96 196.992,30.365Z"/>
                </g>
            </g>
        </g>
        <g transform="matrix(1,0,0,1,16.740182,-128.529808)">
            <text x="28.352px" y="167.782px" style="font-family:'TimesNewRomanPS-ItalicMT', 'Times New Roman', serif;font-style:italic;font-size:29.167px;fill:rgb(100,93,93);stroke:rgb(131,131,131);stroke-width:1px;stroke-linecap:butt;stroke-miterlimit:2;">Active</text>
            <g transform="matrix(29.166667,0,0,29.166667,124.176484,198.188011)">
            </g>
            <text x="5.388px" y="198.188px" style="font-family:'TimesNewRomanPS-ItalicMT', 'Times New Roman', serif;font-style:italic;font-size:29.167px;fill:rgb(100,93,93);stroke:rgb(131,131,131);stroke-width:1px;stroke-linecap:butt;stroke-miterlimit:2;">Resour<tspan x="86.935px 99.88px " y="198.188px 198.188px ">ce</tspan>s</text>
        </g>
        <g transform="matrix(1,0,0,1,16.260853,251.470192)">
            <text x="20.235px" y="167.782px" style="font-family:'TimesNewRomanPS-ItalicMT', 'Times New Roman', serif;font-style:italic;font-size:29.167px;fill:rgb(100,93,93);stroke:rgb(131,131,131);stroke-width:1px;stroke-linecap:butt;stroke-miterlimit:2;">Passive</text>
            <g transform="matrix(29.166667,0,0,29.166667,124.176484,198.188011)">
            </g>
            <text x="5.388px" y="198.188px" style="font-family:'TimesNewRomanPS-ItalicMT', 'Times New Roman', serif;font-style:italic;font-size:29.167px;fill:rgb(100,93,93);stroke:rgb(131,131,131);stroke-width:1px;stroke-linecap:butt;stroke-miterlimit:2;">Resour<tspan x="86.935px 99.88px " y="198.188px 198.188px ">ce</tspan>s</text>
        </g>
        <g transform="matrix(29.166667,0,0,29.166667,161.329671,239.904989)">
        </g>
        <text x="-1.237px" y="239.905px" style="font-family:'TimesNewRomanPS-ItalicMT', 'Times New Roman', serif;font-style:italic;font-size:29.167px;fill:rgb(100,93,93);stroke:rgb(131,131,131);stroke-width:1px;stroke-linecap:butt;stroke-miterlimit:2;">Or<tspan x="30.094px 43.039px " y="239.905px 239.905px ">ch</tspan>estration</text>
    </g>
</svg>
