<?xml version="1.0" encoding="UTF-8" standalone="no"?>
<!DOCTYPE svg PUBLIC "-//W3C//DTD SVG 1.1//EN" "http://www.w3.org/Graphics/SVG/1.1/DTD/svg11.dtd">
<svg width="100%" height="100%" viewBox="0 0 2394 1717" version="1.1" xmlns="http://www.w3.org/2000/svg" xmlns:xlink="http://www.w3.org/1999/xlink" xml:space="preserve" xmlns:serif="http://www.serif.com/" style="fill-rule:evenodd;clip-rule:evenodd;">
    <g>
        <g id="Axis">
            <g id="Horizontal-Axis" serif:id="Horizontal Axis">
                <g>
                    <g id="Zirkel">
                        <path d="M2065.369,1479.346C2110.236,1479.346 2146.619,1515.734 2146.619,1560.596C2146.619,1605.463 2110.236,1641.846 2065.369,1641.846C2020.503,1641.846 1984.119,1605.463 1984.119,1560.596C1984.119,1515.734 2020.503,1479.346 2065.369,1479.346Z" style="fill:white;fill-rule:nonzero;stroke:rgb(128,128,128);stroke-width:2.08px;"/>
                        <g>
                            <path d="M2094.323,1518.663L2119.098,1527.5C2120.494,1527.996 2121.211,1529.563 2120.703,1531L2096.303,1599.392C2095.79,1600.83 2094.244,1601.588 2092.848,1601.088L2068.073,1592.25C2066.678,1591.755 2065.961,1590.188 2066.473,1588.75L2090.869,1520.359C2091.382,1518.921 2092.928,1518.163 2094.323,1518.663ZM2088.573,1558.088L2078.607,1554.53M2102.911,1549.375L2082.982,1542.267M2097.323,1533.559L2087.357,1530M2094.161,1573.905L2074.232,1566.796M2079.819,1582.617L2069.857,1579.063" style="fill:rgb(85,85,85);fill-rule:nonzero;"/>
                            <path d="M2094.323,1518.663L2119.098,1527.5C2120.494,1527.996 2121.211,1529.563 2120.703,1531L2096.303,1599.392C2095.79,1600.83 2094.244,1601.588 2092.848,1601.088L2068.073,1592.25C2066.678,1591.755 2065.961,1590.188 2066.473,1588.75L2090.869,1520.359C2091.382,1518.921 2092.928,1518.163 2094.323,1518.663ZM2088.573,1558.088L2078.607,1554.53M2102.911,1549.375L2082.982,1542.267M2097.323,1533.559L2087.357,1530M2094.161,1573.905L2074.232,1566.796M2079.819,1582.617L2069.857,1579.063" style="fill-opacity:0;fill-rule:nonzero;stroke:white;stroke-width:2.08px;"/>
                        </g>
                        <g>
                            <path d="M2050.882,1517.95C2048.223,1519.08 2045.836,1520.709 2043.819,1522.713C2039.782,1526.75 2037.282,1532.33 2037.282,1538.492C2037.282,1542.646 2038.419,1546.538 2040.403,1549.875L2018.907,1594.263C2018.648,1594.784 2018.64,1595.359 2018.819,1595.871L2025.236,1615.88C2025.582,1616.984 2026.765,1617.584 2027.861,1617.23C2028.457,1617.034 2028.898,1616.609 2029.136,1616.084L2056.953,1560.659C2057.823,1560.767 2058.711,1560.817 2059.611,1560.817C2060.498,1560.817 2061.365,1560.767 2062.228,1560.667L2071.29,1578.738L2081.561,1599.188L2090.032,1616.075C2090.269,1616.596 2090.715,1617.034 2091.307,1617.221C2092.403,1617.567 2093.578,1616.963 2093.932,1615.867L2099.365,1594.955C2099.403,1594.596 2099.694,1593.8 2099.498,1593.055L2080.286,1553.005L2078.786,1549.905C2080.782,1546.567 2081.923,1542.659 2081.923,1538.492C2081.923,1532.33 2079.428,1526.75 2075.39,1522.713C2073.373,1520.696 2070.986,1519.067 2068.328,1517.942L2068.328,1504.721C2068.328,1502.321 2067.353,1500.138 2065.769,1498.559C2064.19,1496.98 2062.007,1496 2059.611,1496C2057.211,1496 2055.028,1496.98 2053.436,1498.559C2051.857,1500.138 2050.882,1502.321 2050.882,1504.721L2050.882,1517.95ZM2059.611,1529.663C2062.048,1529.663 2064.261,1530.65 2065.861,1532.25C2067.461,1533.85 2068.448,1536.063 2068.448,1538.5C2068.448,1540.938 2067.461,1543.15 2065.861,1544.75C2064.261,1546.35 2062.048,1547.338 2059.611,1547.338C2057.169,1547.338 2054.957,1546.35 2053.357,1544.75C2051.757,1543.15 2050.769,1540.938 2050.769,1538.5C2050.769,1536.063 2051.757,1533.85 2053.357,1532.25C2054.957,1530.65 2057.169,1529.663 2059.611,1529.663Z" style="fill:rgb(85,85,85);fill-rule:nonzero;"/>
                            <path d="M2050.882,1517.95C2048.223,1519.08 2045.836,1520.709 2043.819,1522.713C2039.782,1526.75 2037.282,1532.33 2037.282,1538.492C2037.282,1542.646 2038.419,1546.538 2040.403,1549.875L2018.907,1594.263C2018.648,1594.784 2018.64,1595.359 2018.819,1595.871L2025.236,1615.88C2025.582,1616.984 2026.765,1617.584 2027.861,1617.23C2028.457,1617.034 2028.898,1616.609 2029.136,1616.084L2056.953,1560.659C2057.823,1560.767 2058.711,1560.817 2059.611,1560.817C2060.498,1560.817 2061.365,1560.767 2062.228,1560.667L2071.29,1578.738L2081.561,1599.188L2090.032,1616.075C2090.269,1616.596 2090.715,1617.034 2091.307,1617.221C2092.403,1617.567 2093.578,1616.963 2093.932,1615.867L2099.365,1594.955C2099.403,1594.596 2099.694,1593.8 2099.498,1593.055L2080.286,1553.005L2078.786,1549.905C2080.782,1546.567 2081.923,1542.659 2081.923,1538.492C2081.923,1532.33 2079.428,1526.75 2075.39,1522.713C2073.373,1520.696 2070.986,1519.067 2068.328,1517.942L2068.328,1504.721C2068.328,1502.321 2067.353,1500.138 2065.769,1498.559C2064.19,1496.98 2062.007,1496 2059.611,1496C2057.211,1496 2055.028,1496.98 2053.436,1498.559C2051.857,1500.138 2050.882,1502.321 2050.882,1504.721L2050.882,1517.95ZM2059.611,1529.663C2062.048,1529.663 2064.261,1530.65 2065.861,1532.25C2067.461,1533.85 2068.448,1536.063 2068.448,1538.5C2068.448,1540.938 2067.461,1543.15 2065.861,1544.75C2064.261,1546.35 2062.048,1547.338 2059.611,1547.338C2057.169,1547.338 2054.957,1546.35 2053.357,1544.75C2051.757,1543.15 2050.769,1540.938 2050.769,1538.5C2050.769,1536.063 2051.757,1533.85 2053.357,1532.25C2054.957,1530.65 2057.169,1529.663 2059.611,1529.663Z" style="fill-opacity:0;fill-rule:nonzero;stroke:white;stroke-width:2.08px;"/>
                        </g>
                    </g>
                    <text x="1985.613px" y="1707.402px" style="font-family:'HelveticaNeue-Medium', 'Helvetica Neue', sans-serif;font-weight:500;font-size:45.833px;">Pr<tspan x="2031.492px 2056.975px " y="1707.402px 1707.402px ">ec</tspan>ise</text>
                </g>
                <g>
                    <text x="588.02px" y="1707.402px" style="font-family:'HelveticaNeue-Medium', 'Helvetica Neue', sans-serif;font-weight:500;font-size:45.833px;">V<tspan x="613.503px 638.986px " y="1707.402px 1707.402px ">ag</tspan>ue</text>
                    <g id="Ghost">
                        <path d="M652.307,1480.653C697.174,1480.653 733.557,1517.04 733.557,1561.903C733.557,1606.769 697.174,1643.153 652.307,1643.153C607.44,1643.153 571.057,1606.769 571.057,1561.903C571.057,1517.04 607.44,1480.653 652.307,1480.653Z" style="fill:white;fill-rule:nonzero;stroke:rgb(128,128,128);stroke-width:2.08px;"/>
                        <path d="M636.453,1509.294C624.42,1534.099 627.024,1551.79 604.074,1573.624C601.182,1576.374 590.865,1583.665 596.311,1590.344C600.436,1595.407 606.603,1589.657 609.803,1589.978C615.249,1590.524 608.92,1606.836 613.932,1609.561C623.836,1614.944 629.749,1599.949 639.865,1601.249C645.17,1601.928 647.245,1617.74 655.34,1618.149C660.786,1618.419 660.357,1608.469 664.365,1606.019C670.357,1602.353 676.115,1618.011 683.565,1614.057C689.595,1610.861 678.407,1584.486 677.145,1574.44C675.799,1563.744 683.924,1541.378 686.615,1531.14C691.62,1512.099 681.953,1499.036 661.207,1496.528C645.803,1494.665 638.557,1505.065 636.445,1509.324L636.453,1509.294Z" style="fill:white;fill-rule:nonzero;stroke:rgb(56,56,56);stroke-width:2.08px;stroke-linecap:round;stroke-linejoin:round;"/>
                        <path d="M658.786,1514.882C653.715,1510.811 646.307,1526.265 649.436,1529.14C653.345,1532.724 661.045,1519.432 658.824,1514.882" style="fill:rgb(85,85,85);fill-rule:nonzero;"/>
                        <path d="M672.936,1518.394C667.886,1517.678 668.565,1535.178 671.74,1535.257C675.011,1535.336 676.124,1518.644 672.865,1518.357L672.936,1518.394Z" style="fill:rgb(85,85,85);fill-rule:nonzero;"/>
                    </g>
                </g>
                <g transform="matrix(41.666667,0,0,41.666667,1061.85468,1539.702414)">
                </g>
                <text x="901.438px" y="1539.702px" style="font-family:'HelveticaNeue-Italic', 'Helvetica Neue';font-style:italic;font-size:41.667px;">Glossary</text>
                <g transform="matrix(1.100205,0,0,1.100205,-2848.695846,-189.875718)">
                    <text x="4128.603px" y="1582.806px" style="font-family:'HelveticaNeue-Italic', 'Helvetica Neue';font-style:italic;font-size:37.872px;">Data</text>
                    <g transform="matrix(37.871723,0,0,37.871723,4220.499196,1621.738177)">
                    </g>
                    <text x="4114.61px" y="1621.738px" style="font-family:'HelveticaNeue-Italic', 'Helvetica Neue';font-style:italic;font-size:37.872px;">Model</text>
                </g>
                <g transform="matrix(41.666667,0,0,41.666667,1142.500513,1606.285747)">
                </g>
                <text x="825.334px" y="1606.286px" style="font-family:'HelveticaNeue-Italic', 'Helvetica Neue';font-style:italic;font-size:41.667px;">Informal Diagram</text>
                <g transform="matrix(1.100205,0,0,1.100205,-3181.199848,-190.084052)">
                    <text x="4088.27px" y="1582.806px" style="font-family:'HelveticaNeue-Italic', 'Helvetica Neue';font-style:italic;font-size:37.872px;">Database</text>
                    <g transform="matrix(37.871723,0,0,37.871723,4236.651486,1621.738177)">
                    </g>
                    <text x="4098.458px" y="1621.738px" style="font-family:'HelveticaNeue-Italic', 'Helvetica Neue';font-style:italic;font-size:37.872px;">Schema</text>
                </g>
                <g>
                    <path d="M2165.743,1443.984L549.795,1443.984" style="fill-opacity:0;fill-rule:nonzero;"/>
                    <path d="M2143.817,1454.42L2159.472,1443.984L2143.817,1433.547" style="fill:none;fill-rule:nonzero;stroke:black;stroke-width:6.96px;stroke-miterlimit:10;"/>
                    <path d="M571.722,1454.42L556.067,1443.984L571.722,1433.547" style="fill:none;fill-rule:nonzero;stroke:black;stroke-width:6.96px;stroke-miterlimit:10;"/>
                    <path d="M2159.472,1443.984L556.067,1443.984" style="fill:none;fill-rule:nonzero;stroke:black;stroke-width:6.96px;"/>
                </g>
                <g transform="matrix(4.166667,0,0,4.166667,2192.372839,1433.671067)">
                    <text x="-0.803px" y="0px" style="font-family:'HelveticaNeue-Bold', 'Helvetica Neue';font-weight:700;font-size:11px;">Semantic</text>
                    <text x="6.836px" y="11px" style="font-family:'HelveticaNeue-Bold', 'Helvetica Neue';font-weight:700;font-size:11px;">Clarity</text>
                </g>
            </g>
            <g id="Vertical-Axis" serif:id="Vertical Axis">
                <g>
                    <text x="11.75px" y="1337.821px" style="font-family:'HelveticaNeue-Light', 'Helvetica Neue';font-weight:300;font-size:41.667px;">(low-level view)</text>
                    <text x="65.396px" y="1287.821px" style="font-family:'HelveticaNeue-Medium', 'Helvetica Neue', sans-serif;font-weight:500;font-size:41.667px;">Detailed</text>
                    <g id="Inside">
                        <path d="M393.321,1220.654C438.188,1220.654 474.571,1257.037 474.571,1301.904C474.571,1346.771 438.188,1383.154 393.321,1383.154C348.454,1383.154 312.071,1346.771 312.071,1301.904C312.071,1257.037 348.454,1220.654 393.321,1220.654Z" style="fill:white;fill-rule:nonzero;stroke:rgb(85,85,85);stroke-width:2.08px;stroke-linejoin:round;stroke-miterlimit:2;"/>
                        <g id="Vehicles">
                            <clipPath id="_clip1">
                                <rect id="Microscope" x="340.508" y="1235.597" width="105.625" height="114.738"/>
                            </clipPath>
                            <g clip-path="url(#_clip1)">
                                <g>
                                    <path d="M383.087,1280.968C381.36,1281.5 379.744,1282.21 378.288,1283.078C376.896,1283.9 375.636,1284.88 374.543,1285.991C373.46,1287.084 372.536,1288.316 371.798,1289.661C371.051,1291.024 370.51,1292.528 370.183,1294.134C369.865,1295.684 369.772,1297.327 369.903,1299.045C370.043,1300.763 370.407,1302.565 371.023,1304.433C371.611,1306.216 372.442,1308.065 373.526,1309.989C373.675,1310.259 373.964,1310.39 374.254,1310.353C374.683,1310.287 375.085,1310.231 375.468,1310.194C375.86,1310.157 376.261,1310.119 376.682,1310.091L376.7,1310.091C378.624,1309.979 380.547,1310.073 382.434,1310.353C384.348,1310.633 386.225,1311.118 388.036,1311.781C388.746,1312.043 389.437,1312.323 390.118,1312.64C390.809,1312.958 391.472,1313.303 392.107,1313.658C392.219,1313.724 392.341,1313.752 392.462,1313.752L428.981,1313.752C429.149,1313.752 429.289,1313.817 429.391,1313.92C429.494,1314.022 429.56,1314.172 429.56,1314.331L429.56,1325.078C429.56,1325.237 429.494,1325.386 429.391,1325.489C429.289,1325.591 429.139,1325.657 428.981,1325.657L404.731,1325.657C404.339,1325.657 404.012,1325.974 404.012,1326.376C404.012,1326.507 404.04,1326.619 404.096,1326.721C404.769,1328.215 405.338,1329.793 405.777,1331.455C406.207,1333.08 406.524,1334.779 406.692,1336.544C406.73,1336.918 407.047,1337.198 407.411,1337.198L432.996,1337.198C433.07,1337.198 433.145,1337.207 433.21,1337.235C433.267,1337.263 433.323,1337.301 433.369,1337.347C437.627,1341.222 441.708,1345.387 445.937,1349.309C446.003,1349.365 446.049,1349.43 446.087,1349.505C446.124,1349.579 446.143,1349.663 446.143,1349.757C446.143,1349.925 446.077,1350.065 445.975,1350.168C445.872,1350.27 445.723,1350.336 445.564,1350.336L341.199,1350.336L341.087,1350.326C341.013,1350.326 340.947,1350.317 340.891,1350.298C340.845,1350.28 340.789,1350.252 340.742,1350.214L340.714,1350.186C340.602,1350.084 340.527,1349.953 340.518,1349.813C340.499,1349.673 340.536,1349.533 340.63,1349.411L350.173,1337.805C350.285,1337.665 350.341,1337.497 350.341,1337.338C350.341,1335.629 350.509,1333.976 350.836,1332.389C351.153,1330.802 351.639,1329.27 352.255,1327.795C352.834,1326.385 353.553,1325.031 354.375,1323.724C355.206,1322.407 356.149,1321.137 357.194,1319.914C357.4,1319.672 357.419,1319.326 357.25,1319.065C356.009,1316.982 354.953,1314.909 354.085,1312.855C353.179,1310.736 352.47,1308.653 351.947,1306.608C350.864,1302.407 350.528,1298.335 350.817,1294.479C351.125,1290.408 352.143,1286.552 353.74,1283.013L353.758,1282.975C355.29,1279.586 357.335,1276.486 359.8,1273.731C362.339,1270.893 365.327,1268.418 368.614,1266.383C370.202,1265.393 371.882,1264.506 373.61,1263.74C375.346,1262.975 377.139,1262.312 378.988,1261.77C379.371,1261.658 379.586,1261.257 379.474,1260.874C379.455,1260.818 379.436,1260.78 379.418,1260.734L378.53,1258.978C378.474,1258.857 378.474,1258.717 378.521,1258.586C378.577,1258.446 378.68,1258.325 378.82,1258.259L380.389,1257.512C380.753,1257.335 380.902,1256.905 380.734,1256.55L376.962,1249.043C376.784,1248.688 376.355,1248.548 376,1248.726L373.6,1249.968C373.47,1250.024 373.32,1250.024 373.189,1249.977C373.059,1249.94 372.947,1249.846 372.881,1249.725C371.826,1247.54 370.78,1245.318 369.688,1243.161C369.632,1243.03 369.632,1242.89 369.669,1242.759C369.716,1242.619 369.809,1242.498 369.949,1242.423C373.806,1240.369 379.315,1237.913 382.807,1235.653C382.947,1235.597 383.087,1235.597 383.218,1235.635C383.358,1235.672 383.489,1235.775 383.554,1235.915L386.878,1242.414C386.944,1242.554 386.944,1242.694 386.906,1242.824C386.859,1242.965 386.757,1243.086 386.617,1243.161L384.917,1244.048C384.562,1244.234 384.422,1244.664 384.609,1245.019L388.671,1252.759C388.858,1253.105 389.287,1253.245 389.642,1253.058L391.435,1252.199C391.575,1252.134 391.734,1252.125 391.864,1252.171C392.004,1252.218 392.116,1252.311 392.191,1252.451L408.121,1282.891C408.308,1283.246 408.737,1283.386 409.092,1283.2L410.67,1282.368C410.801,1282.303 410.959,1282.303 411.09,1282.34C411.23,1282.387 411.352,1282.481 411.426,1282.621L415.012,1289.418C415.068,1289.54 415.068,1289.68 415.031,1289.81C414.984,1289.95 414.89,1290.063 414.76,1290.137C408.737,1292.696 401.883,1296.944 395.823,1299.923C395.683,1299.979 395.543,1299.979 395.413,1299.932C395.291,1299.886 395.179,1299.801 395.104,1299.671C394.003,1297.458 392.985,1295.151 391.855,1292.966C391.799,1292.836 391.799,1292.696 391.836,1292.565C391.874,1292.425 391.976,1292.304 392.116,1292.229L393.909,1291.276C394.264,1291.09 394.395,1290.66 394.217,1290.315L389.222,1280.305C389.082,1280.006 388.764,1279.857 388.456,1279.913C386.57,1280.09 384.768,1280.445 383.087,1280.968ZM377.657,1322.609C371.643,1322.97 366.245,1327.01 363.953,1332.524C363.329,1334.028 362.957,1335.623 362.895,1337.335L394.473,1337.335C393.569,1328.673 386.392,1322.083 377.657,1322.609ZM400.293,1298.186L410.308,1292.966L413.268,1304.754L408.26,1307.364L400.293,1298.186Z" style="fill:rgb(85,85,85);"/>
                                </g>
                            </g>
                            <g id="Microscope1" serif:id="Microscope">
                            </g>
                        </g>
                    </g>
                </g>
                <g>
                    <text x="-2.125px" y="239.721px" style="font-family:'HelveticaNeue-Light', 'Helvetica Neue';font-weight:300;font-size:41.667px;">(high-level view)</text>
                    <text x="56.146px" y="189.721px" style="font-family:'HelveticaNeue-Medium', 'Helvetica Neue', sans-serif;font-weight:500;font-size:41.667px;">Abstract</text>
                    <g id="Satellite">
                        <path d="M393.321,122.867C438.188,122.867 474.571,159.25 474.571,204.117C474.571,248.983 438.188,285.367 393.321,285.367C348.454,285.367 312.071,248.983 312.071,204.117C312.071,159.25 348.454,122.867 393.321,122.867Z" style="fill:white;fill-rule:nonzero;stroke:rgb(85,85,85);stroke-width:2.08px;stroke-linejoin:round;stroke-miterlimit:2;"/>
                        <g id="Satellite1" serif:id="Satellite">
                            <g id="Waves">
                                <path d="M419.226,250.662C443.142,253.5 440.686,229.542 440.686,229.542" style="fill:none;fill-rule:nonzero;stroke:rgb(85,85,85);stroke-width:2.01px;stroke-linecap:round;"/>
                                <path d="M421.337,245.653C437.282,247.545 435.645,231.573 435.645,231.573" style="fill:none;fill-rule:nonzero;stroke:rgb(85,85,85);stroke-width:2.01px;stroke-linecap:round;"/>
                                <path d="M423.816,241.018C431.787,241.962 430.97,233.977 430.97,233.977" style="fill:none;fill-rule:nonzero;stroke:rgb(85,85,85);stroke-width:2.01px;stroke-linecap:round;"/>
                            </g>
                            <g id="Parabol">
                                <path d="M407.154,217.817C413.43,211.866 421.888,206.727 430.857,208.41L430.299,208.958C423.518,212.621 417.758,217.887 412.247,223.21C407.503,228.014 402.761,232.952 399.084,238.652C398.588,239.421 398.168,240.237 397.708,241.03L397.369,241.365C395.736,232.344 401.207,224.039 407.154,217.817Z" style="fill:rgb(85,85,85);fill-rule:nonzero;"/>
                                <path d="M411.619,225.672L416.218,230.345C411.709,234.378 407.353,238.837 402.063,241.88C401.504,242.201 399.789,243.326 398.954,242.735C398.395,241.866 399.508,240.231 399.859,239.64C400.775,238.108 402.125,236.332 403.219,234.969C405.844,231.707 408.722,228.69 411.619,225.672Z" style="fill:rgb(85,85,85);fill-rule:nonzero;"/>
                                <path d="M415.605,221.784C419.891,217.949 424.067,213.764 429.092,210.872C429.65,210.551 431.365,209.426 432.201,210.016C432.759,210.886 431.648,212.521 431.295,213.111C430.381,214.644 429.031,216.419 427.935,217.783C425.503,220.805 422.854,223.623 420.168,226.421L415.605,221.784Z" style="fill:rgb(85,85,85);fill-rule:nonzero;"/>
                                <path d="M417.274,227.339L424.28,234.457" style="fill:none;fill-rule:nonzero;stroke:rgb(85,85,85);stroke-width:2.01px;stroke-linecap:round;"/>
                            </g>
                            <g id="Collector">
                                <path d="M336.446,244.338L373.786,207.592L389.536,223.595L352.196,260.341L336.446,244.338Z" style="fill:none;fill-rule:nonzero;stroke:rgb(85,85,85);stroke-width:1px;"/>
                                <path d="M341.696,249.672L379.036,212.926L384.286,218.261L346.946,255.007L341.696,249.672Z" style="fill:none;fill-rule:nonzero;stroke:rgb(85,85,85);stroke-width:1px;"/>
                                <path d="M341.78,239.09L347.115,233.84L362.865,249.843L357.53,255.091L341.78,239.09Z" style="fill:none;fill-rule:nonzero;stroke:rgb(85,85,85);stroke-width:1px;"/>
                                <path d="M352.449,228.59L357.783,223.34L373.533,239.343L368.199,244.593L352.449,228.59Z" style="fill:none;fill-rule:nonzero;stroke:rgb(85,85,85);stroke-width:1px;"/>
                                <path d="M363.118,218.09L368.452,212.842L384.202,228.843L378.867,234.093L363.118,218.09Z" style="fill:none;fill-rule:nonzero;stroke:rgb(85,85,85);stroke-width:1px;"/>
                            </g>
                            <g id="Collector1" serif:id="Collector">
                                <path d="M397.108,184.64L434.448,147.892L450.196,163.895L412.858,200.643L397.108,184.64Z" style="fill:none;fill-rule:nonzero;stroke:rgb(85,85,85);stroke-width:1px;"/>
                                <path d="M402.358,189.974L439.698,153.227L444.948,158.561L407.608,195.309L402.358,189.974Z" style="fill:none;fill-rule:nonzero;stroke:rgb(85,85,85);stroke-width:1px;"/>
                                <path d="M402.442,179.39L407.776,174.14L423.526,190.143L418.192,195.393L402.442,179.39Z" style="fill:none;fill-rule:nonzero;stroke:rgb(85,85,85);stroke-width:1px;"/>
                                <path d="M413.111,168.892L418.445,163.642L434.193,179.645L428.861,184.893L413.111,168.892Z" style="fill:none;fill-rule:nonzero;stroke:rgb(85,85,85);stroke-width:1px;"/>
                                <path d="M423.779,158.392L429.114,153.142L444.862,169.145L439.529,174.395L423.779,158.392Z" style="fill:none;fill-rule:nonzero;stroke:rgb(85,85,85);stroke-width:1px;"/>
                            </g>
                            <path id="Body" d="M381.81,179.408L385.646,183.307L387.879,181.109L414.91,208.576C411.53,210.878 408.483,213.674 405.503,216.511C403.015,219.042 402.424,219.574 399.731,222.784C398.915,223.756 398.188,224.788 397.419,225.79L370.386,198.323L372.993,195.759L369.157,191.862L381.81,179.408Z" style="fill:rgb(85,85,85);fill-rule:nonzero;"/>
                        </g>
                    </g>
                </g>
                <g>
                    <path d="M511.511,102.218L511.511,1383.154" style="fill:none;fill-rule:nonzero;"/>
                    <path d="M522.136,124.54L511.511,108.603L500.886,124.54" style="fill:none;fill-rule:nonzero;stroke:black;stroke-width:7.08px;stroke-miterlimit:10;"/>
                    <path d="M522.136,1360.832L511.511,1376.769L500.886,1360.832" style="fill:none;fill-rule:nonzero;stroke:black;stroke-width:7.08px;stroke-miterlimit:10;"/>
                    <path d="M511.511,108.603L511.511,1376.769" style="fill:none;fill-rule:nonzero;stroke:black;stroke-width:7.08px;"/>
                </g>
                <g transform="matrix(4.166667,0,0,4.166667,413.565212,32.725)">
                    <text x="-6.611px" y="0px" style="font-family:'HelveticaNeue-Bold', 'Helvetica Neue';font-weight:700;font-size:11px;">Abstraction</text>
                    <g transform="matrix(11,0,0,11,37.6915,11)">
                    </g>
                    <text x="9.982px" y="11px" style="font-family:'HelveticaNeue-Bold', 'Helvetica Neue';font-weight:700;font-size:11px;">Level</text>
                </g>
            </g>
        </g>
        <rect id="Automation-Territory" serif:id="Automation Territory" x="1448.02" y="110.75" width="735.148" height="1287.649" style="fill:none;"/>
        <clipPath id="_clip2">
            <rect x="1448.02" y="110.75" width="735.148" height="1287.649"/>
        </clipPath>
        <g clip-path="url(#_clip2)">
            <path d="M2219.752,116.992L1448.438,1398.399" style="fill:none;stroke:rgb(126,169,131);stroke-width:1.87px;stroke-miterlimit:1.5;"/>
            <path d="M2311.593,116.992L1540.28,1398.399" style="fill:none;stroke:rgb(126,169,131);stroke-width:1.87px;stroke-miterlimit:1.5;"/>
            <path d="M2403.435,116.992L1632.121,1398.399" style="fill:none;stroke:rgb(126,169,131);stroke-width:1.87px;stroke-miterlimit:1.5;"/>
            <path d="M2495.276,116.992L1723.962,1398.399" style="fill:none;stroke:rgb(126,169,131);stroke-width:1.87px;stroke-miterlimit:1.5;"/>
            <path d="M2587.117,116.992L1815.803,1398.399" style="fill:none;stroke:rgb(126,169,131);stroke-width:1.87px;stroke-miterlimit:1.5;"/>
            <path d="M2678.959,116.992L1907.645,1398.399" style="fill:none;stroke:rgb(126,169,131);stroke-width:1.87px;stroke-miterlimit:1.5;"/>
            <path d="M2770.8,116.992L1999.486,1398.399" style="fill:none;stroke:rgb(126,169,131);stroke-width:1.87px;stroke-miterlimit:1.5;"/>
            <path d="M2862.641,116.992L2091.327,1398.399" style="fill:none;stroke:rgb(126,169,131);stroke-width:1.87px;stroke-miterlimit:1.5;"/>
            <path d="M2127.911,116.992L1356.597,1398.399" style="fill:none;stroke:rgb(126,169,131);stroke-width:1.87px;stroke-miterlimit:1.5;"/>
            <path d="M2036.07,116.992L1264.756,1398.399" style="fill:none;stroke:rgb(126,169,131);stroke-width:1.87px;stroke-miterlimit:1.5;"/>
            <path d="M1944.228,116.992L1172.914,1398.399" style="fill:none;stroke:rgb(126,169,131);stroke-width:1.87px;stroke-miterlimit:1.5;"/>
            <path d="M1852.387,116.992L1081.073,1398.399" style="fill:none;stroke:rgb(126,169,131);stroke-width:1.87px;stroke-miterlimit:1.5;"/>
            <path d="M1760.546,116.992L989.232,1398.399" style="fill:none;stroke:rgb(126,169,131);stroke-width:1.87px;stroke-miterlimit:1.5;"/>
            <path d="M1668.704,116.992L897.391,1398.399" style="fill:none;stroke:rgb(126,169,131);stroke-width:1.87px;stroke-miterlimit:1.5;"/>
            <path d="M1576.205,110.75L804.891,1392.158" style="fill:none;stroke:rgb(126,169,131);stroke-width:1.87px;stroke-miterlimit:1.5;"/>
            <path d="M1484.964,110.75L713.65,1392.158" style="fill:none;stroke:rgb(126,169,131);stroke-width:1.87px;stroke-miterlimit:1.5;"/>
        </g>
        <g id="Curve">
            <g>
                <path d="M1933.169,1331.904C1892.17,1332.483 1866.418,1332.47 1827.856,1331.904C1754.829,1330.833 1686.161,1327.782 1621.81,1323.026C1277.444,1297.575 1031.656,1122.634 927.591,1042.377C666.722,841.19 648.821,586.309 648.821,586.309L652.307,184.913L652.307,184.913" style="fill-opacity:0;fill-rule:nonzero;"/>
                <path d="M1870.66,1379.621L1933.169,1331.904L1869.858,1285.257L1870.66,1379.621Z" style="fill:rgb(176,176,176);fill-rule:nonzero;"/>
                <path d="M1882.841,1332.332C1865.32,1332.35 1848.408,1332.205 1827.856,1331.904C1754.829,1330.833 1686.161,1327.782 1621.81,1323.026C1277.444,1297.575 1031.656,1122.634 927.591,1042.377C666.722,841.19 648.821,586.309 648.821,586.309L652.307,184.913L652.307,184.913" style="fill:none;fill-rule:nonzero;stroke:rgb(176,176,176);stroke-width:54.17px;stroke-linecap:round;"/>
            </g>
            <g>
                <path d="M2183.544,1290.467L2183.544,1353.341C2183.544,1370.691 2169.457,1384.777 2152.107,1384.777L1978.631,1384.777C1961.281,1384.777 1947.195,1370.691 1947.195,1353.341L1947.195,1290.467C1947.195,1273.117 1961.281,1259.031 1978.631,1259.031L2152.107,1259.031C2169.457,1259.031 2183.544,1273.117 2183.544,1290.467Z" style="fill:white;fill-opacity:0.8;stroke:black;stroke-width:2.08px;stroke-linejoin:round;stroke-miterlimit:1.5;"/>
                <g transform="matrix(1.100205,0,0,1.049191,-2520.126072,-350.330177)">
                    <text x="4072.102px" y="1582.806px" style="font-family:'CourierNewPS-BoldMT', 'Courier New', monospace;font-weight:700;font-size:45.446px;">Program</text>
                    <g transform="matrix(45.446067,0,0,45.446067,4222.098685,1628.252113)">
                    </g>
                    <text x="4113.01px" y="1628.252px" style="font-family:'CourierNewPS-BoldMT', 'Courier New', monospace;font-weight:700;font-size:45.446px;">Code</text>
                </g>
            </g>
            <g>
                <path d="M661.567,381.791L635.884,381.791" style="fill:none;fill-rule:nonzero;"/>
                <path d="M651.509,397.416C642.885,397.416 635.884,390.415 635.884,381.791C635.884,373.167 642.885,366.166 651.509,366.166C660.132,366.166 667.134,373.167 667.134,381.791C667.134,390.415 660.132,397.416 651.509,397.416Z" style="fill:rgb(95,16,16);fill-opacity:0.51;fill-rule:nonzero;"/>
                <path d="M661.567,381.791L660.884,381.791" style="fill:none;fill-rule:nonzero;stroke:rgb(95,16,16);stroke-opacity:0.51;stroke-width:10.42px;stroke-linecap:square;stroke-dasharray:10.417,62.5,0,0,0,0;"/>
            </g>
            <g transform="matrix(50,0,0,50,1071.467597,395.934793)">
            </g>
            <text x="702.818px" y="395.935px" style="font-family:'HelveticaNeue-MediumItalic', 'Helvetica Neue', sans-serif;font-weight:500;font-style:italic;font-size:50px;fill:rgb(138,1,1);">Marketing Brief</text>
        </g>
        <g transform="matrix(1.100205,0,0,1.100205,-2772.15072,-1541.888747)">
            <text x="4097.803px" y="1582.806px" style="font-family:'TimesNewRomanPS-ItalicMT', 'Times New Roman', serif;font-style:italic;font-size:49.233px;">Digital</text>
            <text x="4052.681px" y="1634.131px" style="font-family:'TimesNewRomanPS-ItalicMT', 'Times New Roman', serif;font-style:italic;font-size:49.233px;">Automation</text>
            <g transform="matrix(49.233239,0,0,49.233239,4255.563751,1685.455427)">
            </g>
            <text x="4079.545px" y="1685.455px" style="font-family:'TimesNewRomanPS-ItalicMT', 'Times New Roman', serif;font-style:italic;font-size:49.233px;">T<tspan x="4102.407px 4124.259px " y="1685.455px 1685.455px ">er</tspan>ritory</text>
        </g>
        <g>
            <path d="M1462.355,342.772L2055.194,581.213C2055.194,581.213 2055.197,1248.399 2055.197,1248.399" style="fill-opacity:0;fill-rule:nonzero;"/>
            <path d="M2102.381,1185.487L2055.197,1248.399L2008.013,1185.488L2102.381,1185.487Z" style="fill:rgb(126,169,131);fill-rule:nonzero;"/>
            <path d="M1462.355,342.772L2055.194,581.213C2055.194,581.213 2055.196,1042.729 2055.197,1198.07" style="fill:none;fill-rule:nonzero;stroke:rgb(126,169,131);stroke-width:54.17px;stroke-linecap:round;"/>
        </g>
        <path d="M654.837,186.806L1074.575,186.806L1462.355,342.772" style="fill:rgb(207,141,141);fill-opacity:0;fill-rule:nonzero;stroke:rgb(207,141,141);stroke-width:54.17px;stroke-linecap:round;"/>
        <g id="Implementation-Spec" serif:id="Implementation Spec">
            <g>
                <path d="M2052.569,986.885L843.169,986.885" style="fill:none;fill-rule:nonzero;"/>
                <path d="M2005.694,1002.51L2052.569,986.885L2005.694,971.26L2005.694,1002.51Z" style="fill:rgb(95,16,16);fill-opacity:0.51;fill-rule:nonzero;"/>
                <path d="M858.794,1002.51C850.17,1002.51 843.169,995.509 843.169,986.885C843.169,978.262 850.17,971.26 858.794,971.26C867.417,971.26 874.419,978.262 874.419,986.885C874.419,995.509 867.417,1002.51 858.794,1002.51Z" style="fill:rgb(95,16,16);fill-opacity:0.51;fill-rule:nonzero;"/>
                <path d="M2015.069,986.885L868.169,986.885" style="fill:none;fill-rule:nonzero;stroke:rgb(95,16,16);stroke-opacity:0.51;stroke-width:10.42px;stroke-dasharray:41.667,20.833,0,0,0,0;"/>
            </g>
            <g transform="matrix(50,0,0,50,1498.546236,964.681486)">
            </g>
            <g transform="matrix(50,0,0,50,1514.296236,964.681486)">
            </g>
            <g transform="matrix(50,0,0,50,1668.996236,964.681486)">
            </g>
            <text x="992.846px" y="964.681px" style="font-family:'HelveticaNeue-MediumItalic', 'Helvetica Neue', sans-serif;font-weight:500;font-style:italic;font-size:50px;fill:rgb(138,1,1);">Implementation Speciﬁcation</text>
        </g>
        <g id="Product-Design" serif:id="Product Design">
            <g>
                <path d="M2049.114,786.824L693.169,788.909" style="fill:none;fill-rule:nonzero;"/>
                <path d="M2002.263,802.521L2049.114,786.824L2002.215,771.271L2002.263,802.521Z" style="fill:rgb(95,16,16);fill-opacity:0.51;fill-rule:nonzero;"/>
                <path d="M708.818,804.51C700.194,804.523 693.182,797.533 693.169,788.909C693.155,780.286 700.146,773.273 708.77,773.26C717.393,773.247 724.405,780.237 724.419,788.861C724.432,797.485 717.441,804.497 708.818,804.51Z" style="fill:rgb(95,16,16);fill-opacity:0.51;fill-rule:nonzero;"/>
                <path d="M2011.614,786.881C1812.602,787.187 882.947,788.617 718.169,788.871" style="fill:none;fill-rule:nonzero;stroke:rgb(95,16,16);stroke-opacity:0.51;stroke-width:10.42px;stroke-dasharray:41.667,20.833,0,0,0,0;"/>
            </g>
            <g transform="matrix(50,0,0,50,1139.135756,767.386304)">
            </g>
            <text x="780.736px" y="767.386px" style="font-family:'HelveticaNeue-MediumItalic', 'Helvetica Neue', sans-serif;font-weight:500;font-style:italic;font-size:50px;fill:rgb(138,1,1);">Product Design</text>
        </g>
        <g id="Produt-Requirements" serif:id="Produt Requirements">
            <g>
                <path d="M2040.833,590.265L633.769,587.371" style="fill:none;fill-rule:nonzero;"/>
                <path d="M1993.926,605.793L2040.833,590.265L1993.991,574.543L1993.926,605.793Z" style="fill:rgb(95,16,16);fill-opacity:0.51;fill-rule:nonzero;"/>
                <path d="M649.362,603.028C640.738,603.01 633.751,595.995 633.769,587.371C633.786,578.747 640.802,571.76 649.426,571.778C658.049,571.796 665.036,578.812 665.019,587.435C665.001,596.059 657.985,603.046 649.362,603.028Z" style="fill:rgb(95,16,16);fill-opacity:0.51;fill-rule:nonzero;"/>
                <path d="M2003.333,590.187C1799.473,589.768 827.51,587.769 658.769,587.422" style="fill:none;fill-rule:nonzero;stroke:rgb(95,16,16);stroke-opacity:0.51;stroke-width:10.42px;stroke-dasharray:41.667,20.833,0,0,0,0;"/>
            </g>
            <g transform="matrix(50,0,0,50,1236.352775,565.612875)">
            </g>
            <text x="714.053px" y="565.613px" style="font-family:'HelveticaNeue-MediumItalic', 'Helvetica Neue', sans-serif;font-weight:500;font-style:italic;font-size:50px;fill:rgb(138,1,1);">Product Requirements</text>
        </g>
        <g>
            <path d="M664.249,184.913L635.884,184.913" style="fill:none;fill-rule:nonzero;"/>
            <path d="M651.509,200.538C642.885,200.538 635.884,193.537 635.884,184.913C635.884,176.289 642.885,169.288 651.509,169.288C660.132,169.288 667.134,176.289 667.134,184.913C667.134,193.537 660.132,200.538 651.509,200.538Z" style="fill:rgb(95,16,16);fill-opacity:0.51;fill-rule:nonzero;"/>
            <path d="M664.249,184.913L660.884,184.913" style="fill:none;fill-rule:nonzero;stroke:rgb(95,16,16);stroke-opacity:0.51;stroke-width:10.42px;stroke-dasharray:10.417,62.5,0,0,0,0;"/>
        </g>
        <g transform="matrix(50,0,0,50,1001.967597,144.638015)">
        </g>
        <text x="702.818px" y="144.638px" style="font-family:'HelveticaNeue-MediumItalic', 'Helvetica Neue', sans-serif;font-weight:500;font-style:italic;font-size:50px;fill:rgb(138,1,1);">Product Idea</text>
        <g id="Precision-Gap" serif:id="Precision Gap">
            <g>
                <path d="M1233.169,1181.507L876.584,1181.507" style="fill:none;fill-rule:nonzero;"/>
                <path d="M880.126,1195.674L880.126,1167.341" style="fill:none;fill-rule:nonzero;stroke:rgb(196,0,0);stroke-width:7.08px;stroke-miterlimit:10;"/>
                <path d="M1233.169,1181.507L880.126,1181.507" style="fill:none;fill-rule:nonzero;stroke:rgb(196,0,0);stroke-width:7.08px;"/>
            </g>
            <g>
                <path d="M1938.889,1181.507L1643.169,1181.507" style="fill:none;fill-rule:nonzero;"/>
                <path d="M1935.347,1195.674L1935.347,1167.341" style="fill:none;fill-rule:nonzero;stroke:rgb(196,0,0);stroke-width:7.08px;stroke-miterlimit:10;"/>
                <path d="M1935.347,1181.507L1643.169,1181.507" style="fill:none;fill-rule:nonzero;stroke:rgb(196,0,0);stroke-width:7.08px;"/>
            </g>
            <g>
                <path d="M1934.889,1181.507L1735.195,1181.507" style="fill:none;fill-rule:nonzero;"/>
                <path d="M1913.639,1197.445L1934.889,1181.507L1913.639,1165.57L1913.639,1197.445Z" style="fill:rgb(196,0,0);fill-rule:nonzero;"/>
                <path d="M1917.889,1181.507L1735.195,1181.507" style="fill:none;fill-rule:nonzero;stroke:rgb(196,0,0);stroke-width:7.08px;"/>
            </g>
            <g transform="matrix(58.333333,0,0,58.333333,1625.908228,1197.257426)">
            </g>
            <text x="1247.617px" y="1197.257px" style="font-family:'HelveticaNeue-Medium', 'Helvetica Neue', sans-serif;font-weight:500;font-size:58.333px;fill:rgb(196,0,0);">Pr<tspan x="1306.008px 1338.442px " y="1197.257px 1197.257px ">ec</tspan>ision Gap</text>
        </g>
        <g id="Natural---Formal" serif:id="Natural ➔ Formal">
            <rect x="1953.169" y="1048.399" width="220" height="93.9" style="fill:white;fill-opacity:0.6;"/>
            <g transform="matrix(1.100205,0,0,1.100205,-2518.941843,-659.034928)">
                <text x="4104.782px" y="1582.806px" style="font-family:'HelveticaNeue-BoldItalic', 'Helvetica Neue';font-weight:700;font-style:italic;font-size:37.872px;">Formal</text>
                <g transform="matrix(37.871723,0,0,37.871723,4257.31051,1621.776048)">
                </g>
                <text x="4077.799px" y="1621.776px" style="font-family:'HelveticaNeue-BoldItalic', 'Helvetica Neue';font-weight:700;font-style:italic;font-size:37.872px;">Language</text>
            </g>
            <g>
                <path d="M1947.195,1095.544L777.591,1095.544" style="fill:none;fill-rule:nonzero;"/>
                <path d="M1910.868,1107.653L1947.195,1095.544L1910.868,1083.435L1910.868,1107.653Z" style="fill-rule:nonzero;"/>
                <path d="M1918.133,1095.544L777.591,1095.544" style="fill:none;fill-rule:nonzero;stroke:black;stroke-width:2.02px;stroke-dasharray:12.109,12.109,0,0,0,0;"/>
            </g>
            <g transform="matrix(1.100205,0,0,1.100205,-3932.003899,-659.034928)">
                <text x="4100.938px" y="1582.806px" style="font-family:'HelveticaNeue-BoldItalic', 'Helvetica Neue';font-weight:700;font-style:italic;font-size:37.872px;">Natural</text>
                <g transform="matrix(37.871723,0,0,37.871723,4257.31051,1621.776048)">
                </g>
                <text x="4077.799px" y="1621.776px" style="font-family:'HelveticaNeue-BoldItalic', 'Helvetica Neue';font-weight:700;font-style:italic;font-size:37.872px;">Language</text>
            </g>
        </g>
    </g>
</svg>
